%TF.GenerationSoftware,KiCad,Pcbnew,(5.1.9)-1*%
%TF.CreationDate,2021-02-12T13:26:54-08:00*%
%TF.ProjectId,VFD,5646442e-6b69-4636-9164-5f7063625858,1.0*%
%TF.SameCoordinates,PX50e7ea0PY815a420*%
%TF.FileFunction,Copper,L2,Bot*%
%TF.FilePolarity,Positive*%
%FSLAX46Y46*%
G04 Gerber Fmt 4.6, Leading zero omitted, Abs format (unit mm)*
G04 Created by KiCad (PCBNEW (5.1.9)-1) date 2021-02-12 13:26:54*
%MOMM*%
%LPD*%
G01*
G04 APERTURE LIST*
%TA.AperFunction,ComponentPad*%
%ADD10C,4.000000*%
%TD*%
%TA.AperFunction,ComponentPad*%
%ADD11R,4.000000X4.000000*%
%TD*%
%TA.AperFunction,ComponentPad*%
%ADD12R,2.500000X4.500000*%
%TD*%
%TA.AperFunction,ComponentPad*%
%ADD13O,2.500000X4.500000*%
%TD*%
%TA.AperFunction,ComponentPad*%
%ADD14R,3.000000X3.000000*%
%TD*%
%TA.AperFunction,ComponentPad*%
%ADD15C,3.000000*%
%TD*%
%TA.AperFunction,ComponentPad*%
%ADD16O,1.700000X1.700000*%
%TD*%
%TA.AperFunction,ComponentPad*%
%ADD17R,1.700000X1.700000*%
%TD*%
%TA.AperFunction,ComponentPad*%
%ADD18C,3.100000*%
%TD*%
%TA.AperFunction,ComponentPad*%
%ADD19C,2.400000*%
%TD*%
%TA.AperFunction,ComponentPad*%
%ADD20R,2.000000X2.000000*%
%TD*%
%TA.AperFunction,ComponentPad*%
%ADD21C,2.000000*%
%TD*%
%TA.AperFunction,ViaPad*%
%ADD22C,0.800000*%
%TD*%
%TA.AperFunction,ViaPad*%
%ADD23C,1.200000*%
%TD*%
%TA.AperFunction,Conductor*%
%ADD24C,0.500000*%
%TD*%
%TA.AperFunction,Conductor*%
%ADD25C,0.254000*%
%TD*%
%TA.AperFunction,Conductor*%
%ADD26C,0.100000*%
%TD*%
G04 APERTURE END LIST*
%TO.P,J5,1*%
%TO.N,VOUT_B*%
%TA.AperFunction,ComponentPad*%
G36*
G01*
X91922000Y38196999D02*
X91922000Y40797001D01*
G75*
G02*
X92171999Y41047000I249999J0D01*
G01*
X94772001Y41047000D01*
G75*
G02*
X95022000Y40797001I0J-249999D01*
G01*
X95022000Y38196999D01*
G75*
G02*
X94772001Y37947000I-249999J0D01*
G01*
X92171999Y37947000D01*
G75*
G02*
X91922000Y38196999I0J249999D01*
G01*
G37*
%TD.AperFunction*%
%TD*%
%TO.P,J3,1*%
%TO.N,VOUT_A*%
%TA.AperFunction,ComponentPad*%
G36*
G01*
X63347000Y38196999D02*
X63347000Y40797001D01*
G75*
G02*
X63596999Y41047000I249999J0D01*
G01*
X66197001Y41047000D01*
G75*
G02*
X66447000Y40797001I0J-249999D01*
G01*
X66447000Y38196999D01*
G75*
G02*
X66197001Y37947000I-249999J0D01*
G01*
X63596999Y37947000D01*
G75*
G02*
X63347000Y38196999I0J249999D01*
G01*
G37*
%TD.AperFunction*%
%TD*%
D10*
%TO.P,C10,2*%
%TO.N,GND*%
X45466000Y59530000D03*
D11*
%TO.P,C10,1*%
%TO.N,VCC*%
X45466000Y49530000D03*
%TD*%
D12*
%TO.P,Q3,1*%
%TO.N,Net-(D5-Pad2)*%
X103610000Y33020000D03*
D13*
%TO.P,Q3,2*%
%TO.N,VCC*%
X98160000Y33020000D03*
%TO.P,Q3,3*%
%TO.N,VOUT_B*%
X92710000Y33020000D03*
%TD*%
D12*
%TO.P,Q4,1*%
%TO.N,Net-(D6-Pad2)*%
X123168000Y33020000D03*
D13*
%TO.P,Q4,2*%
%TO.N,VOUT_B*%
X117718000Y33020000D03*
%TO.P,Q4,3*%
%TO.N,GND*%
X112268000Y33020000D03*
%TD*%
%TO.P,Q2,3*%
%TO.N,GND*%
X73152000Y33020000D03*
%TO.P,Q2,2*%
%TO.N,VOUT_A*%
X78602000Y33020000D03*
D12*
%TO.P,Q2,1*%
%TO.N,Net-(D3-Pad2)*%
X84052000Y33020000D03*
%TD*%
D13*
%TO.P,Q1,3*%
%TO.N,VOUT_A*%
X53594000Y33020000D03*
%TO.P,Q1,2*%
%TO.N,VCC*%
X59044000Y33020000D03*
D12*
%TO.P,Q1,1*%
%TO.N,Net-(D2-Pad2)*%
X64494000Y33020000D03*
%TD*%
D14*
%TO.P,PS1,1*%
%TO.N,NEUT*%
X14986000Y15450000D03*
D15*
%TO.P,PS1,4*%
%TO.N,+12V*%
X53486000Y12700000D03*
%TO.P,PS1,2*%
%TO.N,Net-(D4-Pad2)*%
X14986000Y4700000D03*
%TO.P,PS1,3*%
%TO.N,GND*%
X53486000Y4700000D03*
%TD*%
D16*
%TO.P,J4,4*%
%TO.N,+12V*%
X95758000Y3302000D03*
%TO.P,J4,3*%
%TO.N,DRV_A*%
X98298000Y3302000D03*
%TO.P,J4,2*%
%TO.N,DRV_B*%
X100838000Y3302000D03*
D17*
%TO.P,J4,1*%
%TO.N,GND*%
X103378000Y3302000D03*
%TD*%
D18*
%TO.P,J2,2*%
%TO.N,LINE*%
X2890000Y46228000D03*
%TO.P,J2,1*%
%TO.N,NEUT*%
%TA.AperFunction,ComponentPad*%
G36*
G01*
X10440000Y47528001D02*
X10440000Y44927999D01*
G75*
G02*
X10190001Y44678000I-249999J0D01*
G01*
X7589999Y44678000D01*
G75*
G02*
X7340000Y44927999I0J249999D01*
G01*
X7340000Y47528001D01*
G75*
G02*
X7589999Y47778000I249999J0D01*
G01*
X10190001Y47778000D01*
G75*
G02*
X10440000Y47528001I0J-249999D01*
G01*
G37*
%TD.AperFunction*%
%TD*%
D16*
%TO.P,J1,6*%
%TO.N,GND*%
X89154000Y3302000D03*
%TO.P,J1,5*%
%TO.N,DRV_C*%
X86614000Y3302000D03*
%TO.P,J1,4*%
%TO.N,DRV_B*%
X84074000Y3302000D03*
%TO.P,J1,3*%
%TO.N,DRV_D*%
X81534000Y3302000D03*
%TO.P,J1,2*%
%TO.N,DRV_A*%
X78994000Y3302000D03*
D17*
%TO.P,J1,1*%
%TO.N,+12V*%
X76454000Y3302000D03*
%TD*%
D19*
%TO.P,F1,2*%
%TO.N,LINE*%
X4318000Y39540000D03*
%TO.P,F1,1*%
%TO.N,Net-(D4-Pad2)*%
X4318000Y2540000D03*
%TD*%
D20*
%TO.P,D4,1*%
%TO.N,GND*%
X18942000Y33020000D03*
D21*
%TO.P,D4,2*%
%TO.N,Net-(D4-Pad2)*%
X26442000Y33020000D03*
%TO.P,D4,3*%
%TO.N,NEUT*%
X33942000Y33020000D03*
%TO.P,D4,4*%
%TO.N,VCC*%
X43942000Y33020000D03*
%TD*%
D10*
%TO.P,C13,2*%
%TO.N,GND*%
X112522000Y59530000D03*
D11*
%TO.P,C13,1*%
%TO.N,VCC*%
X112522000Y49530000D03*
%TD*%
D10*
%TO.P,C11,2*%
%TO.N,GND*%
X78994000Y59530000D03*
D11*
%TO.P,C11,1*%
%TO.N,VCC*%
X78994000Y49530000D03*
%TD*%
D22*
%TO.N,GND*%
X67564000Y5080000D03*
D23*
X97790000Y63500000D03*
X97790000Y65659000D03*
X97790000Y67818000D03*
X64262000Y63500000D03*
X64262000Y65659000D03*
X64262000Y67818000D03*
D22*
X2794000Y33020000D03*
X7874000Y33020000D03*
X7874000Y25400000D03*
X2794000Y25400000D03*
X2794000Y17780000D03*
X10414000Y17780000D03*
X15494000Y30480000D03*
X15494000Y35560000D03*
X37338000Y25400000D03*
X45720000Y25400000D03*
X54356000Y23622000D03*
X36830000Y20320000D03*
X35814000Y15240000D03*
X37592000Y10160000D03*
X35814000Y5080000D03*
X43434000Y5080000D03*
X45212000Y10160000D03*
X43434000Y15240000D03*
X44704000Y20320000D03*
X51054000Y20320000D03*
X48514000Y15240000D03*
X61214000Y26670000D03*
X56134000Y17780000D03*
X65024000Y7620000D03*
X70104000Y7620000D03*
X71374000Y3810000D03*
X65024000Y2540000D03*
X48514000Y3810000D03*
X58674000Y8890000D03*
X5334000Y29210000D03*
X5334000Y21590000D03*
X9144000Y21590000D03*
X4064000Y66040000D03*
X11684000Y66040000D03*
X19304000Y66040000D03*
X26924000Y66040000D03*
X34544000Y66040000D03*
X34544000Y58420000D03*
X34544000Y50800000D03*
X26924000Y50800000D03*
X19304000Y50800000D03*
X11684000Y50800000D03*
X4064000Y50800000D03*
X4064000Y58420000D03*
X11684000Y58420000D03*
X19304000Y58420000D03*
X26924000Y58420000D03*
X72644000Y27940000D03*
X78740000Y27940000D03*
X75184000Y25400000D03*
X72644000Y22860000D03*
X86614000Y26670000D03*
X91694000Y26670000D03*
X94488000Y22860000D03*
X96520000Y15494000D03*
X89154000Y13970000D03*
X84328000Y15494000D03*
X88900000Y19558000D03*
X93726000Y18796000D03*
X112014000Y27940000D03*
X117856000Y27940000D03*
X114554000Y25400000D03*
X112014000Y22860000D03*
X125222000Y27940000D03*
X125984000Y19050000D03*
X125730000Y8890000D03*
X125730000Y3810000D03*
X120142000Y3810000D03*
X113538000Y7620000D03*
X100584000Y7620000D03*
X94234000Y10160000D03*
X86614000Y10160000D03*
X82804000Y10160000D03*
X78994000Y10160000D03*
X70104000Y17272000D03*
X68834000Y17272000D03*
X66294000Y17272000D03*
X66548000Y11938000D03*
X72644000Y17272000D03*
X92456000Y10160000D03*
X96012000Y10160000D03*
X124714000Y14732000D03*
X125984000Y24130000D03*
X106680000Y5842000D03*
X99822000Y27686000D03*
X113538000Y3810000D03*
X120142000Y7620000D03*
X122174000Y11430000D03*
X109220000Y17272000D03*
X107950000Y17272000D03*
X111760000Y17272000D03*
X105410000Y17272000D03*
%TO.N,+12V*%
X74803000Y16256000D03*
X74803000Y11430000D03*
X113919000Y16256000D03*
X113919000Y11430000D03*
X101856000Y10033000D03*
%TO.N,VOUT_A*%
X70104000Y19812000D03*
X62865000Y20320000D03*
X61214000Y16256000D03*
D23*
X62357000Y42037000D03*
X62357000Y36957000D03*
X67437000Y42037000D03*
X67437000Y36957000D03*
X64897000Y42037000D03*
X64897000Y36957000D03*
X67437000Y39497000D03*
X62357000Y39497000D03*
D22*
%TO.N,VOUT_B*%
X101981000Y20320000D03*
X100330000Y16256000D03*
X109220000Y19812000D03*
D23*
X108585000Y38227000D03*
X107315000Y36957000D03*
X104775000Y42037000D03*
X103505000Y36957000D03*
X107315000Y42037000D03*
X103505000Y38227000D03*
X103505000Y40767000D03*
X108585000Y36957000D03*
X104775000Y36957000D03*
X103505000Y39497000D03*
X108585000Y40767000D03*
X108585000Y42037000D03*
X108585000Y39497000D03*
X103505000Y42037000D03*
X106045000Y36957000D03*
X106045000Y42037000D03*
X104775000Y40767000D03*
X106045000Y40767000D03*
X107315000Y40767000D03*
X107315000Y39497000D03*
X106045000Y39497000D03*
X104775000Y39497000D03*
X104775000Y38227000D03*
X106045000Y38227000D03*
X107315000Y38227000D03*
D22*
%TO.N,DRV_C*%
X106680000Y14732000D03*
X95758000Y5461000D03*
%TO.N,DRV_B*%
X68834000Y14732000D03*
X75565000Y8001000D03*
%TO.N,DRV_D*%
X105156000Y11938000D03*
X85344000Y5461000D03*
%TO.N,DRV_A*%
X67564000Y14732000D03*
X77216000Y6731000D03*
X84455000Y6731000D03*
%TD*%
D24*
%TO.N,+12V*%
X74803000Y16256000D02*
X74803000Y11430000D01*
X113919000Y16256000D02*
X113919000Y11430000D01*
X95758000Y3302000D02*
X94234000Y4826000D01*
X94234000Y4826000D02*
X94234000Y5969000D01*
X98298000Y10033000D02*
X101856000Y10033000D01*
X94234000Y5969000D02*
X98298000Y10033000D01*
%TO.N,VOUT_A*%
X63373000Y19812000D02*
X62865000Y20320000D01*
X70104000Y19812000D02*
X63373000Y19812000D01*
X53594000Y29591000D02*
X58229500Y24955500D01*
X53594000Y33020000D02*
X53594000Y29591000D01*
X61214000Y17653000D02*
X63373000Y19812000D01*
X61214000Y16256000D02*
X61214000Y17653000D01*
X58229500Y24955500D02*
X62865000Y20320000D01*
%TO.N,VOUT_B*%
X109220000Y19812000D02*
X102489000Y19812000D01*
X102489000Y19812000D02*
X101981000Y20320000D01*
X92710000Y33020000D02*
X92710000Y29591000D01*
X100330000Y16256000D02*
X100330000Y17653000D01*
X100330000Y17653000D02*
X102489000Y19812000D01*
X92710000Y29591000D02*
X101981000Y20320000D01*
%TO.N,DRV_C*%
X106680000Y14732000D02*
X106680000Y10922000D01*
X95758000Y5461000D02*
X101219000Y5461000D01*
X101219000Y5461000D02*
X106680000Y10922000D01*
%TO.N,DRV_B*%
X75565000Y8001000D02*
X75565000Y8001000D01*
X75565000Y8001000D02*
X68834000Y14732000D01*
%TO.N,DRV_D*%
X81534000Y3302000D02*
X81534000Y4572000D01*
X81534000Y4572000D02*
X82423000Y5461000D01*
X82423000Y5461000D02*
X85344000Y5461000D01*
X85344000Y5461000D02*
X85344000Y5461000D01*
X91821000Y11938000D02*
X85344000Y5461000D01*
X105156000Y11938000D02*
X91821000Y11938000D01*
%TO.N,DRV_A*%
X67564000Y14097000D02*
X74930000Y6731000D01*
X67564000Y14732000D02*
X67564000Y14097000D01*
X74930000Y6731000D02*
X74930000Y6731000D01*
X74930000Y6731000D02*
X84455000Y6731000D01*
X84455000Y6731000D02*
X84455000Y6731000D01*
%TD*%
D25*
%TO.N,GND*%
X127610001Y660000D02*
X5692870Y660000D01*
X5801376Y732501D01*
X6125499Y1056624D01*
X6380160Y1437752D01*
X6555574Y1861239D01*
X6645000Y2310811D01*
X6645000Y2769189D01*
X6555574Y3218761D01*
X6380160Y3642248D01*
X6125499Y4023376D01*
X5801376Y4347499D01*
X5420248Y4602160D01*
X4996761Y4777574D01*
X4547189Y4867000D01*
X4088811Y4867000D01*
X3639239Y4777574D01*
X3215752Y4602160D01*
X2834624Y4347499D01*
X2510501Y4023376D01*
X2255840Y3642248D01*
X2080426Y3218761D01*
X1991000Y2769189D01*
X1991000Y2310811D01*
X2080426Y1861239D01*
X2255840Y1437752D01*
X2510501Y1056624D01*
X2834624Y732501D01*
X2943130Y660000D01*
X660000Y660000D01*
X660000Y4958737D01*
X12359000Y4958737D01*
X12359000Y4441263D01*
X12459954Y3933732D01*
X12657983Y3455649D01*
X12945476Y3025385D01*
X13311385Y2659476D01*
X13741649Y2371983D01*
X14219732Y2173954D01*
X14727263Y2073000D01*
X15244737Y2073000D01*
X15752268Y2173954D01*
X16230351Y2371983D01*
X16660615Y2659476D01*
X17026524Y3025385D01*
X17314017Y3455649D01*
X17512046Y3933732D01*
X17613000Y4441263D01*
X17613000Y4958737D01*
X17512046Y5466268D01*
X17314017Y5944351D01*
X17026524Y6374615D01*
X16660615Y6740524D01*
X16230351Y7028017D01*
X15752268Y7226046D01*
X15244737Y7327000D01*
X14727263Y7327000D01*
X14219732Y7226046D01*
X13741649Y7028017D01*
X13311385Y6740524D01*
X12945476Y6374615D01*
X12657983Y5944351D01*
X12459954Y5466268D01*
X12359000Y4958737D01*
X660000Y4958737D01*
X660000Y16950000D01*
X12353547Y16950000D01*
X12353547Y13950000D01*
X12375307Y13729069D01*
X12439750Y13516629D01*
X12544400Y13320843D01*
X12685235Y13149235D01*
X12856843Y13008400D01*
X13052629Y12903750D01*
X13265069Y12839307D01*
X13486000Y12817547D01*
X16486000Y12817547D01*
X16706931Y12839307D01*
X16919371Y12903750D01*
X16931585Y12910279D01*
X51351000Y12910279D01*
X51351000Y12489721D01*
X51433047Y12077244D01*
X51593988Y11688698D01*
X51827637Y11339017D01*
X52125017Y11041637D01*
X52474698Y10807988D01*
X52863244Y10647047D01*
X53275721Y10565000D01*
X53696279Y10565000D01*
X54108756Y10647047D01*
X54497302Y10807988D01*
X54846983Y11041637D01*
X55144363Y11339017D01*
X55378012Y11688698D01*
X55538953Y12077244D01*
X55621000Y12489721D01*
X55621000Y12910279D01*
X55538953Y13322756D01*
X55378012Y13711302D01*
X55144363Y14060983D01*
X54846983Y14358363D01*
X54497302Y14592012D01*
X54108756Y14752953D01*
X53696279Y14835000D01*
X53275721Y14835000D01*
X52863244Y14752953D01*
X52474698Y14592012D01*
X52125017Y14358363D01*
X51827637Y14060983D01*
X51593988Y13711302D01*
X51433047Y13322756D01*
X51351000Y12910279D01*
X16931585Y12910279D01*
X17115157Y13008400D01*
X17286765Y13149235D01*
X17427600Y13320843D01*
X17532250Y13516629D01*
X17596693Y13729069D01*
X17618453Y13950000D01*
X17618453Y16950000D01*
X17596693Y17170931D01*
X17532250Y17383371D01*
X17427600Y17579157D01*
X17286765Y17750765D01*
X17115157Y17891600D01*
X16919371Y17996250D01*
X16706931Y18060693D01*
X16486000Y18082453D01*
X13486000Y18082453D01*
X13265069Y18060693D01*
X13052629Y17996250D01*
X12856843Y17891600D01*
X12685235Y17750765D01*
X12544400Y17579157D01*
X12439750Y17383371D01*
X12375307Y17170931D01*
X12353547Y16950000D01*
X660000Y16950000D01*
X660000Y33229491D01*
X24315000Y33229491D01*
X24315000Y32810509D01*
X24396739Y32399577D01*
X24557077Y32012488D01*
X24789851Y31664116D01*
X25086116Y31367851D01*
X25434488Y31135077D01*
X25821577Y30974739D01*
X26232509Y30893000D01*
X26651491Y30893000D01*
X27062423Y30974739D01*
X27449512Y31135077D01*
X27797884Y31367851D01*
X28094149Y31664116D01*
X28326923Y32012488D01*
X28487261Y32399577D01*
X28569000Y32810509D01*
X28569000Y33229491D01*
X31815000Y33229491D01*
X31815000Y32810509D01*
X31896739Y32399577D01*
X32057077Y32012488D01*
X32289851Y31664116D01*
X32586116Y31367851D01*
X32934488Y31135077D01*
X33321577Y30974739D01*
X33732509Y30893000D01*
X34151491Y30893000D01*
X34562423Y30974739D01*
X34949512Y31135077D01*
X35297884Y31367851D01*
X35594149Y31664116D01*
X35826923Y32012488D01*
X35987261Y32399577D01*
X36069000Y32810509D01*
X36069000Y33229491D01*
X41815000Y33229491D01*
X41815000Y32810509D01*
X41896739Y32399577D01*
X42057077Y32012488D01*
X42289851Y31664116D01*
X42586116Y31367851D01*
X42934488Y31135077D01*
X43321577Y30974739D01*
X43732509Y30893000D01*
X44151491Y30893000D01*
X44562423Y30974739D01*
X44949512Y31135077D01*
X45297884Y31367851D01*
X45594149Y31664116D01*
X45826923Y32012488D01*
X45987261Y32399577D01*
X46069000Y32810509D01*
X46069000Y33229491D01*
X45987261Y33640423D01*
X45826923Y34027512D01*
X45594149Y34375884D01*
X45297884Y34672149D01*
X44949512Y34904923D01*
X44562423Y35065261D01*
X44151491Y35147000D01*
X43732509Y35147000D01*
X43321577Y35065261D01*
X42934488Y34904923D01*
X42586116Y34672149D01*
X42289851Y34375884D01*
X42057077Y34027512D01*
X41896739Y33640423D01*
X41815000Y33229491D01*
X36069000Y33229491D01*
X35987261Y33640423D01*
X35826923Y34027512D01*
X35594149Y34375884D01*
X35297884Y34672149D01*
X34949512Y34904923D01*
X34562423Y35065261D01*
X34151491Y35147000D01*
X33732509Y35147000D01*
X33321577Y35065261D01*
X32934488Y34904923D01*
X32586116Y34672149D01*
X32289851Y34375884D01*
X32057077Y34027512D01*
X31896739Y33640423D01*
X31815000Y33229491D01*
X28569000Y33229491D01*
X28487261Y33640423D01*
X28326923Y34027512D01*
X28094149Y34375884D01*
X27797884Y34672149D01*
X27449512Y34904923D01*
X27062423Y35065261D01*
X26651491Y35147000D01*
X26232509Y35147000D01*
X25821577Y35065261D01*
X25434488Y34904923D01*
X25086116Y34672149D01*
X24789851Y34375884D01*
X24557077Y34027512D01*
X24396739Y33640423D01*
X24315000Y33229491D01*
X660000Y33229491D01*
X660000Y39769189D01*
X1991000Y39769189D01*
X1991000Y39310811D01*
X2080426Y38861239D01*
X2255840Y38437752D01*
X2510501Y38056624D01*
X2834624Y37732501D01*
X3215752Y37477840D01*
X3639239Y37302426D01*
X4088811Y37213000D01*
X4547189Y37213000D01*
X4996761Y37302426D01*
X5420248Y37477840D01*
X5801376Y37732501D01*
X6125499Y38056624D01*
X6380160Y38437752D01*
X6555574Y38861239D01*
X6645000Y39310811D01*
X6645000Y39769189D01*
X6555574Y40218761D01*
X6380160Y40642248D01*
X6125499Y41023376D01*
X5801376Y41347499D01*
X5420248Y41602160D01*
X4996761Y41777574D01*
X4547189Y41867000D01*
X4088811Y41867000D01*
X3639239Y41777574D01*
X3215752Y41602160D01*
X2834624Y41347499D01*
X2510501Y41023376D01*
X2255840Y40642248D01*
X2080426Y40218761D01*
X1991000Y39769189D01*
X660000Y39769189D01*
X660000Y42672000D01*
X50689000Y42672000D01*
X50689000Y30480000D01*
X50710655Y30260133D01*
X50774788Y30048716D01*
X50878934Y29853872D01*
X51019091Y29683091D01*
X51189872Y29542934D01*
X51384716Y29438788D01*
X51596133Y29374655D01*
X51816000Y29353000D01*
X52233779Y29353000D01*
X52236925Y29321061D01*
X52315663Y29061496D01*
X52315664Y29061495D01*
X52443528Y28822279D01*
X52615604Y28612603D01*
X52668146Y28569483D01*
X57303642Y23933986D01*
X57303647Y23933982D01*
X61420470Y19817158D01*
X61423492Y19809863D01*
X60288145Y18674516D01*
X60235604Y18631397D01*
X60192486Y18578857D01*
X60063528Y18421721D01*
X59935663Y18182504D01*
X59856925Y17922939D01*
X59830338Y17653000D01*
X59837000Y17585360D01*
X59837000Y16921872D01*
X59745681Y16701410D01*
X59687000Y16406396D01*
X59687000Y16105604D01*
X59745681Y15810590D01*
X59860790Y15532694D01*
X60027901Y15282594D01*
X60240594Y15069901D01*
X60490694Y14902790D01*
X60768590Y14787681D01*
X61063604Y14729000D01*
X61364396Y14729000D01*
X61659410Y14787681D01*
X61771086Y14833939D01*
X66529000Y14833939D01*
X66529000Y14630061D01*
X66568774Y14430102D01*
X66646795Y14241744D01*
X66679000Y14193546D01*
X66679000Y14140469D01*
X66674719Y14097000D01*
X66679000Y14053531D01*
X66679000Y14053523D01*
X66689196Y13950000D01*
X66691805Y13923510D01*
X66742412Y13756687D01*
X66824590Y13602941D01*
X66907468Y13501954D01*
X66907471Y13501951D01*
X66935184Y13468183D01*
X66968952Y13440470D01*
X74273470Y6135951D01*
X74301183Y6102183D01*
X74334951Y6074470D01*
X74334953Y6074468D01*
X74406452Y6015790D01*
X74435941Y5991589D01*
X74589687Y5909411D01*
X74756510Y5858805D01*
X74886523Y5846000D01*
X74886533Y5846000D01*
X74929999Y5841719D01*
X74973465Y5846000D01*
X76677546Y5846000D01*
X76725744Y5813795D01*
X76914102Y5735774D01*
X77114061Y5696000D01*
X77317939Y5696000D01*
X77517898Y5735774D01*
X77706256Y5813795D01*
X77754454Y5846000D01*
X81556421Y5846000D01*
X80938951Y5228529D01*
X80905184Y5200817D01*
X80877471Y5167049D01*
X80877468Y5167046D01*
X80794590Y5066059D01*
X80712412Y4912313D01*
X80661805Y4745490D01*
X80644719Y4572000D01*
X80649001Y4528522D01*
X80649001Y4496657D01*
X80587368Y4455475D01*
X80380525Y4248632D01*
X80264000Y4074240D01*
X80147475Y4248632D01*
X79940632Y4455475D01*
X79697411Y4617990D01*
X79427158Y4729932D01*
X79140260Y4787000D01*
X78847740Y4787000D01*
X78560842Y4729932D01*
X78290589Y4617990D01*
X78047368Y4455475D01*
X77915513Y4323620D01*
X77893502Y4396180D01*
X77834537Y4506494D01*
X77755185Y4603185D01*
X77658494Y4682537D01*
X77548180Y4741502D01*
X77428482Y4777812D01*
X77304000Y4790072D01*
X75604000Y4790072D01*
X75479518Y4777812D01*
X75359820Y4741502D01*
X75249506Y4682537D01*
X75152815Y4603185D01*
X75073463Y4506494D01*
X75014498Y4396180D01*
X74978188Y4276482D01*
X74965928Y4152000D01*
X74965928Y2452000D01*
X74978188Y2327518D01*
X75014498Y2207820D01*
X75073463Y2097506D01*
X75152815Y2000815D01*
X75249506Y1921463D01*
X75359820Y1862498D01*
X75479518Y1826188D01*
X75604000Y1813928D01*
X77304000Y1813928D01*
X77428482Y1826188D01*
X77548180Y1862498D01*
X77658494Y1921463D01*
X77755185Y2000815D01*
X77834537Y2097506D01*
X77893502Y2207820D01*
X77915513Y2280380D01*
X78047368Y2148525D01*
X78290589Y1986010D01*
X78560842Y1874068D01*
X78847740Y1817000D01*
X79140260Y1817000D01*
X79427158Y1874068D01*
X79697411Y1986010D01*
X79940632Y2148525D01*
X80147475Y2355368D01*
X80264000Y2529760D01*
X80380525Y2355368D01*
X80587368Y2148525D01*
X80830589Y1986010D01*
X81100842Y1874068D01*
X81387740Y1817000D01*
X81680260Y1817000D01*
X81967158Y1874068D01*
X82237411Y1986010D01*
X82480632Y2148525D01*
X82687475Y2355368D01*
X82804000Y2529760D01*
X82920525Y2355368D01*
X83127368Y2148525D01*
X83370589Y1986010D01*
X83640842Y1874068D01*
X83927740Y1817000D01*
X84220260Y1817000D01*
X84507158Y1874068D01*
X84777411Y1986010D01*
X85020632Y2148525D01*
X85227475Y2355368D01*
X85344000Y2529760D01*
X85460525Y2355368D01*
X85667368Y2148525D01*
X85910589Y1986010D01*
X86180842Y1874068D01*
X86467740Y1817000D01*
X86760260Y1817000D01*
X87047158Y1874068D01*
X87317411Y1986010D01*
X87560632Y2148525D01*
X87767475Y2355368D01*
X87929990Y2598589D01*
X88041932Y2868842D01*
X88099000Y3155740D01*
X88099000Y3448260D01*
X88041932Y3735158D01*
X87929990Y4005411D01*
X87767475Y4248632D01*
X87560632Y4455475D01*
X87317411Y4617990D01*
X87047158Y4729932D01*
X86760260Y4787000D01*
X86467740Y4787000D01*
X86180842Y4729932D01*
X86001905Y4655814D01*
X86003774Y4657063D01*
X86147937Y4801226D01*
X86261205Y4970744D01*
X86339226Y5159102D01*
X86350535Y5215957D01*
X92187579Y11053000D01*
X101678650Y11053000D01*
X101554102Y11028226D01*
X101365744Y10950205D01*
X101317546Y10918000D01*
X98341469Y10918000D01*
X98298000Y10922281D01*
X98254531Y10918000D01*
X98254523Y10918000D01*
X98139306Y10906652D01*
X98124509Y10905195D01*
X98073903Y10889843D01*
X97957687Y10854589D01*
X97803941Y10772411D01*
X97702953Y10689532D01*
X97702951Y10689530D01*
X97669183Y10661817D01*
X97641470Y10628049D01*
X93638951Y6625530D01*
X93605184Y6597817D01*
X93577471Y6564049D01*
X93577468Y6564046D01*
X93494590Y6463059D01*
X93412412Y6309313D01*
X93361805Y6142490D01*
X93344719Y5969000D01*
X93349001Y5925522D01*
X93349000Y4869470D01*
X93344719Y4826000D01*
X93349000Y4782531D01*
X93349000Y4782524D01*
X93358848Y4682537D01*
X93361805Y4652510D01*
X93365779Y4639411D01*
X93412411Y4485688D01*
X93494589Y4331942D01*
X93605183Y4197183D01*
X93638956Y4169466D01*
X94287461Y3520960D01*
X94273000Y3448260D01*
X94273000Y3155740D01*
X94330068Y2868842D01*
X94442010Y2598589D01*
X94604525Y2355368D01*
X94811368Y2148525D01*
X95054589Y1986010D01*
X95324842Y1874068D01*
X95611740Y1817000D01*
X95904260Y1817000D01*
X96191158Y1874068D01*
X96461411Y1986010D01*
X96704632Y2148525D01*
X96911475Y2355368D01*
X97028000Y2529760D01*
X97144525Y2355368D01*
X97351368Y2148525D01*
X97594589Y1986010D01*
X97864842Y1874068D01*
X98151740Y1817000D01*
X98444260Y1817000D01*
X98731158Y1874068D01*
X99001411Y1986010D01*
X99244632Y2148525D01*
X99451475Y2355368D01*
X99568000Y2529760D01*
X99684525Y2355368D01*
X99891368Y2148525D01*
X100134589Y1986010D01*
X100404842Y1874068D01*
X100691740Y1817000D01*
X100984260Y1817000D01*
X101271158Y1874068D01*
X101541411Y1986010D01*
X101784632Y2148525D01*
X101991475Y2355368D01*
X102153990Y2598589D01*
X102265932Y2868842D01*
X102323000Y3155740D01*
X102323000Y3448260D01*
X102265932Y3735158D01*
X102153990Y4005411D01*
X101991475Y4248632D01*
X101784632Y4455475D01*
X101541411Y4617990D01*
X101519127Y4627220D01*
X101559313Y4639411D01*
X101713059Y4721589D01*
X101847817Y4832183D01*
X101875534Y4865956D01*
X107275049Y10265470D01*
X107308817Y10293183D01*
X107419411Y10427941D01*
X107501589Y10581687D01*
X107552195Y10748510D01*
X107565000Y10878523D01*
X107565000Y10878533D01*
X107569281Y10921999D01*
X107565000Y10965465D01*
X107565000Y14193546D01*
X107597205Y14241744D01*
X107675226Y14430102D01*
X107715000Y14630061D01*
X107715000Y14833939D01*
X107675226Y15033898D01*
X107597205Y15222256D01*
X107483937Y15391774D01*
X107339774Y15535937D01*
X107170256Y15649205D01*
X106981898Y15727226D01*
X106781939Y15767000D01*
X106578061Y15767000D01*
X106378102Y15727226D01*
X106189744Y15649205D01*
X106020226Y15535937D01*
X105876063Y15391774D01*
X105762795Y15222256D01*
X105684774Y15033898D01*
X105645000Y14833939D01*
X105645000Y14630061D01*
X105684774Y14430102D01*
X105762795Y14241744D01*
X105795000Y14193545D01*
X105795001Y12755817D01*
X105646256Y12855205D01*
X105457898Y12933226D01*
X105257939Y12973000D01*
X105054061Y12973000D01*
X104854102Y12933226D01*
X104665744Y12855205D01*
X104617546Y12823000D01*
X91864465Y12823000D01*
X91820999Y12827281D01*
X91777533Y12823000D01*
X91777523Y12823000D01*
X91647510Y12810195D01*
X91480687Y12759589D01*
X91326941Y12677411D01*
X91326939Y12677410D01*
X91326940Y12677410D01*
X91225953Y12594532D01*
X91225951Y12594530D01*
X91192183Y12566817D01*
X91164470Y12533049D01*
X85485746Y6854324D01*
X85450226Y7032898D01*
X85372205Y7221256D01*
X85258937Y7390774D01*
X85114774Y7534937D01*
X84945256Y7648205D01*
X84756898Y7726226D01*
X84556939Y7766000D01*
X84353061Y7766000D01*
X84153102Y7726226D01*
X83964744Y7648205D01*
X83916546Y7616000D01*
X77754454Y7616000D01*
X77706256Y7648205D01*
X77517898Y7726226D01*
X77317939Y7766000D01*
X77114061Y7766000D01*
X76914102Y7726226D01*
X76725744Y7648205D01*
X76677546Y7616000D01*
X76525804Y7616000D01*
X76560226Y7699102D01*
X76600000Y7899061D01*
X76600000Y8102939D01*
X76560226Y8302898D01*
X76482205Y8491256D01*
X76368937Y8660774D01*
X76224774Y8804937D01*
X76055256Y8918205D01*
X75866898Y8996226D01*
X75810044Y9007535D01*
X74288754Y10528824D01*
X74312744Y10512795D01*
X74501102Y10434774D01*
X74701061Y10395000D01*
X74904939Y10395000D01*
X75104898Y10434774D01*
X75293256Y10512795D01*
X75462774Y10626063D01*
X75606937Y10770226D01*
X75720205Y10939744D01*
X75798226Y11128102D01*
X75838000Y11328061D01*
X75838000Y11531939D01*
X75798226Y11731898D01*
X75720205Y11920256D01*
X75688000Y11968454D01*
X75688000Y15717546D01*
X75720205Y15765744D01*
X75798226Y15954102D01*
X75838000Y16154061D01*
X75838000Y16357939D01*
X75798226Y16557898D01*
X75720205Y16746256D01*
X75606937Y16915774D01*
X75462774Y17059937D01*
X75293256Y17173205D01*
X75104898Y17251226D01*
X74904939Y17291000D01*
X74701061Y17291000D01*
X74501102Y17251226D01*
X74312744Y17173205D01*
X74143226Y17059937D01*
X73999063Y16915774D01*
X73885795Y16746256D01*
X73807774Y16557898D01*
X73768000Y16357939D01*
X73768000Y16154061D01*
X73807774Y15954102D01*
X73885795Y15765744D01*
X73918000Y15717546D01*
X73918001Y11968456D01*
X73885795Y11920256D01*
X73807774Y11731898D01*
X73768000Y11531939D01*
X73768000Y11328061D01*
X73807774Y11128102D01*
X73885795Y10939744D01*
X73901824Y10915754D01*
X69840535Y14977043D01*
X69829226Y15033898D01*
X69751205Y15222256D01*
X69637937Y15391774D01*
X69493774Y15535937D01*
X69324256Y15649205D01*
X69135898Y15727226D01*
X68935939Y15767000D01*
X68732061Y15767000D01*
X68532102Y15727226D01*
X68343744Y15649205D01*
X68199000Y15552490D01*
X68054256Y15649205D01*
X67865898Y15727226D01*
X67665939Y15767000D01*
X67462061Y15767000D01*
X67262102Y15727226D01*
X67073744Y15649205D01*
X66904226Y15535937D01*
X66760063Y15391774D01*
X66646795Y15222256D01*
X66568774Y15033898D01*
X66529000Y14833939D01*
X61771086Y14833939D01*
X61937306Y14902790D01*
X62187406Y15069901D01*
X62400099Y15282594D01*
X62567210Y15532694D01*
X62682319Y15810590D01*
X62741000Y16105604D01*
X62741000Y16406396D01*
X62682319Y16701410D01*
X62591000Y16921872D01*
X62591000Y17082629D01*
X63943372Y18435000D01*
X69438128Y18435000D01*
X69658590Y18343681D01*
X69953604Y18285000D01*
X70254396Y18285000D01*
X70549410Y18343681D01*
X70827306Y18458790D01*
X71077406Y18625901D01*
X71290099Y18838594D01*
X71457210Y19088694D01*
X71572319Y19366590D01*
X71631000Y19661604D01*
X71631000Y19962396D01*
X71572319Y20257410D01*
X71457210Y20535306D01*
X71290099Y20785406D01*
X71077406Y20998099D01*
X70827306Y21165210D01*
X70549410Y21280319D01*
X70254396Y21339000D01*
X69953604Y21339000D01*
X69658590Y21280319D01*
X69438128Y21189000D01*
X64120861Y21189000D01*
X64051099Y21293406D01*
X63838406Y21506099D01*
X63588306Y21673210D01*
X63367842Y21764530D01*
X59251018Y25881353D01*
X59251014Y25881358D01*
X55718944Y29413427D01*
X55828310Y29449510D01*
X56020581Y29558332D01*
X56187927Y29702574D01*
X56323918Y29876691D01*
X56423327Y30073994D01*
X56482334Y30286898D01*
X56702227Y31551280D01*
X56837313Y31105961D01*
X57058034Y30693021D01*
X57355075Y30331075D01*
X57717020Y30034034D01*
X58129960Y29813313D01*
X58578027Y29677393D01*
X59044000Y29631499D01*
X59509972Y29677393D01*
X59958039Y29813313D01*
X60370979Y30034034D01*
X60732925Y30331075D01*
X61029966Y30693020D01*
X61250687Y31105960D01*
X61386607Y31554027D01*
X61421000Y31903228D01*
X61421000Y34136772D01*
X61386607Y34485973D01*
X61250687Y34934040D01*
X61111201Y35195000D01*
X62605928Y35195000D01*
X62605928Y30770000D01*
X62618188Y30645518D01*
X62654498Y30525820D01*
X62713463Y30415506D01*
X62792815Y30318815D01*
X62889506Y30239463D01*
X62999820Y30180498D01*
X63119518Y30144188D01*
X63244000Y30131928D01*
X65744000Y30131928D01*
X65868482Y30144188D01*
X65988180Y30180498D01*
X66098494Y30239463D01*
X66195185Y30318815D01*
X66274537Y30415506D01*
X66333502Y30525820D01*
X66369812Y30645518D01*
X66382072Y30770000D01*
X66382072Y34136772D01*
X76225000Y34136772D01*
X76225000Y31903229D01*
X76259393Y31554028D01*
X76395313Y31105961D01*
X76616034Y30693021D01*
X76913075Y30331075D01*
X77275020Y30034034D01*
X77687960Y29813313D01*
X78136027Y29677393D01*
X78602000Y29631499D01*
X79067972Y29677393D01*
X79516039Y29813313D01*
X79928979Y30034034D01*
X80290925Y30331075D01*
X80587966Y30693020D01*
X80808687Y31105960D01*
X80944607Y31554027D01*
X80979000Y31903228D01*
X80979000Y34136772D01*
X80944607Y34485973D01*
X80808687Y34934040D01*
X80629113Y35270000D01*
X82163928Y35270000D01*
X82163928Y30770000D01*
X82176188Y30645518D01*
X82212498Y30525820D01*
X82271463Y30415506D01*
X82350815Y30318815D01*
X82447506Y30239463D01*
X82557820Y30180498D01*
X82677518Y30144188D01*
X82802000Y30131928D01*
X85302000Y30131928D01*
X85426482Y30144188D01*
X85546180Y30180498D01*
X85656494Y30239463D01*
X85753185Y30318815D01*
X85832537Y30415506D01*
X85891502Y30525820D01*
X85927812Y30645518D01*
X85940072Y30770000D01*
X85940072Y35270000D01*
X85927812Y35394482D01*
X85891502Y35514180D01*
X85832537Y35624494D01*
X85753185Y35721185D01*
X85656494Y35800537D01*
X85546180Y35859502D01*
X85426482Y35895812D01*
X85302000Y35908072D01*
X82802000Y35908072D01*
X82677518Y35895812D01*
X82557820Y35859502D01*
X82447506Y35800537D01*
X82350815Y35721185D01*
X82271463Y35624494D01*
X82212498Y35514180D01*
X82176188Y35394482D01*
X82163928Y35270000D01*
X80629113Y35270000D01*
X80587966Y35346980D01*
X80290925Y35708925D01*
X79928980Y36005966D01*
X79516040Y36226687D01*
X79067973Y36362607D01*
X78602000Y36408501D01*
X78136028Y36362607D01*
X77687961Y36226687D01*
X77275021Y36005966D01*
X76913076Y35708925D01*
X76616035Y35346980D01*
X76395313Y34934040D01*
X76259393Y34485973D01*
X76225000Y34136772D01*
X66382072Y34136772D01*
X66382072Y35195000D01*
X68072000Y35195000D01*
X68291867Y35216655D01*
X68503284Y35280788D01*
X68698128Y35384934D01*
X68868909Y35525091D01*
X69009066Y35695872D01*
X69113212Y35890716D01*
X69177345Y36102133D01*
X69199000Y36322000D01*
X69199000Y42672000D01*
X89805000Y42672000D01*
X89805000Y30480000D01*
X89826655Y30260133D01*
X89890788Y30048716D01*
X89994934Y29853872D01*
X90135091Y29683091D01*
X90305872Y29542934D01*
X90500716Y29438788D01*
X90712133Y29374655D01*
X90932000Y29353000D01*
X91349779Y29353000D01*
X91352925Y29321061D01*
X91431663Y29061496D01*
X91431664Y29061495D01*
X91559528Y28822279D01*
X91731604Y28612603D01*
X91784146Y28569483D01*
X100536470Y19817158D01*
X100539492Y19809863D01*
X99404145Y18674516D01*
X99351604Y18631397D01*
X99308486Y18578857D01*
X99179528Y18421721D01*
X99051663Y18182504D01*
X98972925Y17922939D01*
X98946338Y17653000D01*
X98953000Y17585360D01*
X98953000Y16921872D01*
X98861681Y16701410D01*
X98803000Y16406396D01*
X98803000Y16105604D01*
X98861681Y15810590D01*
X98976790Y15532694D01*
X99143901Y15282594D01*
X99356594Y15069901D01*
X99606694Y14902790D01*
X99884590Y14787681D01*
X100179604Y14729000D01*
X100480396Y14729000D01*
X100775410Y14787681D01*
X101053306Y14902790D01*
X101303406Y15069901D01*
X101516099Y15282594D01*
X101683210Y15532694D01*
X101798319Y15810590D01*
X101857000Y16105604D01*
X101857000Y16357939D01*
X112884000Y16357939D01*
X112884000Y16154061D01*
X112923774Y15954102D01*
X113001795Y15765744D01*
X113034000Y15717546D01*
X113034001Y11968456D01*
X113001795Y11920256D01*
X112923774Y11731898D01*
X112884000Y11531939D01*
X112884000Y11328061D01*
X112923774Y11128102D01*
X113001795Y10939744D01*
X113115063Y10770226D01*
X113259226Y10626063D01*
X113428744Y10512795D01*
X113617102Y10434774D01*
X113817061Y10395000D01*
X114020939Y10395000D01*
X114220898Y10434774D01*
X114409256Y10512795D01*
X114578774Y10626063D01*
X114722937Y10770226D01*
X114836205Y10939744D01*
X114914226Y11128102D01*
X114954000Y11328061D01*
X114954000Y11531939D01*
X114914226Y11731898D01*
X114836205Y11920256D01*
X114804000Y11968454D01*
X114804000Y15717546D01*
X114836205Y15765744D01*
X114914226Y15954102D01*
X114954000Y16154061D01*
X114954000Y16357939D01*
X114914226Y16557898D01*
X114836205Y16746256D01*
X114722937Y16915774D01*
X114578774Y17059937D01*
X114409256Y17173205D01*
X114220898Y17251226D01*
X114020939Y17291000D01*
X113817061Y17291000D01*
X113617102Y17251226D01*
X113428744Y17173205D01*
X113259226Y17059937D01*
X113115063Y16915774D01*
X113001795Y16746256D01*
X112923774Y16557898D01*
X112884000Y16357939D01*
X101857000Y16357939D01*
X101857000Y16406396D01*
X101798319Y16701410D01*
X101707000Y16921872D01*
X101707000Y17082629D01*
X103059372Y18435000D01*
X108554128Y18435000D01*
X108774590Y18343681D01*
X109069604Y18285000D01*
X109370396Y18285000D01*
X109665410Y18343681D01*
X109943306Y18458790D01*
X110193406Y18625901D01*
X110406099Y18838594D01*
X110573210Y19088694D01*
X110688319Y19366590D01*
X110747000Y19661604D01*
X110747000Y19962396D01*
X110688319Y20257410D01*
X110573210Y20535306D01*
X110406099Y20785406D01*
X110193406Y20998099D01*
X109943306Y21165210D01*
X109665410Y21280319D01*
X109370396Y21339000D01*
X109069604Y21339000D01*
X108774590Y21280319D01*
X108554128Y21189000D01*
X103236861Y21189000D01*
X103167099Y21293406D01*
X102954406Y21506099D01*
X102704306Y21673210D01*
X102483842Y21764530D01*
X94834944Y29413427D01*
X94944310Y29449510D01*
X95136581Y29558332D01*
X95303927Y29702574D01*
X95439918Y29876691D01*
X95539327Y30073994D01*
X95598334Y30286898D01*
X95818227Y31551280D01*
X95953313Y31105961D01*
X96174034Y30693021D01*
X96471075Y30331075D01*
X96833020Y30034034D01*
X97245960Y29813313D01*
X97694027Y29677393D01*
X98160000Y29631499D01*
X98625972Y29677393D01*
X99074039Y29813313D01*
X99486979Y30034034D01*
X99848925Y30331075D01*
X100145966Y30693020D01*
X100366687Y31105960D01*
X100502607Y31554027D01*
X100537000Y31903228D01*
X100537000Y34136772D01*
X100502607Y34485973D01*
X100366687Y34934040D01*
X100227201Y35195000D01*
X101721928Y35195000D01*
X101721928Y30770000D01*
X101734188Y30645518D01*
X101770498Y30525820D01*
X101829463Y30415506D01*
X101908815Y30318815D01*
X102005506Y30239463D01*
X102115820Y30180498D01*
X102235518Y30144188D01*
X102360000Y30131928D01*
X104860000Y30131928D01*
X104984482Y30144188D01*
X105104180Y30180498D01*
X105214494Y30239463D01*
X105311185Y30318815D01*
X105390537Y30415506D01*
X105449502Y30525820D01*
X105485812Y30645518D01*
X105498072Y30770000D01*
X105498072Y34136772D01*
X115341000Y34136772D01*
X115341000Y31903229D01*
X115375393Y31554028D01*
X115511313Y31105961D01*
X115732034Y30693021D01*
X116029075Y30331075D01*
X116391020Y30034034D01*
X116803960Y29813313D01*
X117252027Y29677393D01*
X117718000Y29631499D01*
X118183972Y29677393D01*
X118632039Y29813313D01*
X119044979Y30034034D01*
X119406925Y30331075D01*
X119703966Y30693020D01*
X119924687Y31105960D01*
X120060607Y31554027D01*
X120095000Y31903228D01*
X120095000Y34136772D01*
X120060607Y34485973D01*
X119924687Y34934040D01*
X119745113Y35270000D01*
X121279928Y35270000D01*
X121279928Y30770000D01*
X121292188Y30645518D01*
X121328498Y30525820D01*
X121387463Y30415506D01*
X121466815Y30318815D01*
X121563506Y30239463D01*
X121673820Y30180498D01*
X121793518Y30144188D01*
X121918000Y30131928D01*
X124418000Y30131928D01*
X124542482Y30144188D01*
X124662180Y30180498D01*
X124772494Y30239463D01*
X124869185Y30318815D01*
X124948537Y30415506D01*
X125007502Y30525820D01*
X125043812Y30645518D01*
X125056072Y30770000D01*
X125056072Y35270000D01*
X125043812Y35394482D01*
X125007502Y35514180D01*
X124948537Y35624494D01*
X124869185Y35721185D01*
X124772494Y35800537D01*
X124662180Y35859502D01*
X124542482Y35895812D01*
X124418000Y35908072D01*
X121918000Y35908072D01*
X121793518Y35895812D01*
X121673820Y35859502D01*
X121563506Y35800537D01*
X121466815Y35721185D01*
X121387463Y35624494D01*
X121328498Y35514180D01*
X121292188Y35394482D01*
X121279928Y35270000D01*
X119745113Y35270000D01*
X119703966Y35346980D01*
X119406925Y35708925D01*
X119044980Y36005966D01*
X118632040Y36226687D01*
X118183973Y36362607D01*
X117718000Y36408501D01*
X117252028Y36362607D01*
X116803961Y36226687D01*
X116391021Y36005966D01*
X116029076Y35708925D01*
X115732035Y35346980D01*
X115511313Y34934040D01*
X115375393Y34485973D01*
X115341000Y34136772D01*
X105498072Y34136772D01*
X105498072Y35195000D01*
X109220000Y35195000D01*
X109439867Y35216655D01*
X109651284Y35280788D01*
X109846128Y35384934D01*
X110016909Y35525091D01*
X110157066Y35695872D01*
X110261212Y35890716D01*
X110325345Y36102133D01*
X110347000Y36322000D01*
X110347000Y42672000D01*
X110325345Y42891867D01*
X110261212Y43103284D01*
X110157066Y43298128D01*
X110016909Y43468909D01*
X109846128Y43609066D01*
X109651284Y43713212D01*
X109439867Y43777345D01*
X109220000Y43799000D01*
X90932000Y43799000D01*
X90712133Y43777345D01*
X90500716Y43713212D01*
X90305872Y43609066D01*
X90135091Y43468909D01*
X89994934Y43298128D01*
X89890788Y43103284D01*
X89826655Y42891867D01*
X89805000Y42672000D01*
X69199000Y42672000D01*
X69177345Y42891867D01*
X69113212Y43103284D01*
X69009066Y43298128D01*
X68868909Y43468909D01*
X68698128Y43609066D01*
X68503284Y43713212D01*
X68291867Y43777345D01*
X68072000Y43799000D01*
X51816000Y43799000D01*
X51596133Y43777345D01*
X51384716Y43713212D01*
X51189872Y43609066D01*
X51019091Y43468909D01*
X50878934Y43298128D01*
X50774788Y43103284D01*
X50710655Y42891867D01*
X50689000Y42672000D01*
X660000Y42672000D01*
X660000Y44746958D01*
X810638Y44521512D01*
X1183512Y44148638D01*
X1621965Y43855673D01*
X2109148Y43653875D01*
X2626338Y43551000D01*
X3153662Y43551000D01*
X3670852Y43653875D01*
X4158035Y43855673D01*
X4596488Y44148638D01*
X4969362Y44521512D01*
X5262327Y44959965D01*
X5464125Y45447148D01*
X5567000Y45964338D01*
X5567000Y46491662D01*
X5464125Y47008852D01*
X5262327Y47496035D01*
X5240968Y47528001D01*
X6207547Y47528001D01*
X6207547Y44927999D01*
X6234110Y44658296D01*
X6312780Y44398958D01*
X6440532Y44159950D01*
X6612458Y43950458D01*
X6821950Y43778532D01*
X7060958Y43650780D01*
X7320296Y43572110D01*
X7589999Y43545547D01*
X10190001Y43545547D01*
X10459704Y43572110D01*
X10719042Y43650780D01*
X10958050Y43778532D01*
X11167542Y43950458D01*
X11339468Y44159950D01*
X11467220Y44398958D01*
X11545890Y44658296D01*
X11572453Y44927999D01*
X11572453Y47528001D01*
X11545890Y47797704D01*
X11467220Y48057042D01*
X11339468Y48296050D01*
X11167542Y48505542D01*
X10958050Y48677468D01*
X10719042Y48805220D01*
X10459704Y48883890D01*
X10190001Y48910453D01*
X7589999Y48910453D01*
X7320296Y48883890D01*
X7060958Y48805220D01*
X6821950Y48677468D01*
X6612458Y48505542D01*
X6440532Y48296050D01*
X6312780Y48057042D01*
X6234110Y47797704D01*
X6207547Y47528001D01*
X5240968Y47528001D01*
X4969362Y47934488D01*
X4596488Y48307362D01*
X4158035Y48600327D01*
X3670852Y48802125D01*
X3153662Y48905000D01*
X2626338Y48905000D01*
X2109148Y48802125D01*
X1621965Y48600327D01*
X1183512Y48307362D01*
X810638Y47934488D01*
X660000Y47709042D01*
X660000Y51530000D01*
X42333547Y51530000D01*
X42333547Y47530000D01*
X42355307Y47309069D01*
X42419750Y47096629D01*
X42524400Y46900843D01*
X42665235Y46729235D01*
X42836843Y46588400D01*
X43032629Y46483750D01*
X43245069Y46419307D01*
X43466000Y46397547D01*
X47466000Y46397547D01*
X47686931Y46419307D01*
X47899371Y46483750D01*
X48095157Y46588400D01*
X48266765Y46729235D01*
X48407600Y46900843D01*
X48512250Y47096629D01*
X48576693Y47309069D01*
X48598453Y47530000D01*
X48598453Y51530000D01*
X75861547Y51530000D01*
X75861547Y47530000D01*
X75883307Y47309069D01*
X75947750Y47096629D01*
X76052400Y46900843D01*
X76193235Y46729235D01*
X76364843Y46588400D01*
X76560629Y46483750D01*
X76773069Y46419307D01*
X76994000Y46397547D01*
X80994000Y46397547D01*
X81214931Y46419307D01*
X81427371Y46483750D01*
X81623157Y46588400D01*
X81794765Y46729235D01*
X81935600Y46900843D01*
X82040250Y47096629D01*
X82104693Y47309069D01*
X82126453Y47530000D01*
X82126453Y51530000D01*
X109389547Y51530000D01*
X109389547Y47530000D01*
X109411307Y47309069D01*
X109475750Y47096629D01*
X109580400Y46900843D01*
X109721235Y46729235D01*
X109892843Y46588400D01*
X110088629Y46483750D01*
X110301069Y46419307D01*
X110522000Y46397547D01*
X114522000Y46397547D01*
X114742931Y46419307D01*
X114955371Y46483750D01*
X115151157Y46588400D01*
X115322765Y46729235D01*
X115463600Y46900843D01*
X115568250Y47096629D01*
X115632693Y47309069D01*
X115654453Y47530000D01*
X115654453Y51530000D01*
X115632693Y51750931D01*
X115568250Y51963371D01*
X115463600Y52159157D01*
X115322765Y52330765D01*
X115151157Y52471600D01*
X114955371Y52576250D01*
X114742931Y52640693D01*
X114522000Y52662453D01*
X110522000Y52662453D01*
X110301069Y52640693D01*
X110088629Y52576250D01*
X109892843Y52471600D01*
X109721235Y52330765D01*
X109580400Y52159157D01*
X109475750Y51963371D01*
X109411307Y51750931D01*
X109389547Y51530000D01*
X82126453Y51530000D01*
X82104693Y51750931D01*
X82040250Y51963371D01*
X81935600Y52159157D01*
X81794765Y52330765D01*
X81623157Y52471600D01*
X81427371Y52576250D01*
X81214931Y52640693D01*
X80994000Y52662453D01*
X76994000Y52662453D01*
X76773069Y52640693D01*
X76560629Y52576250D01*
X76364843Y52471600D01*
X76193235Y52330765D01*
X76052400Y52159157D01*
X75947750Y51963371D01*
X75883307Y51750931D01*
X75861547Y51530000D01*
X48598453Y51530000D01*
X48576693Y51750931D01*
X48512250Y51963371D01*
X48407600Y52159157D01*
X48266765Y52330765D01*
X48095157Y52471600D01*
X47899371Y52576250D01*
X47686931Y52640693D01*
X47466000Y52662453D01*
X43466000Y52662453D01*
X43245069Y52640693D01*
X43032629Y52576250D01*
X42836843Y52471600D01*
X42665235Y52330765D01*
X42524400Y52159157D01*
X42419750Y51963371D01*
X42355307Y51750931D01*
X42333547Y51530000D01*
X660000Y51530000D01*
X660000Y69698000D01*
X127610000Y69698000D01*
X127610001Y660000D01*
%TA.AperFunction,Conductor*%
D26*
G36*
X127610001Y660000D02*
G01*
X5692870Y660000D01*
X5801376Y732501D01*
X6125499Y1056624D01*
X6380160Y1437752D01*
X6555574Y1861239D01*
X6645000Y2310811D01*
X6645000Y2769189D01*
X6555574Y3218761D01*
X6380160Y3642248D01*
X6125499Y4023376D01*
X5801376Y4347499D01*
X5420248Y4602160D01*
X4996761Y4777574D01*
X4547189Y4867000D01*
X4088811Y4867000D01*
X3639239Y4777574D01*
X3215752Y4602160D01*
X2834624Y4347499D01*
X2510501Y4023376D01*
X2255840Y3642248D01*
X2080426Y3218761D01*
X1991000Y2769189D01*
X1991000Y2310811D01*
X2080426Y1861239D01*
X2255840Y1437752D01*
X2510501Y1056624D01*
X2834624Y732501D01*
X2943130Y660000D01*
X660000Y660000D01*
X660000Y4958737D01*
X12359000Y4958737D01*
X12359000Y4441263D01*
X12459954Y3933732D01*
X12657983Y3455649D01*
X12945476Y3025385D01*
X13311385Y2659476D01*
X13741649Y2371983D01*
X14219732Y2173954D01*
X14727263Y2073000D01*
X15244737Y2073000D01*
X15752268Y2173954D01*
X16230351Y2371983D01*
X16660615Y2659476D01*
X17026524Y3025385D01*
X17314017Y3455649D01*
X17512046Y3933732D01*
X17613000Y4441263D01*
X17613000Y4958737D01*
X17512046Y5466268D01*
X17314017Y5944351D01*
X17026524Y6374615D01*
X16660615Y6740524D01*
X16230351Y7028017D01*
X15752268Y7226046D01*
X15244737Y7327000D01*
X14727263Y7327000D01*
X14219732Y7226046D01*
X13741649Y7028017D01*
X13311385Y6740524D01*
X12945476Y6374615D01*
X12657983Y5944351D01*
X12459954Y5466268D01*
X12359000Y4958737D01*
X660000Y4958737D01*
X660000Y16950000D01*
X12353547Y16950000D01*
X12353547Y13950000D01*
X12375307Y13729069D01*
X12439750Y13516629D01*
X12544400Y13320843D01*
X12685235Y13149235D01*
X12856843Y13008400D01*
X13052629Y12903750D01*
X13265069Y12839307D01*
X13486000Y12817547D01*
X16486000Y12817547D01*
X16706931Y12839307D01*
X16919371Y12903750D01*
X16931585Y12910279D01*
X51351000Y12910279D01*
X51351000Y12489721D01*
X51433047Y12077244D01*
X51593988Y11688698D01*
X51827637Y11339017D01*
X52125017Y11041637D01*
X52474698Y10807988D01*
X52863244Y10647047D01*
X53275721Y10565000D01*
X53696279Y10565000D01*
X54108756Y10647047D01*
X54497302Y10807988D01*
X54846983Y11041637D01*
X55144363Y11339017D01*
X55378012Y11688698D01*
X55538953Y12077244D01*
X55621000Y12489721D01*
X55621000Y12910279D01*
X55538953Y13322756D01*
X55378012Y13711302D01*
X55144363Y14060983D01*
X54846983Y14358363D01*
X54497302Y14592012D01*
X54108756Y14752953D01*
X53696279Y14835000D01*
X53275721Y14835000D01*
X52863244Y14752953D01*
X52474698Y14592012D01*
X52125017Y14358363D01*
X51827637Y14060983D01*
X51593988Y13711302D01*
X51433047Y13322756D01*
X51351000Y12910279D01*
X16931585Y12910279D01*
X17115157Y13008400D01*
X17286765Y13149235D01*
X17427600Y13320843D01*
X17532250Y13516629D01*
X17596693Y13729069D01*
X17618453Y13950000D01*
X17618453Y16950000D01*
X17596693Y17170931D01*
X17532250Y17383371D01*
X17427600Y17579157D01*
X17286765Y17750765D01*
X17115157Y17891600D01*
X16919371Y17996250D01*
X16706931Y18060693D01*
X16486000Y18082453D01*
X13486000Y18082453D01*
X13265069Y18060693D01*
X13052629Y17996250D01*
X12856843Y17891600D01*
X12685235Y17750765D01*
X12544400Y17579157D01*
X12439750Y17383371D01*
X12375307Y17170931D01*
X12353547Y16950000D01*
X660000Y16950000D01*
X660000Y33229491D01*
X24315000Y33229491D01*
X24315000Y32810509D01*
X24396739Y32399577D01*
X24557077Y32012488D01*
X24789851Y31664116D01*
X25086116Y31367851D01*
X25434488Y31135077D01*
X25821577Y30974739D01*
X26232509Y30893000D01*
X26651491Y30893000D01*
X27062423Y30974739D01*
X27449512Y31135077D01*
X27797884Y31367851D01*
X28094149Y31664116D01*
X28326923Y32012488D01*
X28487261Y32399577D01*
X28569000Y32810509D01*
X28569000Y33229491D01*
X31815000Y33229491D01*
X31815000Y32810509D01*
X31896739Y32399577D01*
X32057077Y32012488D01*
X32289851Y31664116D01*
X32586116Y31367851D01*
X32934488Y31135077D01*
X33321577Y30974739D01*
X33732509Y30893000D01*
X34151491Y30893000D01*
X34562423Y30974739D01*
X34949512Y31135077D01*
X35297884Y31367851D01*
X35594149Y31664116D01*
X35826923Y32012488D01*
X35987261Y32399577D01*
X36069000Y32810509D01*
X36069000Y33229491D01*
X41815000Y33229491D01*
X41815000Y32810509D01*
X41896739Y32399577D01*
X42057077Y32012488D01*
X42289851Y31664116D01*
X42586116Y31367851D01*
X42934488Y31135077D01*
X43321577Y30974739D01*
X43732509Y30893000D01*
X44151491Y30893000D01*
X44562423Y30974739D01*
X44949512Y31135077D01*
X45297884Y31367851D01*
X45594149Y31664116D01*
X45826923Y32012488D01*
X45987261Y32399577D01*
X46069000Y32810509D01*
X46069000Y33229491D01*
X45987261Y33640423D01*
X45826923Y34027512D01*
X45594149Y34375884D01*
X45297884Y34672149D01*
X44949512Y34904923D01*
X44562423Y35065261D01*
X44151491Y35147000D01*
X43732509Y35147000D01*
X43321577Y35065261D01*
X42934488Y34904923D01*
X42586116Y34672149D01*
X42289851Y34375884D01*
X42057077Y34027512D01*
X41896739Y33640423D01*
X41815000Y33229491D01*
X36069000Y33229491D01*
X35987261Y33640423D01*
X35826923Y34027512D01*
X35594149Y34375884D01*
X35297884Y34672149D01*
X34949512Y34904923D01*
X34562423Y35065261D01*
X34151491Y35147000D01*
X33732509Y35147000D01*
X33321577Y35065261D01*
X32934488Y34904923D01*
X32586116Y34672149D01*
X32289851Y34375884D01*
X32057077Y34027512D01*
X31896739Y33640423D01*
X31815000Y33229491D01*
X28569000Y33229491D01*
X28487261Y33640423D01*
X28326923Y34027512D01*
X28094149Y34375884D01*
X27797884Y34672149D01*
X27449512Y34904923D01*
X27062423Y35065261D01*
X26651491Y35147000D01*
X26232509Y35147000D01*
X25821577Y35065261D01*
X25434488Y34904923D01*
X25086116Y34672149D01*
X24789851Y34375884D01*
X24557077Y34027512D01*
X24396739Y33640423D01*
X24315000Y33229491D01*
X660000Y33229491D01*
X660000Y39769189D01*
X1991000Y39769189D01*
X1991000Y39310811D01*
X2080426Y38861239D01*
X2255840Y38437752D01*
X2510501Y38056624D01*
X2834624Y37732501D01*
X3215752Y37477840D01*
X3639239Y37302426D01*
X4088811Y37213000D01*
X4547189Y37213000D01*
X4996761Y37302426D01*
X5420248Y37477840D01*
X5801376Y37732501D01*
X6125499Y38056624D01*
X6380160Y38437752D01*
X6555574Y38861239D01*
X6645000Y39310811D01*
X6645000Y39769189D01*
X6555574Y40218761D01*
X6380160Y40642248D01*
X6125499Y41023376D01*
X5801376Y41347499D01*
X5420248Y41602160D01*
X4996761Y41777574D01*
X4547189Y41867000D01*
X4088811Y41867000D01*
X3639239Y41777574D01*
X3215752Y41602160D01*
X2834624Y41347499D01*
X2510501Y41023376D01*
X2255840Y40642248D01*
X2080426Y40218761D01*
X1991000Y39769189D01*
X660000Y39769189D01*
X660000Y42672000D01*
X50689000Y42672000D01*
X50689000Y30480000D01*
X50710655Y30260133D01*
X50774788Y30048716D01*
X50878934Y29853872D01*
X51019091Y29683091D01*
X51189872Y29542934D01*
X51384716Y29438788D01*
X51596133Y29374655D01*
X51816000Y29353000D01*
X52233779Y29353000D01*
X52236925Y29321061D01*
X52315663Y29061496D01*
X52315664Y29061495D01*
X52443528Y28822279D01*
X52615604Y28612603D01*
X52668146Y28569483D01*
X57303642Y23933986D01*
X57303647Y23933982D01*
X61420470Y19817158D01*
X61423492Y19809863D01*
X60288145Y18674516D01*
X60235604Y18631397D01*
X60192486Y18578857D01*
X60063528Y18421721D01*
X59935663Y18182504D01*
X59856925Y17922939D01*
X59830338Y17653000D01*
X59837000Y17585360D01*
X59837000Y16921872D01*
X59745681Y16701410D01*
X59687000Y16406396D01*
X59687000Y16105604D01*
X59745681Y15810590D01*
X59860790Y15532694D01*
X60027901Y15282594D01*
X60240594Y15069901D01*
X60490694Y14902790D01*
X60768590Y14787681D01*
X61063604Y14729000D01*
X61364396Y14729000D01*
X61659410Y14787681D01*
X61771086Y14833939D01*
X66529000Y14833939D01*
X66529000Y14630061D01*
X66568774Y14430102D01*
X66646795Y14241744D01*
X66679000Y14193546D01*
X66679000Y14140469D01*
X66674719Y14097000D01*
X66679000Y14053531D01*
X66679000Y14053523D01*
X66689196Y13950000D01*
X66691805Y13923510D01*
X66742412Y13756687D01*
X66824590Y13602941D01*
X66907468Y13501954D01*
X66907471Y13501951D01*
X66935184Y13468183D01*
X66968952Y13440470D01*
X74273470Y6135951D01*
X74301183Y6102183D01*
X74334951Y6074470D01*
X74334953Y6074468D01*
X74406452Y6015790D01*
X74435941Y5991589D01*
X74589687Y5909411D01*
X74756510Y5858805D01*
X74886523Y5846000D01*
X74886533Y5846000D01*
X74929999Y5841719D01*
X74973465Y5846000D01*
X76677546Y5846000D01*
X76725744Y5813795D01*
X76914102Y5735774D01*
X77114061Y5696000D01*
X77317939Y5696000D01*
X77517898Y5735774D01*
X77706256Y5813795D01*
X77754454Y5846000D01*
X81556421Y5846000D01*
X80938951Y5228529D01*
X80905184Y5200817D01*
X80877471Y5167049D01*
X80877468Y5167046D01*
X80794590Y5066059D01*
X80712412Y4912313D01*
X80661805Y4745490D01*
X80644719Y4572000D01*
X80649001Y4528522D01*
X80649001Y4496657D01*
X80587368Y4455475D01*
X80380525Y4248632D01*
X80264000Y4074240D01*
X80147475Y4248632D01*
X79940632Y4455475D01*
X79697411Y4617990D01*
X79427158Y4729932D01*
X79140260Y4787000D01*
X78847740Y4787000D01*
X78560842Y4729932D01*
X78290589Y4617990D01*
X78047368Y4455475D01*
X77915513Y4323620D01*
X77893502Y4396180D01*
X77834537Y4506494D01*
X77755185Y4603185D01*
X77658494Y4682537D01*
X77548180Y4741502D01*
X77428482Y4777812D01*
X77304000Y4790072D01*
X75604000Y4790072D01*
X75479518Y4777812D01*
X75359820Y4741502D01*
X75249506Y4682537D01*
X75152815Y4603185D01*
X75073463Y4506494D01*
X75014498Y4396180D01*
X74978188Y4276482D01*
X74965928Y4152000D01*
X74965928Y2452000D01*
X74978188Y2327518D01*
X75014498Y2207820D01*
X75073463Y2097506D01*
X75152815Y2000815D01*
X75249506Y1921463D01*
X75359820Y1862498D01*
X75479518Y1826188D01*
X75604000Y1813928D01*
X77304000Y1813928D01*
X77428482Y1826188D01*
X77548180Y1862498D01*
X77658494Y1921463D01*
X77755185Y2000815D01*
X77834537Y2097506D01*
X77893502Y2207820D01*
X77915513Y2280380D01*
X78047368Y2148525D01*
X78290589Y1986010D01*
X78560842Y1874068D01*
X78847740Y1817000D01*
X79140260Y1817000D01*
X79427158Y1874068D01*
X79697411Y1986010D01*
X79940632Y2148525D01*
X80147475Y2355368D01*
X80264000Y2529760D01*
X80380525Y2355368D01*
X80587368Y2148525D01*
X80830589Y1986010D01*
X81100842Y1874068D01*
X81387740Y1817000D01*
X81680260Y1817000D01*
X81967158Y1874068D01*
X82237411Y1986010D01*
X82480632Y2148525D01*
X82687475Y2355368D01*
X82804000Y2529760D01*
X82920525Y2355368D01*
X83127368Y2148525D01*
X83370589Y1986010D01*
X83640842Y1874068D01*
X83927740Y1817000D01*
X84220260Y1817000D01*
X84507158Y1874068D01*
X84777411Y1986010D01*
X85020632Y2148525D01*
X85227475Y2355368D01*
X85344000Y2529760D01*
X85460525Y2355368D01*
X85667368Y2148525D01*
X85910589Y1986010D01*
X86180842Y1874068D01*
X86467740Y1817000D01*
X86760260Y1817000D01*
X87047158Y1874068D01*
X87317411Y1986010D01*
X87560632Y2148525D01*
X87767475Y2355368D01*
X87929990Y2598589D01*
X88041932Y2868842D01*
X88099000Y3155740D01*
X88099000Y3448260D01*
X88041932Y3735158D01*
X87929990Y4005411D01*
X87767475Y4248632D01*
X87560632Y4455475D01*
X87317411Y4617990D01*
X87047158Y4729932D01*
X86760260Y4787000D01*
X86467740Y4787000D01*
X86180842Y4729932D01*
X86001905Y4655814D01*
X86003774Y4657063D01*
X86147937Y4801226D01*
X86261205Y4970744D01*
X86339226Y5159102D01*
X86350535Y5215957D01*
X92187579Y11053000D01*
X101678650Y11053000D01*
X101554102Y11028226D01*
X101365744Y10950205D01*
X101317546Y10918000D01*
X98341469Y10918000D01*
X98298000Y10922281D01*
X98254531Y10918000D01*
X98254523Y10918000D01*
X98139306Y10906652D01*
X98124509Y10905195D01*
X98073903Y10889843D01*
X97957687Y10854589D01*
X97803941Y10772411D01*
X97702953Y10689532D01*
X97702951Y10689530D01*
X97669183Y10661817D01*
X97641470Y10628049D01*
X93638951Y6625530D01*
X93605184Y6597817D01*
X93577471Y6564049D01*
X93577468Y6564046D01*
X93494590Y6463059D01*
X93412412Y6309313D01*
X93361805Y6142490D01*
X93344719Y5969000D01*
X93349001Y5925522D01*
X93349000Y4869470D01*
X93344719Y4826000D01*
X93349000Y4782531D01*
X93349000Y4782524D01*
X93358848Y4682537D01*
X93361805Y4652510D01*
X93365779Y4639411D01*
X93412411Y4485688D01*
X93494589Y4331942D01*
X93605183Y4197183D01*
X93638956Y4169466D01*
X94287461Y3520960D01*
X94273000Y3448260D01*
X94273000Y3155740D01*
X94330068Y2868842D01*
X94442010Y2598589D01*
X94604525Y2355368D01*
X94811368Y2148525D01*
X95054589Y1986010D01*
X95324842Y1874068D01*
X95611740Y1817000D01*
X95904260Y1817000D01*
X96191158Y1874068D01*
X96461411Y1986010D01*
X96704632Y2148525D01*
X96911475Y2355368D01*
X97028000Y2529760D01*
X97144525Y2355368D01*
X97351368Y2148525D01*
X97594589Y1986010D01*
X97864842Y1874068D01*
X98151740Y1817000D01*
X98444260Y1817000D01*
X98731158Y1874068D01*
X99001411Y1986010D01*
X99244632Y2148525D01*
X99451475Y2355368D01*
X99568000Y2529760D01*
X99684525Y2355368D01*
X99891368Y2148525D01*
X100134589Y1986010D01*
X100404842Y1874068D01*
X100691740Y1817000D01*
X100984260Y1817000D01*
X101271158Y1874068D01*
X101541411Y1986010D01*
X101784632Y2148525D01*
X101991475Y2355368D01*
X102153990Y2598589D01*
X102265932Y2868842D01*
X102323000Y3155740D01*
X102323000Y3448260D01*
X102265932Y3735158D01*
X102153990Y4005411D01*
X101991475Y4248632D01*
X101784632Y4455475D01*
X101541411Y4617990D01*
X101519127Y4627220D01*
X101559313Y4639411D01*
X101713059Y4721589D01*
X101847817Y4832183D01*
X101875534Y4865956D01*
X107275049Y10265470D01*
X107308817Y10293183D01*
X107419411Y10427941D01*
X107501589Y10581687D01*
X107552195Y10748510D01*
X107565000Y10878523D01*
X107565000Y10878533D01*
X107569281Y10921999D01*
X107565000Y10965465D01*
X107565000Y14193546D01*
X107597205Y14241744D01*
X107675226Y14430102D01*
X107715000Y14630061D01*
X107715000Y14833939D01*
X107675226Y15033898D01*
X107597205Y15222256D01*
X107483937Y15391774D01*
X107339774Y15535937D01*
X107170256Y15649205D01*
X106981898Y15727226D01*
X106781939Y15767000D01*
X106578061Y15767000D01*
X106378102Y15727226D01*
X106189744Y15649205D01*
X106020226Y15535937D01*
X105876063Y15391774D01*
X105762795Y15222256D01*
X105684774Y15033898D01*
X105645000Y14833939D01*
X105645000Y14630061D01*
X105684774Y14430102D01*
X105762795Y14241744D01*
X105795000Y14193545D01*
X105795001Y12755817D01*
X105646256Y12855205D01*
X105457898Y12933226D01*
X105257939Y12973000D01*
X105054061Y12973000D01*
X104854102Y12933226D01*
X104665744Y12855205D01*
X104617546Y12823000D01*
X91864465Y12823000D01*
X91820999Y12827281D01*
X91777533Y12823000D01*
X91777523Y12823000D01*
X91647510Y12810195D01*
X91480687Y12759589D01*
X91326941Y12677411D01*
X91326939Y12677410D01*
X91326940Y12677410D01*
X91225953Y12594532D01*
X91225951Y12594530D01*
X91192183Y12566817D01*
X91164470Y12533049D01*
X85485746Y6854324D01*
X85450226Y7032898D01*
X85372205Y7221256D01*
X85258937Y7390774D01*
X85114774Y7534937D01*
X84945256Y7648205D01*
X84756898Y7726226D01*
X84556939Y7766000D01*
X84353061Y7766000D01*
X84153102Y7726226D01*
X83964744Y7648205D01*
X83916546Y7616000D01*
X77754454Y7616000D01*
X77706256Y7648205D01*
X77517898Y7726226D01*
X77317939Y7766000D01*
X77114061Y7766000D01*
X76914102Y7726226D01*
X76725744Y7648205D01*
X76677546Y7616000D01*
X76525804Y7616000D01*
X76560226Y7699102D01*
X76600000Y7899061D01*
X76600000Y8102939D01*
X76560226Y8302898D01*
X76482205Y8491256D01*
X76368937Y8660774D01*
X76224774Y8804937D01*
X76055256Y8918205D01*
X75866898Y8996226D01*
X75810044Y9007535D01*
X74288754Y10528824D01*
X74312744Y10512795D01*
X74501102Y10434774D01*
X74701061Y10395000D01*
X74904939Y10395000D01*
X75104898Y10434774D01*
X75293256Y10512795D01*
X75462774Y10626063D01*
X75606937Y10770226D01*
X75720205Y10939744D01*
X75798226Y11128102D01*
X75838000Y11328061D01*
X75838000Y11531939D01*
X75798226Y11731898D01*
X75720205Y11920256D01*
X75688000Y11968454D01*
X75688000Y15717546D01*
X75720205Y15765744D01*
X75798226Y15954102D01*
X75838000Y16154061D01*
X75838000Y16357939D01*
X75798226Y16557898D01*
X75720205Y16746256D01*
X75606937Y16915774D01*
X75462774Y17059937D01*
X75293256Y17173205D01*
X75104898Y17251226D01*
X74904939Y17291000D01*
X74701061Y17291000D01*
X74501102Y17251226D01*
X74312744Y17173205D01*
X74143226Y17059937D01*
X73999063Y16915774D01*
X73885795Y16746256D01*
X73807774Y16557898D01*
X73768000Y16357939D01*
X73768000Y16154061D01*
X73807774Y15954102D01*
X73885795Y15765744D01*
X73918000Y15717546D01*
X73918001Y11968456D01*
X73885795Y11920256D01*
X73807774Y11731898D01*
X73768000Y11531939D01*
X73768000Y11328061D01*
X73807774Y11128102D01*
X73885795Y10939744D01*
X73901824Y10915754D01*
X69840535Y14977043D01*
X69829226Y15033898D01*
X69751205Y15222256D01*
X69637937Y15391774D01*
X69493774Y15535937D01*
X69324256Y15649205D01*
X69135898Y15727226D01*
X68935939Y15767000D01*
X68732061Y15767000D01*
X68532102Y15727226D01*
X68343744Y15649205D01*
X68199000Y15552490D01*
X68054256Y15649205D01*
X67865898Y15727226D01*
X67665939Y15767000D01*
X67462061Y15767000D01*
X67262102Y15727226D01*
X67073744Y15649205D01*
X66904226Y15535937D01*
X66760063Y15391774D01*
X66646795Y15222256D01*
X66568774Y15033898D01*
X66529000Y14833939D01*
X61771086Y14833939D01*
X61937306Y14902790D01*
X62187406Y15069901D01*
X62400099Y15282594D01*
X62567210Y15532694D01*
X62682319Y15810590D01*
X62741000Y16105604D01*
X62741000Y16406396D01*
X62682319Y16701410D01*
X62591000Y16921872D01*
X62591000Y17082629D01*
X63943372Y18435000D01*
X69438128Y18435000D01*
X69658590Y18343681D01*
X69953604Y18285000D01*
X70254396Y18285000D01*
X70549410Y18343681D01*
X70827306Y18458790D01*
X71077406Y18625901D01*
X71290099Y18838594D01*
X71457210Y19088694D01*
X71572319Y19366590D01*
X71631000Y19661604D01*
X71631000Y19962396D01*
X71572319Y20257410D01*
X71457210Y20535306D01*
X71290099Y20785406D01*
X71077406Y20998099D01*
X70827306Y21165210D01*
X70549410Y21280319D01*
X70254396Y21339000D01*
X69953604Y21339000D01*
X69658590Y21280319D01*
X69438128Y21189000D01*
X64120861Y21189000D01*
X64051099Y21293406D01*
X63838406Y21506099D01*
X63588306Y21673210D01*
X63367842Y21764530D01*
X59251018Y25881353D01*
X59251014Y25881358D01*
X55718944Y29413427D01*
X55828310Y29449510D01*
X56020581Y29558332D01*
X56187927Y29702574D01*
X56323918Y29876691D01*
X56423327Y30073994D01*
X56482334Y30286898D01*
X56702227Y31551280D01*
X56837313Y31105961D01*
X57058034Y30693021D01*
X57355075Y30331075D01*
X57717020Y30034034D01*
X58129960Y29813313D01*
X58578027Y29677393D01*
X59044000Y29631499D01*
X59509972Y29677393D01*
X59958039Y29813313D01*
X60370979Y30034034D01*
X60732925Y30331075D01*
X61029966Y30693020D01*
X61250687Y31105960D01*
X61386607Y31554027D01*
X61421000Y31903228D01*
X61421000Y34136772D01*
X61386607Y34485973D01*
X61250687Y34934040D01*
X61111201Y35195000D01*
X62605928Y35195000D01*
X62605928Y30770000D01*
X62618188Y30645518D01*
X62654498Y30525820D01*
X62713463Y30415506D01*
X62792815Y30318815D01*
X62889506Y30239463D01*
X62999820Y30180498D01*
X63119518Y30144188D01*
X63244000Y30131928D01*
X65744000Y30131928D01*
X65868482Y30144188D01*
X65988180Y30180498D01*
X66098494Y30239463D01*
X66195185Y30318815D01*
X66274537Y30415506D01*
X66333502Y30525820D01*
X66369812Y30645518D01*
X66382072Y30770000D01*
X66382072Y34136772D01*
X76225000Y34136772D01*
X76225000Y31903229D01*
X76259393Y31554028D01*
X76395313Y31105961D01*
X76616034Y30693021D01*
X76913075Y30331075D01*
X77275020Y30034034D01*
X77687960Y29813313D01*
X78136027Y29677393D01*
X78602000Y29631499D01*
X79067972Y29677393D01*
X79516039Y29813313D01*
X79928979Y30034034D01*
X80290925Y30331075D01*
X80587966Y30693020D01*
X80808687Y31105960D01*
X80944607Y31554027D01*
X80979000Y31903228D01*
X80979000Y34136772D01*
X80944607Y34485973D01*
X80808687Y34934040D01*
X80629113Y35270000D01*
X82163928Y35270000D01*
X82163928Y30770000D01*
X82176188Y30645518D01*
X82212498Y30525820D01*
X82271463Y30415506D01*
X82350815Y30318815D01*
X82447506Y30239463D01*
X82557820Y30180498D01*
X82677518Y30144188D01*
X82802000Y30131928D01*
X85302000Y30131928D01*
X85426482Y30144188D01*
X85546180Y30180498D01*
X85656494Y30239463D01*
X85753185Y30318815D01*
X85832537Y30415506D01*
X85891502Y30525820D01*
X85927812Y30645518D01*
X85940072Y30770000D01*
X85940072Y35270000D01*
X85927812Y35394482D01*
X85891502Y35514180D01*
X85832537Y35624494D01*
X85753185Y35721185D01*
X85656494Y35800537D01*
X85546180Y35859502D01*
X85426482Y35895812D01*
X85302000Y35908072D01*
X82802000Y35908072D01*
X82677518Y35895812D01*
X82557820Y35859502D01*
X82447506Y35800537D01*
X82350815Y35721185D01*
X82271463Y35624494D01*
X82212498Y35514180D01*
X82176188Y35394482D01*
X82163928Y35270000D01*
X80629113Y35270000D01*
X80587966Y35346980D01*
X80290925Y35708925D01*
X79928980Y36005966D01*
X79516040Y36226687D01*
X79067973Y36362607D01*
X78602000Y36408501D01*
X78136028Y36362607D01*
X77687961Y36226687D01*
X77275021Y36005966D01*
X76913076Y35708925D01*
X76616035Y35346980D01*
X76395313Y34934040D01*
X76259393Y34485973D01*
X76225000Y34136772D01*
X66382072Y34136772D01*
X66382072Y35195000D01*
X68072000Y35195000D01*
X68291867Y35216655D01*
X68503284Y35280788D01*
X68698128Y35384934D01*
X68868909Y35525091D01*
X69009066Y35695872D01*
X69113212Y35890716D01*
X69177345Y36102133D01*
X69199000Y36322000D01*
X69199000Y42672000D01*
X89805000Y42672000D01*
X89805000Y30480000D01*
X89826655Y30260133D01*
X89890788Y30048716D01*
X89994934Y29853872D01*
X90135091Y29683091D01*
X90305872Y29542934D01*
X90500716Y29438788D01*
X90712133Y29374655D01*
X90932000Y29353000D01*
X91349779Y29353000D01*
X91352925Y29321061D01*
X91431663Y29061496D01*
X91431664Y29061495D01*
X91559528Y28822279D01*
X91731604Y28612603D01*
X91784146Y28569483D01*
X100536470Y19817158D01*
X100539492Y19809863D01*
X99404145Y18674516D01*
X99351604Y18631397D01*
X99308486Y18578857D01*
X99179528Y18421721D01*
X99051663Y18182504D01*
X98972925Y17922939D01*
X98946338Y17653000D01*
X98953000Y17585360D01*
X98953000Y16921872D01*
X98861681Y16701410D01*
X98803000Y16406396D01*
X98803000Y16105604D01*
X98861681Y15810590D01*
X98976790Y15532694D01*
X99143901Y15282594D01*
X99356594Y15069901D01*
X99606694Y14902790D01*
X99884590Y14787681D01*
X100179604Y14729000D01*
X100480396Y14729000D01*
X100775410Y14787681D01*
X101053306Y14902790D01*
X101303406Y15069901D01*
X101516099Y15282594D01*
X101683210Y15532694D01*
X101798319Y15810590D01*
X101857000Y16105604D01*
X101857000Y16357939D01*
X112884000Y16357939D01*
X112884000Y16154061D01*
X112923774Y15954102D01*
X113001795Y15765744D01*
X113034000Y15717546D01*
X113034001Y11968456D01*
X113001795Y11920256D01*
X112923774Y11731898D01*
X112884000Y11531939D01*
X112884000Y11328061D01*
X112923774Y11128102D01*
X113001795Y10939744D01*
X113115063Y10770226D01*
X113259226Y10626063D01*
X113428744Y10512795D01*
X113617102Y10434774D01*
X113817061Y10395000D01*
X114020939Y10395000D01*
X114220898Y10434774D01*
X114409256Y10512795D01*
X114578774Y10626063D01*
X114722937Y10770226D01*
X114836205Y10939744D01*
X114914226Y11128102D01*
X114954000Y11328061D01*
X114954000Y11531939D01*
X114914226Y11731898D01*
X114836205Y11920256D01*
X114804000Y11968454D01*
X114804000Y15717546D01*
X114836205Y15765744D01*
X114914226Y15954102D01*
X114954000Y16154061D01*
X114954000Y16357939D01*
X114914226Y16557898D01*
X114836205Y16746256D01*
X114722937Y16915774D01*
X114578774Y17059937D01*
X114409256Y17173205D01*
X114220898Y17251226D01*
X114020939Y17291000D01*
X113817061Y17291000D01*
X113617102Y17251226D01*
X113428744Y17173205D01*
X113259226Y17059937D01*
X113115063Y16915774D01*
X113001795Y16746256D01*
X112923774Y16557898D01*
X112884000Y16357939D01*
X101857000Y16357939D01*
X101857000Y16406396D01*
X101798319Y16701410D01*
X101707000Y16921872D01*
X101707000Y17082629D01*
X103059372Y18435000D01*
X108554128Y18435000D01*
X108774590Y18343681D01*
X109069604Y18285000D01*
X109370396Y18285000D01*
X109665410Y18343681D01*
X109943306Y18458790D01*
X110193406Y18625901D01*
X110406099Y18838594D01*
X110573210Y19088694D01*
X110688319Y19366590D01*
X110747000Y19661604D01*
X110747000Y19962396D01*
X110688319Y20257410D01*
X110573210Y20535306D01*
X110406099Y20785406D01*
X110193406Y20998099D01*
X109943306Y21165210D01*
X109665410Y21280319D01*
X109370396Y21339000D01*
X109069604Y21339000D01*
X108774590Y21280319D01*
X108554128Y21189000D01*
X103236861Y21189000D01*
X103167099Y21293406D01*
X102954406Y21506099D01*
X102704306Y21673210D01*
X102483842Y21764530D01*
X94834944Y29413427D01*
X94944310Y29449510D01*
X95136581Y29558332D01*
X95303927Y29702574D01*
X95439918Y29876691D01*
X95539327Y30073994D01*
X95598334Y30286898D01*
X95818227Y31551280D01*
X95953313Y31105961D01*
X96174034Y30693021D01*
X96471075Y30331075D01*
X96833020Y30034034D01*
X97245960Y29813313D01*
X97694027Y29677393D01*
X98160000Y29631499D01*
X98625972Y29677393D01*
X99074039Y29813313D01*
X99486979Y30034034D01*
X99848925Y30331075D01*
X100145966Y30693020D01*
X100366687Y31105960D01*
X100502607Y31554027D01*
X100537000Y31903228D01*
X100537000Y34136772D01*
X100502607Y34485973D01*
X100366687Y34934040D01*
X100227201Y35195000D01*
X101721928Y35195000D01*
X101721928Y30770000D01*
X101734188Y30645518D01*
X101770498Y30525820D01*
X101829463Y30415506D01*
X101908815Y30318815D01*
X102005506Y30239463D01*
X102115820Y30180498D01*
X102235518Y30144188D01*
X102360000Y30131928D01*
X104860000Y30131928D01*
X104984482Y30144188D01*
X105104180Y30180498D01*
X105214494Y30239463D01*
X105311185Y30318815D01*
X105390537Y30415506D01*
X105449502Y30525820D01*
X105485812Y30645518D01*
X105498072Y30770000D01*
X105498072Y34136772D01*
X115341000Y34136772D01*
X115341000Y31903229D01*
X115375393Y31554028D01*
X115511313Y31105961D01*
X115732034Y30693021D01*
X116029075Y30331075D01*
X116391020Y30034034D01*
X116803960Y29813313D01*
X117252027Y29677393D01*
X117718000Y29631499D01*
X118183972Y29677393D01*
X118632039Y29813313D01*
X119044979Y30034034D01*
X119406925Y30331075D01*
X119703966Y30693020D01*
X119924687Y31105960D01*
X120060607Y31554027D01*
X120095000Y31903228D01*
X120095000Y34136772D01*
X120060607Y34485973D01*
X119924687Y34934040D01*
X119745113Y35270000D01*
X121279928Y35270000D01*
X121279928Y30770000D01*
X121292188Y30645518D01*
X121328498Y30525820D01*
X121387463Y30415506D01*
X121466815Y30318815D01*
X121563506Y30239463D01*
X121673820Y30180498D01*
X121793518Y30144188D01*
X121918000Y30131928D01*
X124418000Y30131928D01*
X124542482Y30144188D01*
X124662180Y30180498D01*
X124772494Y30239463D01*
X124869185Y30318815D01*
X124948537Y30415506D01*
X125007502Y30525820D01*
X125043812Y30645518D01*
X125056072Y30770000D01*
X125056072Y35270000D01*
X125043812Y35394482D01*
X125007502Y35514180D01*
X124948537Y35624494D01*
X124869185Y35721185D01*
X124772494Y35800537D01*
X124662180Y35859502D01*
X124542482Y35895812D01*
X124418000Y35908072D01*
X121918000Y35908072D01*
X121793518Y35895812D01*
X121673820Y35859502D01*
X121563506Y35800537D01*
X121466815Y35721185D01*
X121387463Y35624494D01*
X121328498Y35514180D01*
X121292188Y35394482D01*
X121279928Y35270000D01*
X119745113Y35270000D01*
X119703966Y35346980D01*
X119406925Y35708925D01*
X119044980Y36005966D01*
X118632040Y36226687D01*
X118183973Y36362607D01*
X117718000Y36408501D01*
X117252028Y36362607D01*
X116803961Y36226687D01*
X116391021Y36005966D01*
X116029076Y35708925D01*
X115732035Y35346980D01*
X115511313Y34934040D01*
X115375393Y34485973D01*
X115341000Y34136772D01*
X105498072Y34136772D01*
X105498072Y35195000D01*
X109220000Y35195000D01*
X109439867Y35216655D01*
X109651284Y35280788D01*
X109846128Y35384934D01*
X110016909Y35525091D01*
X110157066Y35695872D01*
X110261212Y35890716D01*
X110325345Y36102133D01*
X110347000Y36322000D01*
X110347000Y42672000D01*
X110325345Y42891867D01*
X110261212Y43103284D01*
X110157066Y43298128D01*
X110016909Y43468909D01*
X109846128Y43609066D01*
X109651284Y43713212D01*
X109439867Y43777345D01*
X109220000Y43799000D01*
X90932000Y43799000D01*
X90712133Y43777345D01*
X90500716Y43713212D01*
X90305872Y43609066D01*
X90135091Y43468909D01*
X89994934Y43298128D01*
X89890788Y43103284D01*
X89826655Y42891867D01*
X89805000Y42672000D01*
X69199000Y42672000D01*
X69177345Y42891867D01*
X69113212Y43103284D01*
X69009066Y43298128D01*
X68868909Y43468909D01*
X68698128Y43609066D01*
X68503284Y43713212D01*
X68291867Y43777345D01*
X68072000Y43799000D01*
X51816000Y43799000D01*
X51596133Y43777345D01*
X51384716Y43713212D01*
X51189872Y43609066D01*
X51019091Y43468909D01*
X50878934Y43298128D01*
X50774788Y43103284D01*
X50710655Y42891867D01*
X50689000Y42672000D01*
X660000Y42672000D01*
X660000Y44746958D01*
X810638Y44521512D01*
X1183512Y44148638D01*
X1621965Y43855673D01*
X2109148Y43653875D01*
X2626338Y43551000D01*
X3153662Y43551000D01*
X3670852Y43653875D01*
X4158035Y43855673D01*
X4596488Y44148638D01*
X4969362Y44521512D01*
X5262327Y44959965D01*
X5464125Y45447148D01*
X5567000Y45964338D01*
X5567000Y46491662D01*
X5464125Y47008852D01*
X5262327Y47496035D01*
X5240968Y47528001D01*
X6207547Y47528001D01*
X6207547Y44927999D01*
X6234110Y44658296D01*
X6312780Y44398958D01*
X6440532Y44159950D01*
X6612458Y43950458D01*
X6821950Y43778532D01*
X7060958Y43650780D01*
X7320296Y43572110D01*
X7589999Y43545547D01*
X10190001Y43545547D01*
X10459704Y43572110D01*
X10719042Y43650780D01*
X10958050Y43778532D01*
X11167542Y43950458D01*
X11339468Y44159950D01*
X11467220Y44398958D01*
X11545890Y44658296D01*
X11572453Y44927999D01*
X11572453Y47528001D01*
X11545890Y47797704D01*
X11467220Y48057042D01*
X11339468Y48296050D01*
X11167542Y48505542D01*
X10958050Y48677468D01*
X10719042Y48805220D01*
X10459704Y48883890D01*
X10190001Y48910453D01*
X7589999Y48910453D01*
X7320296Y48883890D01*
X7060958Y48805220D01*
X6821950Y48677468D01*
X6612458Y48505542D01*
X6440532Y48296050D01*
X6312780Y48057042D01*
X6234110Y47797704D01*
X6207547Y47528001D01*
X5240968Y47528001D01*
X4969362Y47934488D01*
X4596488Y48307362D01*
X4158035Y48600327D01*
X3670852Y48802125D01*
X3153662Y48905000D01*
X2626338Y48905000D01*
X2109148Y48802125D01*
X1621965Y48600327D01*
X1183512Y48307362D01*
X810638Y47934488D01*
X660000Y47709042D01*
X660000Y51530000D01*
X42333547Y51530000D01*
X42333547Y47530000D01*
X42355307Y47309069D01*
X42419750Y47096629D01*
X42524400Y46900843D01*
X42665235Y46729235D01*
X42836843Y46588400D01*
X43032629Y46483750D01*
X43245069Y46419307D01*
X43466000Y46397547D01*
X47466000Y46397547D01*
X47686931Y46419307D01*
X47899371Y46483750D01*
X48095157Y46588400D01*
X48266765Y46729235D01*
X48407600Y46900843D01*
X48512250Y47096629D01*
X48576693Y47309069D01*
X48598453Y47530000D01*
X48598453Y51530000D01*
X75861547Y51530000D01*
X75861547Y47530000D01*
X75883307Y47309069D01*
X75947750Y47096629D01*
X76052400Y46900843D01*
X76193235Y46729235D01*
X76364843Y46588400D01*
X76560629Y46483750D01*
X76773069Y46419307D01*
X76994000Y46397547D01*
X80994000Y46397547D01*
X81214931Y46419307D01*
X81427371Y46483750D01*
X81623157Y46588400D01*
X81794765Y46729235D01*
X81935600Y46900843D01*
X82040250Y47096629D01*
X82104693Y47309069D01*
X82126453Y47530000D01*
X82126453Y51530000D01*
X109389547Y51530000D01*
X109389547Y47530000D01*
X109411307Y47309069D01*
X109475750Y47096629D01*
X109580400Y46900843D01*
X109721235Y46729235D01*
X109892843Y46588400D01*
X110088629Y46483750D01*
X110301069Y46419307D01*
X110522000Y46397547D01*
X114522000Y46397547D01*
X114742931Y46419307D01*
X114955371Y46483750D01*
X115151157Y46588400D01*
X115322765Y46729235D01*
X115463600Y46900843D01*
X115568250Y47096629D01*
X115632693Y47309069D01*
X115654453Y47530000D01*
X115654453Y51530000D01*
X115632693Y51750931D01*
X115568250Y51963371D01*
X115463600Y52159157D01*
X115322765Y52330765D01*
X115151157Y52471600D01*
X114955371Y52576250D01*
X114742931Y52640693D01*
X114522000Y52662453D01*
X110522000Y52662453D01*
X110301069Y52640693D01*
X110088629Y52576250D01*
X109892843Y52471600D01*
X109721235Y52330765D01*
X109580400Y52159157D01*
X109475750Y51963371D01*
X109411307Y51750931D01*
X109389547Y51530000D01*
X82126453Y51530000D01*
X82104693Y51750931D01*
X82040250Y51963371D01*
X81935600Y52159157D01*
X81794765Y52330765D01*
X81623157Y52471600D01*
X81427371Y52576250D01*
X81214931Y52640693D01*
X80994000Y52662453D01*
X76994000Y52662453D01*
X76773069Y52640693D01*
X76560629Y52576250D01*
X76364843Y52471600D01*
X76193235Y52330765D01*
X76052400Y52159157D01*
X75947750Y51963371D01*
X75883307Y51750931D01*
X75861547Y51530000D01*
X48598453Y51530000D01*
X48576693Y51750931D01*
X48512250Y51963371D01*
X48407600Y52159157D01*
X48266765Y52330765D01*
X48095157Y52471600D01*
X47899371Y52576250D01*
X47686931Y52640693D01*
X47466000Y52662453D01*
X43466000Y52662453D01*
X43245069Y52640693D01*
X43032629Y52576250D01*
X42836843Y52471600D01*
X42665235Y52330765D01*
X42524400Y52159157D01*
X42419750Y51963371D01*
X42355307Y51750931D01*
X42333547Y51530000D01*
X660000Y51530000D01*
X660000Y69698000D01*
X127610000Y69698000D01*
X127610001Y660000D01*
G37*
%TD.AperFunction*%
D25*
X104665744Y11020795D02*
X104854102Y10942774D01*
X105054061Y10903000D01*
X105257939Y10903000D01*
X105447034Y10940613D01*
X100852422Y6346000D01*
X96296454Y6346000D01*
X96248256Y6378205D01*
X96059898Y6456226D01*
X95987254Y6470676D01*
X98664579Y9148000D01*
X101317546Y9148000D01*
X101365744Y9115795D01*
X101554102Y9037774D01*
X101754061Y8998000D01*
X101957939Y8998000D01*
X102157898Y9037774D01*
X102346256Y9115795D01*
X102515774Y9229063D01*
X102659937Y9373226D01*
X102773205Y9542744D01*
X102851226Y9731102D01*
X102891000Y9931061D01*
X102891000Y10134939D01*
X102851226Y10334898D01*
X102773205Y10523256D01*
X102659937Y10692774D01*
X102515774Y10836937D01*
X102346256Y10950205D01*
X102157898Y11028226D01*
X102033350Y11053000D01*
X104617546Y11053000D01*
X104665744Y11020795D01*
%TA.AperFunction,Conductor*%
D26*
G36*
X104665744Y11020795D02*
G01*
X104854102Y10942774D01*
X105054061Y10903000D01*
X105257939Y10903000D01*
X105447034Y10940613D01*
X100852422Y6346000D01*
X96296454Y6346000D01*
X96248256Y6378205D01*
X96059898Y6456226D01*
X95987254Y6470676D01*
X98664579Y9148000D01*
X101317546Y9148000D01*
X101365744Y9115795D01*
X101554102Y9037774D01*
X101754061Y8998000D01*
X101957939Y8998000D01*
X102157898Y9037774D01*
X102346256Y9115795D01*
X102515774Y9229063D01*
X102659937Y9373226D01*
X102773205Y9542744D01*
X102851226Y9731102D01*
X102891000Y9931061D01*
X102891000Y10134939D01*
X102851226Y10334898D01*
X102773205Y10523256D01*
X102659937Y10692774D01*
X102515774Y10836937D01*
X102346256Y10950205D01*
X102157898Y11028226D01*
X102033350Y11053000D01*
X104617546Y11053000D01*
X104665744Y11020795D01*
G37*
%TD.AperFunction*%
%TD*%
D25*
%TO.N,VOUT_A*%
X67945000Y36449000D02*
X56388000Y36449000D01*
X56363224Y36446560D01*
X56339399Y36439333D01*
X56317443Y36427597D01*
X56298197Y36411803D01*
X56282403Y36392557D01*
X56270667Y36370601D01*
X56262878Y36343760D01*
X55265181Y30607000D01*
X51943000Y30607000D01*
X51943000Y42545000D01*
X67945000Y42545000D01*
X67945000Y36449000D01*
%TA.AperFunction,Conductor*%
D26*
G36*
X67945000Y36449000D02*
G01*
X56388000Y36449000D01*
X56363224Y36446560D01*
X56339399Y36439333D01*
X56317443Y36427597D01*
X56298197Y36411803D01*
X56282403Y36392557D01*
X56270667Y36370601D01*
X56262878Y36343760D01*
X55265181Y30607000D01*
X51943000Y30607000D01*
X51943000Y42545000D01*
X67945000Y42545000D01*
X67945000Y36449000D01*
G37*
%TD.AperFunction*%
%TD*%
D25*
%TO.N,VOUT_B*%
X109093000Y36449000D02*
X95504000Y36449000D01*
X95479224Y36446560D01*
X95455399Y36439333D01*
X95433443Y36427597D01*
X95414197Y36411803D01*
X95398403Y36392557D01*
X95386667Y36370601D01*
X95378878Y36343760D01*
X94381181Y30607000D01*
X91059000Y30607000D01*
X91059000Y42545000D01*
X109093000Y42545000D01*
X109093000Y36449000D01*
%TA.AperFunction,Conductor*%
D26*
G36*
X109093000Y36449000D02*
G01*
X95504000Y36449000D01*
X95479224Y36446560D01*
X95455399Y36439333D01*
X95433443Y36427597D01*
X95414197Y36411803D01*
X95398403Y36392557D01*
X95386667Y36370601D01*
X95378878Y36343760D01*
X94381181Y30607000D01*
X91059000Y30607000D01*
X91059000Y42545000D01*
X109093000Y42545000D01*
X109093000Y36449000D01*
G37*
%TD.AperFunction*%
%TD*%
M02*
