%TF.GenerationSoftware,KiCad,Pcbnew,(5.1.9)-1*%
%TF.CreationDate,2021-03-07T17:17:19-08:00*%
%TF.ProjectId,VFD,5646442e-6b69-4636-9164-5f7063625858,1.0*%
%TF.SameCoordinates,PX50e7ea0PY815a420*%
%TF.FileFunction,Paste,Top*%
%TF.FilePolarity,Positive*%
%FSLAX46Y46*%
G04 Gerber Fmt 4.6, Leading zero omitted, Abs format (unit mm)*
G04 Created by KiCad (PCBNEW (5.1.9)-1) date 2021-03-07 17:17:19*
%MOMM*%
%LPD*%
G01*
G04 APERTURE LIST*
%ADD10R,0.900000X1.200000*%
%ADD11R,1.200000X0.900000*%
G04 APERTURE END LIST*
%TO.C,R1*%
G36*
G01*
X64144998Y24184500D02*
X65395002Y24184500D01*
G75*
G02*
X65645000Y23934502I0J-249998D01*
G01*
X65645000Y23309498D01*
G75*
G02*
X65395002Y23059500I-249998J0D01*
G01*
X64144998Y23059500D01*
G75*
G02*
X63895000Y23309498I0J249998D01*
G01*
X63895000Y23934502D01*
G75*
G02*
X64144998Y24184500I249998J0D01*
G01*
G37*
G36*
G01*
X64144998Y27109500D02*
X65395002Y27109500D01*
G75*
G02*
X65645000Y26859502I0J-249998D01*
G01*
X65645000Y26234498D01*
G75*
G02*
X65395002Y25984500I-249998J0D01*
G01*
X64144998Y25984500D01*
G75*
G02*
X63895000Y26234498I0J249998D01*
G01*
X63895000Y26859502D01*
G75*
G02*
X64144998Y27109500I249998J0D01*
G01*
G37*
%TD*%
D10*
%TO.C,D7*%
X103251000Y11938000D03*
X99951000Y11938000D03*
%TD*%
D11*
%TO.C,D5*%
X107950000Y23368000D03*
X107950000Y26668000D03*
%TD*%
%TO.C,D6*%
X122809000Y20066000D03*
X122809000Y23366000D03*
%TD*%
%TO.C,U2*%
G36*
G01*
X106830000Y13822000D02*
X106530000Y13822000D01*
G75*
G02*
X106380000Y13972000I0J150000D01*
G01*
X106380000Y15622000D01*
G75*
G02*
X106530000Y15772000I150000J0D01*
G01*
X106830000Y15772000D01*
G75*
G02*
X106980000Y15622000I0J-150000D01*
G01*
X106980000Y13972000D01*
G75*
G02*
X106830000Y13822000I-150000J0D01*
G01*
G37*
G36*
G01*
X108100000Y13822000D02*
X107800000Y13822000D01*
G75*
G02*
X107650000Y13972000I0J150000D01*
G01*
X107650000Y15622000D01*
G75*
G02*
X107800000Y15772000I150000J0D01*
G01*
X108100000Y15772000D01*
G75*
G02*
X108250000Y15622000I0J-150000D01*
G01*
X108250000Y13972000D01*
G75*
G02*
X108100000Y13822000I-150000J0D01*
G01*
G37*
G36*
G01*
X109370000Y13822000D02*
X109070000Y13822000D01*
G75*
G02*
X108920000Y13972000I0J150000D01*
G01*
X108920000Y15622000D01*
G75*
G02*
X109070000Y15772000I150000J0D01*
G01*
X109370000Y15772000D01*
G75*
G02*
X109520000Y15622000I0J-150000D01*
G01*
X109520000Y13972000D01*
G75*
G02*
X109370000Y13822000I-150000J0D01*
G01*
G37*
G36*
G01*
X110640000Y13822000D02*
X110340000Y13822000D01*
G75*
G02*
X110190000Y13972000I0J150000D01*
G01*
X110190000Y15622000D01*
G75*
G02*
X110340000Y15772000I150000J0D01*
G01*
X110640000Y15772000D01*
G75*
G02*
X110790000Y15622000I0J-150000D01*
G01*
X110790000Y13972000D01*
G75*
G02*
X110640000Y13822000I-150000J0D01*
G01*
G37*
G36*
G01*
X110640000Y18772000D02*
X110340000Y18772000D01*
G75*
G02*
X110190000Y18922000I0J150000D01*
G01*
X110190000Y20572000D01*
G75*
G02*
X110340000Y20722000I150000J0D01*
G01*
X110640000Y20722000D01*
G75*
G02*
X110790000Y20572000I0J-150000D01*
G01*
X110790000Y18922000D01*
G75*
G02*
X110640000Y18772000I-150000J0D01*
G01*
G37*
G36*
G01*
X109370000Y18772000D02*
X109070000Y18772000D01*
G75*
G02*
X108920000Y18922000I0J150000D01*
G01*
X108920000Y20572000D01*
G75*
G02*
X109070000Y20722000I150000J0D01*
G01*
X109370000Y20722000D01*
G75*
G02*
X109520000Y20572000I0J-150000D01*
G01*
X109520000Y18922000D01*
G75*
G02*
X109370000Y18772000I-150000J0D01*
G01*
G37*
G36*
G01*
X108100000Y18772000D02*
X107800000Y18772000D01*
G75*
G02*
X107650000Y18922000I0J150000D01*
G01*
X107650000Y20572000D01*
G75*
G02*
X107800000Y20722000I150000J0D01*
G01*
X108100000Y20722000D01*
G75*
G02*
X108250000Y20572000I0J-150000D01*
G01*
X108250000Y18922000D01*
G75*
G02*
X108100000Y18772000I-150000J0D01*
G01*
G37*
G36*
G01*
X106830000Y18772000D02*
X106530000Y18772000D01*
G75*
G02*
X106380000Y18922000I0J150000D01*
G01*
X106380000Y20572000D01*
G75*
G02*
X106530000Y20722000I150000J0D01*
G01*
X106830000Y20722000D01*
G75*
G02*
X106980000Y20572000I0J-150000D01*
G01*
X106980000Y18922000D01*
G75*
G02*
X106830000Y18772000I-150000J0D01*
G01*
G37*
%TD*%
%TO.C,R3*%
G36*
G01*
X103260998Y27109500D02*
X104511002Y27109500D01*
G75*
G02*
X104761000Y26859502I0J-249998D01*
G01*
X104761000Y26234498D01*
G75*
G02*
X104511002Y25984500I-249998J0D01*
G01*
X103260998Y25984500D01*
G75*
G02*
X103011000Y26234498I0J249998D01*
G01*
X103011000Y26859502D01*
G75*
G02*
X103260998Y27109500I249998J0D01*
G01*
G37*
G36*
G01*
X103260998Y24184500D02*
X104511002Y24184500D01*
G75*
G02*
X104761000Y23934502I0J-249998D01*
G01*
X104761000Y23309498D01*
G75*
G02*
X104511002Y23059500I-249998J0D01*
G01*
X103260998Y23059500D01*
G75*
G02*
X103011000Y23309498I0J249998D01*
G01*
X103011000Y23934502D01*
G75*
G02*
X103260998Y24184500I249998J0D01*
G01*
G37*
%TD*%
%TO.C,R4*%
G36*
G01*
X118119998Y23807500D02*
X119370002Y23807500D01*
G75*
G02*
X119620000Y23557502I0J-249998D01*
G01*
X119620000Y22932498D01*
G75*
G02*
X119370002Y22682500I-249998J0D01*
G01*
X118119998Y22682500D01*
G75*
G02*
X117870000Y22932498I0J249998D01*
G01*
X117870000Y23557502D01*
G75*
G02*
X118119998Y23807500I249998J0D01*
G01*
G37*
G36*
G01*
X118119998Y20882500D02*
X119370002Y20882500D01*
G75*
G02*
X119620000Y20632502I0J-249998D01*
G01*
X119620000Y20007498D01*
G75*
G02*
X119370002Y19757500I-249998J0D01*
G01*
X118119998Y19757500D01*
G75*
G02*
X117870000Y20007498I0J249998D01*
G01*
X117870000Y20632502D01*
G75*
G02*
X118119998Y20882500I249998J0D01*
G01*
G37*
%TD*%
%TO.C,C16*%
G36*
G01*
X113344000Y15155999D02*
X113344000Y17356001D01*
G75*
G02*
X113593999Y17606000I249999J0D01*
G01*
X114244001Y17606000D01*
G75*
G02*
X114494000Y17356001I0J-249999D01*
G01*
X114494000Y15155999D01*
G75*
G02*
X114244001Y14906000I-249999J0D01*
G01*
X113593999Y14906000D01*
G75*
G02*
X113344000Y15155999I0J249999D01*
G01*
G37*
G36*
G01*
X116294000Y15155999D02*
X116294000Y17356001D01*
G75*
G02*
X116543999Y17606000I249999J0D01*
G01*
X117194001Y17606000D01*
G75*
G02*
X117444000Y17356001I0J-249999D01*
G01*
X117444000Y15155999D01*
G75*
G02*
X117194001Y14906000I-249999J0D01*
G01*
X116543999Y14906000D01*
G75*
G02*
X116294000Y15155999I0J249999D01*
G01*
G37*
%TD*%
%TO.C,C17*%
G36*
G01*
X113215000Y20070000D02*
X113215000Y20570000D01*
G75*
G02*
X113440000Y20795000I225000J0D01*
G01*
X113890000Y20795000D01*
G75*
G02*
X114115000Y20570000I0J-225000D01*
G01*
X114115000Y20070000D01*
G75*
G02*
X113890000Y19845000I-225000J0D01*
G01*
X113440000Y19845000D01*
G75*
G02*
X113215000Y20070000I0J225000D01*
G01*
G37*
G36*
G01*
X114765000Y20070000D02*
X114765000Y20570000D01*
G75*
G02*
X114990000Y20795000I225000J0D01*
G01*
X115440000Y20795000D01*
G75*
G02*
X115665000Y20570000I0J-225000D01*
G01*
X115665000Y20070000D01*
G75*
G02*
X115440000Y19845000I-225000J0D01*
G01*
X114990000Y19845000D01*
G75*
G02*
X114765000Y20070000I0J225000D01*
G01*
G37*
%TD*%
%TO.C,C14*%
G36*
G01*
X103826000Y17356001D02*
X103826000Y15155999D01*
G75*
G02*
X103576001Y14906000I-249999J0D01*
G01*
X102925999Y14906000D01*
G75*
G02*
X102676000Y15155999I0J249999D01*
G01*
X102676000Y17356001D01*
G75*
G02*
X102925999Y17606000I249999J0D01*
G01*
X103576001Y17606000D01*
G75*
G02*
X103826000Y17356001I0J-249999D01*
G01*
G37*
G36*
G01*
X100876000Y17356001D02*
X100876000Y15155999D01*
G75*
G02*
X100626001Y14906000I-249999J0D01*
G01*
X99975999Y14906000D01*
G75*
G02*
X99726000Y15155999I0J249999D01*
G01*
X99726000Y17356001D01*
G75*
G02*
X99975999Y17606000I249999J0D01*
G01*
X100626001Y17606000D01*
G75*
G02*
X100876000Y17356001I0J-249999D01*
G01*
G37*
%TD*%
%TO.C,C12*%
G36*
G01*
X103955000Y20570000D02*
X103955000Y20070000D01*
G75*
G02*
X103730000Y19845000I-225000J0D01*
G01*
X103280000Y19845000D01*
G75*
G02*
X103055000Y20070000I0J225000D01*
G01*
X103055000Y20570000D01*
G75*
G02*
X103280000Y20795000I225000J0D01*
G01*
X103730000Y20795000D01*
G75*
G02*
X103955000Y20570000I0J-225000D01*
G01*
G37*
G36*
G01*
X102405000Y20570000D02*
X102405000Y20070000D01*
G75*
G02*
X102180000Y19845000I-225000J0D01*
G01*
X101730000Y19845000D01*
G75*
G02*
X101505000Y20070000I0J225000D01*
G01*
X101505000Y20570000D01*
G75*
G02*
X101730000Y20795000I225000J0D01*
G01*
X102180000Y20795000D01*
G75*
G02*
X102405000Y20570000I0J-225000D01*
G01*
G37*
%TD*%
%TO.C,R2*%
G36*
G01*
X79003998Y20882500D02*
X80254002Y20882500D01*
G75*
G02*
X80504000Y20632502I0J-249998D01*
G01*
X80504000Y20007498D01*
G75*
G02*
X80254002Y19757500I-249998J0D01*
G01*
X79003998Y19757500D01*
G75*
G02*
X78754000Y20007498I0J249998D01*
G01*
X78754000Y20632502D01*
G75*
G02*
X79003998Y20882500I249998J0D01*
G01*
G37*
G36*
G01*
X79003998Y23807500D02*
X80254002Y23807500D01*
G75*
G02*
X80504000Y23557502I0J-249998D01*
G01*
X80504000Y22932498D01*
G75*
G02*
X80254002Y22682500I-249998J0D01*
G01*
X79003998Y22682500D01*
G75*
G02*
X78754000Y22932498I0J249998D01*
G01*
X78754000Y23557502D01*
G75*
G02*
X79003998Y23807500I249998J0D01*
G01*
G37*
%TD*%
%TO.C,U1*%
G36*
G01*
X67714000Y18772000D02*
X67414000Y18772000D01*
G75*
G02*
X67264000Y18922000I0J150000D01*
G01*
X67264000Y20572000D01*
G75*
G02*
X67414000Y20722000I150000J0D01*
G01*
X67714000Y20722000D01*
G75*
G02*
X67864000Y20572000I0J-150000D01*
G01*
X67864000Y18922000D01*
G75*
G02*
X67714000Y18772000I-150000J0D01*
G01*
G37*
G36*
G01*
X68984000Y18772000D02*
X68684000Y18772000D01*
G75*
G02*
X68534000Y18922000I0J150000D01*
G01*
X68534000Y20572000D01*
G75*
G02*
X68684000Y20722000I150000J0D01*
G01*
X68984000Y20722000D01*
G75*
G02*
X69134000Y20572000I0J-150000D01*
G01*
X69134000Y18922000D01*
G75*
G02*
X68984000Y18772000I-150000J0D01*
G01*
G37*
G36*
G01*
X70254000Y18772000D02*
X69954000Y18772000D01*
G75*
G02*
X69804000Y18922000I0J150000D01*
G01*
X69804000Y20572000D01*
G75*
G02*
X69954000Y20722000I150000J0D01*
G01*
X70254000Y20722000D01*
G75*
G02*
X70404000Y20572000I0J-150000D01*
G01*
X70404000Y18922000D01*
G75*
G02*
X70254000Y18772000I-150000J0D01*
G01*
G37*
G36*
G01*
X71524000Y18772000D02*
X71224000Y18772000D01*
G75*
G02*
X71074000Y18922000I0J150000D01*
G01*
X71074000Y20572000D01*
G75*
G02*
X71224000Y20722000I150000J0D01*
G01*
X71524000Y20722000D01*
G75*
G02*
X71674000Y20572000I0J-150000D01*
G01*
X71674000Y18922000D01*
G75*
G02*
X71524000Y18772000I-150000J0D01*
G01*
G37*
G36*
G01*
X71524000Y13822000D02*
X71224000Y13822000D01*
G75*
G02*
X71074000Y13972000I0J150000D01*
G01*
X71074000Y15622000D01*
G75*
G02*
X71224000Y15772000I150000J0D01*
G01*
X71524000Y15772000D01*
G75*
G02*
X71674000Y15622000I0J-150000D01*
G01*
X71674000Y13972000D01*
G75*
G02*
X71524000Y13822000I-150000J0D01*
G01*
G37*
G36*
G01*
X70254000Y13822000D02*
X69954000Y13822000D01*
G75*
G02*
X69804000Y13972000I0J150000D01*
G01*
X69804000Y15622000D01*
G75*
G02*
X69954000Y15772000I150000J0D01*
G01*
X70254000Y15772000D01*
G75*
G02*
X70404000Y15622000I0J-150000D01*
G01*
X70404000Y13972000D01*
G75*
G02*
X70254000Y13822000I-150000J0D01*
G01*
G37*
G36*
G01*
X68984000Y13822000D02*
X68684000Y13822000D01*
G75*
G02*
X68534000Y13972000I0J150000D01*
G01*
X68534000Y15622000D01*
G75*
G02*
X68684000Y15772000I150000J0D01*
G01*
X68984000Y15772000D01*
G75*
G02*
X69134000Y15622000I0J-150000D01*
G01*
X69134000Y13972000D01*
G75*
G02*
X68984000Y13822000I-150000J0D01*
G01*
G37*
G36*
G01*
X67714000Y13822000D02*
X67414000Y13822000D01*
G75*
G02*
X67264000Y13972000I0J150000D01*
G01*
X67264000Y15622000D01*
G75*
G02*
X67414000Y15772000I150000J0D01*
G01*
X67714000Y15772000D01*
G75*
G02*
X67864000Y15622000I0J-150000D01*
G01*
X67864000Y13972000D01*
G75*
G02*
X67714000Y13822000I-150000J0D01*
G01*
G37*
%TD*%
%TO.C,D3*%
X83693000Y23366000D03*
X83693000Y20066000D03*
%TD*%
%TO.C,D2*%
X68834000Y26668000D03*
X68834000Y23368000D03*
%TD*%
D10*
%TO.C,D1*%
X60835000Y11938000D03*
X64135000Y11938000D03*
%TD*%
%TO.C,C9*%
G36*
G01*
X97126000Y62508999D02*
X97126000Y68809001D01*
G75*
G02*
X97375999Y69059000I249999J0D01*
G01*
X98276001Y69059000D01*
G75*
G02*
X98526000Y68809001I0J-249999D01*
G01*
X98526000Y62508999D01*
G75*
G02*
X98276001Y62259000I-249999J0D01*
G01*
X97375999Y62259000D01*
G75*
G02*
X97126000Y62508999I0J249999D01*
G01*
G37*
G36*
G01*
X93026000Y62508999D02*
X93026000Y68809001D01*
G75*
G02*
X93275999Y69059000I249999J0D01*
G01*
X94176001Y69059000D01*
G75*
G02*
X94426000Y68809001I0J-249999D01*
G01*
X94426000Y62508999D01*
G75*
G02*
X94176001Y62259000I-249999J0D01*
G01*
X93275999Y62259000D01*
G75*
G02*
X93026000Y62508999I0J249999D01*
G01*
G37*
%TD*%
%TO.C,C7*%
G36*
G01*
X70616000Y8959000D02*
X71116000Y8959000D01*
G75*
G02*
X71341000Y8734000I0J-225000D01*
G01*
X71341000Y8284000D01*
G75*
G02*
X71116000Y8059000I-225000J0D01*
G01*
X70616000Y8059000D01*
G75*
G02*
X70391000Y8284000I0J225000D01*
G01*
X70391000Y8734000D01*
G75*
G02*
X70616000Y8959000I225000J0D01*
G01*
G37*
G36*
G01*
X70616000Y10509000D02*
X71116000Y10509000D01*
G75*
G02*
X71341000Y10284000I0J-225000D01*
G01*
X71341000Y9834000D01*
G75*
G02*
X71116000Y9609000I-225000J0D01*
G01*
X70616000Y9609000D01*
G75*
G02*
X70391000Y9834000I0J225000D01*
G01*
X70391000Y10284000D01*
G75*
G02*
X70616000Y10509000I225000J0D01*
G01*
G37*
%TD*%
%TO.C,C6*%
G36*
G01*
X63598000Y62508999D02*
X63598000Y68809001D01*
G75*
G02*
X63847999Y69059000I249999J0D01*
G01*
X64748001Y69059000D01*
G75*
G02*
X64998000Y68809001I0J-249999D01*
G01*
X64998000Y62508999D01*
G75*
G02*
X64748001Y62259000I-249999J0D01*
G01*
X63847999Y62259000D01*
G75*
G02*
X63598000Y62508999I0J249999D01*
G01*
G37*
G36*
G01*
X59498000Y62508999D02*
X59498000Y68809001D01*
G75*
G02*
X59747999Y69059000I249999J0D01*
G01*
X60648001Y69059000D01*
G75*
G02*
X60898000Y68809001I0J-249999D01*
G01*
X60898000Y62508999D01*
G75*
G02*
X60648001Y62259000I-249999J0D01*
G01*
X59747999Y62259000D01*
G75*
G02*
X59498000Y62508999I0J249999D01*
G01*
G37*
%TD*%
%TO.C,C5*%
G36*
G01*
X65953000Y4403000D02*
X65953000Y5503000D01*
G75*
G02*
X66203000Y5753000I250000J0D01*
G01*
X69203000Y5753000D01*
G75*
G02*
X69453000Y5503000I0J-250000D01*
G01*
X69453000Y4403000D01*
G75*
G02*
X69203000Y4153000I-250000J0D01*
G01*
X66203000Y4153000D01*
G75*
G02*
X65953000Y4403000I0J250000D01*
G01*
G37*
G36*
G01*
X60353000Y4403000D02*
X60353000Y5503000D01*
G75*
G02*
X60603000Y5753000I250000J0D01*
G01*
X63603000Y5753000D01*
G75*
G02*
X63853000Y5503000I0J-250000D01*
G01*
X63853000Y4403000D01*
G75*
G02*
X63603000Y4153000I-250000J0D01*
G01*
X60603000Y4153000D01*
G75*
G02*
X60353000Y4403000I0J250000D01*
G01*
G37*
%TD*%
%TO.C,C4*%
G36*
G01*
X63289000Y20570000D02*
X63289000Y20070000D01*
G75*
G02*
X63064000Y19845000I-225000J0D01*
G01*
X62614000Y19845000D01*
G75*
G02*
X62389000Y20070000I0J225000D01*
G01*
X62389000Y20570000D01*
G75*
G02*
X62614000Y20795000I225000J0D01*
G01*
X63064000Y20795000D01*
G75*
G02*
X63289000Y20570000I0J-225000D01*
G01*
G37*
G36*
G01*
X64839000Y20570000D02*
X64839000Y20070000D01*
G75*
G02*
X64614000Y19845000I-225000J0D01*
G01*
X64164000Y19845000D01*
G75*
G02*
X63939000Y20070000I0J225000D01*
G01*
X63939000Y20570000D01*
G75*
G02*
X64164000Y20795000I225000J0D01*
G01*
X64614000Y20795000D01*
G75*
G02*
X64839000Y20570000I0J-225000D01*
G01*
G37*
%TD*%
%TO.C,C3*%
G36*
G01*
X61760000Y17356001D02*
X61760000Y15155999D01*
G75*
G02*
X61510001Y14906000I-249999J0D01*
G01*
X60859999Y14906000D01*
G75*
G02*
X60610000Y15155999I0J249999D01*
G01*
X60610000Y17356001D01*
G75*
G02*
X60859999Y17606000I249999J0D01*
G01*
X61510001Y17606000D01*
G75*
G02*
X61760000Y17356001I0J-249999D01*
G01*
G37*
G36*
G01*
X64710000Y17356001D02*
X64710000Y15155999D01*
G75*
G02*
X64460001Y14906000I-249999J0D01*
G01*
X63809999Y14906000D01*
G75*
G02*
X63560000Y15155999I0J249999D01*
G01*
X63560000Y17356001D01*
G75*
G02*
X63809999Y17606000I249999J0D01*
G01*
X64460001Y17606000D01*
G75*
G02*
X64710000Y17356001I0J-249999D01*
G01*
G37*
%TD*%
%TO.C,C2*%
G36*
G01*
X77178000Y15155999D02*
X77178000Y17356001D01*
G75*
G02*
X77427999Y17606000I249999J0D01*
G01*
X78078001Y17606000D01*
G75*
G02*
X78328000Y17356001I0J-249999D01*
G01*
X78328000Y15155999D01*
G75*
G02*
X78078001Y14906000I-249999J0D01*
G01*
X77427999Y14906000D01*
G75*
G02*
X77178000Y15155999I0J249999D01*
G01*
G37*
G36*
G01*
X74228000Y15155999D02*
X74228000Y17356001D01*
G75*
G02*
X74477999Y17606000I249999J0D01*
G01*
X75128001Y17606000D01*
G75*
G02*
X75378000Y17356001I0J-249999D01*
G01*
X75378000Y15155999D01*
G75*
G02*
X75128001Y14906000I-249999J0D01*
G01*
X74477999Y14906000D01*
G75*
G02*
X74228000Y15155999I0J249999D01*
G01*
G37*
%TD*%
%TO.C,C1*%
G36*
G01*
X75649000Y20070000D02*
X75649000Y20570000D01*
G75*
G02*
X75874000Y20795000I225000J0D01*
G01*
X76324000Y20795000D01*
G75*
G02*
X76549000Y20570000I0J-225000D01*
G01*
X76549000Y20070000D01*
G75*
G02*
X76324000Y19845000I-225000J0D01*
G01*
X75874000Y19845000D01*
G75*
G02*
X75649000Y20070000I0J225000D01*
G01*
G37*
G36*
G01*
X74099000Y20070000D02*
X74099000Y20570000D01*
G75*
G02*
X74324000Y20795000I225000J0D01*
G01*
X74774000Y20795000D01*
G75*
G02*
X74999000Y20570000I0J-225000D01*
G01*
X74999000Y20070000D01*
G75*
G02*
X74774000Y19845000I-225000J0D01*
G01*
X74324000Y19845000D01*
G75*
G02*
X74099000Y20070000I0J225000D01*
G01*
G37*
%TD*%
M02*
