%TF.GenerationSoftware,KiCad,Pcbnew,(5.1.9)-1*%
%TF.CreationDate,2021-03-07T17:17:19-08:00*%
%TF.ProjectId,VFD,5646442e-6b69-4636-9164-5f7063625858,1.0*%
%TF.SameCoordinates,PX50e7ea0PY815a420*%
%TF.FileFunction,Copper,L1,Top*%
%TF.FilePolarity,Positive*%
%FSLAX46Y46*%
G04 Gerber Fmt 4.6, Leading zero omitted, Abs format (unit mm)*
G04 Created by KiCad (PCBNEW (5.1.9)-1) date 2021-03-07 17:17:19*
%MOMM*%
%LPD*%
G01*
G04 APERTURE LIST*
%TA.AperFunction,ComponentPad*%
%ADD10C,4.000000*%
%TD*%
%TA.AperFunction,ComponentPad*%
%ADD11R,4.000000X4.000000*%
%TD*%
%TA.AperFunction,SMDPad,CuDef*%
%ADD12R,0.900000X1.200000*%
%TD*%
%TA.AperFunction,SMDPad,CuDef*%
%ADD13R,1.200000X0.900000*%
%TD*%
%TA.AperFunction,ComponentPad*%
%ADD14R,2.500000X4.500000*%
%TD*%
%TA.AperFunction,ComponentPad*%
%ADD15O,2.500000X4.500000*%
%TD*%
%TA.AperFunction,ComponentPad*%
%ADD16R,3.000000X3.000000*%
%TD*%
%TA.AperFunction,ComponentPad*%
%ADD17C,3.000000*%
%TD*%
%TA.AperFunction,ComponentPad*%
%ADD18O,1.700000X1.700000*%
%TD*%
%TA.AperFunction,ComponentPad*%
%ADD19R,1.700000X1.700000*%
%TD*%
%TA.AperFunction,ComponentPad*%
%ADD20C,3.100000*%
%TD*%
%TA.AperFunction,ComponentPad*%
%ADD21C,2.400000*%
%TD*%
%TA.AperFunction,ComponentPad*%
%ADD22R,2.000000X2.000000*%
%TD*%
%TA.AperFunction,ComponentPad*%
%ADD23C,2.000000*%
%TD*%
%TA.AperFunction,ViaPad*%
%ADD24C,0.800000*%
%TD*%
%TA.AperFunction,ViaPad*%
%ADD25C,1.200000*%
%TD*%
%TA.AperFunction,Conductor*%
%ADD26C,0.500000*%
%TD*%
%TA.AperFunction,Conductor*%
%ADD27C,1.000000*%
%TD*%
%TA.AperFunction,Conductor*%
%ADD28C,0.254000*%
%TD*%
%TA.AperFunction,Conductor*%
%ADD29C,0.100000*%
%TD*%
G04 APERTURE END LIST*
%TO.P,J5,1*%
%TO.N,VOUT_B*%
%TA.AperFunction,ComponentPad*%
G36*
G01*
X91922000Y38196999D02*
X91922000Y40797001D01*
G75*
G02*
X92171999Y41047000I249999J0D01*
G01*
X94772001Y41047000D01*
G75*
G02*
X95022000Y40797001I0J-249999D01*
G01*
X95022000Y38196999D01*
G75*
G02*
X94772001Y37947000I-249999J0D01*
G01*
X92171999Y37947000D01*
G75*
G02*
X91922000Y38196999I0J249999D01*
G01*
G37*
%TD.AperFunction*%
%TD*%
%TO.P,J3,1*%
%TO.N,VOUT_A*%
%TA.AperFunction,ComponentPad*%
G36*
G01*
X63347000Y38196999D02*
X63347000Y40797001D01*
G75*
G02*
X63596999Y41047000I249999J0D01*
G01*
X66197001Y41047000D01*
G75*
G02*
X66447000Y40797001I0J-249999D01*
G01*
X66447000Y38196999D01*
G75*
G02*
X66197001Y37947000I-249999J0D01*
G01*
X63596999Y37947000D01*
G75*
G02*
X63347000Y38196999I0J249999D01*
G01*
G37*
%TD.AperFunction*%
%TD*%
D10*
%TO.P,C10,2*%
%TO.N,GND*%
X45466000Y59530000D03*
D11*
%TO.P,C10,1*%
%TO.N,VCC*%
X45466000Y49530000D03*
%TD*%
%TO.P,R1,2*%
%TO.N,Net-(D2-Pad1)*%
%TA.AperFunction,SMDPad,CuDef*%
G36*
G01*
X64144998Y24184500D02*
X65395002Y24184500D01*
G75*
G02*
X65645000Y23934502I0J-249998D01*
G01*
X65645000Y23309498D01*
G75*
G02*
X65395002Y23059500I-249998J0D01*
G01*
X64144998Y23059500D01*
G75*
G02*
X63895000Y23309498I0J249998D01*
G01*
X63895000Y23934502D01*
G75*
G02*
X64144998Y24184500I249998J0D01*
G01*
G37*
%TD.AperFunction*%
%TO.P,R1,1*%
%TO.N,Net-(D2-Pad2)*%
%TA.AperFunction,SMDPad,CuDef*%
G36*
G01*
X64144998Y27109500D02*
X65395002Y27109500D01*
G75*
G02*
X65645000Y26859502I0J-249998D01*
G01*
X65645000Y26234498D01*
G75*
G02*
X65395002Y25984500I-249998J0D01*
G01*
X64144998Y25984500D01*
G75*
G02*
X63895000Y26234498I0J249998D01*
G01*
X63895000Y26859502D01*
G75*
G02*
X64144998Y27109500I249998J0D01*
G01*
G37*
%TD.AperFunction*%
%TD*%
D12*
%TO.P,D7,1*%
%TO.N,Net-(C12-Pad1)*%
X103251000Y11938000D03*
%TO.P,D7,2*%
%TO.N,+12V*%
X99951000Y11938000D03*
%TD*%
D13*
%TO.P,D5,1*%
%TO.N,Net-(D5-Pad1)*%
X107950000Y23368000D03*
%TO.P,D5,2*%
%TO.N,Net-(D5-Pad2)*%
X107950000Y26668000D03*
%TD*%
%TO.P,D6,1*%
%TO.N,Net-(D6-Pad1)*%
X122809000Y20066000D03*
%TO.P,D6,2*%
%TO.N,Net-(D6-Pad2)*%
X122809000Y23366000D03*
%TD*%
%TO.P,U2,1*%
%TO.N,DRV_C*%
%TA.AperFunction,SMDPad,CuDef*%
G36*
G01*
X106830000Y13822000D02*
X106530000Y13822000D01*
G75*
G02*
X106380000Y13972000I0J150000D01*
G01*
X106380000Y15622000D01*
G75*
G02*
X106530000Y15772000I150000J0D01*
G01*
X106830000Y15772000D01*
G75*
G02*
X106980000Y15622000I0J-150000D01*
G01*
X106980000Y13972000D01*
G75*
G02*
X106830000Y13822000I-150000J0D01*
G01*
G37*
%TD.AperFunction*%
%TO.P,U2,2*%
%TO.N,DRV_D*%
%TA.AperFunction,SMDPad,CuDef*%
G36*
G01*
X108100000Y13822000D02*
X107800000Y13822000D01*
G75*
G02*
X107650000Y13972000I0J150000D01*
G01*
X107650000Y15622000D01*
G75*
G02*
X107800000Y15772000I150000J0D01*
G01*
X108100000Y15772000D01*
G75*
G02*
X108250000Y15622000I0J-150000D01*
G01*
X108250000Y13972000D01*
G75*
G02*
X108100000Y13822000I-150000J0D01*
G01*
G37*
%TD.AperFunction*%
%TO.P,U2,3*%
%TO.N,GND*%
%TA.AperFunction,SMDPad,CuDef*%
G36*
G01*
X109370000Y13822000D02*
X109070000Y13822000D01*
G75*
G02*
X108920000Y13972000I0J150000D01*
G01*
X108920000Y15622000D01*
G75*
G02*
X109070000Y15772000I150000J0D01*
G01*
X109370000Y15772000D01*
G75*
G02*
X109520000Y15622000I0J-150000D01*
G01*
X109520000Y13972000D01*
G75*
G02*
X109370000Y13822000I-150000J0D01*
G01*
G37*
%TD.AperFunction*%
%TO.P,U2,4*%
%TO.N,Net-(D6-Pad1)*%
%TA.AperFunction,SMDPad,CuDef*%
G36*
G01*
X110640000Y13822000D02*
X110340000Y13822000D01*
G75*
G02*
X110190000Y13972000I0J150000D01*
G01*
X110190000Y15622000D01*
G75*
G02*
X110340000Y15772000I150000J0D01*
G01*
X110640000Y15772000D01*
G75*
G02*
X110790000Y15622000I0J-150000D01*
G01*
X110790000Y13972000D01*
G75*
G02*
X110640000Y13822000I-150000J0D01*
G01*
G37*
%TD.AperFunction*%
%TO.P,U2,5*%
%TO.N,+12V*%
%TA.AperFunction,SMDPad,CuDef*%
G36*
G01*
X110640000Y18772000D02*
X110340000Y18772000D01*
G75*
G02*
X110190000Y18922000I0J150000D01*
G01*
X110190000Y20572000D01*
G75*
G02*
X110340000Y20722000I150000J0D01*
G01*
X110640000Y20722000D01*
G75*
G02*
X110790000Y20572000I0J-150000D01*
G01*
X110790000Y18922000D01*
G75*
G02*
X110640000Y18772000I-150000J0D01*
G01*
G37*
%TD.AperFunction*%
%TO.P,U2,6*%
%TO.N,VOUT_B*%
%TA.AperFunction,SMDPad,CuDef*%
G36*
G01*
X109370000Y18772000D02*
X109070000Y18772000D01*
G75*
G02*
X108920000Y18922000I0J150000D01*
G01*
X108920000Y20572000D01*
G75*
G02*
X109070000Y20722000I150000J0D01*
G01*
X109370000Y20722000D01*
G75*
G02*
X109520000Y20572000I0J-150000D01*
G01*
X109520000Y18922000D01*
G75*
G02*
X109370000Y18772000I-150000J0D01*
G01*
G37*
%TD.AperFunction*%
%TO.P,U2,7*%
%TO.N,Net-(D5-Pad1)*%
%TA.AperFunction,SMDPad,CuDef*%
G36*
G01*
X108100000Y18772000D02*
X107800000Y18772000D01*
G75*
G02*
X107650000Y18922000I0J150000D01*
G01*
X107650000Y20572000D01*
G75*
G02*
X107800000Y20722000I150000J0D01*
G01*
X108100000Y20722000D01*
G75*
G02*
X108250000Y20572000I0J-150000D01*
G01*
X108250000Y18922000D01*
G75*
G02*
X108100000Y18772000I-150000J0D01*
G01*
G37*
%TD.AperFunction*%
%TO.P,U2,8*%
%TO.N,Net-(C12-Pad1)*%
%TA.AperFunction,SMDPad,CuDef*%
G36*
G01*
X106830000Y18772000D02*
X106530000Y18772000D01*
G75*
G02*
X106380000Y18922000I0J150000D01*
G01*
X106380000Y20572000D01*
G75*
G02*
X106530000Y20722000I150000J0D01*
G01*
X106830000Y20722000D01*
G75*
G02*
X106980000Y20572000I0J-150000D01*
G01*
X106980000Y18922000D01*
G75*
G02*
X106830000Y18772000I-150000J0D01*
G01*
G37*
%TD.AperFunction*%
%TD*%
D14*
%TO.P,Q3,1*%
%TO.N,Net-(D5-Pad2)*%
X103610000Y33020000D03*
D15*
%TO.P,Q3,2*%
%TO.N,VCC*%
X98160000Y33020000D03*
%TO.P,Q3,3*%
%TO.N,VOUT_B*%
X92710000Y33020000D03*
%TD*%
D14*
%TO.P,Q4,1*%
%TO.N,Net-(D6-Pad2)*%
X123168000Y33020000D03*
D15*
%TO.P,Q4,2*%
%TO.N,VOUT_B*%
X117718000Y33020000D03*
%TO.P,Q4,3*%
%TO.N,GND*%
X112268000Y33020000D03*
%TD*%
%TO.P,R3,1*%
%TO.N,Net-(D5-Pad2)*%
%TA.AperFunction,SMDPad,CuDef*%
G36*
G01*
X103260998Y27109500D02*
X104511002Y27109500D01*
G75*
G02*
X104761000Y26859502I0J-249998D01*
G01*
X104761000Y26234498D01*
G75*
G02*
X104511002Y25984500I-249998J0D01*
G01*
X103260998Y25984500D01*
G75*
G02*
X103011000Y26234498I0J249998D01*
G01*
X103011000Y26859502D01*
G75*
G02*
X103260998Y27109500I249998J0D01*
G01*
G37*
%TD.AperFunction*%
%TO.P,R3,2*%
%TO.N,Net-(D5-Pad1)*%
%TA.AperFunction,SMDPad,CuDef*%
G36*
G01*
X103260998Y24184500D02*
X104511002Y24184500D01*
G75*
G02*
X104761000Y23934502I0J-249998D01*
G01*
X104761000Y23309498D01*
G75*
G02*
X104511002Y23059500I-249998J0D01*
G01*
X103260998Y23059500D01*
G75*
G02*
X103011000Y23309498I0J249998D01*
G01*
X103011000Y23934502D01*
G75*
G02*
X103260998Y24184500I249998J0D01*
G01*
G37*
%TD.AperFunction*%
%TD*%
%TO.P,R4,1*%
%TO.N,Net-(D6-Pad2)*%
%TA.AperFunction,SMDPad,CuDef*%
G36*
G01*
X118119998Y23807500D02*
X119370002Y23807500D01*
G75*
G02*
X119620000Y23557502I0J-249998D01*
G01*
X119620000Y22932498D01*
G75*
G02*
X119370002Y22682500I-249998J0D01*
G01*
X118119998Y22682500D01*
G75*
G02*
X117870000Y22932498I0J249998D01*
G01*
X117870000Y23557502D01*
G75*
G02*
X118119998Y23807500I249998J0D01*
G01*
G37*
%TD.AperFunction*%
%TO.P,R4,2*%
%TO.N,Net-(D6-Pad1)*%
%TA.AperFunction,SMDPad,CuDef*%
G36*
G01*
X118119998Y20882500D02*
X119370002Y20882500D01*
G75*
G02*
X119620000Y20632502I0J-249998D01*
G01*
X119620000Y20007498D01*
G75*
G02*
X119370002Y19757500I-249998J0D01*
G01*
X118119998Y19757500D01*
G75*
G02*
X117870000Y20007498I0J249998D01*
G01*
X117870000Y20632502D01*
G75*
G02*
X118119998Y20882500I249998J0D01*
G01*
G37*
%TD.AperFunction*%
%TD*%
%TO.P,C16,1*%
%TO.N,+12V*%
%TA.AperFunction,SMDPad,CuDef*%
G36*
G01*
X113344000Y15155999D02*
X113344000Y17356001D01*
G75*
G02*
X113593999Y17606000I249999J0D01*
G01*
X114244001Y17606000D01*
G75*
G02*
X114494000Y17356001I0J-249999D01*
G01*
X114494000Y15155999D01*
G75*
G02*
X114244001Y14906000I-249999J0D01*
G01*
X113593999Y14906000D01*
G75*
G02*
X113344000Y15155999I0J249999D01*
G01*
G37*
%TD.AperFunction*%
%TO.P,C16,2*%
%TO.N,GND*%
%TA.AperFunction,SMDPad,CuDef*%
G36*
G01*
X116294000Y15155999D02*
X116294000Y17356001D01*
G75*
G02*
X116543999Y17606000I249999J0D01*
G01*
X117194001Y17606000D01*
G75*
G02*
X117444000Y17356001I0J-249999D01*
G01*
X117444000Y15155999D01*
G75*
G02*
X117194001Y14906000I-249999J0D01*
G01*
X116543999Y14906000D01*
G75*
G02*
X116294000Y15155999I0J249999D01*
G01*
G37*
%TD.AperFunction*%
%TD*%
%TO.P,C17,1*%
%TO.N,+12V*%
%TA.AperFunction,SMDPad,CuDef*%
G36*
G01*
X113215000Y20070000D02*
X113215000Y20570000D01*
G75*
G02*
X113440000Y20795000I225000J0D01*
G01*
X113890000Y20795000D01*
G75*
G02*
X114115000Y20570000I0J-225000D01*
G01*
X114115000Y20070000D01*
G75*
G02*
X113890000Y19845000I-225000J0D01*
G01*
X113440000Y19845000D01*
G75*
G02*
X113215000Y20070000I0J225000D01*
G01*
G37*
%TD.AperFunction*%
%TO.P,C17,2*%
%TO.N,GND*%
%TA.AperFunction,SMDPad,CuDef*%
G36*
G01*
X114765000Y20070000D02*
X114765000Y20570000D01*
G75*
G02*
X114990000Y20795000I225000J0D01*
G01*
X115440000Y20795000D01*
G75*
G02*
X115665000Y20570000I0J-225000D01*
G01*
X115665000Y20070000D01*
G75*
G02*
X115440000Y19845000I-225000J0D01*
G01*
X114990000Y19845000D01*
G75*
G02*
X114765000Y20070000I0J225000D01*
G01*
G37*
%TD.AperFunction*%
%TD*%
%TO.P,C14,1*%
%TO.N,Net-(C12-Pad1)*%
%TA.AperFunction,SMDPad,CuDef*%
G36*
G01*
X103826000Y17356001D02*
X103826000Y15155999D01*
G75*
G02*
X103576001Y14906000I-249999J0D01*
G01*
X102925999Y14906000D01*
G75*
G02*
X102676000Y15155999I0J249999D01*
G01*
X102676000Y17356001D01*
G75*
G02*
X102925999Y17606000I249999J0D01*
G01*
X103576001Y17606000D01*
G75*
G02*
X103826000Y17356001I0J-249999D01*
G01*
G37*
%TD.AperFunction*%
%TO.P,C14,2*%
%TO.N,VOUT_B*%
%TA.AperFunction,SMDPad,CuDef*%
G36*
G01*
X100876000Y17356001D02*
X100876000Y15155999D01*
G75*
G02*
X100626001Y14906000I-249999J0D01*
G01*
X99975999Y14906000D01*
G75*
G02*
X99726000Y15155999I0J249999D01*
G01*
X99726000Y17356001D01*
G75*
G02*
X99975999Y17606000I249999J0D01*
G01*
X100626001Y17606000D01*
G75*
G02*
X100876000Y17356001I0J-249999D01*
G01*
G37*
%TD.AperFunction*%
%TD*%
%TO.P,C12,1*%
%TO.N,Net-(C12-Pad1)*%
%TA.AperFunction,SMDPad,CuDef*%
G36*
G01*
X103955000Y20570000D02*
X103955000Y20070000D01*
G75*
G02*
X103730000Y19845000I-225000J0D01*
G01*
X103280000Y19845000D01*
G75*
G02*
X103055000Y20070000I0J225000D01*
G01*
X103055000Y20570000D01*
G75*
G02*
X103280000Y20795000I225000J0D01*
G01*
X103730000Y20795000D01*
G75*
G02*
X103955000Y20570000I0J-225000D01*
G01*
G37*
%TD.AperFunction*%
%TO.P,C12,2*%
%TO.N,VOUT_B*%
%TA.AperFunction,SMDPad,CuDef*%
G36*
G01*
X102405000Y20570000D02*
X102405000Y20070000D01*
G75*
G02*
X102180000Y19845000I-225000J0D01*
G01*
X101730000Y19845000D01*
G75*
G02*
X101505000Y20070000I0J225000D01*
G01*
X101505000Y20570000D01*
G75*
G02*
X101730000Y20795000I225000J0D01*
G01*
X102180000Y20795000D01*
G75*
G02*
X102405000Y20570000I0J-225000D01*
G01*
G37*
%TD.AperFunction*%
%TD*%
%TO.P,R2,2*%
%TO.N,Net-(D3-Pad1)*%
%TA.AperFunction,SMDPad,CuDef*%
G36*
G01*
X79003998Y20882500D02*
X80254002Y20882500D01*
G75*
G02*
X80504000Y20632502I0J-249998D01*
G01*
X80504000Y20007498D01*
G75*
G02*
X80254002Y19757500I-249998J0D01*
G01*
X79003998Y19757500D01*
G75*
G02*
X78754000Y20007498I0J249998D01*
G01*
X78754000Y20632502D01*
G75*
G02*
X79003998Y20882500I249998J0D01*
G01*
G37*
%TD.AperFunction*%
%TO.P,R2,1*%
%TO.N,Net-(D3-Pad2)*%
%TA.AperFunction,SMDPad,CuDef*%
G36*
G01*
X79003998Y23807500D02*
X80254002Y23807500D01*
G75*
G02*
X80504000Y23557502I0J-249998D01*
G01*
X80504000Y22932498D01*
G75*
G02*
X80254002Y22682500I-249998J0D01*
G01*
X79003998Y22682500D01*
G75*
G02*
X78754000Y22932498I0J249998D01*
G01*
X78754000Y23557502D01*
G75*
G02*
X79003998Y23807500I249998J0D01*
G01*
G37*
%TD.AperFunction*%
%TD*%
%TO.P,U1,8*%
%TO.N,Net-(C3-Pad1)*%
%TA.AperFunction,SMDPad,CuDef*%
G36*
G01*
X67714000Y18772000D02*
X67414000Y18772000D01*
G75*
G02*
X67264000Y18922000I0J150000D01*
G01*
X67264000Y20572000D01*
G75*
G02*
X67414000Y20722000I150000J0D01*
G01*
X67714000Y20722000D01*
G75*
G02*
X67864000Y20572000I0J-150000D01*
G01*
X67864000Y18922000D01*
G75*
G02*
X67714000Y18772000I-150000J0D01*
G01*
G37*
%TD.AperFunction*%
%TO.P,U1,7*%
%TO.N,Net-(D2-Pad1)*%
%TA.AperFunction,SMDPad,CuDef*%
G36*
G01*
X68984000Y18772000D02*
X68684000Y18772000D01*
G75*
G02*
X68534000Y18922000I0J150000D01*
G01*
X68534000Y20572000D01*
G75*
G02*
X68684000Y20722000I150000J0D01*
G01*
X68984000Y20722000D01*
G75*
G02*
X69134000Y20572000I0J-150000D01*
G01*
X69134000Y18922000D01*
G75*
G02*
X68984000Y18772000I-150000J0D01*
G01*
G37*
%TD.AperFunction*%
%TO.P,U1,6*%
%TO.N,VOUT_A*%
%TA.AperFunction,SMDPad,CuDef*%
G36*
G01*
X70254000Y18772000D02*
X69954000Y18772000D01*
G75*
G02*
X69804000Y18922000I0J150000D01*
G01*
X69804000Y20572000D01*
G75*
G02*
X69954000Y20722000I150000J0D01*
G01*
X70254000Y20722000D01*
G75*
G02*
X70404000Y20572000I0J-150000D01*
G01*
X70404000Y18922000D01*
G75*
G02*
X70254000Y18772000I-150000J0D01*
G01*
G37*
%TD.AperFunction*%
%TO.P,U1,5*%
%TO.N,+12V*%
%TA.AperFunction,SMDPad,CuDef*%
G36*
G01*
X71524000Y18772000D02*
X71224000Y18772000D01*
G75*
G02*
X71074000Y18922000I0J150000D01*
G01*
X71074000Y20572000D01*
G75*
G02*
X71224000Y20722000I150000J0D01*
G01*
X71524000Y20722000D01*
G75*
G02*
X71674000Y20572000I0J-150000D01*
G01*
X71674000Y18922000D01*
G75*
G02*
X71524000Y18772000I-150000J0D01*
G01*
G37*
%TD.AperFunction*%
%TO.P,U1,4*%
%TO.N,Net-(D3-Pad1)*%
%TA.AperFunction,SMDPad,CuDef*%
G36*
G01*
X71524000Y13822000D02*
X71224000Y13822000D01*
G75*
G02*
X71074000Y13972000I0J150000D01*
G01*
X71074000Y15622000D01*
G75*
G02*
X71224000Y15772000I150000J0D01*
G01*
X71524000Y15772000D01*
G75*
G02*
X71674000Y15622000I0J-150000D01*
G01*
X71674000Y13972000D01*
G75*
G02*
X71524000Y13822000I-150000J0D01*
G01*
G37*
%TD.AperFunction*%
%TO.P,U1,3*%
%TO.N,GND*%
%TA.AperFunction,SMDPad,CuDef*%
G36*
G01*
X70254000Y13822000D02*
X69954000Y13822000D01*
G75*
G02*
X69804000Y13972000I0J150000D01*
G01*
X69804000Y15622000D01*
G75*
G02*
X69954000Y15772000I150000J0D01*
G01*
X70254000Y15772000D01*
G75*
G02*
X70404000Y15622000I0J-150000D01*
G01*
X70404000Y13972000D01*
G75*
G02*
X70254000Y13822000I-150000J0D01*
G01*
G37*
%TD.AperFunction*%
%TO.P,U1,2*%
%TO.N,DRV_B*%
%TA.AperFunction,SMDPad,CuDef*%
G36*
G01*
X68984000Y13822000D02*
X68684000Y13822000D01*
G75*
G02*
X68534000Y13972000I0J150000D01*
G01*
X68534000Y15622000D01*
G75*
G02*
X68684000Y15772000I150000J0D01*
G01*
X68984000Y15772000D01*
G75*
G02*
X69134000Y15622000I0J-150000D01*
G01*
X69134000Y13972000D01*
G75*
G02*
X68984000Y13822000I-150000J0D01*
G01*
G37*
%TD.AperFunction*%
%TO.P,U1,1*%
%TO.N,DRV_A*%
%TA.AperFunction,SMDPad,CuDef*%
G36*
G01*
X67714000Y13822000D02*
X67414000Y13822000D01*
G75*
G02*
X67264000Y13972000I0J150000D01*
G01*
X67264000Y15622000D01*
G75*
G02*
X67414000Y15772000I150000J0D01*
G01*
X67714000Y15772000D01*
G75*
G02*
X67864000Y15622000I0J-150000D01*
G01*
X67864000Y13972000D01*
G75*
G02*
X67714000Y13822000I-150000J0D01*
G01*
G37*
%TD.AperFunction*%
%TD*%
%TO.P,Q2,3*%
%TO.N,GND*%
X73152000Y33020000D03*
%TO.P,Q2,2*%
%TO.N,VOUT_A*%
X78602000Y33020000D03*
D14*
%TO.P,Q2,1*%
%TO.N,Net-(D3-Pad2)*%
X84052000Y33020000D03*
%TD*%
D15*
%TO.P,Q1,3*%
%TO.N,VOUT_A*%
X53594000Y33020000D03*
%TO.P,Q1,2*%
%TO.N,VCC*%
X59044000Y33020000D03*
D14*
%TO.P,Q1,1*%
%TO.N,Net-(D2-Pad2)*%
X64494000Y33020000D03*
%TD*%
D16*
%TO.P,PS1,1*%
%TO.N,NEUT*%
X14986000Y15450000D03*
D17*
%TO.P,PS1,4*%
%TO.N,+12V*%
X53486000Y12700000D03*
%TO.P,PS1,2*%
%TO.N,Net-(D4-Pad2)*%
X14986000Y4700000D03*
%TO.P,PS1,3*%
%TO.N,GND*%
X53486000Y4700000D03*
%TD*%
D18*
%TO.P,J4,4*%
%TO.N,+12V*%
X95758000Y3302000D03*
%TO.P,J4,3*%
%TO.N,DRV_A*%
X98298000Y3302000D03*
%TO.P,J4,2*%
%TO.N,DRV_B*%
X100838000Y3302000D03*
D19*
%TO.P,J4,1*%
%TO.N,GND*%
X103378000Y3302000D03*
%TD*%
D20*
%TO.P,J2,2*%
%TO.N,LINE*%
X2890000Y46228000D03*
%TO.P,J2,1*%
%TO.N,NEUT*%
%TA.AperFunction,ComponentPad*%
G36*
G01*
X10440000Y47528001D02*
X10440000Y44927999D01*
G75*
G02*
X10190001Y44678000I-249999J0D01*
G01*
X7589999Y44678000D01*
G75*
G02*
X7340000Y44927999I0J249999D01*
G01*
X7340000Y47528001D01*
G75*
G02*
X7589999Y47778000I249999J0D01*
G01*
X10190001Y47778000D01*
G75*
G02*
X10440000Y47528001I0J-249999D01*
G01*
G37*
%TD.AperFunction*%
%TD*%
D18*
%TO.P,J1,6*%
%TO.N,GND*%
X89154000Y3302000D03*
%TO.P,J1,5*%
%TO.N,DRV_C*%
X86614000Y3302000D03*
%TO.P,J1,4*%
%TO.N,DRV_B*%
X84074000Y3302000D03*
%TO.P,J1,3*%
%TO.N,DRV_D*%
X81534000Y3302000D03*
%TO.P,J1,2*%
%TO.N,DRV_A*%
X78994000Y3302000D03*
D19*
%TO.P,J1,1*%
%TO.N,+12V*%
X76454000Y3302000D03*
%TD*%
D21*
%TO.P,F1,2*%
%TO.N,LINE*%
X4318000Y39540000D03*
%TO.P,F1,1*%
%TO.N,Net-(D4-Pad2)*%
X4318000Y2540000D03*
%TD*%
D22*
%TO.P,D4,1*%
%TO.N,GND*%
X18942000Y33020000D03*
D23*
%TO.P,D4,2*%
%TO.N,Net-(D4-Pad2)*%
X26442000Y33020000D03*
%TO.P,D4,3*%
%TO.N,NEUT*%
X33942000Y33020000D03*
%TO.P,D4,4*%
%TO.N,VCC*%
X43942000Y33020000D03*
%TD*%
D13*
%TO.P,D3,2*%
%TO.N,Net-(D3-Pad2)*%
X83693000Y23366000D03*
%TO.P,D3,1*%
%TO.N,Net-(D3-Pad1)*%
X83693000Y20066000D03*
%TD*%
%TO.P,D2,2*%
%TO.N,Net-(D2-Pad2)*%
X68834000Y26668000D03*
%TO.P,D2,1*%
%TO.N,Net-(D2-Pad1)*%
X68834000Y23368000D03*
%TD*%
D12*
%TO.P,D1,2*%
%TO.N,+12V*%
X60835000Y11938000D03*
%TO.P,D1,1*%
%TO.N,Net-(C3-Pad1)*%
X64135000Y11938000D03*
%TD*%
D10*
%TO.P,C13,2*%
%TO.N,GND*%
X112522000Y59530000D03*
D11*
%TO.P,C13,1*%
%TO.N,VCC*%
X112522000Y49530000D03*
%TD*%
D10*
%TO.P,C11,2*%
%TO.N,GND*%
X78994000Y59530000D03*
D11*
%TO.P,C11,1*%
%TO.N,VCC*%
X78994000Y49530000D03*
%TD*%
%TO.P,C9,2*%
%TO.N,GND*%
%TA.AperFunction,SMDPad,CuDef*%
G36*
G01*
X97126000Y62508999D02*
X97126000Y68809001D01*
G75*
G02*
X97375999Y69059000I249999J0D01*
G01*
X98276001Y69059000D01*
G75*
G02*
X98526000Y68809001I0J-249999D01*
G01*
X98526000Y62508999D01*
G75*
G02*
X98276001Y62259000I-249999J0D01*
G01*
X97375999Y62259000D01*
G75*
G02*
X97126000Y62508999I0J249999D01*
G01*
G37*
%TD.AperFunction*%
%TO.P,C9,1*%
%TO.N,VCC*%
%TA.AperFunction,SMDPad,CuDef*%
G36*
G01*
X93026000Y62508999D02*
X93026000Y68809001D01*
G75*
G02*
X93275999Y69059000I249999J0D01*
G01*
X94176001Y69059000D01*
G75*
G02*
X94426000Y68809001I0J-249999D01*
G01*
X94426000Y62508999D01*
G75*
G02*
X94176001Y62259000I-249999J0D01*
G01*
X93275999Y62259000D01*
G75*
G02*
X93026000Y62508999I0J249999D01*
G01*
G37*
%TD.AperFunction*%
%TD*%
%TO.P,C7,2*%
%TO.N,GND*%
%TA.AperFunction,SMDPad,CuDef*%
G36*
G01*
X70616000Y8959000D02*
X71116000Y8959000D01*
G75*
G02*
X71341000Y8734000I0J-225000D01*
G01*
X71341000Y8284000D01*
G75*
G02*
X71116000Y8059000I-225000J0D01*
G01*
X70616000Y8059000D01*
G75*
G02*
X70391000Y8284000I0J225000D01*
G01*
X70391000Y8734000D01*
G75*
G02*
X70616000Y8959000I225000J0D01*
G01*
G37*
%TD.AperFunction*%
%TO.P,C7,1*%
%TO.N,+12V*%
%TA.AperFunction,SMDPad,CuDef*%
G36*
G01*
X70616000Y10509000D02*
X71116000Y10509000D01*
G75*
G02*
X71341000Y10284000I0J-225000D01*
G01*
X71341000Y9834000D01*
G75*
G02*
X71116000Y9609000I-225000J0D01*
G01*
X70616000Y9609000D01*
G75*
G02*
X70391000Y9834000I0J225000D01*
G01*
X70391000Y10284000D01*
G75*
G02*
X70616000Y10509000I225000J0D01*
G01*
G37*
%TD.AperFunction*%
%TD*%
%TO.P,C6,2*%
%TO.N,GND*%
%TA.AperFunction,SMDPad,CuDef*%
G36*
G01*
X63598000Y62508999D02*
X63598000Y68809001D01*
G75*
G02*
X63847999Y69059000I249999J0D01*
G01*
X64748001Y69059000D01*
G75*
G02*
X64998000Y68809001I0J-249999D01*
G01*
X64998000Y62508999D01*
G75*
G02*
X64748001Y62259000I-249999J0D01*
G01*
X63847999Y62259000D01*
G75*
G02*
X63598000Y62508999I0J249999D01*
G01*
G37*
%TD.AperFunction*%
%TO.P,C6,1*%
%TO.N,VCC*%
%TA.AperFunction,SMDPad,CuDef*%
G36*
G01*
X59498000Y62508999D02*
X59498000Y68809001D01*
G75*
G02*
X59747999Y69059000I249999J0D01*
G01*
X60648001Y69059000D01*
G75*
G02*
X60898000Y68809001I0J-249999D01*
G01*
X60898000Y62508999D01*
G75*
G02*
X60648001Y62259000I-249999J0D01*
G01*
X59747999Y62259000D01*
G75*
G02*
X59498000Y62508999I0J249999D01*
G01*
G37*
%TD.AperFunction*%
%TD*%
%TO.P,C5,2*%
%TO.N,GND*%
%TA.AperFunction,SMDPad,CuDef*%
G36*
G01*
X65953000Y4403000D02*
X65953000Y5503000D01*
G75*
G02*
X66203000Y5753000I250000J0D01*
G01*
X69203000Y5753000D01*
G75*
G02*
X69453000Y5503000I0J-250000D01*
G01*
X69453000Y4403000D01*
G75*
G02*
X69203000Y4153000I-250000J0D01*
G01*
X66203000Y4153000D01*
G75*
G02*
X65953000Y4403000I0J250000D01*
G01*
G37*
%TD.AperFunction*%
%TO.P,C5,1*%
%TO.N,+12V*%
%TA.AperFunction,SMDPad,CuDef*%
G36*
G01*
X60353000Y4403000D02*
X60353000Y5503000D01*
G75*
G02*
X60603000Y5753000I250000J0D01*
G01*
X63603000Y5753000D01*
G75*
G02*
X63853000Y5503000I0J-250000D01*
G01*
X63853000Y4403000D01*
G75*
G02*
X63603000Y4153000I-250000J0D01*
G01*
X60603000Y4153000D01*
G75*
G02*
X60353000Y4403000I0J250000D01*
G01*
G37*
%TD.AperFunction*%
%TD*%
%TO.P,C4,2*%
%TO.N,VOUT_A*%
%TA.AperFunction,SMDPad,CuDef*%
G36*
G01*
X63289000Y20570000D02*
X63289000Y20070000D01*
G75*
G02*
X63064000Y19845000I-225000J0D01*
G01*
X62614000Y19845000D01*
G75*
G02*
X62389000Y20070000I0J225000D01*
G01*
X62389000Y20570000D01*
G75*
G02*
X62614000Y20795000I225000J0D01*
G01*
X63064000Y20795000D01*
G75*
G02*
X63289000Y20570000I0J-225000D01*
G01*
G37*
%TD.AperFunction*%
%TO.P,C4,1*%
%TO.N,Net-(C3-Pad1)*%
%TA.AperFunction,SMDPad,CuDef*%
G36*
G01*
X64839000Y20570000D02*
X64839000Y20070000D01*
G75*
G02*
X64614000Y19845000I-225000J0D01*
G01*
X64164000Y19845000D01*
G75*
G02*
X63939000Y20070000I0J225000D01*
G01*
X63939000Y20570000D01*
G75*
G02*
X64164000Y20795000I225000J0D01*
G01*
X64614000Y20795000D01*
G75*
G02*
X64839000Y20570000I0J-225000D01*
G01*
G37*
%TD.AperFunction*%
%TD*%
%TO.P,C3,2*%
%TO.N,VOUT_A*%
%TA.AperFunction,SMDPad,CuDef*%
G36*
G01*
X61760000Y17356001D02*
X61760000Y15155999D01*
G75*
G02*
X61510001Y14906000I-249999J0D01*
G01*
X60859999Y14906000D01*
G75*
G02*
X60610000Y15155999I0J249999D01*
G01*
X60610000Y17356001D01*
G75*
G02*
X60859999Y17606000I249999J0D01*
G01*
X61510001Y17606000D01*
G75*
G02*
X61760000Y17356001I0J-249999D01*
G01*
G37*
%TD.AperFunction*%
%TO.P,C3,1*%
%TO.N,Net-(C3-Pad1)*%
%TA.AperFunction,SMDPad,CuDef*%
G36*
G01*
X64710000Y17356001D02*
X64710000Y15155999D01*
G75*
G02*
X64460001Y14906000I-249999J0D01*
G01*
X63809999Y14906000D01*
G75*
G02*
X63560000Y15155999I0J249999D01*
G01*
X63560000Y17356001D01*
G75*
G02*
X63809999Y17606000I249999J0D01*
G01*
X64460001Y17606000D01*
G75*
G02*
X64710000Y17356001I0J-249999D01*
G01*
G37*
%TD.AperFunction*%
%TD*%
%TO.P,C2,2*%
%TO.N,GND*%
%TA.AperFunction,SMDPad,CuDef*%
G36*
G01*
X77178000Y15155999D02*
X77178000Y17356001D01*
G75*
G02*
X77427999Y17606000I249999J0D01*
G01*
X78078001Y17606000D01*
G75*
G02*
X78328000Y17356001I0J-249999D01*
G01*
X78328000Y15155999D01*
G75*
G02*
X78078001Y14906000I-249999J0D01*
G01*
X77427999Y14906000D01*
G75*
G02*
X77178000Y15155999I0J249999D01*
G01*
G37*
%TD.AperFunction*%
%TO.P,C2,1*%
%TO.N,+12V*%
%TA.AperFunction,SMDPad,CuDef*%
G36*
G01*
X74228000Y15155999D02*
X74228000Y17356001D01*
G75*
G02*
X74477999Y17606000I249999J0D01*
G01*
X75128001Y17606000D01*
G75*
G02*
X75378000Y17356001I0J-249999D01*
G01*
X75378000Y15155999D01*
G75*
G02*
X75128001Y14906000I-249999J0D01*
G01*
X74477999Y14906000D01*
G75*
G02*
X74228000Y15155999I0J249999D01*
G01*
G37*
%TD.AperFunction*%
%TD*%
%TO.P,C1,2*%
%TO.N,GND*%
%TA.AperFunction,SMDPad,CuDef*%
G36*
G01*
X75649000Y20070000D02*
X75649000Y20570000D01*
G75*
G02*
X75874000Y20795000I225000J0D01*
G01*
X76324000Y20795000D01*
G75*
G02*
X76549000Y20570000I0J-225000D01*
G01*
X76549000Y20070000D01*
G75*
G02*
X76324000Y19845000I-225000J0D01*
G01*
X75874000Y19845000D01*
G75*
G02*
X75649000Y20070000I0J225000D01*
G01*
G37*
%TD.AperFunction*%
%TO.P,C1,1*%
%TO.N,+12V*%
%TA.AperFunction,SMDPad,CuDef*%
G36*
G01*
X74099000Y20070000D02*
X74099000Y20570000D01*
G75*
G02*
X74324000Y20795000I225000J0D01*
G01*
X74774000Y20795000D01*
G75*
G02*
X74999000Y20570000I0J-225000D01*
G01*
X74999000Y20070000D01*
G75*
G02*
X74774000Y19845000I-225000J0D01*
G01*
X74324000Y19845000D01*
G75*
G02*
X74099000Y20070000I0J225000D01*
G01*
G37*
%TD.AperFunction*%
%TD*%
D24*
%TO.N,GND*%
X67564000Y5080000D03*
D25*
X97790000Y63500000D03*
X97790000Y65659000D03*
X97790000Y67818000D03*
X64262000Y63500000D03*
X64262000Y65659000D03*
X64262000Y67818000D03*
D24*
X2794000Y33020000D03*
X7874000Y33020000D03*
X7874000Y25400000D03*
X2794000Y25400000D03*
X2794000Y17780000D03*
X10414000Y17780000D03*
X15494000Y30480000D03*
X15494000Y35560000D03*
X37338000Y25400000D03*
X45720000Y25400000D03*
X54356000Y23622000D03*
X36830000Y20320000D03*
X35814000Y15240000D03*
X37592000Y10160000D03*
X35814000Y5080000D03*
X43434000Y5080000D03*
X45212000Y10160000D03*
X43434000Y15240000D03*
X44704000Y20320000D03*
X51054000Y20320000D03*
X48514000Y15240000D03*
X61214000Y26670000D03*
X56134000Y17780000D03*
X65024000Y7620000D03*
X70104000Y7620000D03*
X71374000Y3810000D03*
X65024000Y2540000D03*
X48514000Y3810000D03*
X58674000Y8890000D03*
X5334000Y29210000D03*
X5334000Y21590000D03*
X9144000Y21590000D03*
X4064000Y66040000D03*
X11684000Y66040000D03*
X19304000Y66040000D03*
X26924000Y66040000D03*
X34544000Y66040000D03*
X34544000Y58420000D03*
X34544000Y50800000D03*
X26924000Y50800000D03*
X19304000Y50800000D03*
X11684000Y50800000D03*
X4064000Y50800000D03*
X4064000Y58420000D03*
X11684000Y58420000D03*
X19304000Y58420000D03*
X26924000Y58420000D03*
X72644000Y27940000D03*
X78740000Y27940000D03*
X75184000Y25400000D03*
X72644000Y22860000D03*
X86614000Y26670000D03*
X91694000Y26670000D03*
X94488000Y22860000D03*
X96520000Y15494000D03*
X89154000Y13970000D03*
X84328000Y15494000D03*
X88900000Y19558000D03*
X93726000Y18796000D03*
X112014000Y27940000D03*
X117856000Y27940000D03*
X114554000Y25400000D03*
X112014000Y22860000D03*
X125222000Y27940000D03*
X125984000Y19050000D03*
X125730000Y8890000D03*
X125730000Y3810000D03*
X120142000Y3810000D03*
X113538000Y7620000D03*
X100584000Y7620000D03*
X94234000Y10160000D03*
X86614000Y10160000D03*
X82804000Y10160000D03*
X78994000Y10160000D03*
X70104000Y17272000D03*
X68834000Y17272000D03*
X66294000Y17272000D03*
X66548000Y11938000D03*
X72644000Y17272000D03*
X92456000Y10160000D03*
X96012000Y10160000D03*
X124714000Y14732000D03*
X125984000Y24130000D03*
X106680000Y5842000D03*
X99822000Y27686000D03*
X113538000Y3810000D03*
X120142000Y7620000D03*
X122174000Y11430000D03*
X109220000Y17272000D03*
X107950000Y17272000D03*
X111760000Y17272000D03*
X105410000Y17272000D03*
%TO.N,+12V*%
X74803000Y16256000D03*
X74803000Y11430000D03*
X113919000Y16256000D03*
X113919000Y11430000D03*
X101856000Y10033000D03*
%TO.N,VOUT_A*%
X70104000Y19812000D03*
X62865000Y20320000D03*
X61214000Y16256000D03*
D25*
X62357000Y42037000D03*
X62357000Y36957000D03*
X67437000Y42037000D03*
X67437000Y36957000D03*
X64897000Y42037000D03*
X64897000Y36957000D03*
X67437000Y39497000D03*
X62357000Y39497000D03*
D24*
%TO.N,VOUT_B*%
X101981000Y20320000D03*
X100330000Y16256000D03*
X109220000Y19812000D03*
D25*
X108585000Y38227000D03*
X107315000Y36957000D03*
X104775000Y42037000D03*
X103505000Y36957000D03*
X107315000Y42037000D03*
X103505000Y38227000D03*
X103505000Y40767000D03*
X108585000Y36957000D03*
X104775000Y36957000D03*
X103505000Y39497000D03*
X108585000Y40767000D03*
X108585000Y42037000D03*
X108585000Y39497000D03*
X103505000Y42037000D03*
X106045000Y36957000D03*
X106045000Y42037000D03*
X104775000Y40767000D03*
X106045000Y40767000D03*
X107315000Y40767000D03*
X107315000Y39497000D03*
X106045000Y39497000D03*
X104775000Y39497000D03*
X104775000Y38227000D03*
X106045000Y38227000D03*
X107315000Y38227000D03*
D24*
%TO.N,DRV_C*%
X106680000Y14732000D03*
X95758000Y5461000D03*
%TO.N,DRV_B*%
X68834000Y14732000D03*
X75565000Y8001000D03*
%TO.N,DRV_D*%
X105156000Y11938000D03*
X85344000Y5461000D03*
%TO.N,DRV_A*%
X67564000Y14732000D03*
X77216000Y6731000D03*
X84455000Y6731000D03*
%TD*%
D26*
%TO.N,+12V*%
X71374000Y19747000D02*
X73976000Y19747000D01*
X73976000Y19747000D02*
X74549000Y20320000D01*
X74803000Y18920000D02*
X73976000Y19747000D01*
X74803000Y16256000D02*
X74803000Y16256000D01*
X113919000Y18920000D02*
X113092000Y19747000D01*
X113919000Y16256000D02*
X113919000Y18920000D01*
X113092000Y19747000D02*
X113665000Y20320000D01*
X110490000Y19747000D02*
X113092000Y19747000D01*
X53486000Y12700000D02*
X60071000Y12700000D01*
X60071000Y12700000D02*
X60833000Y11938000D01*
X60833000Y11938000D02*
X60833000Y11938000D01*
X60835000Y11938000D02*
X62740000Y10033000D01*
X72644000Y10033000D02*
X72644000Y10033000D01*
X74803000Y16256000D02*
X74803000Y18920000D01*
X62103000Y9396000D02*
X62740000Y10033000D01*
X62103000Y4953000D02*
X62103000Y9396000D01*
X62740000Y10033000D02*
X73025000Y10033000D01*
X73406000Y10033000D02*
X73025000Y10033000D01*
X74803000Y11430000D02*
X73406000Y10033000D01*
X99951000Y11938000D02*
X81534000Y11938000D01*
X81026000Y11430000D02*
X74803000Y11430000D01*
X81534000Y11938000D02*
X81026000Y11430000D01*
X101856000Y10033000D02*
X101856000Y10033000D01*
X99951000Y11938000D02*
X101856000Y10033000D01*
X113919000Y11430000D02*
X112522000Y10033000D01*
X112522000Y10033000D02*
X112141000Y10033000D01*
X73406000Y10033000D02*
X73406000Y6350000D01*
X73406000Y6350000D02*
X76454000Y3302000D01*
X101856000Y10033000D02*
X112141000Y10033000D01*
%TO.N,Net-(C3-Pad1)*%
X67564000Y19747000D02*
X64962000Y19747000D01*
X64962000Y19747000D02*
X64389000Y20320000D01*
X64135000Y18920000D02*
X64962000Y19747000D01*
X64135000Y16256000D02*
X64135000Y18920000D01*
X64135000Y11938000D02*
X64135000Y16256000D01*
%TO.N,Net-(C12-Pad1)*%
X106680000Y19747000D02*
X104078000Y19747000D01*
X104078000Y19747000D02*
X103505000Y20320000D01*
X103251000Y18920000D02*
X104078000Y19747000D01*
X103251000Y16256000D02*
X103251000Y18920000D01*
X103251000Y11938000D02*
X103251000Y16256000D01*
%TO.N,Net-(D2-Pad2)*%
X64494000Y26819000D02*
X64770000Y26543000D01*
X64494000Y29950000D02*
X64494000Y26819000D01*
X64494000Y33020000D02*
X64494000Y29950000D01*
X67776000Y26668000D02*
X64494000Y29950000D01*
X68834000Y26668000D02*
X67776000Y26668000D01*
%TO.N,Net-(D2-Pad1)*%
X68834000Y19747000D02*
X68834000Y21336000D01*
X68834000Y21336000D02*
X66548000Y23622000D01*
X66548000Y23622000D02*
X64770000Y23622000D01*
X68834000Y23368000D02*
X68834000Y21336000D01*
%TO.N,Net-(D3-Pad2)*%
X83693000Y23366000D02*
X83693000Y27305000D01*
X83689000Y27305000D02*
X83693000Y27305000D01*
X79629000Y23245000D02*
X83689000Y27305000D01*
X83693000Y27305000D02*
X83693000Y32639000D01*
X83693000Y32639000D02*
X84074000Y33020000D01*
%TO.N,Net-(D3-Pad1)*%
X73217000Y12954000D02*
X78994000Y12954000D01*
X78994000Y12954000D02*
X80010000Y13970000D01*
X80010000Y19939000D02*
X79629000Y20320000D01*
X83693000Y20066000D02*
X80010000Y16383000D01*
X80010000Y16383000D02*
X80010000Y19939000D01*
X80010000Y13970000D02*
X80010000Y16383000D01*
X71374000Y14797000D02*
X73217000Y12954000D01*
D27*
%TO.N,NEUT*%
X14986000Y15450000D02*
X14986000Y23368000D01*
X14986000Y23368000D02*
X11430000Y26924000D01*
X11430000Y26924000D02*
X11430000Y39116000D01*
D26*
%TO.N,Net-(D5-Pad2)*%
X103610000Y33020000D02*
X103610000Y29950000D01*
X107950000Y26668000D02*
X106892000Y26668000D01*
X103610000Y29950000D02*
X103610000Y26819000D01*
X106892000Y26668000D02*
X103610000Y29950000D01*
X103610000Y26819000D02*
X103886000Y26543000D01*
%TO.N,Net-(D5-Pad1)*%
X107950000Y23368000D02*
X107950000Y21336000D01*
X107950000Y19747000D02*
X107950000Y21336000D01*
X105664000Y23622000D02*
X103886000Y23622000D01*
X107950000Y21336000D02*
X105664000Y23622000D01*
%TO.N,Net-(D6-Pad2)*%
X122809000Y32639000D02*
X123190000Y33020000D01*
X118745000Y23245000D02*
X122805000Y27305000D01*
X122805000Y27305000D02*
X122809000Y27305000D01*
X122809000Y23366000D02*
X122809000Y27305000D01*
X122809000Y27305000D02*
X122809000Y32639000D01*
%TO.N,Net-(D6-Pad1)*%
X122809000Y20066000D02*
X119126000Y16383000D01*
X110490000Y14797000D02*
X112333000Y12954000D01*
X118110000Y12954000D02*
X119126000Y13970000D01*
X119126000Y16383000D02*
X119126000Y19939000D01*
X119126000Y13970000D02*
X119126000Y16383000D01*
X119126000Y19939000D02*
X118745000Y20320000D01*
X112333000Y12954000D02*
X118110000Y12954000D01*
%TO.N,DRV_C*%
X86614000Y3302000D02*
X86614000Y4953000D01*
X86614000Y4953000D02*
X87122000Y5461000D01*
X87122000Y5461000D02*
X95758000Y5461000D01*
X95758000Y5461000D02*
X95758000Y5461000D01*
%TO.N,DRV_B*%
X75565000Y8001000D02*
X81026000Y8001000D01*
X84074000Y4953000D02*
X84074000Y3302000D01*
X81026000Y8001000D02*
X84074000Y4953000D01*
X81026000Y8001000D02*
X97409000Y8001000D01*
X97409000Y8001000D02*
X100838000Y4572000D01*
X100838000Y4572000D02*
X100838000Y3302000D01*
%TO.N,DRV_D*%
X107950000Y14797000D02*
X107950000Y12954000D01*
X107950000Y12954000D02*
X106934000Y11938000D01*
X106934000Y11938000D02*
X105156000Y11938000D01*
X105156000Y11938000D02*
X105156000Y11938000D01*
%TO.N,DRV_A*%
X77216000Y6731000D02*
X78994000Y4953000D01*
X78994000Y4953000D02*
X78994000Y3302000D01*
X84455000Y6731000D02*
X96520000Y6731000D01*
X96520000Y6731000D02*
X98298000Y4953000D01*
X98298000Y4953000D02*
X98298000Y3302000D01*
%TD*%
D28*
%TO.N,Net-(D4-Pad2)*%
X29083000Y30226000D02*
X29085440Y30201224D01*
X29092667Y30177399D01*
X29104403Y30155443D01*
X29125041Y30131602D01*
X31623000Y27883439D01*
X31623000Y660000D01*
X660000Y660000D01*
X660000Y11303000D01*
X18796000Y11303000D01*
X18820776Y11305440D01*
X18844601Y11312667D01*
X18866557Y11324403D01*
X18885803Y11340197D01*
X18901597Y11359443D01*
X18913333Y11381399D01*
X18920560Y11405224D01*
X18923000Y11430000D01*
X18923000Y27859630D01*
X23676367Y30111225D01*
X23697714Y30124037D01*
X23716151Y30140767D01*
X23730970Y30160773D01*
X23741601Y30183285D01*
X23747636Y30207439D01*
X23749000Y30226000D01*
X23749000Y35941000D01*
X29083000Y35941000D01*
X29083000Y30226000D01*
%TA.AperFunction,Conductor*%
D29*
G36*
X29083000Y30226000D02*
G01*
X29085440Y30201224D01*
X29092667Y30177399D01*
X29104403Y30155443D01*
X29125041Y30131602D01*
X31623000Y27883439D01*
X31623000Y660000D01*
X660000Y660000D01*
X660000Y11303000D01*
X18796000Y11303000D01*
X18820776Y11305440D01*
X18844601Y11312667D01*
X18866557Y11324403D01*
X18885803Y11340197D01*
X18901597Y11359443D01*
X18913333Y11381399D01*
X18920560Y11405224D01*
X18923000Y11430000D01*
X18923000Y27859630D01*
X23676367Y30111225D01*
X23697714Y30124037D01*
X23716151Y30140767D01*
X23730970Y30160773D01*
X23741601Y30183285D01*
X23747636Y30207439D01*
X23749000Y30226000D01*
X23749000Y35941000D01*
X29083000Y35941000D01*
X29083000Y30226000D01*
G37*
%TD.AperFunction*%
%TD*%
D28*
%TO.N,NEUT*%
X37973000Y30099000D02*
X33066981Y30099000D01*
X31369000Y31554413D01*
X31369000Y36068000D01*
X31366560Y36092776D01*
X31362483Y36108161D01*
X31108483Y36870161D01*
X31101592Y36886796D01*
X30593592Y37902796D01*
X30580329Y37923866D01*
X30563211Y37941943D01*
X30542894Y37956333D01*
X30510802Y37969208D01*
X29494802Y38223208D01*
X29464000Y38227000D01*
X9017000Y38227000D01*
X9017000Y41148000D01*
X9014560Y41172776D01*
X9007333Y41196601D01*
X8999700Y41211992D01*
X7239000Y44230335D01*
X7239000Y48133000D01*
X37973000Y48133000D01*
X37973000Y30099000D01*
%TA.AperFunction,Conductor*%
D29*
G36*
X37973000Y30099000D02*
G01*
X33066981Y30099000D01*
X31369000Y31554413D01*
X31369000Y36068000D01*
X31366560Y36092776D01*
X31362483Y36108161D01*
X31108483Y36870161D01*
X31101592Y36886796D01*
X30593592Y37902796D01*
X30580329Y37923866D01*
X30563211Y37941943D01*
X30542894Y37956333D01*
X30510802Y37969208D01*
X29494802Y38223208D01*
X29464000Y38227000D01*
X9017000Y38227000D01*
X9017000Y41148000D01*
X9014560Y41172776D01*
X9007333Y41196601D01*
X8999700Y41211992D01*
X7239000Y44230335D01*
X7239000Y48133000D01*
X37973000Y48133000D01*
X37973000Y30099000D01*
G37*
%TD.AperFunction*%
%TD*%
D28*
%TO.N,LINE*%
X5461000Y44196000D02*
X5463440Y44171224D01*
X5470667Y44147399D01*
X5478300Y44132008D01*
X7239000Y41113665D01*
X7239000Y37211000D01*
X660000Y37211000D01*
X660000Y48133000D01*
X5461000Y48133000D01*
X5461000Y44196000D01*
%TA.AperFunction,Conductor*%
D29*
G36*
X5461000Y44196000D02*
G01*
X5463440Y44171224D01*
X5470667Y44147399D01*
X5478300Y44132008D01*
X7239000Y41113665D01*
X7239000Y37211000D01*
X660000Y37211000D01*
X660000Y48133000D01*
X5461000Y48133000D01*
X5461000Y44196000D01*
G37*
%TD.AperFunction*%
%TD*%
D28*
%TO.N,VOUT_A*%
X80391000Y30607000D02*
X76835000Y30607000D01*
X76835000Y34798000D01*
X76832560Y34822776D01*
X76825333Y34846601D01*
X76813597Y34868557D01*
X76797803Y34887803D01*
X75273803Y36411803D01*
X75254557Y36427597D01*
X75232601Y36439333D01*
X75208776Y36446560D01*
X75184000Y36449000D01*
X61849000Y36449000D01*
X61849000Y42545000D01*
X80391000Y42545000D01*
X80391000Y30607000D01*
%TA.AperFunction,Conductor*%
D29*
G36*
X80391000Y30607000D02*
G01*
X76835000Y30607000D01*
X76835000Y34798000D01*
X76832560Y34822776D01*
X76825333Y34846601D01*
X76813597Y34868557D01*
X76797803Y34887803D01*
X75273803Y36411803D01*
X75254557Y36427597D01*
X75232601Y36439333D01*
X75208776Y36446560D01*
X75184000Y36449000D01*
X61849000Y36449000D01*
X61849000Y42545000D01*
X80391000Y42545000D01*
X80391000Y30607000D01*
G37*
%TD.AperFunction*%
%TD*%
D28*
%TO.N,VOUT_B*%
X119507000Y30607000D02*
X115951000Y30607000D01*
X115951000Y34798000D01*
X115948560Y34822776D01*
X115941333Y34846601D01*
X115929597Y34868557D01*
X115913803Y34887803D01*
X114389803Y36411803D01*
X114370557Y36427597D01*
X114348601Y36439333D01*
X114324776Y36446560D01*
X114300000Y36449000D01*
X102997000Y36449000D01*
X102997000Y42545000D01*
X119507000Y42545000D01*
X119507000Y30607000D01*
%TA.AperFunction,Conductor*%
D29*
G36*
X119507000Y30607000D02*
G01*
X115951000Y30607000D01*
X115951000Y34798000D01*
X115948560Y34822776D01*
X115941333Y34846601D01*
X115929597Y34868557D01*
X115913803Y34887803D01*
X114389803Y36411803D01*
X114370557Y36427597D01*
X114348601Y36439333D01*
X114324776Y36446560D01*
X114300000Y36449000D01*
X102997000Y36449000D01*
X102997000Y42545000D01*
X119507000Y42545000D01*
X119507000Y30607000D01*
G37*
%TD.AperFunction*%
%TD*%
D28*
%TO.N,VCC*%
X62698532Y69577050D02*
X62570780Y69338042D01*
X62492110Y69078704D01*
X62465547Y68809001D01*
X62465547Y62508999D01*
X62492110Y62239296D01*
X62570780Y61979958D01*
X62698532Y61740950D01*
X62870458Y61531458D01*
X63079950Y61359532D01*
X63318958Y61231780D01*
X63578296Y61153110D01*
X63847999Y61126547D01*
X64748001Y61126547D01*
X65017704Y61153110D01*
X65277042Y61231780D01*
X65516050Y61359532D01*
X65725542Y61531458D01*
X65897468Y61740950D01*
X66025220Y61979958D01*
X66103890Y62239296D01*
X66130453Y62508999D01*
X66130453Y68809001D01*
X66103890Y69078704D01*
X66025220Y69338042D01*
X65897468Y69577050D01*
X65798207Y69698000D01*
X96325793Y69698000D01*
X96226532Y69577050D01*
X96098780Y69338042D01*
X96020110Y69078704D01*
X95993547Y68809001D01*
X95993547Y62508999D01*
X96020110Y62239296D01*
X96098780Y61979958D01*
X96226532Y61740950D01*
X96398458Y61531458D01*
X96607950Y61359532D01*
X96846958Y61231780D01*
X97106296Y61153110D01*
X97375999Y61126547D01*
X98276001Y61126547D01*
X98545704Y61153110D01*
X98805042Y61231780D01*
X99044050Y61359532D01*
X99253542Y61531458D01*
X99425468Y61740950D01*
X99553220Y61979958D01*
X99631890Y62239296D01*
X99658453Y62508999D01*
X99658453Y68809001D01*
X99631890Y69078704D01*
X99553220Y69338042D01*
X99425468Y69577050D01*
X99326207Y69698000D01*
X127610000Y69698000D01*
X127610001Y30099000D01*
X125325260Y30099000D01*
X125359600Y30140843D01*
X125464250Y30336629D01*
X125528693Y30549069D01*
X125550453Y30770000D01*
X125550453Y35270000D01*
X125528693Y35490931D01*
X125464250Y35703371D01*
X125359600Y35899157D01*
X125218765Y36070765D01*
X125047157Y36211600D01*
X124851371Y36316250D01*
X124638931Y36380693D01*
X124418000Y36402453D01*
X121918000Y36402453D01*
X121697069Y36380693D01*
X121484629Y36316250D01*
X121288843Y36211600D01*
X121117235Y36070765D01*
X120976400Y35899157D01*
X120871750Y35703371D01*
X120807307Y35490931D01*
X120785547Y35270000D01*
X120785547Y30770000D01*
X120807307Y30549069D01*
X120871750Y30336629D01*
X120976400Y30140843D01*
X121010740Y30099000D01*
X120690466Y30099000D01*
X120739345Y30260133D01*
X120761000Y30480000D01*
X120761000Y42672000D01*
X120739345Y42891867D01*
X120675212Y43103284D01*
X120571066Y43298128D01*
X120430909Y43468909D01*
X120260128Y43609066D01*
X120065284Y43713212D01*
X119853867Y43777345D01*
X119634000Y43799000D01*
X102870000Y43799000D01*
X102650133Y43777345D01*
X102438716Y43713212D01*
X102243872Y43609066D01*
X102073091Y43468909D01*
X101932934Y43298128D01*
X101828788Y43103284D01*
X101764655Y42891867D01*
X101743000Y42672000D01*
X101743000Y36322000D01*
X101752722Y36223294D01*
X101730843Y36211600D01*
X101559235Y36070765D01*
X101418400Y35899157D01*
X101313750Y35703371D01*
X101249307Y35490931D01*
X101227547Y35270000D01*
X101227547Y30770000D01*
X101249307Y30549069D01*
X101313750Y30336629D01*
X101418400Y30140843D01*
X101452740Y30099000D01*
X94116140Y30099000D01*
X94398925Y30331075D01*
X94695966Y30693020D01*
X94916687Y31105960D01*
X95052607Y31554027D01*
X95087000Y31903228D01*
X95087000Y34136772D01*
X95052607Y34485973D01*
X94916687Y34934040D01*
X94695966Y35346980D01*
X94398925Y35708925D01*
X94036980Y36005966D01*
X93624040Y36226687D01*
X93175973Y36362607D01*
X92710000Y36408501D01*
X92244028Y36362607D01*
X91795961Y36226687D01*
X91383021Y36005966D01*
X91021076Y35708925D01*
X90724035Y35346980D01*
X90503313Y34934040D01*
X90367393Y34485973D01*
X90333000Y34136772D01*
X90333000Y31903229D01*
X90367393Y31554028D01*
X90503313Y31105961D01*
X90724034Y30693021D01*
X91021075Y30331075D01*
X91303859Y30099000D01*
X86209260Y30099000D01*
X86243600Y30140843D01*
X86348250Y30336629D01*
X86412693Y30549069D01*
X86434453Y30770000D01*
X86434453Y35270000D01*
X86412693Y35490931D01*
X86348250Y35703371D01*
X86243600Y35899157D01*
X86102765Y36070765D01*
X85931157Y36211600D01*
X85735371Y36316250D01*
X85522931Y36380693D01*
X85302000Y36402453D01*
X82802000Y36402453D01*
X82581069Y36380693D01*
X82368629Y36316250D01*
X82172843Y36211600D01*
X82001235Y36070765D01*
X81860400Y35899157D01*
X81755750Y35703371D01*
X81691307Y35490931D01*
X81669547Y35270000D01*
X81669547Y30770000D01*
X81691307Y30549069D01*
X81755750Y30336629D01*
X81860400Y30140843D01*
X81894740Y30099000D01*
X81574466Y30099000D01*
X81623345Y30260133D01*
X81645000Y30480000D01*
X81645000Y40797001D01*
X90789547Y40797001D01*
X90789547Y38196999D01*
X90816110Y37927296D01*
X90894780Y37667958D01*
X91022532Y37428950D01*
X91194458Y37219458D01*
X91403950Y37047532D01*
X91642958Y36919780D01*
X91902296Y36841110D01*
X92171999Y36814547D01*
X94772001Y36814547D01*
X95041704Y36841110D01*
X95301042Y36919780D01*
X95540050Y37047532D01*
X95749542Y37219458D01*
X95921468Y37428950D01*
X96049220Y37667958D01*
X96127890Y37927296D01*
X96154453Y38196999D01*
X96154453Y40797001D01*
X96127890Y41066704D01*
X96049220Y41326042D01*
X95921468Y41565050D01*
X95749542Y41774542D01*
X95540050Y41946468D01*
X95301042Y42074220D01*
X95041704Y42152890D01*
X94772001Y42179453D01*
X92171999Y42179453D01*
X91902296Y42152890D01*
X91642958Y42074220D01*
X91403950Y41946468D01*
X91194458Y41774542D01*
X91022532Y41565050D01*
X90894780Y41326042D01*
X90816110Y41066704D01*
X90789547Y40797001D01*
X81645000Y40797001D01*
X81645000Y42672000D01*
X81623345Y42891867D01*
X81559212Y43103284D01*
X81455066Y43298128D01*
X81314909Y43468909D01*
X81144128Y43609066D01*
X80949284Y43713212D01*
X80737867Y43777345D01*
X80518000Y43799000D01*
X61722000Y43799000D01*
X61502133Y43777345D01*
X61290716Y43713212D01*
X61095872Y43609066D01*
X60925091Y43468909D01*
X60784934Y43298128D01*
X60680788Y43103284D01*
X60616655Y42891867D01*
X60595000Y42672000D01*
X60595000Y36322000D01*
X60616655Y36102133D01*
X60680788Y35890716D01*
X60784934Y35695872D01*
X60925091Y35525091D01*
X61095872Y35384934D01*
X61290716Y35280788D01*
X61502133Y35216655D01*
X61722000Y35195000D01*
X62111547Y35195000D01*
X62111547Y30770000D01*
X62133307Y30549069D01*
X62197750Y30336629D01*
X62302400Y30140843D01*
X62336740Y30099000D01*
X55000140Y30099000D01*
X55282925Y30331075D01*
X55579966Y30693020D01*
X55800687Y31105960D01*
X55936607Y31554027D01*
X55971000Y31903228D01*
X55971000Y34136772D01*
X55936607Y34485973D01*
X55800687Y34934040D01*
X55579966Y35346980D01*
X55282925Y35708925D01*
X54920980Y36005966D01*
X54508040Y36226687D01*
X54059973Y36362607D01*
X53594000Y36408501D01*
X53128028Y36362607D01*
X52679961Y36226687D01*
X52267021Y36005966D01*
X51905076Y35708925D01*
X51608035Y35346980D01*
X51387313Y34934040D01*
X51251393Y34485973D01*
X51217000Y34136772D01*
X51217000Y31903229D01*
X51251393Y31554028D01*
X51387313Y31105961D01*
X51608034Y30693021D01*
X51905075Y30331075D01*
X52187859Y30099000D01*
X41021000Y30099000D01*
X41021000Y59837983D01*
X42339000Y59837983D01*
X42339000Y59222017D01*
X42459169Y58617888D01*
X42694889Y58048810D01*
X43037101Y57536654D01*
X43472654Y57101101D01*
X43984810Y56758889D01*
X44553888Y56523169D01*
X45158017Y56403000D01*
X45773983Y56403000D01*
X46378112Y56523169D01*
X46947190Y56758889D01*
X47459346Y57101101D01*
X47894899Y57536654D01*
X48237111Y58048810D01*
X48472831Y58617888D01*
X48593000Y59222017D01*
X48593000Y59837983D01*
X75867000Y59837983D01*
X75867000Y59222017D01*
X75987169Y58617888D01*
X76222889Y58048810D01*
X76565101Y57536654D01*
X77000654Y57101101D01*
X77512810Y56758889D01*
X78081888Y56523169D01*
X78686017Y56403000D01*
X79301983Y56403000D01*
X79906112Y56523169D01*
X80475190Y56758889D01*
X80987346Y57101101D01*
X81422899Y57536654D01*
X81765111Y58048810D01*
X82000831Y58617888D01*
X82121000Y59222017D01*
X82121000Y59837983D01*
X109395000Y59837983D01*
X109395000Y59222017D01*
X109515169Y58617888D01*
X109750889Y58048810D01*
X110093101Y57536654D01*
X110528654Y57101101D01*
X111040810Y56758889D01*
X111609888Y56523169D01*
X112214017Y56403000D01*
X112829983Y56403000D01*
X113434112Y56523169D01*
X114003190Y56758889D01*
X114515346Y57101101D01*
X114950899Y57536654D01*
X115293111Y58048810D01*
X115528831Y58617888D01*
X115649000Y59222017D01*
X115649000Y59837983D01*
X115528831Y60442112D01*
X115293111Y61011190D01*
X114950899Y61523346D01*
X114515346Y61958899D01*
X114003190Y62301111D01*
X113434112Y62536831D01*
X112829983Y62657000D01*
X112214017Y62657000D01*
X111609888Y62536831D01*
X111040810Y62301111D01*
X110528654Y61958899D01*
X110093101Y61523346D01*
X109750889Y61011190D01*
X109515169Y60442112D01*
X109395000Y59837983D01*
X82121000Y59837983D01*
X82000831Y60442112D01*
X81765111Y61011190D01*
X81422899Y61523346D01*
X80987346Y61958899D01*
X80475190Y62301111D01*
X79906112Y62536831D01*
X79301983Y62657000D01*
X78686017Y62657000D01*
X78081888Y62536831D01*
X77512810Y62301111D01*
X77000654Y61958899D01*
X76565101Y61523346D01*
X76222889Y61011190D01*
X75987169Y60442112D01*
X75867000Y59837983D01*
X48593000Y59837983D01*
X48472831Y60442112D01*
X48237111Y61011190D01*
X47894899Y61523346D01*
X47459346Y61958899D01*
X46947190Y62301111D01*
X46378112Y62536831D01*
X45773983Y62657000D01*
X45158017Y62657000D01*
X44553888Y62536831D01*
X43984810Y62301111D01*
X43472654Y61958899D01*
X43037101Y61523346D01*
X42694889Y61011190D01*
X42459169Y60442112D01*
X42339000Y59837983D01*
X41021000Y59837983D01*
X41021000Y69698000D01*
X62797793Y69698000D01*
X62698532Y69577050D01*
%TA.AperFunction,Conductor*%
D29*
G36*
X62698532Y69577050D02*
G01*
X62570780Y69338042D01*
X62492110Y69078704D01*
X62465547Y68809001D01*
X62465547Y62508999D01*
X62492110Y62239296D01*
X62570780Y61979958D01*
X62698532Y61740950D01*
X62870458Y61531458D01*
X63079950Y61359532D01*
X63318958Y61231780D01*
X63578296Y61153110D01*
X63847999Y61126547D01*
X64748001Y61126547D01*
X65017704Y61153110D01*
X65277042Y61231780D01*
X65516050Y61359532D01*
X65725542Y61531458D01*
X65897468Y61740950D01*
X66025220Y61979958D01*
X66103890Y62239296D01*
X66130453Y62508999D01*
X66130453Y68809001D01*
X66103890Y69078704D01*
X66025220Y69338042D01*
X65897468Y69577050D01*
X65798207Y69698000D01*
X96325793Y69698000D01*
X96226532Y69577050D01*
X96098780Y69338042D01*
X96020110Y69078704D01*
X95993547Y68809001D01*
X95993547Y62508999D01*
X96020110Y62239296D01*
X96098780Y61979958D01*
X96226532Y61740950D01*
X96398458Y61531458D01*
X96607950Y61359532D01*
X96846958Y61231780D01*
X97106296Y61153110D01*
X97375999Y61126547D01*
X98276001Y61126547D01*
X98545704Y61153110D01*
X98805042Y61231780D01*
X99044050Y61359532D01*
X99253542Y61531458D01*
X99425468Y61740950D01*
X99553220Y61979958D01*
X99631890Y62239296D01*
X99658453Y62508999D01*
X99658453Y68809001D01*
X99631890Y69078704D01*
X99553220Y69338042D01*
X99425468Y69577050D01*
X99326207Y69698000D01*
X127610000Y69698000D01*
X127610001Y30099000D01*
X125325260Y30099000D01*
X125359600Y30140843D01*
X125464250Y30336629D01*
X125528693Y30549069D01*
X125550453Y30770000D01*
X125550453Y35270000D01*
X125528693Y35490931D01*
X125464250Y35703371D01*
X125359600Y35899157D01*
X125218765Y36070765D01*
X125047157Y36211600D01*
X124851371Y36316250D01*
X124638931Y36380693D01*
X124418000Y36402453D01*
X121918000Y36402453D01*
X121697069Y36380693D01*
X121484629Y36316250D01*
X121288843Y36211600D01*
X121117235Y36070765D01*
X120976400Y35899157D01*
X120871750Y35703371D01*
X120807307Y35490931D01*
X120785547Y35270000D01*
X120785547Y30770000D01*
X120807307Y30549069D01*
X120871750Y30336629D01*
X120976400Y30140843D01*
X121010740Y30099000D01*
X120690466Y30099000D01*
X120739345Y30260133D01*
X120761000Y30480000D01*
X120761000Y42672000D01*
X120739345Y42891867D01*
X120675212Y43103284D01*
X120571066Y43298128D01*
X120430909Y43468909D01*
X120260128Y43609066D01*
X120065284Y43713212D01*
X119853867Y43777345D01*
X119634000Y43799000D01*
X102870000Y43799000D01*
X102650133Y43777345D01*
X102438716Y43713212D01*
X102243872Y43609066D01*
X102073091Y43468909D01*
X101932934Y43298128D01*
X101828788Y43103284D01*
X101764655Y42891867D01*
X101743000Y42672000D01*
X101743000Y36322000D01*
X101752722Y36223294D01*
X101730843Y36211600D01*
X101559235Y36070765D01*
X101418400Y35899157D01*
X101313750Y35703371D01*
X101249307Y35490931D01*
X101227547Y35270000D01*
X101227547Y30770000D01*
X101249307Y30549069D01*
X101313750Y30336629D01*
X101418400Y30140843D01*
X101452740Y30099000D01*
X94116140Y30099000D01*
X94398925Y30331075D01*
X94695966Y30693020D01*
X94916687Y31105960D01*
X95052607Y31554027D01*
X95087000Y31903228D01*
X95087000Y34136772D01*
X95052607Y34485973D01*
X94916687Y34934040D01*
X94695966Y35346980D01*
X94398925Y35708925D01*
X94036980Y36005966D01*
X93624040Y36226687D01*
X93175973Y36362607D01*
X92710000Y36408501D01*
X92244028Y36362607D01*
X91795961Y36226687D01*
X91383021Y36005966D01*
X91021076Y35708925D01*
X90724035Y35346980D01*
X90503313Y34934040D01*
X90367393Y34485973D01*
X90333000Y34136772D01*
X90333000Y31903229D01*
X90367393Y31554028D01*
X90503313Y31105961D01*
X90724034Y30693021D01*
X91021075Y30331075D01*
X91303859Y30099000D01*
X86209260Y30099000D01*
X86243600Y30140843D01*
X86348250Y30336629D01*
X86412693Y30549069D01*
X86434453Y30770000D01*
X86434453Y35270000D01*
X86412693Y35490931D01*
X86348250Y35703371D01*
X86243600Y35899157D01*
X86102765Y36070765D01*
X85931157Y36211600D01*
X85735371Y36316250D01*
X85522931Y36380693D01*
X85302000Y36402453D01*
X82802000Y36402453D01*
X82581069Y36380693D01*
X82368629Y36316250D01*
X82172843Y36211600D01*
X82001235Y36070765D01*
X81860400Y35899157D01*
X81755750Y35703371D01*
X81691307Y35490931D01*
X81669547Y35270000D01*
X81669547Y30770000D01*
X81691307Y30549069D01*
X81755750Y30336629D01*
X81860400Y30140843D01*
X81894740Y30099000D01*
X81574466Y30099000D01*
X81623345Y30260133D01*
X81645000Y30480000D01*
X81645000Y40797001D01*
X90789547Y40797001D01*
X90789547Y38196999D01*
X90816110Y37927296D01*
X90894780Y37667958D01*
X91022532Y37428950D01*
X91194458Y37219458D01*
X91403950Y37047532D01*
X91642958Y36919780D01*
X91902296Y36841110D01*
X92171999Y36814547D01*
X94772001Y36814547D01*
X95041704Y36841110D01*
X95301042Y36919780D01*
X95540050Y37047532D01*
X95749542Y37219458D01*
X95921468Y37428950D01*
X96049220Y37667958D01*
X96127890Y37927296D01*
X96154453Y38196999D01*
X96154453Y40797001D01*
X96127890Y41066704D01*
X96049220Y41326042D01*
X95921468Y41565050D01*
X95749542Y41774542D01*
X95540050Y41946468D01*
X95301042Y42074220D01*
X95041704Y42152890D01*
X94772001Y42179453D01*
X92171999Y42179453D01*
X91902296Y42152890D01*
X91642958Y42074220D01*
X91403950Y41946468D01*
X91194458Y41774542D01*
X91022532Y41565050D01*
X90894780Y41326042D01*
X90816110Y41066704D01*
X90789547Y40797001D01*
X81645000Y40797001D01*
X81645000Y42672000D01*
X81623345Y42891867D01*
X81559212Y43103284D01*
X81455066Y43298128D01*
X81314909Y43468909D01*
X81144128Y43609066D01*
X80949284Y43713212D01*
X80737867Y43777345D01*
X80518000Y43799000D01*
X61722000Y43799000D01*
X61502133Y43777345D01*
X61290716Y43713212D01*
X61095872Y43609066D01*
X60925091Y43468909D01*
X60784934Y43298128D01*
X60680788Y43103284D01*
X60616655Y42891867D01*
X60595000Y42672000D01*
X60595000Y36322000D01*
X60616655Y36102133D01*
X60680788Y35890716D01*
X60784934Y35695872D01*
X60925091Y35525091D01*
X61095872Y35384934D01*
X61290716Y35280788D01*
X61502133Y35216655D01*
X61722000Y35195000D01*
X62111547Y35195000D01*
X62111547Y30770000D01*
X62133307Y30549069D01*
X62197750Y30336629D01*
X62302400Y30140843D01*
X62336740Y30099000D01*
X55000140Y30099000D01*
X55282925Y30331075D01*
X55579966Y30693020D01*
X55800687Y31105960D01*
X55936607Y31554027D01*
X55971000Y31903228D01*
X55971000Y34136772D01*
X55936607Y34485973D01*
X55800687Y34934040D01*
X55579966Y35346980D01*
X55282925Y35708925D01*
X54920980Y36005966D01*
X54508040Y36226687D01*
X54059973Y36362607D01*
X53594000Y36408501D01*
X53128028Y36362607D01*
X52679961Y36226687D01*
X52267021Y36005966D01*
X51905076Y35708925D01*
X51608035Y35346980D01*
X51387313Y34934040D01*
X51251393Y34485973D01*
X51217000Y34136772D01*
X51217000Y31903229D01*
X51251393Y31554028D01*
X51387313Y31105961D01*
X51608034Y30693021D01*
X51905075Y30331075D01*
X52187859Y30099000D01*
X41021000Y30099000D01*
X41021000Y59837983D01*
X42339000Y59837983D01*
X42339000Y59222017D01*
X42459169Y58617888D01*
X42694889Y58048810D01*
X43037101Y57536654D01*
X43472654Y57101101D01*
X43984810Y56758889D01*
X44553888Y56523169D01*
X45158017Y56403000D01*
X45773983Y56403000D01*
X46378112Y56523169D01*
X46947190Y56758889D01*
X47459346Y57101101D01*
X47894899Y57536654D01*
X48237111Y58048810D01*
X48472831Y58617888D01*
X48593000Y59222017D01*
X48593000Y59837983D01*
X75867000Y59837983D01*
X75867000Y59222017D01*
X75987169Y58617888D01*
X76222889Y58048810D01*
X76565101Y57536654D01*
X77000654Y57101101D01*
X77512810Y56758889D01*
X78081888Y56523169D01*
X78686017Y56403000D01*
X79301983Y56403000D01*
X79906112Y56523169D01*
X80475190Y56758889D01*
X80987346Y57101101D01*
X81422899Y57536654D01*
X81765111Y58048810D01*
X82000831Y58617888D01*
X82121000Y59222017D01*
X82121000Y59837983D01*
X109395000Y59837983D01*
X109395000Y59222017D01*
X109515169Y58617888D01*
X109750889Y58048810D01*
X110093101Y57536654D01*
X110528654Y57101101D01*
X111040810Y56758889D01*
X111609888Y56523169D01*
X112214017Y56403000D01*
X112829983Y56403000D01*
X113434112Y56523169D01*
X114003190Y56758889D01*
X114515346Y57101101D01*
X114950899Y57536654D01*
X115293111Y58048810D01*
X115528831Y58617888D01*
X115649000Y59222017D01*
X115649000Y59837983D01*
X115528831Y60442112D01*
X115293111Y61011190D01*
X114950899Y61523346D01*
X114515346Y61958899D01*
X114003190Y62301111D01*
X113434112Y62536831D01*
X112829983Y62657000D01*
X112214017Y62657000D01*
X111609888Y62536831D01*
X111040810Y62301111D01*
X110528654Y61958899D01*
X110093101Y61523346D01*
X109750889Y61011190D01*
X109515169Y60442112D01*
X109395000Y59837983D01*
X82121000Y59837983D01*
X82000831Y60442112D01*
X81765111Y61011190D01*
X81422899Y61523346D01*
X80987346Y61958899D01*
X80475190Y62301111D01*
X79906112Y62536831D01*
X79301983Y62657000D01*
X78686017Y62657000D01*
X78081888Y62536831D01*
X77512810Y62301111D01*
X77000654Y61958899D01*
X76565101Y61523346D01*
X76222889Y61011190D01*
X75987169Y60442112D01*
X75867000Y59837983D01*
X48593000Y59837983D01*
X48472831Y60442112D01*
X48237111Y61011190D01*
X47894899Y61523346D01*
X47459346Y61958899D01*
X46947190Y62301111D01*
X46378112Y62536831D01*
X45773983Y62657000D01*
X45158017Y62657000D01*
X44553888Y62536831D01*
X43984810Y62301111D01*
X43472654Y61958899D01*
X43037101Y61523346D01*
X42694889Y61011190D01*
X42459169Y60442112D01*
X42339000Y59837983D01*
X41021000Y59837983D01*
X41021000Y69698000D01*
X62797793Y69698000D01*
X62698532Y69577050D01*
G37*
%TD.AperFunction*%
%TD*%
D28*
%TO.N,GND*%
X39767000Y29972000D02*
X39788655Y29752133D01*
X39852788Y29540716D01*
X39956934Y29345872D01*
X40097091Y29175091D01*
X40267872Y29034934D01*
X40462716Y28930788D01*
X40674133Y28866655D01*
X40894000Y28845000D01*
X63609000Y28845000D01*
X63609001Y27562934D01*
X63517038Y27487462D01*
X63406595Y27352887D01*
X63324528Y27199352D01*
X63273992Y27032756D01*
X63256928Y26859502D01*
X63256928Y26234498D01*
X63273992Y26061244D01*
X63324528Y25894648D01*
X63406595Y25741113D01*
X63517038Y25606538D01*
X63651613Y25496095D01*
X63805148Y25414028D01*
X63971744Y25363492D01*
X64144998Y25346428D01*
X65395002Y25346428D01*
X65568256Y25363492D01*
X65734852Y25414028D01*
X65888387Y25496095D01*
X66022962Y25606538D01*
X66133405Y25741113D01*
X66215472Y25894648D01*
X66266008Y26061244D01*
X66283072Y26234498D01*
X66283072Y26859502D01*
X66277626Y26914795D01*
X67119470Y26072951D01*
X67147183Y26039183D01*
X67180951Y26011470D01*
X67180953Y26011468D01*
X67226827Y25973820D01*
X67281941Y25928589D01*
X67435687Y25846411D01*
X67551903Y25811157D01*
X67602509Y25795805D01*
X67617306Y25794348D01*
X67732523Y25783000D01*
X67732531Y25783000D01*
X67772786Y25779036D01*
X67782815Y25766815D01*
X67879506Y25687463D01*
X67989820Y25628498D01*
X68109518Y25592188D01*
X68234000Y25579928D01*
X69434000Y25579928D01*
X69558482Y25592188D01*
X69678180Y25628498D01*
X69788494Y25687463D01*
X69885185Y25766815D01*
X69964537Y25863506D01*
X70023502Y25973820D01*
X70059812Y26093518D01*
X70072072Y26218000D01*
X70072072Y27118000D01*
X70059812Y27242482D01*
X70023502Y27362180D01*
X69964537Y27472494D01*
X69885185Y27569185D01*
X69788494Y27648537D01*
X69678180Y27707502D01*
X69558482Y27743812D01*
X69434000Y27756072D01*
X68234000Y27756072D01*
X68109518Y27743812D01*
X67989820Y27707502D01*
X67988684Y27706895D01*
X66850579Y28845000D01*
X82808000Y28845000D01*
X82808000Y27675579D01*
X79577994Y24445572D01*
X79003998Y24445572D01*
X78830744Y24428508D01*
X78664148Y24377972D01*
X78510613Y24295905D01*
X78376038Y24185462D01*
X78265595Y24050887D01*
X78183528Y23897352D01*
X78132992Y23730756D01*
X78115928Y23557502D01*
X78115928Y22932498D01*
X78132992Y22759244D01*
X78183528Y22592648D01*
X78265595Y22439113D01*
X78376038Y22304538D01*
X78510613Y22194095D01*
X78664148Y22112028D01*
X78830744Y22061492D01*
X79003998Y22044428D01*
X80254002Y22044428D01*
X80427256Y22061492D01*
X80593852Y22112028D01*
X80747387Y22194095D01*
X80881962Y22304538D01*
X80992405Y22439113D01*
X81074472Y22592648D01*
X81125008Y22759244D01*
X81142072Y22932498D01*
X81142072Y23506494D01*
X82808000Y25172422D01*
X82808000Y24383683D01*
X82738506Y24346537D01*
X82641815Y24267185D01*
X82562463Y24170494D01*
X82503498Y24060180D01*
X82467188Y23940482D01*
X82454928Y23816000D01*
X82454928Y22916000D01*
X82467188Y22791518D01*
X82503498Y22671820D01*
X82562463Y22561506D01*
X82641815Y22464815D01*
X82738506Y22385463D01*
X82848820Y22326498D01*
X82968518Y22290188D01*
X83093000Y22277928D01*
X84293000Y22277928D01*
X84417482Y22290188D01*
X84537180Y22326498D01*
X84647494Y22385463D01*
X84744185Y22464815D01*
X84823537Y22561506D01*
X84882502Y22671820D01*
X84918812Y22791518D01*
X84931072Y22916000D01*
X84931072Y23816000D01*
X84918812Y23940482D01*
X84882502Y24060180D01*
X84823537Y24170494D01*
X84744185Y24267185D01*
X84647494Y24346537D01*
X84578000Y24383683D01*
X84578000Y27261524D01*
X84582282Y27305000D01*
X84578000Y27348477D01*
X84578000Y28845000D01*
X102725000Y28845000D01*
X102725001Y27562934D01*
X102633038Y27487462D01*
X102522595Y27352887D01*
X102440528Y27199352D01*
X102389992Y27032756D01*
X102372928Y26859502D01*
X102372928Y26234498D01*
X102389992Y26061244D01*
X102440528Y25894648D01*
X102522595Y25741113D01*
X102633038Y25606538D01*
X102767613Y25496095D01*
X102921148Y25414028D01*
X103087744Y25363492D01*
X103260998Y25346428D01*
X104511002Y25346428D01*
X104684256Y25363492D01*
X104850852Y25414028D01*
X105004387Y25496095D01*
X105138962Y25606538D01*
X105249405Y25741113D01*
X105331472Y25894648D01*
X105382008Y26061244D01*
X105399072Y26234498D01*
X105399072Y26859502D01*
X105393626Y26914795D01*
X106235470Y26072951D01*
X106263183Y26039183D01*
X106296951Y26011470D01*
X106296953Y26011468D01*
X106342827Y25973820D01*
X106397941Y25928589D01*
X106551687Y25846411D01*
X106667903Y25811157D01*
X106718509Y25795805D01*
X106733306Y25794348D01*
X106848523Y25783000D01*
X106848531Y25783000D01*
X106888786Y25779036D01*
X106898815Y25766815D01*
X106995506Y25687463D01*
X107105820Y25628498D01*
X107225518Y25592188D01*
X107350000Y25579928D01*
X108550000Y25579928D01*
X108674482Y25592188D01*
X108794180Y25628498D01*
X108904494Y25687463D01*
X109001185Y25766815D01*
X109080537Y25863506D01*
X109139502Y25973820D01*
X109175812Y26093518D01*
X109188072Y26218000D01*
X109188072Y27118000D01*
X109175812Y27242482D01*
X109139502Y27362180D01*
X109080537Y27472494D01*
X109001185Y27569185D01*
X108904494Y27648537D01*
X108794180Y27707502D01*
X108674482Y27743812D01*
X108550000Y27756072D01*
X107350000Y27756072D01*
X107225518Y27743812D01*
X107105820Y27707502D01*
X107104684Y27706895D01*
X105966579Y28845000D01*
X121924000Y28845000D01*
X121924000Y27675579D01*
X118693994Y24445572D01*
X118119998Y24445572D01*
X117946744Y24428508D01*
X117780148Y24377972D01*
X117626613Y24295905D01*
X117492038Y24185462D01*
X117381595Y24050887D01*
X117299528Y23897352D01*
X117248992Y23730756D01*
X117231928Y23557502D01*
X117231928Y22932498D01*
X117248992Y22759244D01*
X117299528Y22592648D01*
X117381595Y22439113D01*
X117492038Y22304538D01*
X117626613Y22194095D01*
X117780148Y22112028D01*
X117946744Y22061492D01*
X118119998Y22044428D01*
X119370002Y22044428D01*
X119543256Y22061492D01*
X119709852Y22112028D01*
X119863387Y22194095D01*
X119997962Y22304538D01*
X120108405Y22439113D01*
X120190472Y22592648D01*
X120241008Y22759244D01*
X120258072Y22932498D01*
X120258072Y23506494D01*
X121924000Y25172422D01*
X121924000Y24383683D01*
X121854506Y24346537D01*
X121757815Y24267185D01*
X121678463Y24170494D01*
X121619498Y24060180D01*
X121583188Y23940482D01*
X121570928Y23816000D01*
X121570928Y22916000D01*
X121583188Y22791518D01*
X121619498Y22671820D01*
X121678463Y22561506D01*
X121757815Y22464815D01*
X121854506Y22385463D01*
X121964820Y22326498D01*
X122084518Y22290188D01*
X122209000Y22277928D01*
X123409000Y22277928D01*
X123533482Y22290188D01*
X123653180Y22326498D01*
X123763494Y22385463D01*
X123860185Y22464815D01*
X123939537Y22561506D01*
X123998502Y22671820D01*
X124034812Y22791518D01*
X124047072Y22916000D01*
X124047072Y23816000D01*
X124034812Y23940482D01*
X123998502Y24060180D01*
X123939537Y24170494D01*
X123860185Y24267185D01*
X123763494Y24346537D01*
X123694000Y24383683D01*
X123694000Y27261524D01*
X123698282Y27305000D01*
X123694000Y27348477D01*
X123694000Y28845000D01*
X127610001Y28845000D01*
X127610001Y660000D01*
X32877000Y660000D01*
X32877000Y12910279D01*
X51351000Y12910279D01*
X51351000Y12489721D01*
X51433047Y12077244D01*
X51593988Y11688698D01*
X51827637Y11339017D01*
X52125017Y11041637D01*
X52474698Y10807988D01*
X52863244Y10647047D01*
X53275721Y10565000D01*
X53696279Y10565000D01*
X54108756Y10647047D01*
X54497302Y10807988D01*
X54846983Y11041637D01*
X55144363Y11339017D01*
X55378012Y11688698D01*
X55430328Y11815000D01*
X59704422Y11815000D01*
X59746928Y11772494D01*
X59746928Y11338000D01*
X59759188Y11213518D01*
X59795498Y11093820D01*
X59854463Y10983506D01*
X59933815Y10886815D01*
X60030506Y10807463D01*
X60140820Y10748498D01*
X60260518Y10712188D01*
X60385000Y10699928D01*
X60821494Y10699928D01*
X61486498Y10034923D01*
X61474184Y10024817D01*
X61446471Y9991049D01*
X61446468Y9991046D01*
X61363590Y9890059D01*
X61281412Y9736313D01*
X61230805Y9569490D01*
X61213719Y9396000D01*
X61218001Y9352521D01*
X61218000Y6391072D01*
X60603000Y6391072D01*
X60429746Y6374008D01*
X60263150Y6323472D01*
X60109614Y6241405D01*
X59975038Y6130962D01*
X59864595Y5996386D01*
X59782528Y5842850D01*
X59731992Y5676254D01*
X59714928Y5503000D01*
X59714928Y4403000D01*
X59731992Y4229746D01*
X59782528Y4063150D01*
X59864595Y3909614D01*
X59975038Y3775038D01*
X60109614Y3664595D01*
X60263150Y3582528D01*
X60429746Y3531992D01*
X60603000Y3514928D01*
X63603000Y3514928D01*
X63776254Y3531992D01*
X63942850Y3582528D01*
X64096386Y3664595D01*
X64230962Y3775038D01*
X64341405Y3909614D01*
X64423472Y4063150D01*
X64474008Y4229746D01*
X64491072Y4403000D01*
X64491072Y5503000D01*
X64474008Y5676254D01*
X64423472Y5842850D01*
X64341405Y5996386D01*
X64230962Y6130962D01*
X64096386Y6241405D01*
X63942850Y6323472D01*
X63776254Y6374008D01*
X63603000Y6391072D01*
X62988000Y6391072D01*
X62988000Y9029422D01*
X63106579Y9148000D01*
X70097976Y9148000D01*
X70136503Y9116382D01*
X70285717Y9036625D01*
X70447623Y8987512D01*
X70616000Y8970928D01*
X71116000Y8970928D01*
X71284377Y8987512D01*
X71446283Y9036625D01*
X71595497Y9116382D01*
X71634024Y9148000D01*
X72521000Y9148000D01*
X72521001Y6393479D01*
X72516719Y6350000D01*
X72533805Y6176510D01*
X72584412Y6009687D01*
X72666590Y5855941D01*
X72749468Y5754954D01*
X72749471Y5754951D01*
X72777184Y5721183D01*
X72810951Y5693471D01*
X74965928Y3538493D01*
X74965928Y2452000D01*
X74978188Y2327518D01*
X75014498Y2207820D01*
X75073463Y2097506D01*
X75152815Y2000815D01*
X75249506Y1921463D01*
X75359820Y1862498D01*
X75479518Y1826188D01*
X75604000Y1813928D01*
X77304000Y1813928D01*
X77428482Y1826188D01*
X77548180Y1862498D01*
X77658494Y1921463D01*
X77755185Y2000815D01*
X77834537Y2097506D01*
X77893502Y2207820D01*
X77915513Y2280380D01*
X78047368Y2148525D01*
X78290589Y1986010D01*
X78560842Y1874068D01*
X78847740Y1817000D01*
X79140260Y1817000D01*
X79427158Y1874068D01*
X79697411Y1986010D01*
X79940632Y2148525D01*
X80147475Y2355368D01*
X80264000Y2529760D01*
X80380525Y2355368D01*
X80587368Y2148525D01*
X80830589Y1986010D01*
X81100842Y1874068D01*
X81387740Y1817000D01*
X81680260Y1817000D01*
X81967158Y1874068D01*
X82237411Y1986010D01*
X82480632Y2148525D01*
X82687475Y2355368D01*
X82804000Y2529760D01*
X82920525Y2355368D01*
X83127368Y2148525D01*
X83370589Y1986010D01*
X83640842Y1874068D01*
X83927740Y1817000D01*
X84220260Y1817000D01*
X84507158Y1874068D01*
X84777411Y1986010D01*
X85020632Y2148525D01*
X85227475Y2355368D01*
X85344000Y2529760D01*
X85460525Y2355368D01*
X85667368Y2148525D01*
X85910589Y1986010D01*
X86180842Y1874068D01*
X86467740Y1817000D01*
X86760260Y1817000D01*
X87047158Y1874068D01*
X87317411Y1986010D01*
X87560632Y2148525D01*
X87767475Y2355368D01*
X87929990Y2598589D01*
X88041932Y2868842D01*
X88099000Y3155740D01*
X88099000Y3448260D01*
X88041932Y3735158D01*
X87929990Y4005411D01*
X87767475Y4248632D01*
X87560632Y4455475D01*
X87499000Y4496656D01*
X87499000Y4576000D01*
X94991746Y4576000D01*
X94811368Y4455475D01*
X94604525Y4248632D01*
X94442010Y4005411D01*
X94330068Y3735158D01*
X94273000Y3448260D01*
X94273000Y3155740D01*
X94330068Y2868842D01*
X94442010Y2598589D01*
X94604525Y2355368D01*
X94811368Y2148525D01*
X95054589Y1986010D01*
X95324842Y1874068D01*
X95611740Y1817000D01*
X95904260Y1817000D01*
X96191158Y1874068D01*
X96461411Y1986010D01*
X96704632Y2148525D01*
X96911475Y2355368D01*
X97028000Y2529760D01*
X97144525Y2355368D01*
X97351368Y2148525D01*
X97594589Y1986010D01*
X97864842Y1874068D01*
X98151740Y1817000D01*
X98444260Y1817000D01*
X98731158Y1874068D01*
X99001411Y1986010D01*
X99244632Y2148525D01*
X99451475Y2355368D01*
X99568000Y2529760D01*
X99684525Y2355368D01*
X99891368Y2148525D01*
X100134589Y1986010D01*
X100404842Y1874068D01*
X100691740Y1817000D01*
X100984260Y1817000D01*
X101271158Y1874068D01*
X101541411Y1986010D01*
X101784632Y2148525D01*
X101991475Y2355368D01*
X102153990Y2598589D01*
X102265932Y2868842D01*
X102323000Y3155740D01*
X102323000Y3448260D01*
X102265932Y3735158D01*
X102153990Y4005411D01*
X101991475Y4248632D01*
X101784632Y4455475D01*
X101723000Y4496656D01*
X101723000Y4528535D01*
X101727281Y4572001D01*
X101723000Y4615467D01*
X101723000Y4615477D01*
X101710195Y4745490D01*
X101659589Y4912313D01*
X101577411Y5066059D01*
X101553210Y5095548D01*
X101494532Y5167047D01*
X101494530Y5167049D01*
X101466817Y5200817D01*
X101433050Y5228529D01*
X98065534Y8596044D01*
X98037817Y8629817D01*
X97903059Y8740411D01*
X97749313Y8822589D01*
X97582490Y8873195D01*
X97452477Y8886000D01*
X97452469Y8886000D01*
X97409000Y8890281D01*
X97365531Y8886000D01*
X81069469Y8886000D01*
X81026000Y8890281D01*
X80982531Y8886000D01*
X76103454Y8886000D01*
X76055256Y8918205D01*
X75866898Y8996226D01*
X75666939Y9036000D01*
X75463061Y9036000D01*
X75263102Y8996226D01*
X75074744Y8918205D01*
X74905226Y8804937D01*
X74761063Y8660774D01*
X74647795Y8491256D01*
X74569774Y8302898D01*
X74530000Y8102939D01*
X74530000Y7899061D01*
X74569774Y7699102D01*
X74647795Y7510744D01*
X74761063Y7341226D01*
X74905226Y7197063D01*
X75074744Y7083795D01*
X75263102Y7005774D01*
X75463061Y6966000D01*
X75666939Y6966000D01*
X75866898Y7005774D01*
X76055256Y7083795D01*
X76103454Y7116000D01*
X76255196Y7116000D01*
X76220774Y7032898D01*
X76181000Y6832939D01*
X76181000Y6629061D01*
X76220774Y6429102D01*
X76298795Y6240744D01*
X76412063Y6071226D01*
X76556226Y5927063D01*
X76725744Y5813795D01*
X76914102Y5735774D01*
X76970957Y5724465D01*
X78109000Y4586421D01*
X78109000Y4496656D01*
X78047368Y4455475D01*
X77915513Y4323620D01*
X77893502Y4396180D01*
X77834537Y4506494D01*
X77755185Y4603185D01*
X77658494Y4682537D01*
X77548180Y4741502D01*
X77428482Y4777812D01*
X77304000Y4790072D01*
X76217507Y4790072D01*
X74291000Y6716578D01*
X74291000Y9666422D01*
X75048044Y10423465D01*
X75104898Y10434774D01*
X75293256Y10512795D01*
X75341454Y10545000D01*
X80982531Y10545000D01*
X81026000Y10540719D01*
X81069469Y10545000D01*
X81069477Y10545000D01*
X81199490Y10557805D01*
X81366313Y10608411D01*
X81520059Y10690589D01*
X81654817Y10801183D01*
X81682534Y10834956D01*
X81900578Y11053000D01*
X98933317Y11053000D01*
X98970463Y10983506D01*
X99049815Y10886815D01*
X99146506Y10807463D01*
X99256820Y10748498D01*
X99376518Y10712188D01*
X99501000Y10699928D01*
X99937494Y10699928D01*
X100849465Y9787956D01*
X100860774Y9731102D01*
X100938795Y9542744D01*
X101052063Y9373226D01*
X101196226Y9229063D01*
X101365744Y9115795D01*
X101554102Y9037774D01*
X101754061Y8998000D01*
X101957939Y8998000D01*
X102157898Y9037774D01*
X102346256Y9115795D01*
X102394454Y9148000D01*
X112478531Y9148000D01*
X112522000Y9143719D01*
X112565469Y9148000D01*
X112565477Y9148000D01*
X112695490Y9160805D01*
X112862313Y9211411D01*
X113016059Y9293589D01*
X113150817Y9404183D01*
X113178534Y9437956D01*
X114164044Y10423465D01*
X114220898Y10434774D01*
X114409256Y10512795D01*
X114578774Y10626063D01*
X114722937Y10770226D01*
X114836205Y10939744D01*
X114914226Y11128102D01*
X114954000Y11328061D01*
X114954000Y11531939D01*
X114914226Y11731898D01*
X114836205Y11920256D01*
X114736818Y12069000D01*
X118066531Y12069000D01*
X118110000Y12064719D01*
X118153469Y12069000D01*
X118153477Y12069000D01*
X118283490Y12081805D01*
X118450313Y12132411D01*
X118604059Y12214589D01*
X118738817Y12325183D01*
X118766534Y12358956D01*
X119721050Y13313471D01*
X119754817Y13341183D01*
X119865411Y13475941D01*
X119947589Y13629687D01*
X119998195Y13796510D01*
X120011000Y13926523D01*
X120011000Y13926531D01*
X120015281Y13970000D01*
X120011000Y14013469D01*
X120011000Y16016422D01*
X122972507Y18977928D01*
X123409000Y18977928D01*
X123533482Y18990188D01*
X123653180Y19026498D01*
X123763494Y19085463D01*
X123860185Y19164815D01*
X123939537Y19261506D01*
X123998502Y19371820D01*
X124034812Y19491518D01*
X124047072Y19616000D01*
X124047072Y20516000D01*
X124034812Y20640482D01*
X123998502Y20760180D01*
X123939537Y20870494D01*
X123860185Y20967185D01*
X123763494Y21046537D01*
X123653180Y21105502D01*
X123533482Y21141812D01*
X123409000Y21154072D01*
X122209000Y21154072D01*
X122084518Y21141812D01*
X121964820Y21105502D01*
X121854506Y21046537D01*
X121757815Y20967185D01*
X121678463Y20870494D01*
X121619498Y20760180D01*
X121583188Y20640482D01*
X121570928Y20516000D01*
X121570928Y20079507D01*
X120011000Y18519578D01*
X120011000Y19395425D01*
X120108405Y19514113D01*
X120190472Y19667648D01*
X120241008Y19834244D01*
X120258072Y20007498D01*
X120258072Y20632502D01*
X120241008Y20805756D01*
X120190472Y20972352D01*
X120108405Y21125887D01*
X119997962Y21260462D01*
X119863387Y21370905D01*
X119709852Y21452972D01*
X119543256Y21503508D01*
X119370002Y21520572D01*
X118119998Y21520572D01*
X117946744Y21503508D01*
X117780148Y21452972D01*
X117626613Y21370905D01*
X117492038Y21260462D01*
X117381595Y21125887D01*
X117299528Y20972352D01*
X117248992Y20805756D01*
X117231928Y20632502D01*
X117231928Y20007498D01*
X117248992Y19834244D01*
X117299528Y19667648D01*
X117381595Y19514113D01*
X117492038Y19379538D01*
X117626613Y19269095D01*
X117780148Y19187028D01*
X117946744Y19136492D01*
X118119998Y19119428D01*
X118241001Y19119428D01*
X118241000Y16426469D01*
X118236719Y16383000D01*
X118241000Y16339531D01*
X118241000Y16339524D01*
X118241001Y16339514D01*
X118241000Y14336579D01*
X117743422Y13839000D01*
X112699579Y13839000D01*
X111428072Y15110506D01*
X111428072Y15622000D01*
X111412929Y15775745D01*
X111368084Y15923582D01*
X111295258Y16059829D01*
X111197251Y16179251D01*
X111077829Y16277258D01*
X110941582Y16350084D01*
X110793745Y16394929D01*
X110640000Y16410072D01*
X110340000Y16410072D01*
X110186255Y16394929D01*
X110038418Y16350084D01*
X109902171Y16277258D01*
X109782749Y16179251D01*
X109684742Y16059829D01*
X109611916Y15923582D01*
X109567071Y15775745D01*
X109551928Y15622000D01*
X109551928Y13972000D01*
X109567071Y13818255D01*
X109611916Y13670418D01*
X109684742Y13534171D01*
X109782749Y13414749D01*
X109902171Y13316742D01*
X110038418Y13243916D01*
X110186255Y13199071D01*
X110340000Y13183928D01*
X110640000Y13183928D01*
X110793745Y13199071D01*
X110826434Y13208987D01*
X111676468Y12358953D01*
X111704183Y12325183D01*
X111737951Y12297470D01*
X111737953Y12297468D01*
X111838941Y12214589D01*
X111992686Y12132411D01*
X112083199Y12104954D01*
X112159510Y12081805D01*
X112289523Y12069000D01*
X112289531Y12069000D01*
X112333000Y12064719D01*
X112376469Y12069000D01*
X113101182Y12069000D01*
X113001795Y11920256D01*
X112923774Y11731898D01*
X112912465Y11675044D01*
X112155422Y10918000D01*
X105333350Y10918000D01*
X105457898Y10942774D01*
X105646256Y11020795D01*
X105694454Y11053000D01*
X106890531Y11053000D01*
X106934000Y11048719D01*
X106977469Y11053000D01*
X106977477Y11053000D01*
X107107490Y11065805D01*
X107274313Y11116411D01*
X107428059Y11198589D01*
X107562817Y11309183D01*
X107590534Y11342956D01*
X108545049Y12297470D01*
X108578817Y12325183D01*
X108689411Y12459941D01*
X108771589Y12613687D01*
X108822195Y12780510D01*
X108822360Y12782180D01*
X108823652Y12795306D01*
X108835000Y12910523D01*
X108835000Y12910531D01*
X108839281Y12954000D01*
X108835000Y12997469D01*
X108835000Y13693217D01*
X108872929Y13818255D01*
X108888072Y13972000D01*
X108888072Y15622000D01*
X108872929Y15775745D01*
X108828084Y15923582D01*
X108755258Y16059829D01*
X108657251Y16179251D01*
X108537829Y16277258D01*
X108401582Y16350084D01*
X108253745Y16394929D01*
X108100000Y16410072D01*
X107800000Y16410072D01*
X107646255Y16394929D01*
X107498418Y16350084D01*
X107362171Y16277258D01*
X107315000Y16238546D01*
X107267829Y16277258D01*
X107131582Y16350084D01*
X106983745Y16394929D01*
X106830000Y16410072D01*
X106530000Y16410072D01*
X106376255Y16394929D01*
X106228418Y16350084D01*
X106092171Y16277258D01*
X105972749Y16179251D01*
X105874742Y16059829D01*
X105801916Y15923582D01*
X105757071Y15775745D01*
X105741928Y15622000D01*
X105741928Y15171879D01*
X105684774Y15033898D01*
X105645000Y14833939D01*
X105645000Y14630061D01*
X105684774Y14430102D01*
X105741928Y14292121D01*
X105741928Y13972000D01*
X105757071Y13818255D01*
X105801916Y13670418D01*
X105874742Y13534171D01*
X105972749Y13414749D01*
X106092171Y13316742D01*
X106228418Y13243916D01*
X106376255Y13199071D01*
X106530000Y13183928D01*
X106830000Y13183928D01*
X106939095Y13194673D01*
X106567422Y12823000D01*
X105694454Y12823000D01*
X105646256Y12855205D01*
X105457898Y12933226D01*
X105257939Y12973000D01*
X105054061Y12973000D01*
X104854102Y12933226D01*
X104665744Y12855205D01*
X104496226Y12741937D01*
X104352063Y12597774D01*
X104335610Y12573150D01*
X104326812Y12662482D01*
X104290502Y12782180D01*
X104231537Y12892494D01*
X104152185Y12989185D01*
X104136000Y13002468D01*
X104136000Y14472263D01*
X104203962Y14528038D01*
X104314405Y14662613D01*
X104396472Y14816149D01*
X104447008Y14982745D01*
X104464072Y15155999D01*
X104464072Y17356001D01*
X104447008Y17529255D01*
X104396472Y17695851D01*
X104314405Y17849387D01*
X104203962Y17983962D01*
X104136000Y18039737D01*
X104136000Y18553422D01*
X104444579Y18862000D01*
X105747838Y18862000D01*
X105757071Y18768255D01*
X105801916Y18620418D01*
X105874742Y18484171D01*
X105972749Y18364749D01*
X106092171Y18266742D01*
X106228418Y18193916D01*
X106376255Y18149071D01*
X106530000Y18133928D01*
X106830000Y18133928D01*
X106983745Y18149071D01*
X107131582Y18193916D01*
X107267829Y18266742D01*
X107315000Y18305454D01*
X107362171Y18266742D01*
X107498418Y18193916D01*
X107646255Y18149071D01*
X107800000Y18133928D01*
X108065705Y18133928D01*
X108163169Y18015169D01*
X108357507Y17855679D01*
X108579226Y17737168D01*
X108819806Y17664189D01*
X109070000Y17639547D01*
X109370000Y17639547D01*
X109620194Y17664189D01*
X109860774Y17737168D01*
X110082493Y17855679D01*
X110276831Y18015169D01*
X110374295Y18133928D01*
X110640000Y18133928D01*
X110793745Y18149071D01*
X110941582Y18193916D01*
X111077829Y18266742D01*
X111197251Y18364749D01*
X111295258Y18484171D01*
X111368084Y18620418D01*
X111412929Y18768255D01*
X111422162Y18862000D01*
X112725422Y18862000D01*
X113034001Y18553420D01*
X113034001Y18039738D01*
X112966038Y17983962D01*
X112855595Y17849387D01*
X112773528Y17695851D01*
X112722992Y17529255D01*
X112705928Y17356001D01*
X112705928Y15155999D01*
X112722992Y14982745D01*
X112773528Y14816149D01*
X112855595Y14662613D01*
X112966038Y14528038D01*
X113100613Y14417595D01*
X113254149Y14335528D01*
X113420745Y14284992D01*
X113593999Y14267928D01*
X114244001Y14267928D01*
X114417255Y14284992D01*
X114583851Y14335528D01*
X114737387Y14417595D01*
X114871962Y14528038D01*
X114982405Y14662613D01*
X115064472Y14816149D01*
X115115008Y14982745D01*
X115132072Y15155999D01*
X115132072Y17356001D01*
X115115008Y17529255D01*
X115064472Y17695851D01*
X114982405Y17849387D01*
X114871962Y17983962D01*
X114804000Y18039737D01*
X114804000Y18876531D01*
X114808281Y18920000D01*
X114804000Y18963469D01*
X114804000Y18963477D01*
X114791195Y19093490D01*
X114773460Y19151954D01*
X114740589Y19260314D01*
X114658411Y19414059D01*
X114575532Y19515047D01*
X114575530Y19515049D01*
X114560612Y19533226D01*
X114607618Y19590503D01*
X114687375Y19739717D01*
X114736488Y19901623D01*
X114753072Y20070000D01*
X114753072Y20570000D01*
X114736488Y20738377D01*
X114687375Y20900283D01*
X114607618Y21049497D01*
X114500284Y21180284D01*
X114369497Y21287618D01*
X114220283Y21367375D01*
X114058377Y21416488D01*
X113890000Y21433072D01*
X113440000Y21433072D01*
X113271623Y21416488D01*
X113109717Y21367375D01*
X112960503Y21287618D01*
X112829716Y21180284D01*
X112722382Y21049497D01*
X112642625Y20900283D01*
X112593512Y20738377D01*
X112583035Y20632000D01*
X111422162Y20632000D01*
X111412929Y20725745D01*
X111368084Y20873582D01*
X111295258Y21009829D01*
X111197251Y21129251D01*
X111077829Y21227258D01*
X110941582Y21300084D01*
X110793745Y21344929D01*
X110640000Y21360072D01*
X110374295Y21360072D01*
X110276831Y21478831D01*
X110082493Y21638321D01*
X109860774Y21756832D01*
X109620194Y21829811D01*
X109370000Y21854453D01*
X109070000Y21854453D01*
X108835000Y21831307D01*
X108835000Y22350317D01*
X108904494Y22387463D01*
X109001185Y22466815D01*
X109080537Y22563506D01*
X109139502Y22673820D01*
X109175812Y22793518D01*
X109188072Y22918000D01*
X109188072Y23818000D01*
X109175812Y23942482D01*
X109139502Y24062180D01*
X109080537Y24172494D01*
X109001185Y24269185D01*
X108904494Y24348537D01*
X108794180Y24407502D01*
X108674482Y24443812D01*
X108550000Y24456072D01*
X107350000Y24456072D01*
X107225518Y24443812D01*
X107105820Y24407502D01*
X106995506Y24348537D01*
X106898815Y24269185D01*
X106819463Y24172494D01*
X106760498Y24062180D01*
X106724188Y23942482D01*
X106712614Y23824964D01*
X106320534Y24217044D01*
X106292817Y24250817D01*
X106158059Y24361411D01*
X106004313Y24443589D01*
X105837490Y24494195D01*
X105707477Y24507000D01*
X105707469Y24507000D01*
X105664000Y24511281D01*
X105620531Y24507000D01*
X105184479Y24507000D01*
X105138962Y24562462D01*
X105004387Y24672905D01*
X104850852Y24754972D01*
X104684256Y24805508D01*
X104511002Y24822572D01*
X103260998Y24822572D01*
X103087744Y24805508D01*
X102921148Y24754972D01*
X102767613Y24672905D01*
X102633038Y24562462D01*
X102522595Y24427887D01*
X102440528Y24274352D01*
X102389992Y24107756D01*
X102372928Y23934502D01*
X102372928Y23309498D01*
X102389992Y23136244D01*
X102440528Y22969648D01*
X102522595Y22816113D01*
X102633038Y22681538D01*
X102767613Y22571095D01*
X102921148Y22489028D01*
X103087744Y22438492D01*
X103260998Y22421428D01*
X104511002Y22421428D01*
X104684256Y22438492D01*
X104850852Y22489028D01*
X105004387Y22571095D01*
X105138962Y22681538D01*
X105184479Y22737000D01*
X105297422Y22737000D01*
X106674349Y21360072D01*
X106530000Y21360072D01*
X106376255Y21344929D01*
X106228418Y21300084D01*
X106092171Y21227258D01*
X105972749Y21129251D01*
X105874742Y21009829D01*
X105801916Y20873582D01*
X105757071Y20725745D01*
X105747838Y20632000D01*
X104586965Y20632000D01*
X104576488Y20738377D01*
X104527375Y20900283D01*
X104447618Y21049497D01*
X104340284Y21180284D01*
X104209497Y21287618D01*
X104060283Y21367375D01*
X103898377Y21416488D01*
X103730000Y21433072D01*
X103280000Y21433072D01*
X103223839Y21427540D01*
X103139864Y21529864D01*
X102934160Y21698681D01*
X102699475Y21824123D01*
X102444826Y21901370D01*
X102180000Y21927453D01*
X101730000Y21927453D01*
X101465174Y21901370D01*
X101210525Y21824123D01*
X100975840Y21698681D01*
X100770136Y21529864D01*
X100601319Y21324160D01*
X100475877Y21089475D01*
X100398630Y20834826D01*
X100372547Y20570000D01*
X100372547Y20070000D01*
X100398630Y19805174D01*
X100475877Y19550525D01*
X100601319Y19315840D01*
X100770136Y19110136D01*
X100975840Y18941319D01*
X101210525Y18815877D01*
X101465174Y18738630D01*
X101730000Y18712547D01*
X102180000Y18712547D01*
X102366001Y18730866D01*
X102366001Y18039738D01*
X102298038Y17983962D01*
X102187595Y17849387D01*
X102105528Y17695851D01*
X102054992Y17529255D01*
X102037928Y17356001D01*
X102037928Y15155999D01*
X102054992Y14982745D01*
X102105528Y14816149D01*
X102187595Y14662613D01*
X102298038Y14528038D01*
X102366001Y14472262D01*
X102366000Y13002468D01*
X102349815Y12989185D01*
X102270463Y12892494D01*
X102211498Y12782180D01*
X102175188Y12662482D01*
X102162928Y12538000D01*
X102162928Y11338000D01*
X102175188Y11213518D01*
X102211498Y11093820D01*
X102270463Y10983506D01*
X102272833Y10980618D01*
X102157898Y11028226D01*
X102101044Y11039535D01*
X101039072Y12101506D01*
X101039072Y12538000D01*
X101026812Y12662482D01*
X100990502Y12782180D01*
X100931537Y12892494D01*
X100852185Y12989185D01*
X100755494Y13068537D01*
X100645180Y13127502D01*
X100525482Y13163812D01*
X100401000Y13176072D01*
X99501000Y13176072D01*
X99376518Y13163812D01*
X99256820Y13127502D01*
X99146506Y13068537D01*
X99049815Y12989185D01*
X98970463Y12892494D01*
X98933317Y12823000D01*
X81577465Y12823000D01*
X81533999Y12827281D01*
X81490533Y12823000D01*
X81490523Y12823000D01*
X81360510Y12810195D01*
X81193687Y12759589D01*
X81039941Y12677411D01*
X80905183Y12566817D01*
X80877468Y12533046D01*
X80659422Y12315000D01*
X79610409Y12315000D01*
X79622817Y12325183D01*
X79650534Y12358956D01*
X80605050Y13313471D01*
X80638817Y13341183D01*
X80749411Y13475941D01*
X80831589Y13629687D01*
X80882195Y13796510D01*
X80895000Y13926523D01*
X80895000Y13926531D01*
X80899281Y13970000D01*
X80895000Y14013469D01*
X80895000Y16016422D01*
X82234579Y17356001D01*
X98593547Y17356001D01*
X98593547Y15155999D01*
X98620110Y14886296D01*
X98698780Y14626958D01*
X98826532Y14387950D01*
X98998458Y14178458D01*
X99207950Y14006532D01*
X99446958Y13878780D01*
X99706296Y13800110D01*
X99975999Y13773547D01*
X100626001Y13773547D01*
X100895704Y13800110D01*
X101155042Y13878780D01*
X101394050Y14006532D01*
X101603542Y14178458D01*
X101775468Y14387950D01*
X101903220Y14626958D01*
X101981890Y14886296D01*
X102008453Y15155999D01*
X102008453Y17356001D01*
X101981890Y17625704D01*
X101903220Y17885042D01*
X101775468Y18124050D01*
X101603542Y18333542D01*
X101394050Y18505468D01*
X101155042Y18633220D01*
X100895704Y18711890D01*
X100626001Y18738453D01*
X99975999Y18738453D01*
X99706296Y18711890D01*
X99446958Y18633220D01*
X99207950Y18505468D01*
X98998458Y18333542D01*
X98826532Y18124050D01*
X98698780Y17885042D01*
X98620110Y17625704D01*
X98593547Y17356001D01*
X82234579Y17356001D01*
X83856507Y18977928D01*
X84293000Y18977928D01*
X84417482Y18990188D01*
X84537180Y19026498D01*
X84647494Y19085463D01*
X84744185Y19164815D01*
X84823537Y19261506D01*
X84882502Y19371820D01*
X84918812Y19491518D01*
X84931072Y19616000D01*
X84931072Y20516000D01*
X84918812Y20640482D01*
X84882502Y20760180D01*
X84823537Y20870494D01*
X84744185Y20967185D01*
X84647494Y21046537D01*
X84537180Y21105502D01*
X84417482Y21141812D01*
X84293000Y21154072D01*
X83093000Y21154072D01*
X82968518Y21141812D01*
X82848820Y21105502D01*
X82738506Y21046537D01*
X82641815Y20967185D01*
X82562463Y20870494D01*
X82503498Y20760180D01*
X82467188Y20640482D01*
X82454928Y20516000D01*
X82454928Y20079507D01*
X80895000Y18519578D01*
X80895000Y19395425D01*
X80992405Y19514113D01*
X81074472Y19667648D01*
X81125008Y19834244D01*
X81142072Y20007498D01*
X81142072Y20632502D01*
X81125008Y20805756D01*
X81074472Y20972352D01*
X80992405Y21125887D01*
X80881962Y21260462D01*
X80747387Y21370905D01*
X80593852Y21452972D01*
X80427256Y21503508D01*
X80254002Y21520572D01*
X79003998Y21520572D01*
X78830744Y21503508D01*
X78664148Y21452972D01*
X78510613Y21370905D01*
X78376038Y21260462D01*
X78265595Y21125887D01*
X78183528Y20972352D01*
X78132992Y20805756D01*
X78115928Y20632502D01*
X78115928Y20007498D01*
X78132992Y19834244D01*
X78183528Y19667648D01*
X78265595Y19514113D01*
X78376038Y19379538D01*
X78510613Y19269095D01*
X78664148Y19187028D01*
X78830744Y19136492D01*
X79003998Y19119428D01*
X79125001Y19119428D01*
X79125000Y16426469D01*
X79120719Y16383000D01*
X79125000Y16339531D01*
X79125000Y16339524D01*
X79125001Y16339514D01*
X79125000Y14336579D01*
X78627422Y13839000D01*
X73583579Y13839000D01*
X72312072Y15110506D01*
X72312072Y15622000D01*
X72296929Y15775745D01*
X72252084Y15923582D01*
X72179258Y16059829D01*
X72081251Y16179251D01*
X71961829Y16277258D01*
X71825582Y16350084D01*
X71677745Y16394929D01*
X71524000Y16410072D01*
X71224000Y16410072D01*
X71070255Y16394929D01*
X70922418Y16350084D01*
X70786171Y16277258D01*
X70666749Y16179251D01*
X70568742Y16059829D01*
X70495916Y15923582D01*
X70451071Y15775745D01*
X70435928Y15622000D01*
X70435928Y13972000D01*
X70451071Y13818255D01*
X70495916Y13670418D01*
X70568742Y13534171D01*
X70666749Y13414749D01*
X70786171Y13316742D01*
X70922418Y13243916D01*
X71070255Y13199071D01*
X71224000Y13183928D01*
X71524000Y13183928D01*
X71677745Y13199071D01*
X71710434Y13208987D01*
X72560468Y12358953D01*
X72588183Y12325183D01*
X72621951Y12297470D01*
X72621953Y12297468D01*
X72722941Y12214589D01*
X72876686Y12132411D01*
X72967199Y12104954D01*
X73043510Y12081805D01*
X73173523Y12069000D01*
X73173531Y12069000D01*
X73217000Y12064719D01*
X73260469Y12069000D01*
X73985182Y12069000D01*
X73885795Y11920256D01*
X73807774Y11731898D01*
X73796465Y11675044D01*
X73039422Y10918000D01*
X71697386Y10918000D01*
X71595497Y11001618D01*
X71446283Y11081375D01*
X71284377Y11130488D01*
X71116000Y11147072D01*
X70616000Y11147072D01*
X70447623Y11130488D01*
X70285717Y11081375D01*
X70136503Y11001618D01*
X70034614Y10918000D01*
X65061778Y10918000D01*
X65115537Y10983506D01*
X65174502Y11093820D01*
X65210812Y11213518D01*
X65223072Y11338000D01*
X65223072Y12538000D01*
X65210812Y12662482D01*
X65174502Y12782180D01*
X65115537Y12892494D01*
X65036185Y12989185D01*
X65020000Y13002468D01*
X65020000Y14472263D01*
X65087962Y14528038D01*
X65198405Y14662613D01*
X65280472Y14816149D01*
X65285868Y14833939D01*
X66529000Y14833939D01*
X66529000Y14630061D01*
X66568774Y14430102D01*
X66625928Y14292121D01*
X66625928Y13972000D01*
X66641071Y13818255D01*
X66685916Y13670418D01*
X66758742Y13534171D01*
X66856749Y13414749D01*
X66976171Y13316742D01*
X67112418Y13243916D01*
X67260255Y13199071D01*
X67414000Y13183928D01*
X67714000Y13183928D01*
X67867745Y13199071D01*
X68015582Y13243916D01*
X68151829Y13316742D01*
X68199000Y13355454D01*
X68246171Y13316742D01*
X68382418Y13243916D01*
X68530255Y13199071D01*
X68684000Y13183928D01*
X68984000Y13183928D01*
X69137745Y13199071D01*
X69285582Y13243916D01*
X69421829Y13316742D01*
X69541251Y13414749D01*
X69639258Y13534171D01*
X69712084Y13670418D01*
X69756929Y13818255D01*
X69772072Y13972000D01*
X69772072Y14292121D01*
X69829226Y14430102D01*
X69869000Y14630061D01*
X69869000Y14833939D01*
X69829226Y15033898D01*
X69772072Y15171879D01*
X69772072Y15622000D01*
X69756929Y15775745D01*
X69712084Y15923582D01*
X69639258Y16059829D01*
X69541251Y16179251D01*
X69421829Y16277258D01*
X69285582Y16350084D01*
X69137745Y16394929D01*
X68984000Y16410072D01*
X68684000Y16410072D01*
X68530255Y16394929D01*
X68382418Y16350084D01*
X68246171Y16277258D01*
X68199000Y16238546D01*
X68151829Y16277258D01*
X68015582Y16350084D01*
X67867745Y16394929D01*
X67714000Y16410072D01*
X67414000Y16410072D01*
X67260255Y16394929D01*
X67112418Y16350084D01*
X66976171Y16277258D01*
X66856749Y16179251D01*
X66758742Y16059829D01*
X66685916Y15923582D01*
X66641071Y15775745D01*
X66625928Y15622000D01*
X66625928Y15171879D01*
X66568774Y15033898D01*
X66529000Y14833939D01*
X65285868Y14833939D01*
X65331008Y14982745D01*
X65348072Y15155999D01*
X65348072Y17356001D01*
X65331008Y17529255D01*
X65280472Y17695851D01*
X65198405Y17849387D01*
X65087962Y17983962D01*
X65020000Y18039737D01*
X65020000Y18553422D01*
X65328579Y18862000D01*
X66631838Y18862000D01*
X66641071Y18768255D01*
X66685916Y18620418D01*
X66758742Y18484171D01*
X66856749Y18364749D01*
X66976171Y18266742D01*
X67112418Y18193916D01*
X67260255Y18149071D01*
X67414000Y18133928D01*
X67714000Y18133928D01*
X67867745Y18149071D01*
X68015582Y18193916D01*
X68151829Y18266742D01*
X68199000Y18305454D01*
X68246171Y18266742D01*
X68382418Y18193916D01*
X68530255Y18149071D01*
X68684000Y18133928D01*
X68949705Y18133928D01*
X69047169Y18015169D01*
X69241507Y17855679D01*
X69463226Y17737168D01*
X69703806Y17664189D01*
X69954000Y17639547D01*
X70254000Y17639547D01*
X70504194Y17664189D01*
X70744774Y17737168D01*
X70966493Y17855679D01*
X71160831Y18015169D01*
X71258295Y18133928D01*
X71524000Y18133928D01*
X71677745Y18149071D01*
X71825582Y18193916D01*
X71961829Y18266742D01*
X72081251Y18364749D01*
X72179258Y18484171D01*
X72252084Y18620418D01*
X72296929Y18768255D01*
X72306162Y18862000D01*
X73609422Y18862000D01*
X73918001Y18553420D01*
X73918001Y18039738D01*
X73850038Y17983962D01*
X73739595Y17849387D01*
X73657528Y17695851D01*
X73606992Y17529255D01*
X73589928Y17356001D01*
X73589928Y15155999D01*
X73606992Y14982745D01*
X73657528Y14816149D01*
X73739595Y14662613D01*
X73850038Y14528038D01*
X73984613Y14417595D01*
X74138149Y14335528D01*
X74304745Y14284992D01*
X74477999Y14267928D01*
X75128001Y14267928D01*
X75301255Y14284992D01*
X75467851Y14335528D01*
X75621387Y14417595D01*
X75755962Y14528038D01*
X75866405Y14662613D01*
X75948472Y14816149D01*
X75999008Y14982745D01*
X76016072Y15155999D01*
X76016072Y17356001D01*
X75999008Y17529255D01*
X75948472Y17695851D01*
X75866405Y17849387D01*
X75755962Y17983962D01*
X75688000Y18039737D01*
X75688000Y18876531D01*
X75692281Y18920000D01*
X75688000Y18963469D01*
X75688000Y18963477D01*
X75675195Y19093490D01*
X75657460Y19151954D01*
X75624589Y19260314D01*
X75542411Y19414059D01*
X75459532Y19515047D01*
X75459530Y19515049D01*
X75444612Y19533226D01*
X75491618Y19590503D01*
X75571375Y19739717D01*
X75620488Y19901623D01*
X75637072Y20070000D01*
X75637072Y20570000D01*
X75620488Y20738377D01*
X75571375Y20900283D01*
X75491618Y21049497D01*
X75384284Y21180284D01*
X75253497Y21287618D01*
X75104283Y21367375D01*
X74942377Y21416488D01*
X74774000Y21433072D01*
X74324000Y21433072D01*
X74155623Y21416488D01*
X73993717Y21367375D01*
X73844503Y21287618D01*
X73713716Y21180284D01*
X73606382Y21049497D01*
X73526625Y20900283D01*
X73477512Y20738377D01*
X73467035Y20632000D01*
X72306162Y20632000D01*
X72296929Y20725745D01*
X72252084Y20873582D01*
X72179258Y21009829D01*
X72081251Y21129251D01*
X71961829Y21227258D01*
X71825582Y21300084D01*
X71677745Y21344929D01*
X71524000Y21360072D01*
X71258295Y21360072D01*
X71160831Y21478831D01*
X70966493Y21638321D01*
X70744774Y21756832D01*
X70504194Y21829811D01*
X70254000Y21854453D01*
X69954000Y21854453D01*
X69719000Y21831307D01*
X69719000Y22350317D01*
X69788494Y22387463D01*
X69885185Y22466815D01*
X69964537Y22563506D01*
X70023502Y22673820D01*
X70059812Y22793518D01*
X70072072Y22918000D01*
X70072072Y23818000D01*
X70059812Y23942482D01*
X70023502Y24062180D01*
X69964537Y24172494D01*
X69885185Y24269185D01*
X69788494Y24348537D01*
X69678180Y24407502D01*
X69558482Y24443812D01*
X69434000Y24456072D01*
X68234000Y24456072D01*
X68109518Y24443812D01*
X67989820Y24407502D01*
X67879506Y24348537D01*
X67782815Y24269185D01*
X67703463Y24172494D01*
X67644498Y24062180D01*
X67608188Y23942482D01*
X67596614Y23824964D01*
X67204534Y24217044D01*
X67176817Y24250817D01*
X67042059Y24361411D01*
X66888313Y24443589D01*
X66721490Y24494195D01*
X66591477Y24507000D01*
X66591469Y24507000D01*
X66548000Y24511281D01*
X66504531Y24507000D01*
X66068479Y24507000D01*
X66022962Y24562462D01*
X65888387Y24672905D01*
X65734852Y24754972D01*
X65568256Y24805508D01*
X65395002Y24822572D01*
X64144998Y24822572D01*
X63971744Y24805508D01*
X63805148Y24754972D01*
X63651613Y24672905D01*
X63517038Y24562462D01*
X63406595Y24427887D01*
X63324528Y24274352D01*
X63273992Y24107756D01*
X63256928Y23934502D01*
X63256928Y23309498D01*
X63273992Y23136244D01*
X63324528Y22969648D01*
X63406595Y22816113D01*
X63517038Y22681538D01*
X63651613Y22571095D01*
X63805148Y22489028D01*
X63971744Y22438492D01*
X64144998Y22421428D01*
X65395002Y22421428D01*
X65568256Y22438492D01*
X65734852Y22489028D01*
X65888387Y22571095D01*
X66022962Y22681538D01*
X66068479Y22737000D01*
X66181422Y22737000D01*
X67558349Y21360072D01*
X67414000Y21360072D01*
X67260255Y21344929D01*
X67112418Y21300084D01*
X66976171Y21227258D01*
X66856749Y21129251D01*
X66758742Y21009829D01*
X66685916Y20873582D01*
X66641071Y20725745D01*
X66631838Y20632000D01*
X65470965Y20632000D01*
X65460488Y20738377D01*
X65411375Y20900283D01*
X65331618Y21049497D01*
X65224284Y21180284D01*
X65093497Y21287618D01*
X64944283Y21367375D01*
X64782377Y21416488D01*
X64614000Y21433072D01*
X64164000Y21433072D01*
X64107839Y21427540D01*
X64023864Y21529864D01*
X63818160Y21698681D01*
X63583475Y21824123D01*
X63328826Y21901370D01*
X63064000Y21927453D01*
X62614000Y21927453D01*
X62349174Y21901370D01*
X62094525Y21824123D01*
X61859840Y21698681D01*
X61654136Y21529864D01*
X61485319Y21324160D01*
X61359877Y21089475D01*
X61282630Y20834826D01*
X61256547Y20570000D01*
X61256547Y20070000D01*
X61282630Y19805174D01*
X61359877Y19550525D01*
X61485319Y19315840D01*
X61654136Y19110136D01*
X61859840Y18941319D01*
X62094525Y18815877D01*
X62349174Y18738630D01*
X62614000Y18712547D01*
X63064000Y18712547D01*
X63250001Y18730866D01*
X63250001Y18039738D01*
X63182038Y17983962D01*
X63071595Y17849387D01*
X62989528Y17695851D01*
X62938992Y17529255D01*
X62921928Y17356001D01*
X62921928Y15155999D01*
X62938992Y14982745D01*
X62989528Y14816149D01*
X63071595Y14662613D01*
X63182038Y14528038D01*
X63250001Y14472262D01*
X63250000Y13002468D01*
X63233815Y12989185D01*
X63154463Y12892494D01*
X63095498Y12782180D01*
X63059188Y12662482D01*
X63046928Y12538000D01*
X63046928Y11338000D01*
X63059188Y11213518D01*
X63095498Y11093820D01*
X63154463Y10983506D01*
X63208222Y10918000D01*
X63106579Y10918000D01*
X61923072Y12101506D01*
X61923072Y12538000D01*
X61910812Y12662482D01*
X61874502Y12782180D01*
X61815537Y12892494D01*
X61736185Y12989185D01*
X61639494Y13068537D01*
X61529180Y13127502D01*
X61409482Y13163812D01*
X61285000Y13176072D01*
X60846506Y13176072D01*
X60727534Y13295044D01*
X60699817Y13328817D01*
X60565059Y13439411D01*
X60411313Y13521589D01*
X60244490Y13572195D01*
X60114477Y13585000D01*
X60114469Y13585000D01*
X60071000Y13589281D01*
X60027531Y13585000D01*
X55430328Y13585000D01*
X55378012Y13711302D01*
X55144363Y14060983D01*
X54846983Y14358363D01*
X54497302Y14592012D01*
X54108756Y14752953D01*
X53696279Y14835000D01*
X53275721Y14835000D01*
X52863244Y14752953D01*
X52474698Y14592012D01*
X52125017Y14358363D01*
X51827637Y14060983D01*
X51593988Y13711302D01*
X51433047Y13322756D01*
X51351000Y12910279D01*
X32877000Y12910279D01*
X32877000Y17356001D01*
X59477547Y17356001D01*
X59477547Y15155999D01*
X59504110Y14886296D01*
X59582780Y14626958D01*
X59710532Y14387950D01*
X59882458Y14178458D01*
X60091950Y14006532D01*
X60330958Y13878780D01*
X60590296Y13800110D01*
X60859999Y13773547D01*
X61510001Y13773547D01*
X61779704Y13800110D01*
X62039042Y13878780D01*
X62278050Y14006532D01*
X62487542Y14178458D01*
X62659468Y14387950D01*
X62787220Y14626958D01*
X62865890Y14886296D01*
X62892453Y15155999D01*
X62892453Y17356001D01*
X62865890Y17625704D01*
X62787220Y17885042D01*
X62659468Y18124050D01*
X62487542Y18333542D01*
X62278050Y18505468D01*
X62039042Y18633220D01*
X61779704Y18711890D01*
X61510001Y18738453D01*
X60859999Y18738453D01*
X60590296Y18711890D01*
X60330958Y18633220D01*
X60091950Y18505468D01*
X59882458Y18333542D01*
X59710532Y18124050D01*
X59582780Y17885042D01*
X59504110Y17625704D01*
X59477547Y17356001D01*
X32877000Y17356001D01*
X32877000Y27940000D01*
X32842261Y28217659D01*
X32767105Y28425413D01*
X32652863Y28614513D01*
X32503923Y28777693D01*
X30337000Y30727924D01*
X30337000Y30829198D01*
X30355716Y30799847D01*
X30508558Y30640318D01*
X32286558Y29116318D01*
X32393872Y29034934D01*
X32588716Y28930788D01*
X32800133Y28866655D01*
X33020000Y28845000D01*
X38100000Y28845000D01*
X38319867Y28866655D01*
X38531284Y28930788D01*
X38726128Y29034934D01*
X38896909Y29175091D01*
X39037066Y29345872D01*
X39141212Y29540716D01*
X39205345Y29752133D01*
X39227000Y29972000D01*
X39227000Y48260000D01*
X39205345Y48479867D01*
X39141212Y48691284D01*
X39037066Y48886128D01*
X38896909Y49056909D01*
X38726128Y49197066D01*
X38531284Y49301212D01*
X38319867Y49365345D01*
X38100000Y49387000D01*
X7112000Y49387000D01*
X6892133Y49365345D01*
X6680716Y49301212D01*
X6485872Y49197066D01*
X6350000Y49085558D01*
X6214128Y49197066D01*
X6019284Y49301212D01*
X5807867Y49365345D01*
X5588000Y49387000D01*
X660000Y49387000D01*
X660000Y69698000D01*
X39767000Y69698000D01*
X39767000Y29972000D01*
%TA.AperFunction,Conductor*%
D29*
G36*
X39767000Y29972000D02*
G01*
X39788655Y29752133D01*
X39852788Y29540716D01*
X39956934Y29345872D01*
X40097091Y29175091D01*
X40267872Y29034934D01*
X40462716Y28930788D01*
X40674133Y28866655D01*
X40894000Y28845000D01*
X63609000Y28845000D01*
X63609001Y27562934D01*
X63517038Y27487462D01*
X63406595Y27352887D01*
X63324528Y27199352D01*
X63273992Y27032756D01*
X63256928Y26859502D01*
X63256928Y26234498D01*
X63273992Y26061244D01*
X63324528Y25894648D01*
X63406595Y25741113D01*
X63517038Y25606538D01*
X63651613Y25496095D01*
X63805148Y25414028D01*
X63971744Y25363492D01*
X64144998Y25346428D01*
X65395002Y25346428D01*
X65568256Y25363492D01*
X65734852Y25414028D01*
X65888387Y25496095D01*
X66022962Y25606538D01*
X66133405Y25741113D01*
X66215472Y25894648D01*
X66266008Y26061244D01*
X66283072Y26234498D01*
X66283072Y26859502D01*
X66277626Y26914795D01*
X67119470Y26072951D01*
X67147183Y26039183D01*
X67180951Y26011470D01*
X67180953Y26011468D01*
X67226827Y25973820D01*
X67281941Y25928589D01*
X67435687Y25846411D01*
X67551903Y25811157D01*
X67602509Y25795805D01*
X67617306Y25794348D01*
X67732523Y25783000D01*
X67732531Y25783000D01*
X67772786Y25779036D01*
X67782815Y25766815D01*
X67879506Y25687463D01*
X67989820Y25628498D01*
X68109518Y25592188D01*
X68234000Y25579928D01*
X69434000Y25579928D01*
X69558482Y25592188D01*
X69678180Y25628498D01*
X69788494Y25687463D01*
X69885185Y25766815D01*
X69964537Y25863506D01*
X70023502Y25973820D01*
X70059812Y26093518D01*
X70072072Y26218000D01*
X70072072Y27118000D01*
X70059812Y27242482D01*
X70023502Y27362180D01*
X69964537Y27472494D01*
X69885185Y27569185D01*
X69788494Y27648537D01*
X69678180Y27707502D01*
X69558482Y27743812D01*
X69434000Y27756072D01*
X68234000Y27756072D01*
X68109518Y27743812D01*
X67989820Y27707502D01*
X67988684Y27706895D01*
X66850579Y28845000D01*
X82808000Y28845000D01*
X82808000Y27675579D01*
X79577994Y24445572D01*
X79003998Y24445572D01*
X78830744Y24428508D01*
X78664148Y24377972D01*
X78510613Y24295905D01*
X78376038Y24185462D01*
X78265595Y24050887D01*
X78183528Y23897352D01*
X78132992Y23730756D01*
X78115928Y23557502D01*
X78115928Y22932498D01*
X78132992Y22759244D01*
X78183528Y22592648D01*
X78265595Y22439113D01*
X78376038Y22304538D01*
X78510613Y22194095D01*
X78664148Y22112028D01*
X78830744Y22061492D01*
X79003998Y22044428D01*
X80254002Y22044428D01*
X80427256Y22061492D01*
X80593852Y22112028D01*
X80747387Y22194095D01*
X80881962Y22304538D01*
X80992405Y22439113D01*
X81074472Y22592648D01*
X81125008Y22759244D01*
X81142072Y22932498D01*
X81142072Y23506494D01*
X82808000Y25172422D01*
X82808000Y24383683D01*
X82738506Y24346537D01*
X82641815Y24267185D01*
X82562463Y24170494D01*
X82503498Y24060180D01*
X82467188Y23940482D01*
X82454928Y23816000D01*
X82454928Y22916000D01*
X82467188Y22791518D01*
X82503498Y22671820D01*
X82562463Y22561506D01*
X82641815Y22464815D01*
X82738506Y22385463D01*
X82848820Y22326498D01*
X82968518Y22290188D01*
X83093000Y22277928D01*
X84293000Y22277928D01*
X84417482Y22290188D01*
X84537180Y22326498D01*
X84647494Y22385463D01*
X84744185Y22464815D01*
X84823537Y22561506D01*
X84882502Y22671820D01*
X84918812Y22791518D01*
X84931072Y22916000D01*
X84931072Y23816000D01*
X84918812Y23940482D01*
X84882502Y24060180D01*
X84823537Y24170494D01*
X84744185Y24267185D01*
X84647494Y24346537D01*
X84578000Y24383683D01*
X84578000Y27261524D01*
X84582282Y27305000D01*
X84578000Y27348477D01*
X84578000Y28845000D01*
X102725000Y28845000D01*
X102725001Y27562934D01*
X102633038Y27487462D01*
X102522595Y27352887D01*
X102440528Y27199352D01*
X102389992Y27032756D01*
X102372928Y26859502D01*
X102372928Y26234498D01*
X102389992Y26061244D01*
X102440528Y25894648D01*
X102522595Y25741113D01*
X102633038Y25606538D01*
X102767613Y25496095D01*
X102921148Y25414028D01*
X103087744Y25363492D01*
X103260998Y25346428D01*
X104511002Y25346428D01*
X104684256Y25363492D01*
X104850852Y25414028D01*
X105004387Y25496095D01*
X105138962Y25606538D01*
X105249405Y25741113D01*
X105331472Y25894648D01*
X105382008Y26061244D01*
X105399072Y26234498D01*
X105399072Y26859502D01*
X105393626Y26914795D01*
X106235470Y26072951D01*
X106263183Y26039183D01*
X106296951Y26011470D01*
X106296953Y26011468D01*
X106342827Y25973820D01*
X106397941Y25928589D01*
X106551687Y25846411D01*
X106667903Y25811157D01*
X106718509Y25795805D01*
X106733306Y25794348D01*
X106848523Y25783000D01*
X106848531Y25783000D01*
X106888786Y25779036D01*
X106898815Y25766815D01*
X106995506Y25687463D01*
X107105820Y25628498D01*
X107225518Y25592188D01*
X107350000Y25579928D01*
X108550000Y25579928D01*
X108674482Y25592188D01*
X108794180Y25628498D01*
X108904494Y25687463D01*
X109001185Y25766815D01*
X109080537Y25863506D01*
X109139502Y25973820D01*
X109175812Y26093518D01*
X109188072Y26218000D01*
X109188072Y27118000D01*
X109175812Y27242482D01*
X109139502Y27362180D01*
X109080537Y27472494D01*
X109001185Y27569185D01*
X108904494Y27648537D01*
X108794180Y27707502D01*
X108674482Y27743812D01*
X108550000Y27756072D01*
X107350000Y27756072D01*
X107225518Y27743812D01*
X107105820Y27707502D01*
X107104684Y27706895D01*
X105966579Y28845000D01*
X121924000Y28845000D01*
X121924000Y27675579D01*
X118693994Y24445572D01*
X118119998Y24445572D01*
X117946744Y24428508D01*
X117780148Y24377972D01*
X117626613Y24295905D01*
X117492038Y24185462D01*
X117381595Y24050887D01*
X117299528Y23897352D01*
X117248992Y23730756D01*
X117231928Y23557502D01*
X117231928Y22932498D01*
X117248992Y22759244D01*
X117299528Y22592648D01*
X117381595Y22439113D01*
X117492038Y22304538D01*
X117626613Y22194095D01*
X117780148Y22112028D01*
X117946744Y22061492D01*
X118119998Y22044428D01*
X119370002Y22044428D01*
X119543256Y22061492D01*
X119709852Y22112028D01*
X119863387Y22194095D01*
X119997962Y22304538D01*
X120108405Y22439113D01*
X120190472Y22592648D01*
X120241008Y22759244D01*
X120258072Y22932498D01*
X120258072Y23506494D01*
X121924000Y25172422D01*
X121924000Y24383683D01*
X121854506Y24346537D01*
X121757815Y24267185D01*
X121678463Y24170494D01*
X121619498Y24060180D01*
X121583188Y23940482D01*
X121570928Y23816000D01*
X121570928Y22916000D01*
X121583188Y22791518D01*
X121619498Y22671820D01*
X121678463Y22561506D01*
X121757815Y22464815D01*
X121854506Y22385463D01*
X121964820Y22326498D01*
X122084518Y22290188D01*
X122209000Y22277928D01*
X123409000Y22277928D01*
X123533482Y22290188D01*
X123653180Y22326498D01*
X123763494Y22385463D01*
X123860185Y22464815D01*
X123939537Y22561506D01*
X123998502Y22671820D01*
X124034812Y22791518D01*
X124047072Y22916000D01*
X124047072Y23816000D01*
X124034812Y23940482D01*
X123998502Y24060180D01*
X123939537Y24170494D01*
X123860185Y24267185D01*
X123763494Y24346537D01*
X123694000Y24383683D01*
X123694000Y27261524D01*
X123698282Y27305000D01*
X123694000Y27348477D01*
X123694000Y28845000D01*
X127610001Y28845000D01*
X127610001Y660000D01*
X32877000Y660000D01*
X32877000Y12910279D01*
X51351000Y12910279D01*
X51351000Y12489721D01*
X51433047Y12077244D01*
X51593988Y11688698D01*
X51827637Y11339017D01*
X52125017Y11041637D01*
X52474698Y10807988D01*
X52863244Y10647047D01*
X53275721Y10565000D01*
X53696279Y10565000D01*
X54108756Y10647047D01*
X54497302Y10807988D01*
X54846983Y11041637D01*
X55144363Y11339017D01*
X55378012Y11688698D01*
X55430328Y11815000D01*
X59704422Y11815000D01*
X59746928Y11772494D01*
X59746928Y11338000D01*
X59759188Y11213518D01*
X59795498Y11093820D01*
X59854463Y10983506D01*
X59933815Y10886815D01*
X60030506Y10807463D01*
X60140820Y10748498D01*
X60260518Y10712188D01*
X60385000Y10699928D01*
X60821494Y10699928D01*
X61486498Y10034923D01*
X61474184Y10024817D01*
X61446471Y9991049D01*
X61446468Y9991046D01*
X61363590Y9890059D01*
X61281412Y9736313D01*
X61230805Y9569490D01*
X61213719Y9396000D01*
X61218001Y9352521D01*
X61218000Y6391072D01*
X60603000Y6391072D01*
X60429746Y6374008D01*
X60263150Y6323472D01*
X60109614Y6241405D01*
X59975038Y6130962D01*
X59864595Y5996386D01*
X59782528Y5842850D01*
X59731992Y5676254D01*
X59714928Y5503000D01*
X59714928Y4403000D01*
X59731992Y4229746D01*
X59782528Y4063150D01*
X59864595Y3909614D01*
X59975038Y3775038D01*
X60109614Y3664595D01*
X60263150Y3582528D01*
X60429746Y3531992D01*
X60603000Y3514928D01*
X63603000Y3514928D01*
X63776254Y3531992D01*
X63942850Y3582528D01*
X64096386Y3664595D01*
X64230962Y3775038D01*
X64341405Y3909614D01*
X64423472Y4063150D01*
X64474008Y4229746D01*
X64491072Y4403000D01*
X64491072Y5503000D01*
X64474008Y5676254D01*
X64423472Y5842850D01*
X64341405Y5996386D01*
X64230962Y6130962D01*
X64096386Y6241405D01*
X63942850Y6323472D01*
X63776254Y6374008D01*
X63603000Y6391072D01*
X62988000Y6391072D01*
X62988000Y9029422D01*
X63106579Y9148000D01*
X70097976Y9148000D01*
X70136503Y9116382D01*
X70285717Y9036625D01*
X70447623Y8987512D01*
X70616000Y8970928D01*
X71116000Y8970928D01*
X71284377Y8987512D01*
X71446283Y9036625D01*
X71595497Y9116382D01*
X71634024Y9148000D01*
X72521000Y9148000D01*
X72521001Y6393479D01*
X72516719Y6350000D01*
X72533805Y6176510D01*
X72584412Y6009687D01*
X72666590Y5855941D01*
X72749468Y5754954D01*
X72749471Y5754951D01*
X72777184Y5721183D01*
X72810951Y5693471D01*
X74965928Y3538493D01*
X74965928Y2452000D01*
X74978188Y2327518D01*
X75014498Y2207820D01*
X75073463Y2097506D01*
X75152815Y2000815D01*
X75249506Y1921463D01*
X75359820Y1862498D01*
X75479518Y1826188D01*
X75604000Y1813928D01*
X77304000Y1813928D01*
X77428482Y1826188D01*
X77548180Y1862498D01*
X77658494Y1921463D01*
X77755185Y2000815D01*
X77834537Y2097506D01*
X77893502Y2207820D01*
X77915513Y2280380D01*
X78047368Y2148525D01*
X78290589Y1986010D01*
X78560842Y1874068D01*
X78847740Y1817000D01*
X79140260Y1817000D01*
X79427158Y1874068D01*
X79697411Y1986010D01*
X79940632Y2148525D01*
X80147475Y2355368D01*
X80264000Y2529760D01*
X80380525Y2355368D01*
X80587368Y2148525D01*
X80830589Y1986010D01*
X81100842Y1874068D01*
X81387740Y1817000D01*
X81680260Y1817000D01*
X81967158Y1874068D01*
X82237411Y1986010D01*
X82480632Y2148525D01*
X82687475Y2355368D01*
X82804000Y2529760D01*
X82920525Y2355368D01*
X83127368Y2148525D01*
X83370589Y1986010D01*
X83640842Y1874068D01*
X83927740Y1817000D01*
X84220260Y1817000D01*
X84507158Y1874068D01*
X84777411Y1986010D01*
X85020632Y2148525D01*
X85227475Y2355368D01*
X85344000Y2529760D01*
X85460525Y2355368D01*
X85667368Y2148525D01*
X85910589Y1986010D01*
X86180842Y1874068D01*
X86467740Y1817000D01*
X86760260Y1817000D01*
X87047158Y1874068D01*
X87317411Y1986010D01*
X87560632Y2148525D01*
X87767475Y2355368D01*
X87929990Y2598589D01*
X88041932Y2868842D01*
X88099000Y3155740D01*
X88099000Y3448260D01*
X88041932Y3735158D01*
X87929990Y4005411D01*
X87767475Y4248632D01*
X87560632Y4455475D01*
X87499000Y4496656D01*
X87499000Y4576000D01*
X94991746Y4576000D01*
X94811368Y4455475D01*
X94604525Y4248632D01*
X94442010Y4005411D01*
X94330068Y3735158D01*
X94273000Y3448260D01*
X94273000Y3155740D01*
X94330068Y2868842D01*
X94442010Y2598589D01*
X94604525Y2355368D01*
X94811368Y2148525D01*
X95054589Y1986010D01*
X95324842Y1874068D01*
X95611740Y1817000D01*
X95904260Y1817000D01*
X96191158Y1874068D01*
X96461411Y1986010D01*
X96704632Y2148525D01*
X96911475Y2355368D01*
X97028000Y2529760D01*
X97144525Y2355368D01*
X97351368Y2148525D01*
X97594589Y1986010D01*
X97864842Y1874068D01*
X98151740Y1817000D01*
X98444260Y1817000D01*
X98731158Y1874068D01*
X99001411Y1986010D01*
X99244632Y2148525D01*
X99451475Y2355368D01*
X99568000Y2529760D01*
X99684525Y2355368D01*
X99891368Y2148525D01*
X100134589Y1986010D01*
X100404842Y1874068D01*
X100691740Y1817000D01*
X100984260Y1817000D01*
X101271158Y1874068D01*
X101541411Y1986010D01*
X101784632Y2148525D01*
X101991475Y2355368D01*
X102153990Y2598589D01*
X102265932Y2868842D01*
X102323000Y3155740D01*
X102323000Y3448260D01*
X102265932Y3735158D01*
X102153990Y4005411D01*
X101991475Y4248632D01*
X101784632Y4455475D01*
X101723000Y4496656D01*
X101723000Y4528535D01*
X101727281Y4572001D01*
X101723000Y4615467D01*
X101723000Y4615477D01*
X101710195Y4745490D01*
X101659589Y4912313D01*
X101577411Y5066059D01*
X101553210Y5095548D01*
X101494532Y5167047D01*
X101494530Y5167049D01*
X101466817Y5200817D01*
X101433050Y5228529D01*
X98065534Y8596044D01*
X98037817Y8629817D01*
X97903059Y8740411D01*
X97749313Y8822589D01*
X97582490Y8873195D01*
X97452477Y8886000D01*
X97452469Y8886000D01*
X97409000Y8890281D01*
X97365531Y8886000D01*
X81069469Y8886000D01*
X81026000Y8890281D01*
X80982531Y8886000D01*
X76103454Y8886000D01*
X76055256Y8918205D01*
X75866898Y8996226D01*
X75666939Y9036000D01*
X75463061Y9036000D01*
X75263102Y8996226D01*
X75074744Y8918205D01*
X74905226Y8804937D01*
X74761063Y8660774D01*
X74647795Y8491256D01*
X74569774Y8302898D01*
X74530000Y8102939D01*
X74530000Y7899061D01*
X74569774Y7699102D01*
X74647795Y7510744D01*
X74761063Y7341226D01*
X74905226Y7197063D01*
X75074744Y7083795D01*
X75263102Y7005774D01*
X75463061Y6966000D01*
X75666939Y6966000D01*
X75866898Y7005774D01*
X76055256Y7083795D01*
X76103454Y7116000D01*
X76255196Y7116000D01*
X76220774Y7032898D01*
X76181000Y6832939D01*
X76181000Y6629061D01*
X76220774Y6429102D01*
X76298795Y6240744D01*
X76412063Y6071226D01*
X76556226Y5927063D01*
X76725744Y5813795D01*
X76914102Y5735774D01*
X76970957Y5724465D01*
X78109000Y4586421D01*
X78109000Y4496656D01*
X78047368Y4455475D01*
X77915513Y4323620D01*
X77893502Y4396180D01*
X77834537Y4506494D01*
X77755185Y4603185D01*
X77658494Y4682537D01*
X77548180Y4741502D01*
X77428482Y4777812D01*
X77304000Y4790072D01*
X76217507Y4790072D01*
X74291000Y6716578D01*
X74291000Y9666422D01*
X75048044Y10423465D01*
X75104898Y10434774D01*
X75293256Y10512795D01*
X75341454Y10545000D01*
X80982531Y10545000D01*
X81026000Y10540719D01*
X81069469Y10545000D01*
X81069477Y10545000D01*
X81199490Y10557805D01*
X81366313Y10608411D01*
X81520059Y10690589D01*
X81654817Y10801183D01*
X81682534Y10834956D01*
X81900578Y11053000D01*
X98933317Y11053000D01*
X98970463Y10983506D01*
X99049815Y10886815D01*
X99146506Y10807463D01*
X99256820Y10748498D01*
X99376518Y10712188D01*
X99501000Y10699928D01*
X99937494Y10699928D01*
X100849465Y9787956D01*
X100860774Y9731102D01*
X100938795Y9542744D01*
X101052063Y9373226D01*
X101196226Y9229063D01*
X101365744Y9115795D01*
X101554102Y9037774D01*
X101754061Y8998000D01*
X101957939Y8998000D01*
X102157898Y9037774D01*
X102346256Y9115795D01*
X102394454Y9148000D01*
X112478531Y9148000D01*
X112522000Y9143719D01*
X112565469Y9148000D01*
X112565477Y9148000D01*
X112695490Y9160805D01*
X112862313Y9211411D01*
X113016059Y9293589D01*
X113150817Y9404183D01*
X113178534Y9437956D01*
X114164044Y10423465D01*
X114220898Y10434774D01*
X114409256Y10512795D01*
X114578774Y10626063D01*
X114722937Y10770226D01*
X114836205Y10939744D01*
X114914226Y11128102D01*
X114954000Y11328061D01*
X114954000Y11531939D01*
X114914226Y11731898D01*
X114836205Y11920256D01*
X114736818Y12069000D01*
X118066531Y12069000D01*
X118110000Y12064719D01*
X118153469Y12069000D01*
X118153477Y12069000D01*
X118283490Y12081805D01*
X118450313Y12132411D01*
X118604059Y12214589D01*
X118738817Y12325183D01*
X118766534Y12358956D01*
X119721050Y13313471D01*
X119754817Y13341183D01*
X119865411Y13475941D01*
X119947589Y13629687D01*
X119998195Y13796510D01*
X120011000Y13926523D01*
X120011000Y13926531D01*
X120015281Y13970000D01*
X120011000Y14013469D01*
X120011000Y16016422D01*
X122972507Y18977928D01*
X123409000Y18977928D01*
X123533482Y18990188D01*
X123653180Y19026498D01*
X123763494Y19085463D01*
X123860185Y19164815D01*
X123939537Y19261506D01*
X123998502Y19371820D01*
X124034812Y19491518D01*
X124047072Y19616000D01*
X124047072Y20516000D01*
X124034812Y20640482D01*
X123998502Y20760180D01*
X123939537Y20870494D01*
X123860185Y20967185D01*
X123763494Y21046537D01*
X123653180Y21105502D01*
X123533482Y21141812D01*
X123409000Y21154072D01*
X122209000Y21154072D01*
X122084518Y21141812D01*
X121964820Y21105502D01*
X121854506Y21046537D01*
X121757815Y20967185D01*
X121678463Y20870494D01*
X121619498Y20760180D01*
X121583188Y20640482D01*
X121570928Y20516000D01*
X121570928Y20079507D01*
X120011000Y18519578D01*
X120011000Y19395425D01*
X120108405Y19514113D01*
X120190472Y19667648D01*
X120241008Y19834244D01*
X120258072Y20007498D01*
X120258072Y20632502D01*
X120241008Y20805756D01*
X120190472Y20972352D01*
X120108405Y21125887D01*
X119997962Y21260462D01*
X119863387Y21370905D01*
X119709852Y21452972D01*
X119543256Y21503508D01*
X119370002Y21520572D01*
X118119998Y21520572D01*
X117946744Y21503508D01*
X117780148Y21452972D01*
X117626613Y21370905D01*
X117492038Y21260462D01*
X117381595Y21125887D01*
X117299528Y20972352D01*
X117248992Y20805756D01*
X117231928Y20632502D01*
X117231928Y20007498D01*
X117248992Y19834244D01*
X117299528Y19667648D01*
X117381595Y19514113D01*
X117492038Y19379538D01*
X117626613Y19269095D01*
X117780148Y19187028D01*
X117946744Y19136492D01*
X118119998Y19119428D01*
X118241001Y19119428D01*
X118241000Y16426469D01*
X118236719Y16383000D01*
X118241000Y16339531D01*
X118241000Y16339524D01*
X118241001Y16339514D01*
X118241000Y14336579D01*
X117743422Y13839000D01*
X112699579Y13839000D01*
X111428072Y15110506D01*
X111428072Y15622000D01*
X111412929Y15775745D01*
X111368084Y15923582D01*
X111295258Y16059829D01*
X111197251Y16179251D01*
X111077829Y16277258D01*
X110941582Y16350084D01*
X110793745Y16394929D01*
X110640000Y16410072D01*
X110340000Y16410072D01*
X110186255Y16394929D01*
X110038418Y16350084D01*
X109902171Y16277258D01*
X109782749Y16179251D01*
X109684742Y16059829D01*
X109611916Y15923582D01*
X109567071Y15775745D01*
X109551928Y15622000D01*
X109551928Y13972000D01*
X109567071Y13818255D01*
X109611916Y13670418D01*
X109684742Y13534171D01*
X109782749Y13414749D01*
X109902171Y13316742D01*
X110038418Y13243916D01*
X110186255Y13199071D01*
X110340000Y13183928D01*
X110640000Y13183928D01*
X110793745Y13199071D01*
X110826434Y13208987D01*
X111676468Y12358953D01*
X111704183Y12325183D01*
X111737951Y12297470D01*
X111737953Y12297468D01*
X111838941Y12214589D01*
X111992686Y12132411D01*
X112083199Y12104954D01*
X112159510Y12081805D01*
X112289523Y12069000D01*
X112289531Y12069000D01*
X112333000Y12064719D01*
X112376469Y12069000D01*
X113101182Y12069000D01*
X113001795Y11920256D01*
X112923774Y11731898D01*
X112912465Y11675044D01*
X112155422Y10918000D01*
X105333350Y10918000D01*
X105457898Y10942774D01*
X105646256Y11020795D01*
X105694454Y11053000D01*
X106890531Y11053000D01*
X106934000Y11048719D01*
X106977469Y11053000D01*
X106977477Y11053000D01*
X107107490Y11065805D01*
X107274313Y11116411D01*
X107428059Y11198589D01*
X107562817Y11309183D01*
X107590534Y11342956D01*
X108545049Y12297470D01*
X108578817Y12325183D01*
X108689411Y12459941D01*
X108771589Y12613687D01*
X108822195Y12780510D01*
X108822360Y12782180D01*
X108823652Y12795306D01*
X108835000Y12910523D01*
X108835000Y12910531D01*
X108839281Y12954000D01*
X108835000Y12997469D01*
X108835000Y13693217D01*
X108872929Y13818255D01*
X108888072Y13972000D01*
X108888072Y15622000D01*
X108872929Y15775745D01*
X108828084Y15923582D01*
X108755258Y16059829D01*
X108657251Y16179251D01*
X108537829Y16277258D01*
X108401582Y16350084D01*
X108253745Y16394929D01*
X108100000Y16410072D01*
X107800000Y16410072D01*
X107646255Y16394929D01*
X107498418Y16350084D01*
X107362171Y16277258D01*
X107315000Y16238546D01*
X107267829Y16277258D01*
X107131582Y16350084D01*
X106983745Y16394929D01*
X106830000Y16410072D01*
X106530000Y16410072D01*
X106376255Y16394929D01*
X106228418Y16350084D01*
X106092171Y16277258D01*
X105972749Y16179251D01*
X105874742Y16059829D01*
X105801916Y15923582D01*
X105757071Y15775745D01*
X105741928Y15622000D01*
X105741928Y15171879D01*
X105684774Y15033898D01*
X105645000Y14833939D01*
X105645000Y14630061D01*
X105684774Y14430102D01*
X105741928Y14292121D01*
X105741928Y13972000D01*
X105757071Y13818255D01*
X105801916Y13670418D01*
X105874742Y13534171D01*
X105972749Y13414749D01*
X106092171Y13316742D01*
X106228418Y13243916D01*
X106376255Y13199071D01*
X106530000Y13183928D01*
X106830000Y13183928D01*
X106939095Y13194673D01*
X106567422Y12823000D01*
X105694454Y12823000D01*
X105646256Y12855205D01*
X105457898Y12933226D01*
X105257939Y12973000D01*
X105054061Y12973000D01*
X104854102Y12933226D01*
X104665744Y12855205D01*
X104496226Y12741937D01*
X104352063Y12597774D01*
X104335610Y12573150D01*
X104326812Y12662482D01*
X104290502Y12782180D01*
X104231537Y12892494D01*
X104152185Y12989185D01*
X104136000Y13002468D01*
X104136000Y14472263D01*
X104203962Y14528038D01*
X104314405Y14662613D01*
X104396472Y14816149D01*
X104447008Y14982745D01*
X104464072Y15155999D01*
X104464072Y17356001D01*
X104447008Y17529255D01*
X104396472Y17695851D01*
X104314405Y17849387D01*
X104203962Y17983962D01*
X104136000Y18039737D01*
X104136000Y18553422D01*
X104444579Y18862000D01*
X105747838Y18862000D01*
X105757071Y18768255D01*
X105801916Y18620418D01*
X105874742Y18484171D01*
X105972749Y18364749D01*
X106092171Y18266742D01*
X106228418Y18193916D01*
X106376255Y18149071D01*
X106530000Y18133928D01*
X106830000Y18133928D01*
X106983745Y18149071D01*
X107131582Y18193916D01*
X107267829Y18266742D01*
X107315000Y18305454D01*
X107362171Y18266742D01*
X107498418Y18193916D01*
X107646255Y18149071D01*
X107800000Y18133928D01*
X108065705Y18133928D01*
X108163169Y18015169D01*
X108357507Y17855679D01*
X108579226Y17737168D01*
X108819806Y17664189D01*
X109070000Y17639547D01*
X109370000Y17639547D01*
X109620194Y17664189D01*
X109860774Y17737168D01*
X110082493Y17855679D01*
X110276831Y18015169D01*
X110374295Y18133928D01*
X110640000Y18133928D01*
X110793745Y18149071D01*
X110941582Y18193916D01*
X111077829Y18266742D01*
X111197251Y18364749D01*
X111295258Y18484171D01*
X111368084Y18620418D01*
X111412929Y18768255D01*
X111422162Y18862000D01*
X112725422Y18862000D01*
X113034001Y18553420D01*
X113034001Y18039738D01*
X112966038Y17983962D01*
X112855595Y17849387D01*
X112773528Y17695851D01*
X112722992Y17529255D01*
X112705928Y17356001D01*
X112705928Y15155999D01*
X112722992Y14982745D01*
X112773528Y14816149D01*
X112855595Y14662613D01*
X112966038Y14528038D01*
X113100613Y14417595D01*
X113254149Y14335528D01*
X113420745Y14284992D01*
X113593999Y14267928D01*
X114244001Y14267928D01*
X114417255Y14284992D01*
X114583851Y14335528D01*
X114737387Y14417595D01*
X114871962Y14528038D01*
X114982405Y14662613D01*
X115064472Y14816149D01*
X115115008Y14982745D01*
X115132072Y15155999D01*
X115132072Y17356001D01*
X115115008Y17529255D01*
X115064472Y17695851D01*
X114982405Y17849387D01*
X114871962Y17983962D01*
X114804000Y18039737D01*
X114804000Y18876531D01*
X114808281Y18920000D01*
X114804000Y18963469D01*
X114804000Y18963477D01*
X114791195Y19093490D01*
X114773460Y19151954D01*
X114740589Y19260314D01*
X114658411Y19414059D01*
X114575532Y19515047D01*
X114575530Y19515049D01*
X114560612Y19533226D01*
X114607618Y19590503D01*
X114687375Y19739717D01*
X114736488Y19901623D01*
X114753072Y20070000D01*
X114753072Y20570000D01*
X114736488Y20738377D01*
X114687375Y20900283D01*
X114607618Y21049497D01*
X114500284Y21180284D01*
X114369497Y21287618D01*
X114220283Y21367375D01*
X114058377Y21416488D01*
X113890000Y21433072D01*
X113440000Y21433072D01*
X113271623Y21416488D01*
X113109717Y21367375D01*
X112960503Y21287618D01*
X112829716Y21180284D01*
X112722382Y21049497D01*
X112642625Y20900283D01*
X112593512Y20738377D01*
X112583035Y20632000D01*
X111422162Y20632000D01*
X111412929Y20725745D01*
X111368084Y20873582D01*
X111295258Y21009829D01*
X111197251Y21129251D01*
X111077829Y21227258D01*
X110941582Y21300084D01*
X110793745Y21344929D01*
X110640000Y21360072D01*
X110374295Y21360072D01*
X110276831Y21478831D01*
X110082493Y21638321D01*
X109860774Y21756832D01*
X109620194Y21829811D01*
X109370000Y21854453D01*
X109070000Y21854453D01*
X108835000Y21831307D01*
X108835000Y22350317D01*
X108904494Y22387463D01*
X109001185Y22466815D01*
X109080537Y22563506D01*
X109139502Y22673820D01*
X109175812Y22793518D01*
X109188072Y22918000D01*
X109188072Y23818000D01*
X109175812Y23942482D01*
X109139502Y24062180D01*
X109080537Y24172494D01*
X109001185Y24269185D01*
X108904494Y24348537D01*
X108794180Y24407502D01*
X108674482Y24443812D01*
X108550000Y24456072D01*
X107350000Y24456072D01*
X107225518Y24443812D01*
X107105820Y24407502D01*
X106995506Y24348537D01*
X106898815Y24269185D01*
X106819463Y24172494D01*
X106760498Y24062180D01*
X106724188Y23942482D01*
X106712614Y23824964D01*
X106320534Y24217044D01*
X106292817Y24250817D01*
X106158059Y24361411D01*
X106004313Y24443589D01*
X105837490Y24494195D01*
X105707477Y24507000D01*
X105707469Y24507000D01*
X105664000Y24511281D01*
X105620531Y24507000D01*
X105184479Y24507000D01*
X105138962Y24562462D01*
X105004387Y24672905D01*
X104850852Y24754972D01*
X104684256Y24805508D01*
X104511002Y24822572D01*
X103260998Y24822572D01*
X103087744Y24805508D01*
X102921148Y24754972D01*
X102767613Y24672905D01*
X102633038Y24562462D01*
X102522595Y24427887D01*
X102440528Y24274352D01*
X102389992Y24107756D01*
X102372928Y23934502D01*
X102372928Y23309498D01*
X102389992Y23136244D01*
X102440528Y22969648D01*
X102522595Y22816113D01*
X102633038Y22681538D01*
X102767613Y22571095D01*
X102921148Y22489028D01*
X103087744Y22438492D01*
X103260998Y22421428D01*
X104511002Y22421428D01*
X104684256Y22438492D01*
X104850852Y22489028D01*
X105004387Y22571095D01*
X105138962Y22681538D01*
X105184479Y22737000D01*
X105297422Y22737000D01*
X106674349Y21360072D01*
X106530000Y21360072D01*
X106376255Y21344929D01*
X106228418Y21300084D01*
X106092171Y21227258D01*
X105972749Y21129251D01*
X105874742Y21009829D01*
X105801916Y20873582D01*
X105757071Y20725745D01*
X105747838Y20632000D01*
X104586965Y20632000D01*
X104576488Y20738377D01*
X104527375Y20900283D01*
X104447618Y21049497D01*
X104340284Y21180284D01*
X104209497Y21287618D01*
X104060283Y21367375D01*
X103898377Y21416488D01*
X103730000Y21433072D01*
X103280000Y21433072D01*
X103223839Y21427540D01*
X103139864Y21529864D01*
X102934160Y21698681D01*
X102699475Y21824123D01*
X102444826Y21901370D01*
X102180000Y21927453D01*
X101730000Y21927453D01*
X101465174Y21901370D01*
X101210525Y21824123D01*
X100975840Y21698681D01*
X100770136Y21529864D01*
X100601319Y21324160D01*
X100475877Y21089475D01*
X100398630Y20834826D01*
X100372547Y20570000D01*
X100372547Y20070000D01*
X100398630Y19805174D01*
X100475877Y19550525D01*
X100601319Y19315840D01*
X100770136Y19110136D01*
X100975840Y18941319D01*
X101210525Y18815877D01*
X101465174Y18738630D01*
X101730000Y18712547D01*
X102180000Y18712547D01*
X102366001Y18730866D01*
X102366001Y18039738D01*
X102298038Y17983962D01*
X102187595Y17849387D01*
X102105528Y17695851D01*
X102054992Y17529255D01*
X102037928Y17356001D01*
X102037928Y15155999D01*
X102054992Y14982745D01*
X102105528Y14816149D01*
X102187595Y14662613D01*
X102298038Y14528038D01*
X102366001Y14472262D01*
X102366000Y13002468D01*
X102349815Y12989185D01*
X102270463Y12892494D01*
X102211498Y12782180D01*
X102175188Y12662482D01*
X102162928Y12538000D01*
X102162928Y11338000D01*
X102175188Y11213518D01*
X102211498Y11093820D01*
X102270463Y10983506D01*
X102272833Y10980618D01*
X102157898Y11028226D01*
X102101044Y11039535D01*
X101039072Y12101506D01*
X101039072Y12538000D01*
X101026812Y12662482D01*
X100990502Y12782180D01*
X100931537Y12892494D01*
X100852185Y12989185D01*
X100755494Y13068537D01*
X100645180Y13127502D01*
X100525482Y13163812D01*
X100401000Y13176072D01*
X99501000Y13176072D01*
X99376518Y13163812D01*
X99256820Y13127502D01*
X99146506Y13068537D01*
X99049815Y12989185D01*
X98970463Y12892494D01*
X98933317Y12823000D01*
X81577465Y12823000D01*
X81533999Y12827281D01*
X81490533Y12823000D01*
X81490523Y12823000D01*
X81360510Y12810195D01*
X81193687Y12759589D01*
X81039941Y12677411D01*
X80905183Y12566817D01*
X80877468Y12533046D01*
X80659422Y12315000D01*
X79610409Y12315000D01*
X79622817Y12325183D01*
X79650534Y12358956D01*
X80605050Y13313471D01*
X80638817Y13341183D01*
X80749411Y13475941D01*
X80831589Y13629687D01*
X80882195Y13796510D01*
X80895000Y13926523D01*
X80895000Y13926531D01*
X80899281Y13970000D01*
X80895000Y14013469D01*
X80895000Y16016422D01*
X82234579Y17356001D01*
X98593547Y17356001D01*
X98593547Y15155999D01*
X98620110Y14886296D01*
X98698780Y14626958D01*
X98826532Y14387950D01*
X98998458Y14178458D01*
X99207950Y14006532D01*
X99446958Y13878780D01*
X99706296Y13800110D01*
X99975999Y13773547D01*
X100626001Y13773547D01*
X100895704Y13800110D01*
X101155042Y13878780D01*
X101394050Y14006532D01*
X101603542Y14178458D01*
X101775468Y14387950D01*
X101903220Y14626958D01*
X101981890Y14886296D01*
X102008453Y15155999D01*
X102008453Y17356001D01*
X101981890Y17625704D01*
X101903220Y17885042D01*
X101775468Y18124050D01*
X101603542Y18333542D01*
X101394050Y18505468D01*
X101155042Y18633220D01*
X100895704Y18711890D01*
X100626001Y18738453D01*
X99975999Y18738453D01*
X99706296Y18711890D01*
X99446958Y18633220D01*
X99207950Y18505468D01*
X98998458Y18333542D01*
X98826532Y18124050D01*
X98698780Y17885042D01*
X98620110Y17625704D01*
X98593547Y17356001D01*
X82234579Y17356001D01*
X83856507Y18977928D01*
X84293000Y18977928D01*
X84417482Y18990188D01*
X84537180Y19026498D01*
X84647494Y19085463D01*
X84744185Y19164815D01*
X84823537Y19261506D01*
X84882502Y19371820D01*
X84918812Y19491518D01*
X84931072Y19616000D01*
X84931072Y20516000D01*
X84918812Y20640482D01*
X84882502Y20760180D01*
X84823537Y20870494D01*
X84744185Y20967185D01*
X84647494Y21046537D01*
X84537180Y21105502D01*
X84417482Y21141812D01*
X84293000Y21154072D01*
X83093000Y21154072D01*
X82968518Y21141812D01*
X82848820Y21105502D01*
X82738506Y21046537D01*
X82641815Y20967185D01*
X82562463Y20870494D01*
X82503498Y20760180D01*
X82467188Y20640482D01*
X82454928Y20516000D01*
X82454928Y20079507D01*
X80895000Y18519578D01*
X80895000Y19395425D01*
X80992405Y19514113D01*
X81074472Y19667648D01*
X81125008Y19834244D01*
X81142072Y20007498D01*
X81142072Y20632502D01*
X81125008Y20805756D01*
X81074472Y20972352D01*
X80992405Y21125887D01*
X80881962Y21260462D01*
X80747387Y21370905D01*
X80593852Y21452972D01*
X80427256Y21503508D01*
X80254002Y21520572D01*
X79003998Y21520572D01*
X78830744Y21503508D01*
X78664148Y21452972D01*
X78510613Y21370905D01*
X78376038Y21260462D01*
X78265595Y21125887D01*
X78183528Y20972352D01*
X78132992Y20805756D01*
X78115928Y20632502D01*
X78115928Y20007498D01*
X78132992Y19834244D01*
X78183528Y19667648D01*
X78265595Y19514113D01*
X78376038Y19379538D01*
X78510613Y19269095D01*
X78664148Y19187028D01*
X78830744Y19136492D01*
X79003998Y19119428D01*
X79125001Y19119428D01*
X79125000Y16426469D01*
X79120719Y16383000D01*
X79125000Y16339531D01*
X79125000Y16339524D01*
X79125001Y16339514D01*
X79125000Y14336579D01*
X78627422Y13839000D01*
X73583579Y13839000D01*
X72312072Y15110506D01*
X72312072Y15622000D01*
X72296929Y15775745D01*
X72252084Y15923582D01*
X72179258Y16059829D01*
X72081251Y16179251D01*
X71961829Y16277258D01*
X71825582Y16350084D01*
X71677745Y16394929D01*
X71524000Y16410072D01*
X71224000Y16410072D01*
X71070255Y16394929D01*
X70922418Y16350084D01*
X70786171Y16277258D01*
X70666749Y16179251D01*
X70568742Y16059829D01*
X70495916Y15923582D01*
X70451071Y15775745D01*
X70435928Y15622000D01*
X70435928Y13972000D01*
X70451071Y13818255D01*
X70495916Y13670418D01*
X70568742Y13534171D01*
X70666749Y13414749D01*
X70786171Y13316742D01*
X70922418Y13243916D01*
X71070255Y13199071D01*
X71224000Y13183928D01*
X71524000Y13183928D01*
X71677745Y13199071D01*
X71710434Y13208987D01*
X72560468Y12358953D01*
X72588183Y12325183D01*
X72621951Y12297470D01*
X72621953Y12297468D01*
X72722941Y12214589D01*
X72876686Y12132411D01*
X72967199Y12104954D01*
X73043510Y12081805D01*
X73173523Y12069000D01*
X73173531Y12069000D01*
X73217000Y12064719D01*
X73260469Y12069000D01*
X73985182Y12069000D01*
X73885795Y11920256D01*
X73807774Y11731898D01*
X73796465Y11675044D01*
X73039422Y10918000D01*
X71697386Y10918000D01*
X71595497Y11001618D01*
X71446283Y11081375D01*
X71284377Y11130488D01*
X71116000Y11147072D01*
X70616000Y11147072D01*
X70447623Y11130488D01*
X70285717Y11081375D01*
X70136503Y11001618D01*
X70034614Y10918000D01*
X65061778Y10918000D01*
X65115537Y10983506D01*
X65174502Y11093820D01*
X65210812Y11213518D01*
X65223072Y11338000D01*
X65223072Y12538000D01*
X65210812Y12662482D01*
X65174502Y12782180D01*
X65115537Y12892494D01*
X65036185Y12989185D01*
X65020000Y13002468D01*
X65020000Y14472263D01*
X65087962Y14528038D01*
X65198405Y14662613D01*
X65280472Y14816149D01*
X65285868Y14833939D01*
X66529000Y14833939D01*
X66529000Y14630061D01*
X66568774Y14430102D01*
X66625928Y14292121D01*
X66625928Y13972000D01*
X66641071Y13818255D01*
X66685916Y13670418D01*
X66758742Y13534171D01*
X66856749Y13414749D01*
X66976171Y13316742D01*
X67112418Y13243916D01*
X67260255Y13199071D01*
X67414000Y13183928D01*
X67714000Y13183928D01*
X67867745Y13199071D01*
X68015582Y13243916D01*
X68151829Y13316742D01*
X68199000Y13355454D01*
X68246171Y13316742D01*
X68382418Y13243916D01*
X68530255Y13199071D01*
X68684000Y13183928D01*
X68984000Y13183928D01*
X69137745Y13199071D01*
X69285582Y13243916D01*
X69421829Y13316742D01*
X69541251Y13414749D01*
X69639258Y13534171D01*
X69712084Y13670418D01*
X69756929Y13818255D01*
X69772072Y13972000D01*
X69772072Y14292121D01*
X69829226Y14430102D01*
X69869000Y14630061D01*
X69869000Y14833939D01*
X69829226Y15033898D01*
X69772072Y15171879D01*
X69772072Y15622000D01*
X69756929Y15775745D01*
X69712084Y15923582D01*
X69639258Y16059829D01*
X69541251Y16179251D01*
X69421829Y16277258D01*
X69285582Y16350084D01*
X69137745Y16394929D01*
X68984000Y16410072D01*
X68684000Y16410072D01*
X68530255Y16394929D01*
X68382418Y16350084D01*
X68246171Y16277258D01*
X68199000Y16238546D01*
X68151829Y16277258D01*
X68015582Y16350084D01*
X67867745Y16394929D01*
X67714000Y16410072D01*
X67414000Y16410072D01*
X67260255Y16394929D01*
X67112418Y16350084D01*
X66976171Y16277258D01*
X66856749Y16179251D01*
X66758742Y16059829D01*
X66685916Y15923582D01*
X66641071Y15775745D01*
X66625928Y15622000D01*
X66625928Y15171879D01*
X66568774Y15033898D01*
X66529000Y14833939D01*
X65285868Y14833939D01*
X65331008Y14982745D01*
X65348072Y15155999D01*
X65348072Y17356001D01*
X65331008Y17529255D01*
X65280472Y17695851D01*
X65198405Y17849387D01*
X65087962Y17983962D01*
X65020000Y18039737D01*
X65020000Y18553422D01*
X65328579Y18862000D01*
X66631838Y18862000D01*
X66641071Y18768255D01*
X66685916Y18620418D01*
X66758742Y18484171D01*
X66856749Y18364749D01*
X66976171Y18266742D01*
X67112418Y18193916D01*
X67260255Y18149071D01*
X67414000Y18133928D01*
X67714000Y18133928D01*
X67867745Y18149071D01*
X68015582Y18193916D01*
X68151829Y18266742D01*
X68199000Y18305454D01*
X68246171Y18266742D01*
X68382418Y18193916D01*
X68530255Y18149071D01*
X68684000Y18133928D01*
X68949705Y18133928D01*
X69047169Y18015169D01*
X69241507Y17855679D01*
X69463226Y17737168D01*
X69703806Y17664189D01*
X69954000Y17639547D01*
X70254000Y17639547D01*
X70504194Y17664189D01*
X70744774Y17737168D01*
X70966493Y17855679D01*
X71160831Y18015169D01*
X71258295Y18133928D01*
X71524000Y18133928D01*
X71677745Y18149071D01*
X71825582Y18193916D01*
X71961829Y18266742D01*
X72081251Y18364749D01*
X72179258Y18484171D01*
X72252084Y18620418D01*
X72296929Y18768255D01*
X72306162Y18862000D01*
X73609422Y18862000D01*
X73918001Y18553420D01*
X73918001Y18039738D01*
X73850038Y17983962D01*
X73739595Y17849387D01*
X73657528Y17695851D01*
X73606992Y17529255D01*
X73589928Y17356001D01*
X73589928Y15155999D01*
X73606992Y14982745D01*
X73657528Y14816149D01*
X73739595Y14662613D01*
X73850038Y14528038D01*
X73984613Y14417595D01*
X74138149Y14335528D01*
X74304745Y14284992D01*
X74477999Y14267928D01*
X75128001Y14267928D01*
X75301255Y14284992D01*
X75467851Y14335528D01*
X75621387Y14417595D01*
X75755962Y14528038D01*
X75866405Y14662613D01*
X75948472Y14816149D01*
X75999008Y14982745D01*
X76016072Y15155999D01*
X76016072Y17356001D01*
X75999008Y17529255D01*
X75948472Y17695851D01*
X75866405Y17849387D01*
X75755962Y17983962D01*
X75688000Y18039737D01*
X75688000Y18876531D01*
X75692281Y18920000D01*
X75688000Y18963469D01*
X75688000Y18963477D01*
X75675195Y19093490D01*
X75657460Y19151954D01*
X75624589Y19260314D01*
X75542411Y19414059D01*
X75459532Y19515047D01*
X75459530Y19515049D01*
X75444612Y19533226D01*
X75491618Y19590503D01*
X75571375Y19739717D01*
X75620488Y19901623D01*
X75637072Y20070000D01*
X75637072Y20570000D01*
X75620488Y20738377D01*
X75571375Y20900283D01*
X75491618Y21049497D01*
X75384284Y21180284D01*
X75253497Y21287618D01*
X75104283Y21367375D01*
X74942377Y21416488D01*
X74774000Y21433072D01*
X74324000Y21433072D01*
X74155623Y21416488D01*
X73993717Y21367375D01*
X73844503Y21287618D01*
X73713716Y21180284D01*
X73606382Y21049497D01*
X73526625Y20900283D01*
X73477512Y20738377D01*
X73467035Y20632000D01*
X72306162Y20632000D01*
X72296929Y20725745D01*
X72252084Y20873582D01*
X72179258Y21009829D01*
X72081251Y21129251D01*
X71961829Y21227258D01*
X71825582Y21300084D01*
X71677745Y21344929D01*
X71524000Y21360072D01*
X71258295Y21360072D01*
X71160831Y21478831D01*
X70966493Y21638321D01*
X70744774Y21756832D01*
X70504194Y21829811D01*
X70254000Y21854453D01*
X69954000Y21854453D01*
X69719000Y21831307D01*
X69719000Y22350317D01*
X69788494Y22387463D01*
X69885185Y22466815D01*
X69964537Y22563506D01*
X70023502Y22673820D01*
X70059812Y22793518D01*
X70072072Y22918000D01*
X70072072Y23818000D01*
X70059812Y23942482D01*
X70023502Y24062180D01*
X69964537Y24172494D01*
X69885185Y24269185D01*
X69788494Y24348537D01*
X69678180Y24407502D01*
X69558482Y24443812D01*
X69434000Y24456072D01*
X68234000Y24456072D01*
X68109518Y24443812D01*
X67989820Y24407502D01*
X67879506Y24348537D01*
X67782815Y24269185D01*
X67703463Y24172494D01*
X67644498Y24062180D01*
X67608188Y23942482D01*
X67596614Y23824964D01*
X67204534Y24217044D01*
X67176817Y24250817D01*
X67042059Y24361411D01*
X66888313Y24443589D01*
X66721490Y24494195D01*
X66591477Y24507000D01*
X66591469Y24507000D01*
X66548000Y24511281D01*
X66504531Y24507000D01*
X66068479Y24507000D01*
X66022962Y24562462D01*
X65888387Y24672905D01*
X65734852Y24754972D01*
X65568256Y24805508D01*
X65395002Y24822572D01*
X64144998Y24822572D01*
X63971744Y24805508D01*
X63805148Y24754972D01*
X63651613Y24672905D01*
X63517038Y24562462D01*
X63406595Y24427887D01*
X63324528Y24274352D01*
X63273992Y24107756D01*
X63256928Y23934502D01*
X63256928Y23309498D01*
X63273992Y23136244D01*
X63324528Y22969648D01*
X63406595Y22816113D01*
X63517038Y22681538D01*
X63651613Y22571095D01*
X63805148Y22489028D01*
X63971744Y22438492D01*
X64144998Y22421428D01*
X65395002Y22421428D01*
X65568256Y22438492D01*
X65734852Y22489028D01*
X65888387Y22571095D01*
X66022962Y22681538D01*
X66068479Y22737000D01*
X66181422Y22737000D01*
X67558349Y21360072D01*
X67414000Y21360072D01*
X67260255Y21344929D01*
X67112418Y21300084D01*
X66976171Y21227258D01*
X66856749Y21129251D01*
X66758742Y21009829D01*
X66685916Y20873582D01*
X66641071Y20725745D01*
X66631838Y20632000D01*
X65470965Y20632000D01*
X65460488Y20738377D01*
X65411375Y20900283D01*
X65331618Y21049497D01*
X65224284Y21180284D01*
X65093497Y21287618D01*
X64944283Y21367375D01*
X64782377Y21416488D01*
X64614000Y21433072D01*
X64164000Y21433072D01*
X64107839Y21427540D01*
X64023864Y21529864D01*
X63818160Y21698681D01*
X63583475Y21824123D01*
X63328826Y21901370D01*
X63064000Y21927453D01*
X62614000Y21927453D01*
X62349174Y21901370D01*
X62094525Y21824123D01*
X61859840Y21698681D01*
X61654136Y21529864D01*
X61485319Y21324160D01*
X61359877Y21089475D01*
X61282630Y20834826D01*
X61256547Y20570000D01*
X61256547Y20070000D01*
X61282630Y19805174D01*
X61359877Y19550525D01*
X61485319Y19315840D01*
X61654136Y19110136D01*
X61859840Y18941319D01*
X62094525Y18815877D01*
X62349174Y18738630D01*
X62614000Y18712547D01*
X63064000Y18712547D01*
X63250001Y18730866D01*
X63250001Y18039738D01*
X63182038Y17983962D01*
X63071595Y17849387D01*
X62989528Y17695851D01*
X62938992Y17529255D01*
X62921928Y17356001D01*
X62921928Y15155999D01*
X62938992Y14982745D01*
X62989528Y14816149D01*
X63071595Y14662613D01*
X63182038Y14528038D01*
X63250001Y14472262D01*
X63250000Y13002468D01*
X63233815Y12989185D01*
X63154463Y12892494D01*
X63095498Y12782180D01*
X63059188Y12662482D01*
X63046928Y12538000D01*
X63046928Y11338000D01*
X63059188Y11213518D01*
X63095498Y11093820D01*
X63154463Y10983506D01*
X63208222Y10918000D01*
X63106579Y10918000D01*
X61923072Y12101506D01*
X61923072Y12538000D01*
X61910812Y12662482D01*
X61874502Y12782180D01*
X61815537Y12892494D01*
X61736185Y12989185D01*
X61639494Y13068537D01*
X61529180Y13127502D01*
X61409482Y13163812D01*
X61285000Y13176072D01*
X60846506Y13176072D01*
X60727534Y13295044D01*
X60699817Y13328817D01*
X60565059Y13439411D01*
X60411313Y13521589D01*
X60244490Y13572195D01*
X60114477Y13585000D01*
X60114469Y13585000D01*
X60071000Y13589281D01*
X60027531Y13585000D01*
X55430328Y13585000D01*
X55378012Y13711302D01*
X55144363Y14060983D01*
X54846983Y14358363D01*
X54497302Y14592012D01*
X54108756Y14752953D01*
X53696279Y14835000D01*
X53275721Y14835000D01*
X52863244Y14752953D01*
X52474698Y14592012D01*
X52125017Y14358363D01*
X51827637Y14060983D01*
X51593988Y13711302D01*
X51433047Y13322756D01*
X51351000Y12910279D01*
X32877000Y12910279D01*
X32877000Y17356001D01*
X59477547Y17356001D01*
X59477547Y15155999D01*
X59504110Y14886296D01*
X59582780Y14626958D01*
X59710532Y14387950D01*
X59882458Y14178458D01*
X60091950Y14006532D01*
X60330958Y13878780D01*
X60590296Y13800110D01*
X60859999Y13773547D01*
X61510001Y13773547D01*
X61779704Y13800110D01*
X62039042Y13878780D01*
X62278050Y14006532D01*
X62487542Y14178458D01*
X62659468Y14387950D01*
X62787220Y14626958D01*
X62865890Y14886296D01*
X62892453Y15155999D01*
X62892453Y17356001D01*
X62865890Y17625704D01*
X62787220Y17885042D01*
X62659468Y18124050D01*
X62487542Y18333542D01*
X62278050Y18505468D01*
X62039042Y18633220D01*
X61779704Y18711890D01*
X61510001Y18738453D01*
X60859999Y18738453D01*
X60590296Y18711890D01*
X60330958Y18633220D01*
X60091950Y18505468D01*
X59882458Y18333542D01*
X59710532Y18124050D01*
X59582780Y17885042D01*
X59504110Y17625704D01*
X59477547Y17356001D01*
X32877000Y17356001D01*
X32877000Y27940000D01*
X32842261Y28217659D01*
X32767105Y28425413D01*
X32652863Y28614513D01*
X32503923Y28777693D01*
X30337000Y30727924D01*
X30337000Y30829198D01*
X30355716Y30799847D01*
X30508558Y30640318D01*
X32286558Y29116318D01*
X32393872Y29034934D01*
X32588716Y28930788D01*
X32800133Y28866655D01*
X33020000Y28845000D01*
X38100000Y28845000D01*
X38319867Y28866655D01*
X38531284Y28930788D01*
X38726128Y29034934D01*
X38896909Y29175091D01*
X39037066Y29345872D01*
X39141212Y29540716D01*
X39205345Y29752133D01*
X39227000Y29972000D01*
X39227000Y48260000D01*
X39205345Y48479867D01*
X39141212Y48691284D01*
X39037066Y48886128D01*
X38896909Y49056909D01*
X38726128Y49197066D01*
X38531284Y49301212D01*
X38319867Y49365345D01*
X38100000Y49387000D01*
X7112000Y49387000D01*
X6892133Y49365345D01*
X6680716Y49301212D01*
X6485872Y49197066D01*
X6350000Y49085558D01*
X6214128Y49197066D01*
X6019284Y49301212D01*
X5807867Y49365345D01*
X5588000Y49387000D01*
X660000Y49387000D01*
X660000Y69698000D01*
X39767000Y69698000D01*
X39767000Y29972000D01*
G37*
%TD.AperFunction*%
D28*
X8670133Y36994655D02*
X8890000Y36973000D01*
X9803001Y36973000D01*
X9803000Y27003915D01*
X9795129Y26924000D01*
X9803000Y26844086D01*
X9803000Y26844076D01*
X9826542Y26605053D01*
X9919575Y26298363D01*
X10070654Y26015715D01*
X10273971Y25767971D01*
X10336055Y25717020D01*
X13359001Y22694074D01*
X13359000Y18069945D01*
X13265069Y18060693D01*
X13052629Y17996250D01*
X12856843Y17891600D01*
X12685235Y17750765D01*
X12544400Y17579157D01*
X12439750Y17383371D01*
X12375307Y17170931D01*
X12353547Y16950000D01*
X12353547Y13950000D01*
X12375307Y13729069D01*
X12439750Y13516629D01*
X12544400Y13320843D01*
X12685235Y13149235D01*
X12856843Y13008400D01*
X13052629Y12903750D01*
X13265069Y12839307D01*
X13486000Y12817547D01*
X16486000Y12817547D01*
X16706931Y12839307D01*
X16919371Y12903750D01*
X17115157Y13008400D01*
X17286765Y13149235D01*
X17427600Y13320843D01*
X17532250Y13516629D01*
X17596693Y13729069D01*
X17618453Y13950000D01*
X17618453Y16950000D01*
X17596693Y17170931D01*
X17532250Y17383371D01*
X17427600Y17579157D01*
X17286765Y17750765D01*
X17115157Y17891600D01*
X16919371Y17996250D01*
X16706931Y18060693D01*
X16613000Y18069944D01*
X16613000Y23288086D01*
X16620871Y23368001D01*
X16613000Y23447915D01*
X16613000Y23447925D01*
X16589458Y23686948D01*
X16496425Y23993638D01*
X16465825Y24050887D01*
X16345346Y24276287D01*
X16237660Y24407502D01*
X16142029Y24524029D01*
X16079945Y24574980D01*
X13057000Y27597925D01*
X13057000Y36973000D01*
X22956800Y36973000D01*
X22825091Y36864909D01*
X22684934Y36694128D01*
X22580788Y36499284D01*
X22516655Y36287867D01*
X22495000Y36068000D01*
X22495000Y30939201D01*
X18313547Y28958513D01*
X18169872Y28877066D01*
X17999091Y28736909D01*
X17858934Y28566128D01*
X17754788Y28371284D01*
X17690655Y28159867D01*
X17669000Y27940000D01*
X17669000Y12557000D01*
X660000Y12557000D01*
X660000Y35957000D01*
X7366000Y35957000D01*
X7585867Y35978655D01*
X7797284Y36042788D01*
X7992128Y36146934D01*
X8162909Y36287091D01*
X8303066Y36457872D01*
X8407212Y36652716D01*
X8471345Y36864133D01*
X8489594Y37049421D01*
X8670133Y36994655D01*
%TA.AperFunction,Conductor*%
D29*
G36*
X8670133Y36994655D02*
G01*
X8890000Y36973000D01*
X9803001Y36973000D01*
X9803000Y27003915D01*
X9795129Y26924000D01*
X9803000Y26844086D01*
X9803000Y26844076D01*
X9826542Y26605053D01*
X9919575Y26298363D01*
X10070654Y26015715D01*
X10273971Y25767971D01*
X10336055Y25717020D01*
X13359001Y22694074D01*
X13359000Y18069945D01*
X13265069Y18060693D01*
X13052629Y17996250D01*
X12856843Y17891600D01*
X12685235Y17750765D01*
X12544400Y17579157D01*
X12439750Y17383371D01*
X12375307Y17170931D01*
X12353547Y16950000D01*
X12353547Y13950000D01*
X12375307Y13729069D01*
X12439750Y13516629D01*
X12544400Y13320843D01*
X12685235Y13149235D01*
X12856843Y13008400D01*
X13052629Y12903750D01*
X13265069Y12839307D01*
X13486000Y12817547D01*
X16486000Y12817547D01*
X16706931Y12839307D01*
X16919371Y12903750D01*
X17115157Y13008400D01*
X17286765Y13149235D01*
X17427600Y13320843D01*
X17532250Y13516629D01*
X17596693Y13729069D01*
X17618453Y13950000D01*
X17618453Y16950000D01*
X17596693Y17170931D01*
X17532250Y17383371D01*
X17427600Y17579157D01*
X17286765Y17750765D01*
X17115157Y17891600D01*
X16919371Y17996250D01*
X16706931Y18060693D01*
X16613000Y18069944D01*
X16613000Y23288086D01*
X16620871Y23368001D01*
X16613000Y23447915D01*
X16613000Y23447925D01*
X16589458Y23686948D01*
X16496425Y23993638D01*
X16465825Y24050887D01*
X16345346Y24276287D01*
X16237660Y24407502D01*
X16142029Y24524029D01*
X16079945Y24574980D01*
X13057000Y27597925D01*
X13057000Y36973000D01*
X22956800Y36973000D01*
X22825091Y36864909D01*
X22684934Y36694128D01*
X22580788Y36499284D01*
X22516655Y36287867D01*
X22495000Y36068000D01*
X22495000Y30939201D01*
X18313547Y28958513D01*
X18169872Y28877066D01*
X17999091Y28736909D01*
X17858934Y28566128D01*
X17754788Y28371284D01*
X17690655Y28159867D01*
X17669000Y27940000D01*
X17669000Y12557000D01*
X660000Y12557000D01*
X660000Y35957000D01*
X7366000Y35957000D01*
X7585867Y35978655D01*
X7797284Y36042788D01*
X7992128Y36146934D01*
X8162909Y36287091D01*
X8303066Y36457872D01*
X8407212Y36652716D01*
X8471345Y36864133D01*
X8489594Y37049421D01*
X8670133Y36994655D01*
G37*
%TD.AperFunction*%
%TD*%
M02*
