%TF.GenerationSoftware,KiCad,Pcbnew,(5.1.9)-1*%
%TF.CreationDate,2021-03-07T17:17:19-08:00*%
%TF.ProjectId,VFD,5646442e-6b69-4636-9164-5f7063625858,1.0*%
%TF.SameCoordinates,PX50e7ea0PY815a420*%
%TF.FileFunction,Soldermask,Bot*%
%TF.FilePolarity,Negative*%
%FSLAX46Y46*%
G04 Gerber Fmt 4.6, Leading zero omitted, Abs format (unit mm)*
G04 Created by KiCad (PCBNEW (5.1.9)-1) date 2021-03-07 17:17:19*
%MOMM*%
%LPD*%
G01*
G04 APERTURE LIST*
%ADD10C,4.000000*%
%ADD11R,4.000000X4.000000*%
%ADD12R,2.500000X4.500000*%
%ADD13O,2.500000X4.500000*%
%ADD14R,3.000000X3.000000*%
%ADD15C,3.000000*%
%ADD16O,1.700000X1.700000*%
%ADD17R,1.700000X1.700000*%
%ADD18C,3.100000*%
%ADD19C,2.400000*%
%ADD20R,2.000000X2.000000*%
%ADD21C,2.000000*%
%ADD22C,0.254000*%
%ADD23C,0.100000*%
G04 APERTURE END LIST*
%TO.C,J5*%
G36*
G01*
X91922000Y38196999D02*
X91922000Y40797001D01*
G75*
G02*
X92171999Y41047000I249999J0D01*
G01*
X94772001Y41047000D01*
G75*
G02*
X95022000Y40797001I0J-249999D01*
G01*
X95022000Y38196999D01*
G75*
G02*
X94772001Y37947000I-249999J0D01*
G01*
X92171999Y37947000D01*
G75*
G02*
X91922000Y38196999I0J249999D01*
G01*
G37*
%TD*%
%TO.C,J3*%
G36*
G01*
X63347000Y38196999D02*
X63347000Y40797001D01*
G75*
G02*
X63596999Y41047000I249999J0D01*
G01*
X66197001Y41047000D01*
G75*
G02*
X66447000Y40797001I0J-249999D01*
G01*
X66447000Y38196999D01*
G75*
G02*
X66197001Y37947000I-249999J0D01*
G01*
X63596999Y37947000D01*
G75*
G02*
X63347000Y38196999I0J249999D01*
G01*
G37*
%TD*%
D10*
%TO.C,C10*%
X45466000Y59530000D03*
D11*
X45466000Y49530000D03*
%TD*%
D12*
%TO.C,Q3*%
X103610000Y33020000D03*
D13*
X98160000Y33020000D03*
X92710000Y33020000D03*
%TD*%
D12*
%TO.C,Q4*%
X123168000Y33020000D03*
D13*
X117718000Y33020000D03*
X112268000Y33020000D03*
%TD*%
%TO.C,Q2*%
X73152000Y33020000D03*
X78602000Y33020000D03*
D12*
X84052000Y33020000D03*
%TD*%
D13*
%TO.C,Q1*%
X53594000Y33020000D03*
X59044000Y33020000D03*
D12*
X64494000Y33020000D03*
%TD*%
D14*
%TO.C,PS1*%
X14986000Y15450000D03*
D15*
X53486000Y12700000D03*
X14986000Y4700000D03*
X53486000Y4700000D03*
%TD*%
D16*
%TO.C,J4*%
X95758000Y3302000D03*
X98298000Y3302000D03*
X100838000Y3302000D03*
D17*
X103378000Y3302000D03*
%TD*%
D18*
%TO.C,J2*%
X2890000Y46228000D03*
G36*
G01*
X10440000Y47528001D02*
X10440000Y44927999D01*
G75*
G02*
X10190001Y44678000I-249999J0D01*
G01*
X7589999Y44678000D01*
G75*
G02*
X7340000Y44927999I0J249999D01*
G01*
X7340000Y47528001D01*
G75*
G02*
X7589999Y47778000I249999J0D01*
G01*
X10190001Y47778000D01*
G75*
G02*
X10440000Y47528001I0J-249999D01*
G01*
G37*
%TD*%
D16*
%TO.C,J1*%
X89154000Y3302000D03*
X86614000Y3302000D03*
X84074000Y3302000D03*
X81534000Y3302000D03*
X78994000Y3302000D03*
D17*
X76454000Y3302000D03*
%TD*%
D19*
%TO.C,F1*%
X4318000Y39540000D03*
X4318000Y2540000D03*
%TD*%
D20*
%TO.C,D4*%
X18942000Y33020000D03*
D21*
X26442000Y33020000D03*
X33942000Y33020000D03*
X43942000Y33020000D03*
%TD*%
D10*
%TO.C,C13*%
X112522000Y59530000D03*
D11*
X112522000Y49530000D03*
%TD*%
D10*
%TO.C,C11*%
X78994000Y59530000D03*
D11*
X78994000Y49530000D03*
%TD*%
D22*
X67945000Y36449000D02*
X56388000Y36449000D01*
X56363224Y36446560D01*
X56339399Y36439333D01*
X56317443Y36427597D01*
X56298197Y36411803D01*
X56282403Y36392557D01*
X56270667Y36370601D01*
X56262878Y36343760D01*
X55265181Y30607000D01*
X51943000Y30607000D01*
X51943000Y42545000D01*
X67945000Y42545000D01*
X67945000Y36449000D01*
D23*
G36*
X67945000Y36449000D02*
G01*
X56388000Y36449000D01*
X56363224Y36446560D01*
X56339399Y36439333D01*
X56317443Y36427597D01*
X56298197Y36411803D01*
X56282403Y36392557D01*
X56270667Y36370601D01*
X56262878Y36343760D01*
X55265181Y30607000D01*
X51943000Y30607000D01*
X51943000Y42545000D01*
X67945000Y42545000D01*
X67945000Y36449000D01*
G37*
D22*
X109093000Y36449000D02*
X95504000Y36449000D01*
X95479224Y36446560D01*
X95455399Y36439333D01*
X95433443Y36427597D01*
X95414197Y36411803D01*
X95398403Y36392557D01*
X95386667Y36370601D01*
X95378878Y36343760D01*
X94381181Y30607000D01*
X91059000Y30607000D01*
X91059000Y42545000D01*
X109093000Y42545000D01*
X109093000Y36449000D01*
D23*
G36*
X109093000Y36449000D02*
G01*
X95504000Y36449000D01*
X95479224Y36446560D01*
X95455399Y36439333D01*
X95433443Y36427597D01*
X95414197Y36411803D01*
X95398403Y36392557D01*
X95386667Y36370601D01*
X95378878Y36343760D01*
X94381181Y30607000D01*
X91059000Y30607000D01*
X91059000Y42545000D01*
X109093000Y42545000D01*
X109093000Y36449000D01*
G37*
M02*
