%TF.GenerationSoftware,KiCad,Pcbnew,(5.1.9)-1*%
%TF.CreationDate,2021-03-19T16:46:59-07:00*%
%TF.ProjectId,VFD,5646442e-6b69-4636-9164-5f7063625858,1.0*%
%TF.SameCoordinates,PX50e7ea0PY815a420*%
%TF.FileFunction,Legend,Top*%
%TF.FilePolarity,Positive*%
%FSLAX46Y46*%
G04 Gerber Fmt 4.6, Leading zero omitted, Abs format (unit mm)*
G04 Created by KiCad (PCBNEW (5.1.9)-1) date 2021-03-19 16:46:59*
%MOMM*%
%LPD*%
G01*
G04 APERTURE LIST*
%ADD10C,0.120000*%
%ADD11C,0.150000*%
G04 APERTURE END LIST*
D10*
%TO.C,C10*%
X60586000Y54530000D02*
G75*
G03*
X60586000Y54530000I-15120000J0D01*
G01*
X30385000Y54530000D02*
X60547000Y54530000D01*
X30386000Y54570000D02*
X60546000Y54570000D01*
X30386000Y54610000D02*
X60546000Y54610000D01*
X30386000Y54650000D02*
X60546000Y54650000D01*
X30386000Y54690000D02*
X60546000Y54690000D01*
X30387000Y54730000D02*
X60545000Y54730000D01*
X30387000Y54770000D02*
X60545000Y54770000D01*
X30388000Y54810000D02*
X60544000Y54810000D01*
X30389000Y54850000D02*
X60543000Y54850000D01*
X30390000Y54890000D02*
X60542000Y54890000D01*
X30391000Y54930000D02*
X60541000Y54930000D01*
X30392000Y54970000D02*
X60540000Y54970000D01*
X30393000Y55010000D02*
X60539000Y55010000D01*
X30394000Y55050000D02*
X60538000Y55050000D01*
X30396000Y55090000D02*
X60536000Y55090000D01*
X30397000Y55130000D02*
X60535000Y55130000D01*
X30399000Y55170000D02*
X60533000Y55170000D01*
X30401000Y55210000D02*
X60531000Y55210000D01*
X30403000Y55251000D02*
X60529000Y55251000D01*
X30405000Y55291000D02*
X60527000Y55291000D01*
X30407000Y55331000D02*
X60525000Y55331000D01*
X30409000Y55371000D02*
X60523000Y55371000D01*
X30411000Y55411000D02*
X60521000Y55411000D01*
X30414000Y55451000D02*
X60518000Y55451000D01*
X30416000Y55491000D02*
X60516000Y55491000D01*
X30419000Y55531000D02*
X60513000Y55531000D01*
X30421000Y55571000D02*
X60511000Y55571000D01*
X30424000Y55611000D02*
X60508000Y55611000D01*
X30427000Y55651000D02*
X60505000Y55651000D01*
X30430000Y55691000D02*
X60502000Y55691000D01*
X30433000Y55731000D02*
X60499000Y55731000D01*
X30436000Y55771000D02*
X60496000Y55771000D01*
X30440000Y55811000D02*
X60492000Y55811000D01*
X30443000Y55851000D02*
X60489000Y55851000D01*
X30447000Y55891000D02*
X60485000Y55891000D01*
X30450000Y55931000D02*
X60482000Y55931000D01*
X30454000Y55971000D02*
X60478000Y55971000D01*
X30458000Y56011000D02*
X60474000Y56011000D01*
X30462000Y56051000D02*
X60470000Y56051000D01*
X30466000Y56091000D02*
X60466000Y56091000D01*
X30470000Y56131000D02*
X60462000Y56131000D01*
X30475000Y56171000D02*
X60457000Y56171000D01*
X30479000Y56211000D02*
X60453000Y56211000D01*
X30484000Y56251000D02*
X60448000Y56251000D01*
X30488000Y56291000D02*
X60444000Y56291000D01*
X30493000Y56331000D02*
X60439000Y56331000D01*
X30498000Y56371000D02*
X60434000Y56371000D01*
X30503000Y56411000D02*
X60429000Y56411000D01*
X30508000Y56451000D02*
X60424000Y56451000D01*
X30513000Y56491000D02*
X60419000Y56491000D01*
X30518000Y56531000D02*
X60414000Y56531000D01*
X30524000Y56571000D02*
X60408000Y56571000D01*
X30529000Y56611000D02*
X60403000Y56611000D01*
X30535000Y56651000D02*
X60397000Y56651000D01*
X30541000Y56691000D02*
X60391000Y56691000D01*
X30546000Y56731000D02*
X60386000Y56731000D01*
X30552000Y56771000D02*
X60380000Y56771000D01*
X30558000Y56811000D02*
X60374000Y56811000D01*
X30565000Y56851000D02*
X60367000Y56851000D01*
X30571000Y56891000D02*
X60361000Y56891000D01*
X30577000Y56931000D02*
X60355000Y56931000D01*
X30584000Y56971000D02*
X60348000Y56971000D01*
X30590000Y57011000D02*
X60342000Y57011000D01*
X30597000Y57051000D02*
X60335000Y57051000D01*
X30604000Y57091000D02*
X60328000Y57091000D01*
X30611000Y57131000D02*
X60321000Y57131000D01*
X30618000Y57171000D02*
X60314000Y57171000D01*
X30625000Y57211000D02*
X60307000Y57211000D01*
X30632000Y57251000D02*
X60300000Y57251000D01*
X30640000Y57291000D02*
X43226000Y57291000D01*
X47706000Y57291000D02*
X60292000Y57291000D01*
X30647000Y57331000D02*
X43226000Y57331000D01*
X47706000Y57331000D02*
X60285000Y57331000D01*
X30655000Y57371000D02*
X43226000Y57371000D01*
X47706000Y57371000D02*
X60277000Y57371000D01*
X30662000Y57411000D02*
X43226000Y57411000D01*
X47706000Y57411000D02*
X60270000Y57411000D01*
X30670000Y57451000D02*
X43226000Y57451000D01*
X47706000Y57451000D02*
X60262000Y57451000D01*
X30678000Y57491000D02*
X43226000Y57491000D01*
X47706000Y57491000D02*
X60254000Y57491000D01*
X30686000Y57531000D02*
X43226000Y57531000D01*
X47706000Y57531000D02*
X60246000Y57531000D01*
X30694000Y57571000D02*
X43226000Y57571000D01*
X47706000Y57571000D02*
X60238000Y57571000D01*
X30703000Y57611000D02*
X43226000Y57611000D01*
X47706000Y57611000D02*
X60229000Y57611000D01*
X30711000Y57651000D02*
X43226000Y57651000D01*
X47706000Y57651000D02*
X60221000Y57651000D01*
X30719000Y57691000D02*
X43226000Y57691000D01*
X47706000Y57691000D02*
X60213000Y57691000D01*
X30728000Y57731000D02*
X43226000Y57731000D01*
X47706000Y57731000D02*
X60204000Y57731000D01*
X30737000Y57771000D02*
X43226000Y57771000D01*
X47706000Y57771000D02*
X60195000Y57771000D01*
X30746000Y57811000D02*
X43226000Y57811000D01*
X47706000Y57811000D02*
X60186000Y57811000D01*
X30755000Y57851000D02*
X43226000Y57851000D01*
X47706000Y57851000D02*
X60177000Y57851000D01*
X30764000Y57891000D02*
X43226000Y57891000D01*
X47706000Y57891000D02*
X60168000Y57891000D01*
X30773000Y57931000D02*
X43226000Y57931000D01*
X47706000Y57931000D02*
X60159000Y57931000D01*
X30782000Y57971000D02*
X43226000Y57971000D01*
X47706000Y57971000D02*
X60150000Y57971000D01*
X30791000Y58011000D02*
X43226000Y58011000D01*
X47706000Y58011000D02*
X60141000Y58011000D01*
X30801000Y58051000D02*
X43226000Y58051000D01*
X47706000Y58051000D02*
X60131000Y58051000D01*
X30811000Y58091000D02*
X43226000Y58091000D01*
X47706000Y58091000D02*
X60121000Y58091000D01*
X30820000Y58131000D02*
X43226000Y58131000D01*
X47706000Y58131000D02*
X60112000Y58131000D01*
X30830000Y58171000D02*
X43226000Y58171000D01*
X47706000Y58171000D02*
X60102000Y58171000D01*
X30840000Y58211000D02*
X43226000Y58211000D01*
X47706000Y58211000D02*
X60092000Y58211000D01*
X30850000Y58251000D02*
X43226000Y58251000D01*
X47706000Y58251000D02*
X60082000Y58251000D01*
X30860000Y58291000D02*
X43226000Y58291000D01*
X47706000Y58291000D02*
X60072000Y58291000D01*
X30871000Y58331000D02*
X43226000Y58331000D01*
X47706000Y58331000D02*
X60061000Y58331000D01*
X30881000Y58371000D02*
X43226000Y58371000D01*
X47706000Y58371000D02*
X60051000Y58371000D01*
X30892000Y58411000D02*
X43226000Y58411000D01*
X47706000Y58411000D02*
X60040000Y58411000D01*
X30902000Y58451000D02*
X43226000Y58451000D01*
X47706000Y58451000D02*
X60030000Y58451000D01*
X30913000Y58491000D02*
X43226000Y58491000D01*
X47706000Y58491000D02*
X60019000Y58491000D01*
X30924000Y58531000D02*
X43226000Y58531000D01*
X47706000Y58531000D02*
X60008000Y58531000D01*
X30935000Y58571000D02*
X43226000Y58571000D01*
X47706000Y58571000D02*
X59997000Y58571000D01*
X30946000Y58611000D02*
X43226000Y58611000D01*
X47706000Y58611000D02*
X59986000Y58611000D01*
X30958000Y58651000D02*
X43226000Y58651000D01*
X47706000Y58651000D02*
X59974000Y58651000D01*
X30969000Y58691000D02*
X43226000Y58691000D01*
X47706000Y58691000D02*
X59963000Y58691000D01*
X30981000Y58731000D02*
X43226000Y58731000D01*
X47706000Y58731000D02*
X59951000Y58731000D01*
X30992000Y58771000D02*
X43226000Y58771000D01*
X47706000Y58771000D02*
X59940000Y58771000D01*
X31004000Y58811000D02*
X43226000Y58811000D01*
X47706000Y58811000D02*
X59928000Y58811000D01*
X31016000Y58851000D02*
X43226000Y58851000D01*
X47706000Y58851000D02*
X59916000Y58851000D01*
X31028000Y58891000D02*
X43226000Y58891000D01*
X47706000Y58891000D02*
X59904000Y58891000D01*
X31040000Y58931000D02*
X43226000Y58931000D01*
X47706000Y58931000D02*
X59892000Y58931000D01*
X31052000Y58971000D02*
X43226000Y58971000D01*
X47706000Y58971000D02*
X59880000Y58971000D01*
X31064000Y59011000D02*
X43226000Y59011000D01*
X47706000Y59011000D02*
X59868000Y59011000D01*
X31077000Y59051000D02*
X43226000Y59051000D01*
X47706000Y59051000D02*
X59855000Y59051000D01*
X31090000Y59091000D02*
X43226000Y59091000D01*
X47706000Y59091000D02*
X59842000Y59091000D01*
X31102000Y59131000D02*
X43226000Y59131000D01*
X47706000Y59131000D02*
X59830000Y59131000D01*
X31115000Y59171000D02*
X43226000Y59171000D01*
X47706000Y59171000D02*
X59817000Y59171000D01*
X31128000Y59211000D02*
X43226000Y59211000D01*
X47706000Y59211000D02*
X59804000Y59211000D01*
X31141000Y59251000D02*
X43226000Y59251000D01*
X47706000Y59251000D02*
X59791000Y59251000D01*
X31154000Y59291000D02*
X43226000Y59291000D01*
X47706000Y59291000D02*
X59778000Y59291000D01*
X31168000Y59331000D02*
X43226000Y59331000D01*
X47706000Y59331000D02*
X59764000Y59331000D01*
X31181000Y59371000D02*
X43226000Y59371000D01*
X47706000Y59371000D02*
X59751000Y59371000D01*
X31195000Y59411000D02*
X43226000Y59411000D01*
X47706000Y59411000D02*
X59737000Y59411000D01*
X31208000Y59451000D02*
X43226000Y59451000D01*
X47706000Y59451000D02*
X59724000Y59451000D01*
X31222000Y59491000D02*
X43226000Y59491000D01*
X47706000Y59491000D02*
X59710000Y59491000D01*
X31236000Y59531000D02*
X43226000Y59531000D01*
X47706000Y59531000D02*
X59696000Y59531000D01*
X31250000Y59571000D02*
X43226000Y59571000D01*
X47706000Y59571000D02*
X59682000Y59571000D01*
X31264000Y59611000D02*
X43226000Y59611000D01*
X47706000Y59611000D02*
X59668000Y59611000D01*
X31279000Y59651000D02*
X43226000Y59651000D01*
X47706000Y59651000D02*
X59653000Y59651000D01*
X31293000Y59691000D02*
X43226000Y59691000D01*
X47706000Y59691000D02*
X59639000Y59691000D01*
X31308000Y59731000D02*
X43226000Y59731000D01*
X47706000Y59731000D02*
X59624000Y59731000D01*
X31323000Y59771000D02*
X43226000Y59771000D01*
X47706000Y59771000D02*
X59609000Y59771000D01*
X31337000Y59811000D02*
X43226000Y59811000D01*
X47706000Y59811000D02*
X59595000Y59811000D01*
X31352000Y59851000D02*
X43226000Y59851000D01*
X47706000Y59851000D02*
X59580000Y59851000D01*
X31367000Y59891000D02*
X43226000Y59891000D01*
X47706000Y59891000D02*
X59565000Y59891000D01*
X31383000Y59931000D02*
X43226000Y59931000D01*
X47706000Y59931000D02*
X59549000Y59931000D01*
X31398000Y59971000D02*
X43226000Y59971000D01*
X47706000Y59971000D02*
X59534000Y59971000D01*
X31414000Y60011000D02*
X43226000Y60011000D01*
X47706000Y60011000D02*
X59518000Y60011000D01*
X31429000Y60051000D02*
X43226000Y60051000D01*
X47706000Y60051000D02*
X59503000Y60051000D01*
X31445000Y60091000D02*
X43226000Y60091000D01*
X47706000Y60091000D02*
X59487000Y60091000D01*
X31461000Y60131000D02*
X43226000Y60131000D01*
X47706000Y60131000D02*
X59471000Y60131000D01*
X31477000Y60171000D02*
X43226000Y60171000D01*
X47706000Y60171000D02*
X59455000Y60171000D01*
X31493000Y60211000D02*
X43226000Y60211000D01*
X47706000Y60211000D02*
X59439000Y60211000D01*
X31509000Y60251000D02*
X43226000Y60251000D01*
X47706000Y60251000D02*
X59423000Y60251000D01*
X31526000Y60291000D02*
X43226000Y60291000D01*
X47706000Y60291000D02*
X59406000Y60291000D01*
X31542000Y60331000D02*
X43226000Y60331000D01*
X47706000Y60331000D02*
X59390000Y60331000D01*
X31559000Y60371000D02*
X43226000Y60371000D01*
X47706000Y60371000D02*
X59373000Y60371000D01*
X31576000Y60411000D02*
X43226000Y60411000D01*
X47706000Y60411000D02*
X59356000Y60411000D01*
X31593000Y60451000D02*
X43226000Y60451000D01*
X47706000Y60451000D02*
X59339000Y60451000D01*
X31610000Y60491000D02*
X43226000Y60491000D01*
X47706000Y60491000D02*
X59322000Y60491000D01*
X31627000Y60531000D02*
X43226000Y60531000D01*
X47706000Y60531000D02*
X59305000Y60531000D01*
X31644000Y60571000D02*
X43226000Y60571000D01*
X47706000Y60571000D02*
X59288000Y60571000D01*
X31662000Y60611000D02*
X43226000Y60611000D01*
X47706000Y60611000D02*
X59270000Y60611000D01*
X31679000Y60651000D02*
X43226000Y60651000D01*
X47706000Y60651000D02*
X59253000Y60651000D01*
X31697000Y60691000D02*
X43226000Y60691000D01*
X47706000Y60691000D02*
X59235000Y60691000D01*
X31715000Y60731000D02*
X43226000Y60731000D01*
X47706000Y60731000D02*
X59217000Y60731000D01*
X31733000Y60771000D02*
X43226000Y60771000D01*
X47706000Y60771000D02*
X59199000Y60771000D01*
X31751000Y60811000D02*
X43226000Y60811000D01*
X47706000Y60811000D02*
X59181000Y60811000D01*
X31770000Y60851000D02*
X43226000Y60851000D01*
X47706000Y60851000D02*
X59162000Y60851000D01*
X31788000Y60891000D02*
X43226000Y60891000D01*
X47706000Y60891000D02*
X59144000Y60891000D01*
X31807000Y60931000D02*
X43226000Y60931000D01*
X47706000Y60931000D02*
X59125000Y60931000D01*
X31826000Y60971000D02*
X43226000Y60971000D01*
X47706000Y60971000D02*
X59106000Y60971000D01*
X31844000Y61011000D02*
X43226000Y61011000D01*
X47706000Y61011000D02*
X59088000Y61011000D01*
X31864000Y61051000D02*
X43226000Y61051000D01*
X47706000Y61051000D02*
X59068000Y61051000D01*
X31883000Y61091000D02*
X43226000Y61091000D01*
X47706000Y61091000D02*
X59049000Y61091000D01*
X31902000Y61131000D02*
X43226000Y61131000D01*
X47706000Y61131000D02*
X59030000Y61131000D01*
X31922000Y61171000D02*
X43226000Y61171000D01*
X47706000Y61171000D02*
X59010000Y61171000D01*
X31941000Y61211000D02*
X43226000Y61211000D01*
X47706000Y61211000D02*
X58991000Y61211000D01*
X31961000Y61251000D02*
X43226000Y61251000D01*
X47706000Y61251000D02*
X58971000Y61251000D01*
X31981000Y61291000D02*
X43226000Y61291000D01*
X47706000Y61291000D02*
X58951000Y61291000D01*
X32001000Y61331000D02*
X43226000Y61331000D01*
X47706000Y61331000D02*
X58931000Y61331000D01*
X32021000Y61371000D02*
X43226000Y61371000D01*
X47706000Y61371000D02*
X58911000Y61371000D01*
X32041000Y61411000D02*
X43226000Y61411000D01*
X47706000Y61411000D02*
X58891000Y61411000D01*
X32062000Y61451000D02*
X43226000Y61451000D01*
X47706000Y61451000D02*
X58870000Y61451000D01*
X32083000Y61491000D02*
X43226000Y61491000D01*
X47706000Y61491000D02*
X58849000Y61491000D01*
X32103000Y61531000D02*
X43226000Y61531000D01*
X47706000Y61531000D02*
X58829000Y61531000D01*
X32124000Y61571000D02*
X43226000Y61571000D01*
X47706000Y61571000D02*
X58808000Y61571000D01*
X32146000Y61611000D02*
X43226000Y61611000D01*
X47706000Y61611000D02*
X58786000Y61611000D01*
X32167000Y61651000D02*
X43226000Y61651000D01*
X47706000Y61651000D02*
X58765000Y61651000D01*
X32188000Y61691000D02*
X43226000Y61691000D01*
X47706000Y61691000D02*
X58744000Y61691000D01*
X32210000Y61731000D02*
X43226000Y61731000D01*
X47706000Y61731000D02*
X58722000Y61731000D01*
X32232000Y61771000D02*
X58700000Y61771000D01*
X32253000Y61811000D02*
X58679000Y61811000D01*
X32276000Y61851000D02*
X58656000Y61851000D01*
X32298000Y61891000D02*
X58634000Y61891000D01*
X32320000Y61931000D02*
X58612000Y61931000D01*
X32343000Y61971000D02*
X58589000Y61971000D01*
X32365000Y62011000D02*
X58567000Y62011000D01*
X32388000Y62051000D02*
X58544000Y62051000D01*
X32411000Y62091000D02*
X58521000Y62091000D01*
X32434000Y62131000D02*
X58498000Y62131000D01*
X32458000Y62171000D02*
X58474000Y62171000D01*
X32481000Y62211000D02*
X58451000Y62211000D01*
X32505000Y62251000D02*
X58427000Y62251000D01*
X32529000Y62291000D02*
X58403000Y62291000D01*
X32553000Y62331000D02*
X58379000Y62331000D01*
X32577000Y62371000D02*
X58355000Y62371000D01*
X32601000Y62411000D02*
X58331000Y62411000D01*
X32626000Y62451000D02*
X58306000Y62451000D01*
X32650000Y62491000D02*
X58282000Y62491000D01*
X32675000Y62531000D02*
X58257000Y62531000D01*
X32700000Y62571000D02*
X58232000Y62571000D01*
X32726000Y62611000D02*
X58206000Y62611000D01*
X32751000Y62651000D02*
X58181000Y62651000D01*
X32776000Y62691000D02*
X58156000Y62691000D01*
X32802000Y62730000D02*
X58130000Y62730000D01*
X32828000Y62770000D02*
X58104000Y62770000D01*
X32854000Y62810000D02*
X58078000Y62810000D01*
X32880000Y62850000D02*
X58052000Y62850000D01*
X32907000Y62890000D02*
X58025000Y62890000D01*
X32934000Y62930000D02*
X57998000Y62930000D01*
X32960000Y62970000D02*
X57972000Y62970000D01*
X32987000Y63010000D02*
X57945000Y63010000D01*
X33015000Y63050000D02*
X57917000Y63050000D01*
X33042000Y63090000D02*
X57890000Y63090000D01*
X33069000Y63130000D02*
X57863000Y63130000D01*
X33097000Y63170000D02*
X57835000Y63170000D01*
X33125000Y63210000D02*
X57807000Y63210000D01*
X33153000Y63250000D02*
X57779000Y63250000D01*
X33182000Y63290000D02*
X57750000Y63290000D01*
X33210000Y63330000D02*
X57722000Y63330000D01*
X33239000Y63370000D02*
X57693000Y63370000D01*
X33268000Y63410000D02*
X57664000Y63410000D01*
X33297000Y63450000D02*
X57635000Y63450000D01*
X33326000Y63490000D02*
X57606000Y63490000D01*
X33356000Y63530000D02*
X57576000Y63530000D01*
X33386000Y63570000D02*
X57546000Y63570000D01*
X33416000Y63610000D02*
X57516000Y63610000D01*
X33446000Y63650000D02*
X57486000Y63650000D01*
X33476000Y63690000D02*
X57456000Y63690000D01*
X33507000Y63730000D02*
X57425000Y63730000D01*
X33537000Y63770000D02*
X57395000Y63770000D01*
X33568000Y63810000D02*
X57364000Y63810000D01*
X33600000Y63850000D02*
X57332000Y63850000D01*
X33631000Y63890000D02*
X57301000Y63890000D01*
X33663000Y63930000D02*
X57269000Y63930000D01*
X33694000Y63970000D02*
X57238000Y63970000D01*
X33727000Y64010000D02*
X57205000Y64010000D01*
X33759000Y64050000D02*
X57173000Y64050000D01*
X33791000Y64090000D02*
X57141000Y64090000D01*
X33824000Y64130000D02*
X57108000Y64130000D01*
X33857000Y64170000D02*
X57075000Y64170000D01*
X33890000Y64210000D02*
X57042000Y64210000D01*
X33924000Y64250000D02*
X57008000Y64250000D01*
X33957000Y64290000D02*
X56975000Y64290000D01*
X33991000Y64330000D02*
X56941000Y64330000D01*
X34026000Y64370000D02*
X56906000Y64370000D01*
X34060000Y64410000D02*
X56872000Y64410000D01*
X34095000Y64450000D02*
X56837000Y64450000D01*
X34130000Y64490000D02*
X56802000Y64490000D01*
X34165000Y64530000D02*
X56767000Y64530000D01*
X34200000Y64570000D02*
X56732000Y64570000D01*
X34236000Y64610000D02*
X56696000Y64610000D01*
X34272000Y64650000D02*
X56660000Y64650000D01*
X34308000Y64690000D02*
X56624000Y64690000D01*
X34344000Y64730000D02*
X56588000Y64730000D01*
X34381000Y64770000D02*
X56551000Y64770000D01*
X34418000Y64810000D02*
X56514000Y64810000D01*
X34455000Y64850000D02*
X56477000Y64850000D01*
X34493000Y64890000D02*
X56439000Y64890000D01*
X34530000Y64930000D02*
X56402000Y64930000D01*
X34568000Y64970000D02*
X56364000Y64970000D01*
X34607000Y65010000D02*
X56325000Y65010000D01*
X34645000Y65050000D02*
X56287000Y65050000D01*
X34684000Y65090000D02*
X56248000Y65090000D01*
X34723000Y65130000D02*
X56209000Y65130000D01*
X34763000Y65170000D02*
X56169000Y65170000D01*
X34803000Y65210000D02*
X56129000Y65210000D01*
X34843000Y65250000D02*
X56089000Y65250000D01*
X34883000Y65290000D02*
X56049000Y65290000D01*
X34924000Y65330000D02*
X56008000Y65330000D01*
X34965000Y65370000D02*
X55967000Y65370000D01*
X35006000Y65410000D02*
X55926000Y65410000D01*
X35048000Y65450000D02*
X55884000Y65450000D01*
X35090000Y65490000D02*
X55842000Y65490000D01*
X35132000Y65530000D02*
X55800000Y65530000D01*
X35174000Y65570000D02*
X55758000Y65570000D01*
X35217000Y65610000D02*
X55715000Y65610000D01*
X35261000Y65650000D02*
X55671000Y65650000D01*
X35304000Y65690000D02*
X55628000Y65690000D01*
X35348000Y65730000D02*
X55584000Y65730000D01*
X35392000Y65770000D02*
X55540000Y65770000D01*
X35437000Y65810000D02*
X55495000Y65810000D01*
X35482000Y65850000D02*
X55450000Y65850000D01*
X35527000Y65890000D02*
X55405000Y65890000D01*
X35573000Y65930000D02*
X55359000Y65930000D01*
X35619000Y65970000D02*
X55313000Y65970000D01*
X35666000Y66010000D02*
X55266000Y66010000D01*
X35712000Y66050000D02*
X55220000Y66050000D01*
X35760000Y66090000D02*
X55172000Y66090000D01*
X35807000Y66130000D02*
X55125000Y66130000D01*
X35855000Y66170000D02*
X55077000Y66170000D01*
X35904000Y66210000D02*
X55028000Y66210000D01*
X35953000Y66250000D02*
X54979000Y66250000D01*
X36002000Y66290000D02*
X54930000Y66290000D01*
X36052000Y66330000D02*
X54880000Y66330000D01*
X36102000Y66370000D02*
X54830000Y66370000D01*
X36152000Y66410000D02*
X54780000Y66410000D01*
X36203000Y66450000D02*
X54729000Y66450000D01*
X36255000Y66490000D02*
X54677000Y66490000D01*
X36307000Y66530000D02*
X54625000Y66530000D01*
X36359000Y66570000D02*
X54573000Y66570000D01*
X36412000Y66610000D02*
X54520000Y66610000D01*
X36466000Y66650000D02*
X54466000Y66650000D01*
X36519000Y66690000D02*
X54413000Y66690000D01*
X36574000Y66730000D02*
X54358000Y66730000D01*
X36629000Y66770000D02*
X54303000Y66770000D01*
X36684000Y66810000D02*
X54248000Y66810000D01*
X36740000Y66850000D02*
X54192000Y66850000D01*
X36797000Y66890000D02*
X54135000Y66890000D01*
X36854000Y66930000D02*
X54078000Y66930000D01*
X36911000Y66970000D02*
X54021000Y66970000D01*
X36969000Y67010000D02*
X53963000Y67010000D01*
X37028000Y67050000D02*
X53904000Y67050000D01*
X37088000Y67090000D02*
X53844000Y67090000D01*
X37148000Y67130000D02*
X53784000Y67130000D01*
X37208000Y67170000D02*
X53724000Y67170000D01*
X37269000Y67210000D02*
X53663000Y67210000D01*
X37331000Y67250000D02*
X53601000Y67250000D01*
X37394000Y67290000D02*
X53538000Y67290000D01*
X37457000Y67330000D02*
X53475000Y67330000D01*
X37521000Y67370000D02*
X53411000Y67370000D01*
X37586000Y67410000D02*
X53346000Y67410000D01*
X37651000Y67450000D02*
X53281000Y67450000D01*
X37718000Y67490000D02*
X53214000Y67490000D01*
X37784000Y67530000D02*
X53148000Y67530000D01*
X37852000Y67570000D02*
X53080000Y67570000D01*
X37921000Y67610000D02*
X53011000Y67610000D01*
X37990000Y67650000D02*
X52942000Y67650000D01*
X38060000Y67690000D02*
X52872000Y67690000D01*
X38132000Y67730000D02*
X52800000Y67730000D01*
X38204000Y67770000D02*
X52728000Y67770000D01*
X38277000Y67810000D02*
X52655000Y67810000D01*
X38351000Y67850000D02*
X52581000Y67850000D01*
X38426000Y67890000D02*
X52506000Y67890000D01*
X38502000Y67930000D02*
X52430000Y67930000D01*
X38579000Y67970000D02*
X52353000Y67970000D01*
X38657000Y68010000D02*
X52275000Y68010000D01*
X38736000Y68050000D02*
X52196000Y68050000D01*
X38817000Y68090000D02*
X52115000Y68090000D01*
X38898000Y68130000D02*
X52034000Y68130000D01*
X38981000Y68170000D02*
X51951000Y68170000D01*
X39066000Y68210000D02*
X51866000Y68210000D01*
X39151000Y68250000D02*
X51781000Y68250000D01*
X39238000Y68290000D02*
X51694000Y68290000D01*
X39327000Y68330000D02*
X51605000Y68330000D01*
X39417000Y68370000D02*
X51515000Y68370000D01*
X39509000Y68410000D02*
X51423000Y68410000D01*
X39602000Y68450000D02*
X51330000Y68450000D01*
X39698000Y68490000D02*
X51234000Y68490000D01*
X39795000Y68530000D02*
X51137000Y68530000D01*
X39894000Y68570000D02*
X51038000Y68570000D01*
X39995000Y68610000D02*
X50937000Y68610000D01*
X40098000Y68650000D02*
X50834000Y68650000D01*
X40204000Y68690000D02*
X50728000Y68690000D01*
X40312000Y68730000D02*
X50620000Y68730000D01*
X40423000Y68770000D02*
X50509000Y68770000D01*
X40536000Y68810000D02*
X50396000Y68810000D01*
X40652000Y68850000D02*
X50280000Y68850000D01*
X40772000Y68890000D02*
X50160000Y68890000D01*
X40895000Y68930000D02*
X50037000Y68930000D01*
X41022000Y68970000D02*
X49910000Y68970000D01*
X41153000Y69010000D02*
X49779000Y69010000D01*
X41288000Y69050000D02*
X49644000Y69050000D01*
X41429000Y69090000D02*
X49503000Y69090000D01*
X41574000Y69130000D02*
X49358000Y69130000D01*
X41726000Y69170000D02*
X49206000Y69170000D01*
X41884000Y69210000D02*
X49048000Y69210000D01*
X42051000Y69250000D02*
X48881000Y69250000D01*
X42226000Y69290000D02*
X48706000Y69290000D01*
X42411000Y69330000D02*
X48521000Y69330000D01*
X42609000Y69370000D02*
X48323000Y69370000D01*
X42822000Y69410000D02*
X48110000Y69410000D01*
X43054000Y69450000D02*
X47878000Y69450000D01*
X43312000Y69490000D02*
X47620000Y69490000D01*
X43604000Y69530000D02*
X47328000Y69530000D01*
X43952000Y69570000D02*
X46980000Y69570000D01*
X44406000Y69610000D02*
X46526000Y69610000D01*
X45426000Y69650000D02*
X45506000Y69650000D01*
X36991000Y38350869D02*
X36991000Y41350869D01*
X35491000Y39850869D02*
X38491000Y39850869D01*
%TO.C,C15*%
X7786000Y61412000D02*
X7786000Y69652000D01*
X27026000Y61412000D02*
X27026000Y69652000D01*
X27026000Y69652000D02*
X7786000Y69652000D01*
X27026000Y61412000D02*
X7786000Y61412000D01*
%TO.C,C8*%
X7772000Y50744000D02*
X7772000Y58984000D01*
X27012000Y50744000D02*
X27012000Y58984000D01*
X27012000Y58984000D02*
X7772000Y58984000D01*
X27012000Y50744000D02*
X7772000Y50744000D01*
%TO.C,R1*%
X65680000Y25811564D02*
X65680000Y24357436D01*
X63860000Y25811564D02*
X63860000Y24357436D01*
%TO.C,D7*%
X103851000Y10938000D02*
X99951000Y10938000D01*
X103851000Y12938000D02*
X99951000Y12938000D01*
X103851000Y10938000D02*
X103851000Y12938000D01*
%TO.C,D5*%
X106950000Y22768000D02*
X106950000Y26668000D01*
X108950000Y22768000D02*
X108950000Y26668000D01*
X106950000Y22768000D02*
X108950000Y22768000D01*
%TO.C,D6*%
X121809000Y19466000D02*
X121809000Y23366000D01*
X123809000Y19466000D02*
X123809000Y23366000D01*
X121809000Y19466000D02*
X123809000Y19466000D01*
%TO.C,U2*%
X106025000Y17272000D02*
X106025000Y13822000D01*
X106025000Y17272000D02*
X106025000Y19222000D01*
X111145000Y17272000D02*
X111145000Y15322000D01*
X111145000Y17272000D02*
X111145000Y19222000D01*
%TO.C,Q3*%
X96355000Y30569000D02*
X96355000Y35840000D01*
X99964000Y30569000D02*
X99964000Y35840000D01*
X90090000Y30569000D02*
X90090000Y35840000D01*
X106230000Y30569000D02*
X106230000Y35840000D01*
X106230000Y35840000D02*
X90090000Y35840000D01*
X106230000Y30569000D02*
X90090000Y30569000D01*
%TO.C,Q4*%
X115913000Y30569000D02*
X115913000Y35840000D01*
X119522000Y30569000D02*
X119522000Y35840000D01*
X109648000Y30569000D02*
X109648000Y35840000D01*
X125788000Y30569000D02*
X125788000Y35840000D01*
X125788000Y35840000D02*
X109648000Y35840000D01*
X125788000Y30569000D02*
X109648000Y30569000D01*
%TO.C,R3*%
X102976000Y25811564D02*
X102976000Y24357436D01*
X104796000Y25811564D02*
X104796000Y24357436D01*
%TO.C,R4*%
X117835000Y22509564D02*
X117835000Y21055436D01*
X119655000Y22509564D02*
X119655000Y21055436D01*
%TO.C,C16*%
X114682748Y14896000D02*
X116105252Y14896000D01*
X114682748Y17616000D02*
X116105252Y17616000D01*
%TO.C,C17*%
X114299420Y19810000D02*
X114580580Y19810000D01*
X114299420Y20830000D02*
X114580580Y20830000D01*
%TO.C,C14*%
X102487252Y17616000D02*
X101064748Y17616000D01*
X102487252Y14896000D02*
X101064748Y14896000D01*
%TO.C,C12*%
X102870580Y20830000D02*
X102589420Y20830000D01*
X102870580Y19810000D02*
X102589420Y19810000D01*
%TO.C,R2*%
X80539000Y22509564D02*
X80539000Y21055436D01*
X78719000Y22509564D02*
X78719000Y21055436D01*
%TO.C,U1*%
X72029000Y17272000D02*
X72029000Y19222000D01*
X72029000Y17272000D02*
X72029000Y15322000D01*
X66909000Y17272000D02*
X66909000Y19222000D01*
X66909000Y17272000D02*
X66909000Y13822000D01*
%TO.C,Q2*%
X86672000Y30569000D02*
X70532000Y30569000D01*
X86672000Y35840000D02*
X70532000Y35840000D01*
X86672000Y30569000D02*
X86672000Y35840000D01*
X70532000Y30569000D02*
X70532000Y35840000D01*
X80406000Y30569000D02*
X80406000Y35840000D01*
X76797000Y30569000D02*
X76797000Y35840000D01*
%TO.C,Q1*%
X67114000Y30569000D02*
X50974000Y30569000D01*
X67114000Y35840000D02*
X50974000Y35840000D01*
X67114000Y30569000D02*
X67114000Y35840000D01*
X50974000Y30569000D02*
X50974000Y35840000D01*
X60848000Y30569000D02*
X60848000Y35840000D01*
X57239000Y30569000D02*
X57239000Y35840000D01*
%TO.C,PS1*%
X10986000Y16450000D02*
X10986000Y14450000D01*
X57186000Y26750000D02*
X57186000Y1150000D01*
X11286000Y26750000D02*
X57186000Y26750000D01*
X11286000Y1150000D02*
X57186000Y1150000D01*
X11286000Y26750000D02*
X11286000Y1150000D01*
%TO.C,J4*%
X94428000Y4632000D02*
X94428000Y1972000D01*
X102108000Y4632000D02*
X94428000Y4632000D01*
X102108000Y1972000D02*
X94428000Y1972000D01*
X102108000Y4632000D02*
X102108000Y1972000D01*
X103378000Y4632000D02*
X104708000Y4632000D01*
X104708000Y4632000D02*
X104708000Y3302000D01*
%TO.C,J1*%
X90484000Y1972000D02*
X90484000Y4632000D01*
X77724000Y1972000D02*
X90484000Y1972000D01*
X77724000Y4632000D02*
X90484000Y4632000D01*
X77724000Y1972000D02*
X77724000Y4632000D01*
X76454000Y1972000D02*
X75124000Y1972000D01*
X75124000Y1972000D02*
X75124000Y3302000D01*
D11*
%TO.C,F1*%
X4318000Y37360000D02*
X4318000Y38040000D01*
X4318000Y3940000D02*
X4318000Y4720000D01*
D10*
X818000Y4720000D02*
X818000Y37360000D01*
X818000Y4720000D02*
X7818000Y4720000D01*
X7818000Y37360000D02*
X818000Y37360000D01*
X7818000Y4720000D02*
X7818000Y37360000D01*
%TO.C,D4*%
X15142000Y36120000D02*
X16442000Y36120000D01*
X15142000Y34720000D02*
X15142000Y36120000D01*
X19392000Y30120000D02*
X19392000Y31520000D01*
X19392000Y35920000D02*
X19392000Y34520000D01*
X15342000Y35920000D02*
X47542000Y35920000D01*
X15342000Y30120000D02*
X15342000Y35920000D01*
X47542000Y30120000D02*
X15342000Y30120000D01*
X47542000Y35920000D02*
X47542000Y30120000D01*
%TO.C,D3*%
X82693000Y19466000D02*
X84693000Y19466000D01*
X84693000Y19466000D02*
X84693000Y23366000D01*
X82693000Y19466000D02*
X82693000Y23366000D01*
%TO.C,D2*%
X67834000Y22768000D02*
X69834000Y22768000D01*
X69834000Y22768000D02*
X69834000Y26668000D01*
X67834000Y22768000D02*
X67834000Y26668000D01*
%TO.C,D1*%
X64735000Y10938000D02*
X64735000Y12938000D01*
X64735000Y12938000D02*
X60835000Y12938000D01*
X64735000Y10938000D02*
X60835000Y10938000D01*
%TO.C,C13*%
X127642000Y54530000D02*
G75*
G03*
X127642000Y54530000I-15120000J0D01*
G01*
X97441000Y54530000D02*
X127603000Y54530000D01*
X97442000Y54570000D02*
X127602000Y54570000D01*
X97442000Y54610000D02*
X127602000Y54610000D01*
X97442000Y54650000D02*
X127602000Y54650000D01*
X97442000Y54690000D02*
X127602000Y54690000D01*
X97443000Y54730000D02*
X127601000Y54730000D01*
X97443000Y54770000D02*
X127601000Y54770000D01*
X97444000Y54810000D02*
X127600000Y54810000D01*
X97445000Y54850000D02*
X127599000Y54850000D01*
X97446000Y54890000D02*
X127598000Y54890000D01*
X97447000Y54930000D02*
X127597000Y54930000D01*
X97448000Y54970000D02*
X127596000Y54970000D01*
X97449000Y55010000D02*
X127595000Y55010000D01*
X97450000Y55050000D02*
X127594000Y55050000D01*
X97452000Y55090000D02*
X127592000Y55090000D01*
X97453000Y55130000D02*
X127591000Y55130000D01*
X97455000Y55170000D02*
X127589000Y55170000D01*
X97457000Y55210000D02*
X127587000Y55210000D01*
X97459000Y55251000D02*
X127585000Y55251000D01*
X97461000Y55291000D02*
X127583000Y55291000D01*
X97463000Y55331000D02*
X127581000Y55331000D01*
X97465000Y55371000D02*
X127579000Y55371000D01*
X97467000Y55411000D02*
X127577000Y55411000D01*
X97470000Y55451000D02*
X127574000Y55451000D01*
X97472000Y55491000D02*
X127572000Y55491000D01*
X97475000Y55531000D02*
X127569000Y55531000D01*
X97477000Y55571000D02*
X127567000Y55571000D01*
X97480000Y55611000D02*
X127564000Y55611000D01*
X97483000Y55651000D02*
X127561000Y55651000D01*
X97486000Y55691000D02*
X127558000Y55691000D01*
X97489000Y55731000D02*
X127555000Y55731000D01*
X97492000Y55771000D02*
X127552000Y55771000D01*
X97496000Y55811000D02*
X127548000Y55811000D01*
X97499000Y55851000D02*
X127545000Y55851000D01*
X97503000Y55891000D02*
X127541000Y55891000D01*
X97506000Y55931000D02*
X127538000Y55931000D01*
X97510000Y55971000D02*
X127534000Y55971000D01*
X97514000Y56011000D02*
X127530000Y56011000D01*
X97518000Y56051000D02*
X127526000Y56051000D01*
X97522000Y56091000D02*
X127522000Y56091000D01*
X97526000Y56131000D02*
X127518000Y56131000D01*
X97531000Y56171000D02*
X127513000Y56171000D01*
X97535000Y56211000D02*
X127509000Y56211000D01*
X97540000Y56251000D02*
X127504000Y56251000D01*
X97544000Y56291000D02*
X127500000Y56291000D01*
X97549000Y56331000D02*
X127495000Y56331000D01*
X97554000Y56371000D02*
X127490000Y56371000D01*
X97559000Y56411000D02*
X127485000Y56411000D01*
X97564000Y56451000D02*
X127480000Y56451000D01*
X97569000Y56491000D02*
X127475000Y56491000D01*
X97574000Y56531000D02*
X127470000Y56531000D01*
X97580000Y56571000D02*
X127464000Y56571000D01*
X97585000Y56611000D02*
X127459000Y56611000D01*
X97591000Y56651000D02*
X127453000Y56651000D01*
X97597000Y56691000D02*
X127447000Y56691000D01*
X97602000Y56731000D02*
X127442000Y56731000D01*
X97608000Y56771000D02*
X127436000Y56771000D01*
X97614000Y56811000D02*
X127430000Y56811000D01*
X97621000Y56851000D02*
X127423000Y56851000D01*
X97627000Y56891000D02*
X127417000Y56891000D01*
X97633000Y56931000D02*
X127411000Y56931000D01*
X97640000Y56971000D02*
X127404000Y56971000D01*
X97646000Y57011000D02*
X127398000Y57011000D01*
X97653000Y57051000D02*
X127391000Y57051000D01*
X97660000Y57091000D02*
X127384000Y57091000D01*
X97667000Y57131000D02*
X127377000Y57131000D01*
X97674000Y57171000D02*
X127370000Y57171000D01*
X97681000Y57211000D02*
X127363000Y57211000D01*
X97688000Y57251000D02*
X127356000Y57251000D01*
X97696000Y57291000D02*
X110282000Y57291000D01*
X114762000Y57291000D02*
X127348000Y57291000D01*
X97703000Y57331000D02*
X110282000Y57331000D01*
X114762000Y57331000D02*
X127341000Y57331000D01*
X97711000Y57371000D02*
X110282000Y57371000D01*
X114762000Y57371000D02*
X127333000Y57371000D01*
X97718000Y57411000D02*
X110282000Y57411000D01*
X114762000Y57411000D02*
X127326000Y57411000D01*
X97726000Y57451000D02*
X110282000Y57451000D01*
X114762000Y57451000D02*
X127318000Y57451000D01*
X97734000Y57491000D02*
X110282000Y57491000D01*
X114762000Y57491000D02*
X127310000Y57491000D01*
X97742000Y57531000D02*
X110282000Y57531000D01*
X114762000Y57531000D02*
X127302000Y57531000D01*
X97750000Y57571000D02*
X110282000Y57571000D01*
X114762000Y57571000D02*
X127294000Y57571000D01*
X97759000Y57611000D02*
X110282000Y57611000D01*
X114762000Y57611000D02*
X127285000Y57611000D01*
X97767000Y57651000D02*
X110282000Y57651000D01*
X114762000Y57651000D02*
X127277000Y57651000D01*
X97775000Y57691000D02*
X110282000Y57691000D01*
X114762000Y57691000D02*
X127269000Y57691000D01*
X97784000Y57731000D02*
X110282000Y57731000D01*
X114762000Y57731000D02*
X127260000Y57731000D01*
X97793000Y57771000D02*
X110282000Y57771000D01*
X114762000Y57771000D02*
X127251000Y57771000D01*
X97802000Y57811000D02*
X110282000Y57811000D01*
X114762000Y57811000D02*
X127242000Y57811000D01*
X97811000Y57851000D02*
X110282000Y57851000D01*
X114762000Y57851000D02*
X127233000Y57851000D01*
X97820000Y57891000D02*
X110282000Y57891000D01*
X114762000Y57891000D02*
X127224000Y57891000D01*
X97829000Y57931000D02*
X110282000Y57931000D01*
X114762000Y57931000D02*
X127215000Y57931000D01*
X97838000Y57971000D02*
X110282000Y57971000D01*
X114762000Y57971000D02*
X127206000Y57971000D01*
X97847000Y58011000D02*
X110282000Y58011000D01*
X114762000Y58011000D02*
X127197000Y58011000D01*
X97857000Y58051000D02*
X110282000Y58051000D01*
X114762000Y58051000D02*
X127187000Y58051000D01*
X97867000Y58091000D02*
X110282000Y58091000D01*
X114762000Y58091000D02*
X127177000Y58091000D01*
X97876000Y58131000D02*
X110282000Y58131000D01*
X114762000Y58131000D02*
X127168000Y58131000D01*
X97886000Y58171000D02*
X110282000Y58171000D01*
X114762000Y58171000D02*
X127158000Y58171000D01*
X97896000Y58211000D02*
X110282000Y58211000D01*
X114762000Y58211000D02*
X127148000Y58211000D01*
X97906000Y58251000D02*
X110282000Y58251000D01*
X114762000Y58251000D02*
X127138000Y58251000D01*
X97916000Y58291000D02*
X110282000Y58291000D01*
X114762000Y58291000D02*
X127128000Y58291000D01*
X97927000Y58331000D02*
X110282000Y58331000D01*
X114762000Y58331000D02*
X127117000Y58331000D01*
X97937000Y58371000D02*
X110282000Y58371000D01*
X114762000Y58371000D02*
X127107000Y58371000D01*
X97948000Y58411000D02*
X110282000Y58411000D01*
X114762000Y58411000D02*
X127096000Y58411000D01*
X97958000Y58451000D02*
X110282000Y58451000D01*
X114762000Y58451000D02*
X127086000Y58451000D01*
X97969000Y58491000D02*
X110282000Y58491000D01*
X114762000Y58491000D02*
X127075000Y58491000D01*
X97980000Y58531000D02*
X110282000Y58531000D01*
X114762000Y58531000D02*
X127064000Y58531000D01*
X97991000Y58571000D02*
X110282000Y58571000D01*
X114762000Y58571000D02*
X127053000Y58571000D01*
X98002000Y58611000D02*
X110282000Y58611000D01*
X114762000Y58611000D02*
X127042000Y58611000D01*
X98014000Y58651000D02*
X110282000Y58651000D01*
X114762000Y58651000D02*
X127030000Y58651000D01*
X98025000Y58691000D02*
X110282000Y58691000D01*
X114762000Y58691000D02*
X127019000Y58691000D01*
X98037000Y58731000D02*
X110282000Y58731000D01*
X114762000Y58731000D02*
X127007000Y58731000D01*
X98048000Y58771000D02*
X110282000Y58771000D01*
X114762000Y58771000D02*
X126996000Y58771000D01*
X98060000Y58811000D02*
X110282000Y58811000D01*
X114762000Y58811000D02*
X126984000Y58811000D01*
X98072000Y58851000D02*
X110282000Y58851000D01*
X114762000Y58851000D02*
X126972000Y58851000D01*
X98084000Y58891000D02*
X110282000Y58891000D01*
X114762000Y58891000D02*
X126960000Y58891000D01*
X98096000Y58931000D02*
X110282000Y58931000D01*
X114762000Y58931000D02*
X126948000Y58931000D01*
X98108000Y58971000D02*
X110282000Y58971000D01*
X114762000Y58971000D02*
X126936000Y58971000D01*
X98120000Y59011000D02*
X110282000Y59011000D01*
X114762000Y59011000D02*
X126924000Y59011000D01*
X98133000Y59051000D02*
X110282000Y59051000D01*
X114762000Y59051000D02*
X126911000Y59051000D01*
X98146000Y59091000D02*
X110282000Y59091000D01*
X114762000Y59091000D02*
X126898000Y59091000D01*
X98158000Y59131000D02*
X110282000Y59131000D01*
X114762000Y59131000D02*
X126886000Y59131000D01*
X98171000Y59171000D02*
X110282000Y59171000D01*
X114762000Y59171000D02*
X126873000Y59171000D01*
X98184000Y59211000D02*
X110282000Y59211000D01*
X114762000Y59211000D02*
X126860000Y59211000D01*
X98197000Y59251000D02*
X110282000Y59251000D01*
X114762000Y59251000D02*
X126847000Y59251000D01*
X98210000Y59291000D02*
X110282000Y59291000D01*
X114762000Y59291000D02*
X126834000Y59291000D01*
X98224000Y59331000D02*
X110282000Y59331000D01*
X114762000Y59331000D02*
X126820000Y59331000D01*
X98237000Y59371000D02*
X110282000Y59371000D01*
X114762000Y59371000D02*
X126807000Y59371000D01*
X98251000Y59411000D02*
X110282000Y59411000D01*
X114762000Y59411000D02*
X126793000Y59411000D01*
X98264000Y59451000D02*
X110282000Y59451000D01*
X114762000Y59451000D02*
X126780000Y59451000D01*
X98278000Y59491000D02*
X110282000Y59491000D01*
X114762000Y59491000D02*
X126766000Y59491000D01*
X98292000Y59531000D02*
X110282000Y59531000D01*
X114762000Y59531000D02*
X126752000Y59531000D01*
X98306000Y59571000D02*
X110282000Y59571000D01*
X114762000Y59571000D02*
X126738000Y59571000D01*
X98320000Y59611000D02*
X110282000Y59611000D01*
X114762000Y59611000D02*
X126724000Y59611000D01*
X98335000Y59651000D02*
X110282000Y59651000D01*
X114762000Y59651000D02*
X126709000Y59651000D01*
X98349000Y59691000D02*
X110282000Y59691000D01*
X114762000Y59691000D02*
X126695000Y59691000D01*
X98364000Y59731000D02*
X110282000Y59731000D01*
X114762000Y59731000D02*
X126680000Y59731000D01*
X98379000Y59771000D02*
X110282000Y59771000D01*
X114762000Y59771000D02*
X126665000Y59771000D01*
X98393000Y59811000D02*
X110282000Y59811000D01*
X114762000Y59811000D02*
X126651000Y59811000D01*
X98408000Y59851000D02*
X110282000Y59851000D01*
X114762000Y59851000D02*
X126636000Y59851000D01*
X98423000Y59891000D02*
X110282000Y59891000D01*
X114762000Y59891000D02*
X126621000Y59891000D01*
X98439000Y59931000D02*
X110282000Y59931000D01*
X114762000Y59931000D02*
X126605000Y59931000D01*
X98454000Y59971000D02*
X110282000Y59971000D01*
X114762000Y59971000D02*
X126590000Y59971000D01*
X98470000Y60011000D02*
X110282000Y60011000D01*
X114762000Y60011000D02*
X126574000Y60011000D01*
X98485000Y60051000D02*
X110282000Y60051000D01*
X114762000Y60051000D02*
X126559000Y60051000D01*
X98501000Y60091000D02*
X110282000Y60091000D01*
X114762000Y60091000D02*
X126543000Y60091000D01*
X98517000Y60131000D02*
X110282000Y60131000D01*
X114762000Y60131000D02*
X126527000Y60131000D01*
X98533000Y60171000D02*
X110282000Y60171000D01*
X114762000Y60171000D02*
X126511000Y60171000D01*
X98549000Y60211000D02*
X110282000Y60211000D01*
X114762000Y60211000D02*
X126495000Y60211000D01*
X98565000Y60251000D02*
X110282000Y60251000D01*
X114762000Y60251000D02*
X126479000Y60251000D01*
X98582000Y60291000D02*
X110282000Y60291000D01*
X114762000Y60291000D02*
X126462000Y60291000D01*
X98598000Y60331000D02*
X110282000Y60331000D01*
X114762000Y60331000D02*
X126446000Y60331000D01*
X98615000Y60371000D02*
X110282000Y60371000D01*
X114762000Y60371000D02*
X126429000Y60371000D01*
X98632000Y60411000D02*
X110282000Y60411000D01*
X114762000Y60411000D02*
X126412000Y60411000D01*
X98649000Y60451000D02*
X110282000Y60451000D01*
X114762000Y60451000D02*
X126395000Y60451000D01*
X98666000Y60491000D02*
X110282000Y60491000D01*
X114762000Y60491000D02*
X126378000Y60491000D01*
X98683000Y60531000D02*
X110282000Y60531000D01*
X114762000Y60531000D02*
X126361000Y60531000D01*
X98700000Y60571000D02*
X110282000Y60571000D01*
X114762000Y60571000D02*
X126344000Y60571000D01*
X98718000Y60611000D02*
X110282000Y60611000D01*
X114762000Y60611000D02*
X126326000Y60611000D01*
X98735000Y60651000D02*
X110282000Y60651000D01*
X114762000Y60651000D02*
X126309000Y60651000D01*
X98753000Y60691000D02*
X110282000Y60691000D01*
X114762000Y60691000D02*
X126291000Y60691000D01*
X98771000Y60731000D02*
X110282000Y60731000D01*
X114762000Y60731000D02*
X126273000Y60731000D01*
X98789000Y60771000D02*
X110282000Y60771000D01*
X114762000Y60771000D02*
X126255000Y60771000D01*
X98807000Y60811000D02*
X110282000Y60811000D01*
X114762000Y60811000D02*
X126237000Y60811000D01*
X98826000Y60851000D02*
X110282000Y60851000D01*
X114762000Y60851000D02*
X126218000Y60851000D01*
X98844000Y60891000D02*
X110282000Y60891000D01*
X114762000Y60891000D02*
X126200000Y60891000D01*
X98863000Y60931000D02*
X110282000Y60931000D01*
X114762000Y60931000D02*
X126181000Y60931000D01*
X98882000Y60971000D02*
X110282000Y60971000D01*
X114762000Y60971000D02*
X126162000Y60971000D01*
X98900000Y61011000D02*
X110282000Y61011000D01*
X114762000Y61011000D02*
X126144000Y61011000D01*
X98920000Y61051000D02*
X110282000Y61051000D01*
X114762000Y61051000D02*
X126124000Y61051000D01*
X98939000Y61091000D02*
X110282000Y61091000D01*
X114762000Y61091000D02*
X126105000Y61091000D01*
X98958000Y61131000D02*
X110282000Y61131000D01*
X114762000Y61131000D02*
X126086000Y61131000D01*
X98978000Y61171000D02*
X110282000Y61171000D01*
X114762000Y61171000D02*
X126066000Y61171000D01*
X98997000Y61211000D02*
X110282000Y61211000D01*
X114762000Y61211000D02*
X126047000Y61211000D01*
X99017000Y61251000D02*
X110282000Y61251000D01*
X114762000Y61251000D02*
X126027000Y61251000D01*
X99037000Y61291000D02*
X110282000Y61291000D01*
X114762000Y61291000D02*
X126007000Y61291000D01*
X99057000Y61331000D02*
X110282000Y61331000D01*
X114762000Y61331000D02*
X125987000Y61331000D01*
X99077000Y61371000D02*
X110282000Y61371000D01*
X114762000Y61371000D02*
X125967000Y61371000D01*
X99097000Y61411000D02*
X110282000Y61411000D01*
X114762000Y61411000D02*
X125947000Y61411000D01*
X99118000Y61451000D02*
X110282000Y61451000D01*
X114762000Y61451000D02*
X125926000Y61451000D01*
X99139000Y61491000D02*
X110282000Y61491000D01*
X114762000Y61491000D02*
X125905000Y61491000D01*
X99159000Y61531000D02*
X110282000Y61531000D01*
X114762000Y61531000D02*
X125885000Y61531000D01*
X99180000Y61571000D02*
X110282000Y61571000D01*
X114762000Y61571000D02*
X125864000Y61571000D01*
X99202000Y61611000D02*
X110282000Y61611000D01*
X114762000Y61611000D02*
X125842000Y61611000D01*
X99223000Y61651000D02*
X110282000Y61651000D01*
X114762000Y61651000D02*
X125821000Y61651000D01*
X99244000Y61691000D02*
X110282000Y61691000D01*
X114762000Y61691000D02*
X125800000Y61691000D01*
X99266000Y61731000D02*
X110282000Y61731000D01*
X114762000Y61731000D02*
X125778000Y61731000D01*
X99288000Y61771000D02*
X125756000Y61771000D01*
X99309000Y61811000D02*
X125735000Y61811000D01*
X99332000Y61851000D02*
X125712000Y61851000D01*
X99354000Y61891000D02*
X125690000Y61891000D01*
X99376000Y61931000D02*
X125668000Y61931000D01*
X99399000Y61971000D02*
X125645000Y61971000D01*
X99421000Y62011000D02*
X125623000Y62011000D01*
X99444000Y62051000D02*
X125600000Y62051000D01*
X99467000Y62091000D02*
X125577000Y62091000D01*
X99490000Y62131000D02*
X125554000Y62131000D01*
X99514000Y62171000D02*
X125530000Y62171000D01*
X99537000Y62211000D02*
X125507000Y62211000D01*
X99561000Y62251000D02*
X125483000Y62251000D01*
X99585000Y62291000D02*
X125459000Y62291000D01*
X99609000Y62331000D02*
X125435000Y62331000D01*
X99633000Y62371000D02*
X125411000Y62371000D01*
X99657000Y62411000D02*
X125387000Y62411000D01*
X99682000Y62451000D02*
X125362000Y62451000D01*
X99706000Y62491000D02*
X125338000Y62491000D01*
X99731000Y62531000D02*
X125313000Y62531000D01*
X99756000Y62571000D02*
X125288000Y62571000D01*
X99782000Y62611000D02*
X125262000Y62611000D01*
X99807000Y62651000D02*
X125237000Y62651000D01*
X99832000Y62691000D02*
X125212000Y62691000D01*
X99858000Y62730000D02*
X125186000Y62730000D01*
X99884000Y62770000D02*
X125160000Y62770000D01*
X99910000Y62810000D02*
X125134000Y62810000D01*
X99936000Y62850000D02*
X125108000Y62850000D01*
X99963000Y62890000D02*
X125081000Y62890000D01*
X99990000Y62930000D02*
X125054000Y62930000D01*
X100016000Y62970000D02*
X125028000Y62970000D01*
X100043000Y63010000D02*
X125001000Y63010000D01*
X100071000Y63050000D02*
X124973000Y63050000D01*
X100098000Y63090000D02*
X124946000Y63090000D01*
X100125000Y63130000D02*
X124919000Y63130000D01*
X100153000Y63170000D02*
X124891000Y63170000D01*
X100181000Y63210000D02*
X124863000Y63210000D01*
X100209000Y63250000D02*
X124835000Y63250000D01*
X100238000Y63290000D02*
X124806000Y63290000D01*
X100266000Y63330000D02*
X124778000Y63330000D01*
X100295000Y63370000D02*
X124749000Y63370000D01*
X100324000Y63410000D02*
X124720000Y63410000D01*
X100353000Y63450000D02*
X124691000Y63450000D01*
X100382000Y63490000D02*
X124662000Y63490000D01*
X100412000Y63530000D02*
X124632000Y63530000D01*
X100442000Y63570000D02*
X124602000Y63570000D01*
X100472000Y63610000D02*
X124572000Y63610000D01*
X100502000Y63650000D02*
X124542000Y63650000D01*
X100532000Y63690000D02*
X124512000Y63690000D01*
X100563000Y63730000D02*
X124481000Y63730000D01*
X100593000Y63770000D02*
X124451000Y63770000D01*
X100624000Y63810000D02*
X124420000Y63810000D01*
X100656000Y63850000D02*
X124388000Y63850000D01*
X100687000Y63890000D02*
X124357000Y63890000D01*
X100719000Y63930000D02*
X124325000Y63930000D01*
X100750000Y63970000D02*
X124294000Y63970000D01*
X100783000Y64010000D02*
X124261000Y64010000D01*
X100815000Y64050000D02*
X124229000Y64050000D01*
X100847000Y64090000D02*
X124197000Y64090000D01*
X100880000Y64130000D02*
X124164000Y64130000D01*
X100913000Y64170000D02*
X124131000Y64170000D01*
X100946000Y64210000D02*
X124098000Y64210000D01*
X100980000Y64250000D02*
X124064000Y64250000D01*
X101013000Y64290000D02*
X124031000Y64290000D01*
X101047000Y64330000D02*
X123997000Y64330000D01*
X101082000Y64370000D02*
X123962000Y64370000D01*
X101116000Y64410000D02*
X123928000Y64410000D01*
X101151000Y64450000D02*
X123893000Y64450000D01*
X101186000Y64490000D02*
X123858000Y64490000D01*
X101221000Y64530000D02*
X123823000Y64530000D01*
X101256000Y64570000D02*
X123788000Y64570000D01*
X101292000Y64610000D02*
X123752000Y64610000D01*
X101328000Y64650000D02*
X123716000Y64650000D01*
X101364000Y64690000D02*
X123680000Y64690000D01*
X101400000Y64730000D02*
X123644000Y64730000D01*
X101437000Y64770000D02*
X123607000Y64770000D01*
X101474000Y64810000D02*
X123570000Y64810000D01*
X101511000Y64850000D02*
X123533000Y64850000D01*
X101549000Y64890000D02*
X123495000Y64890000D01*
X101586000Y64930000D02*
X123458000Y64930000D01*
X101624000Y64970000D02*
X123420000Y64970000D01*
X101663000Y65010000D02*
X123381000Y65010000D01*
X101701000Y65050000D02*
X123343000Y65050000D01*
X101740000Y65090000D02*
X123304000Y65090000D01*
X101779000Y65130000D02*
X123265000Y65130000D01*
X101819000Y65170000D02*
X123225000Y65170000D01*
X101859000Y65210000D02*
X123185000Y65210000D01*
X101899000Y65250000D02*
X123145000Y65250000D01*
X101939000Y65290000D02*
X123105000Y65290000D01*
X101980000Y65330000D02*
X123064000Y65330000D01*
X102021000Y65370000D02*
X123023000Y65370000D01*
X102062000Y65410000D02*
X122982000Y65410000D01*
X102104000Y65450000D02*
X122940000Y65450000D01*
X102146000Y65490000D02*
X122898000Y65490000D01*
X102188000Y65530000D02*
X122856000Y65530000D01*
X102230000Y65570000D02*
X122814000Y65570000D01*
X102273000Y65610000D02*
X122771000Y65610000D01*
X102317000Y65650000D02*
X122727000Y65650000D01*
X102360000Y65690000D02*
X122684000Y65690000D01*
X102404000Y65730000D02*
X122640000Y65730000D01*
X102448000Y65770000D02*
X122596000Y65770000D01*
X102493000Y65810000D02*
X122551000Y65810000D01*
X102538000Y65850000D02*
X122506000Y65850000D01*
X102583000Y65890000D02*
X122461000Y65890000D01*
X102629000Y65930000D02*
X122415000Y65930000D01*
X102675000Y65970000D02*
X122369000Y65970000D01*
X102722000Y66010000D02*
X122322000Y66010000D01*
X102768000Y66050000D02*
X122276000Y66050000D01*
X102816000Y66090000D02*
X122228000Y66090000D01*
X102863000Y66130000D02*
X122181000Y66130000D01*
X102911000Y66170000D02*
X122133000Y66170000D01*
X102960000Y66210000D02*
X122084000Y66210000D01*
X103009000Y66250000D02*
X122035000Y66250000D01*
X103058000Y66290000D02*
X121986000Y66290000D01*
X103108000Y66330000D02*
X121936000Y66330000D01*
X103158000Y66370000D02*
X121886000Y66370000D01*
X103208000Y66410000D02*
X121836000Y66410000D01*
X103259000Y66450000D02*
X121785000Y66450000D01*
X103311000Y66490000D02*
X121733000Y66490000D01*
X103363000Y66530000D02*
X121681000Y66530000D01*
X103415000Y66570000D02*
X121629000Y66570000D01*
X103468000Y66610000D02*
X121576000Y66610000D01*
X103522000Y66650000D02*
X121522000Y66650000D01*
X103575000Y66690000D02*
X121469000Y66690000D01*
X103630000Y66730000D02*
X121414000Y66730000D01*
X103685000Y66770000D02*
X121359000Y66770000D01*
X103740000Y66810000D02*
X121304000Y66810000D01*
X103796000Y66850000D02*
X121248000Y66850000D01*
X103853000Y66890000D02*
X121191000Y66890000D01*
X103910000Y66930000D02*
X121134000Y66930000D01*
X103967000Y66970000D02*
X121077000Y66970000D01*
X104025000Y67010000D02*
X121019000Y67010000D01*
X104084000Y67050000D02*
X120960000Y67050000D01*
X104144000Y67090000D02*
X120900000Y67090000D01*
X104204000Y67130000D02*
X120840000Y67130000D01*
X104264000Y67170000D02*
X120780000Y67170000D01*
X104325000Y67210000D02*
X120719000Y67210000D01*
X104387000Y67250000D02*
X120657000Y67250000D01*
X104450000Y67290000D02*
X120594000Y67290000D01*
X104513000Y67330000D02*
X120531000Y67330000D01*
X104577000Y67370000D02*
X120467000Y67370000D01*
X104642000Y67410000D02*
X120402000Y67410000D01*
X104707000Y67450000D02*
X120337000Y67450000D01*
X104774000Y67490000D02*
X120270000Y67490000D01*
X104840000Y67530000D02*
X120204000Y67530000D01*
X104908000Y67570000D02*
X120136000Y67570000D01*
X104977000Y67610000D02*
X120067000Y67610000D01*
X105046000Y67650000D02*
X119998000Y67650000D01*
X105116000Y67690000D02*
X119928000Y67690000D01*
X105188000Y67730000D02*
X119856000Y67730000D01*
X105260000Y67770000D02*
X119784000Y67770000D01*
X105333000Y67810000D02*
X119711000Y67810000D01*
X105407000Y67850000D02*
X119637000Y67850000D01*
X105482000Y67890000D02*
X119562000Y67890000D01*
X105558000Y67930000D02*
X119486000Y67930000D01*
X105635000Y67970000D02*
X119409000Y67970000D01*
X105713000Y68010000D02*
X119331000Y68010000D01*
X105792000Y68050000D02*
X119252000Y68050000D01*
X105873000Y68090000D02*
X119171000Y68090000D01*
X105954000Y68130000D02*
X119090000Y68130000D01*
X106037000Y68170000D02*
X119007000Y68170000D01*
X106122000Y68210000D02*
X118922000Y68210000D01*
X106207000Y68250000D02*
X118837000Y68250000D01*
X106294000Y68290000D02*
X118750000Y68290000D01*
X106383000Y68330000D02*
X118661000Y68330000D01*
X106473000Y68370000D02*
X118571000Y68370000D01*
X106565000Y68410000D02*
X118479000Y68410000D01*
X106658000Y68450000D02*
X118386000Y68450000D01*
X106754000Y68490000D02*
X118290000Y68490000D01*
X106851000Y68530000D02*
X118193000Y68530000D01*
X106950000Y68570000D02*
X118094000Y68570000D01*
X107051000Y68610000D02*
X117993000Y68610000D01*
X107154000Y68650000D02*
X117890000Y68650000D01*
X107260000Y68690000D02*
X117784000Y68690000D01*
X107368000Y68730000D02*
X117676000Y68730000D01*
X107479000Y68770000D02*
X117565000Y68770000D01*
X107592000Y68810000D02*
X117452000Y68810000D01*
X107708000Y68850000D02*
X117336000Y68850000D01*
X107828000Y68890000D02*
X117216000Y68890000D01*
X107951000Y68930000D02*
X117093000Y68930000D01*
X108078000Y68970000D02*
X116966000Y68970000D01*
X108209000Y69010000D02*
X116835000Y69010000D01*
X108344000Y69050000D02*
X116700000Y69050000D01*
X108485000Y69090000D02*
X116559000Y69090000D01*
X108630000Y69130000D02*
X116414000Y69130000D01*
X108782000Y69170000D02*
X116262000Y69170000D01*
X108940000Y69210000D02*
X116104000Y69210000D01*
X109107000Y69250000D02*
X115937000Y69250000D01*
X109282000Y69290000D02*
X115762000Y69290000D01*
X109467000Y69330000D02*
X115577000Y69330000D01*
X109665000Y69370000D02*
X115379000Y69370000D01*
X109878000Y69410000D02*
X115166000Y69410000D01*
X110110000Y69450000D02*
X114934000Y69450000D01*
X110368000Y69490000D02*
X114676000Y69490000D01*
X110660000Y69530000D02*
X114384000Y69530000D01*
X111008000Y69570000D02*
X114036000Y69570000D01*
X111462000Y69610000D02*
X113582000Y69610000D01*
X112482000Y69650000D02*
X112562000Y69650000D01*
X104047000Y38350869D02*
X104047000Y41350869D01*
X102547000Y39850869D02*
X105547000Y39850869D01*
%TO.C,C11*%
X94114000Y54530000D02*
G75*
G03*
X94114000Y54530000I-15120000J0D01*
G01*
X63913000Y54530000D02*
X94075000Y54530000D01*
X63914000Y54570000D02*
X94074000Y54570000D01*
X63914000Y54610000D02*
X94074000Y54610000D01*
X63914000Y54650000D02*
X94074000Y54650000D01*
X63914000Y54690000D02*
X94074000Y54690000D01*
X63915000Y54730000D02*
X94073000Y54730000D01*
X63915000Y54770000D02*
X94073000Y54770000D01*
X63916000Y54810000D02*
X94072000Y54810000D01*
X63917000Y54850000D02*
X94071000Y54850000D01*
X63918000Y54890000D02*
X94070000Y54890000D01*
X63919000Y54930000D02*
X94069000Y54930000D01*
X63920000Y54970000D02*
X94068000Y54970000D01*
X63921000Y55010000D02*
X94067000Y55010000D01*
X63922000Y55050000D02*
X94066000Y55050000D01*
X63924000Y55090000D02*
X94064000Y55090000D01*
X63925000Y55130000D02*
X94063000Y55130000D01*
X63927000Y55170000D02*
X94061000Y55170000D01*
X63929000Y55210000D02*
X94059000Y55210000D01*
X63931000Y55251000D02*
X94057000Y55251000D01*
X63933000Y55291000D02*
X94055000Y55291000D01*
X63935000Y55331000D02*
X94053000Y55331000D01*
X63937000Y55371000D02*
X94051000Y55371000D01*
X63939000Y55411000D02*
X94049000Y55411000D01*
X63942000Y55451000D02*
X94046000Y55451000D01*
X63944000Y55491000D02*
X94044000Y55491000D01*
X63947000Y55531000D02*
X94041000Y55531000D01*
X63949000Y55571000D02*
X94039000Y55571000D01*
X63952000Y55611000D02*
X94036000Y55611000D01*
X63955000Y55651000D02*
X94033000Y55651000D01*
X63958000Y55691000D02*
X94030000Y55691000D01*
X63961000Y55731000D02*
X94027000Y55731000D01*
X63964000Y55771000D02*
X94024000Y55771000D01*
X63968000Y55811000D02*
X94020000Y55811000D01*
X63971000Y55851000D02*
X94017000Y55851000D01*
X63975000Y55891000D02*
X94013000Y55891000D01*
X63978000Y55931000D02*
X94010000Y55931000D01*
X63982000Y55971000D02*
X94006000Y55971000D01*
X63986000Y56011000D02*
X94002000Y56011000D01*
X63990000Y56051000D02*
X93998000Y56051000D01*
X63994000Y56091000D02*
X93994000Y56091000D01*
X63998000Y56131000D02*
X93990000Y56131000D01*
X64003000Y56171000D02*
X93985000Y56171000D01*
X64007000Y56211000D02*
X93981000Y56211000D01*
X64012000Y56251000D02*
X93976000Y56251000D01*
X64016000Y56291000D02*
X93972000Y56291000D01*
X64021000Y56331000D02*
X93967000Y56331000D01*
X64026000Y56371000D02*
X93962000Y56371000D01*
X64031000Y56411000D02*
X93957000Y56411000D01*
X64036000Y56451000D02*
X93952000Y56451000D01*
X64041000Y56491000D02*
X93947000Y56491000D01*
X64046000Y56531000D02*
X93942000Y56531000D01*
X64052000Y56571000D02*
X93936000Y56571000D01*
X64057000Y56611000D02*
X93931000Y56611000D01*
X64063000Y56651000D02*
X93925000Y56651000D01*
X64069000Y56691000D02*
X93919000Y56691000D01*
X64074000Y56731000D02*
X93914000Y56731000D01*
X64080000Y56771000D02*
X93908000Y56771000D01*
X64086000Y56811000D02*
X93902000Y56811000D01*
X64093000Y56851000D02*
X93895000Y56851000D01*
X64099000Y56891000D02*
X93889000Y56891000D01*
X64105000Y56931000D02*
X93883000Y56931000D01*
X64112000Y56971000D02*
X93876000Y56971000D01*
X64118000Y57011000D02*
X93870000Y57011000D01*
X64125000Y57051000D02*
X93863000Y57051000D01*
X64132000Y57091000D02*
X93856000Y57091000D01*
X64139000Y57131000D02*
X93849000Y57131000D01*
X64146000Y57171000D02*
X93842000Y57171000D01*
X64153000Y57211000D02*
X93835000Y57211000D01*
X64160000Y57251000D02*
X93828000Y57251000D01*
X64168000Y57291000D02*
X76754000Y57291000D01*
X81234000Y57291000D02*
X93820000Y57291000D01*
X64175000Y57331000D02*
X76754000Y57331000D01*
X81234000Y57331000D02*
X93813000Y57331000D01*
X64183000Y57371000D02*
X76754000Y57371000D01*
X81234000Y57371000D02*
X93805000Y57371000D01*
X64190000Y57411000D02*
X76754000Y57411000D01*
X81234000Y57411000D02*
X93798000Y57411000D01*
X64198000Y57451000D02*
X76754000Y57451000D01*
X81234000Y57451000D02*
X93790000Y57451000D01*
X64206000Y57491000D02*
X76754000Y57491000D01*
X81234000Y57491000D02*
X93782000Y57491000D01*
X64214000Y57531000D02*
X76754000Y57531000D01*
X81234000Y57531000D02*
X93774000Y57531000D01*
X64222000Y57571000D02*
X76754000Y57571000D01*
X81234000Y57571000D02*
X93766000Y57571000D01*
X64231000Y57611000D02*
X76754000Y57611000D01*
X81234000Y57611000D02*
X93757000Y57611000D01*
X64239000Y57651000D02*
X76754000Y57651000D01*
X81234000Y57651000D02*
X93749000Y57651000D01*
X64247000Y57691000D02*
X76754000Y57691000D01*
X81234000Y57691000D02*
X93741000Y57691000D01*
X64256000Y57731000D02*
X76754000Y57731000D01*
X81234000Y57731000D02*
X93732000Y57731000D01*
X64265000Y57771000D02*
X76754000Y57771000D01*
X81234000Y57771000D02*
X93723000Y57771000D01*
X64274000Y57811000D02*
X76754000Y57811000D01*
X81234000Y57811000D02*
X93714000Y57811000D01*
X64283000Y57851000D02*
X76754000Y57851000D01*
X81234000Y57851000D02*
X93705000Y57851000D01*
X64292000Y57891000D02*
X76754000Y57891000D01*
X81234000Y57891000D02*
X93696000Y57891000D01*
X64301000Y57931000D02*
X76754000Y57931000D01*
X81234000Y57931000D02*
X93687000Y57931000D01*
X64310000Y57971000D02*
X76754000Y57971000D01*
X81234000Y57971000D02*
X93678000Y57971000D01*
X64319000Y58011000D02*
X76754000Y58011000D01*
X81234000Y58011000D02*
X93669000Y58011000D01*
X64329000Y58051000D02*
X76754000Y58051000D01*
X81234000Y58051000D02*
X93659000Y58051000D01*
X64339000Y58091000D02*
X76754000Y58091000D01*
X81234000Y58091000D02*
X93649000Y58091000D01*
X64348000Y58131000D02*
X76754000Y58131000D01*
X81234000Y58131000D02*
X93640000Y58131000D01*
X64358000Y58171000D02*
X76754000Y58171000D01*
X81234000Y58171000D02*
X93630000Y58171000D01*
X64368000Y58211000D02*
X76754000Y58211000D01*
X81234000Y58211000D02*
X93620000Y58211000D01*
X64378000Y58251000D02*
X76754000Y58251000D01*
X81234000Y58251000D02*
X93610000Y58251000D01*
X64388000Y58291000D02*
X76754000Y58291000D01*
X81234000Y58291000D02*
X93600000Y58291000D01*
X64399000Y58331000D02*
X76754000Y58331000D01*
X81234000Y58331000D02*
X93589000Y58331000D01*
X64409000Y58371000D02*
X76754000Y58371000D01*
X81234000Y58371000D02*
X93579000Y58371000D01*
X64420000Y58411000D02*
X76754000Y58411000D01*
X81234000Y58411000D02*
X93568000Y58411000D01*
X64430000Y58451000D02*
X76754000Y58451000D01*
X81234000Y58451000D02*
X93558000Y58451000D01*
X64441000Y58491000D02*
X76754000Y58491000D01*
X81234000Y58491000D02*
X93547000Y58491000D01*
X64452000Y58531000D02*
X76754000Y58531000D01*
X81234000Y58531000D02*
X93536000Y58531000D01*
X64463000Y58571000D02*
X76754000Y58571000D01*
X81234000Y58571000D02*
X93525000Y58571000D01*
X64474000Y58611000D02*
X76754000Y58611000D01*
X81234000Y58611000D02*
X93514000Y58611000D01*
X64486000Y58651000D02*
X76754000Y58651000D01*
X81234000Y58651000D02*
X93502000Y58651000D01*
X64497000Y58691000D02*
X76754000Y58691000D01*
X81234000Y58691000D02*
X93491000Y58691000D01*
X64509000Y58731000D02*
X76754000Y58731000D01*
X81234000Y58731000D02*
X93479000Y58731000D01*
X64520000Y58771000D02*
X76754000Y58771000D01*
X81234000Y58771000D02*
X93468000Y58771000D01*
X64532000Y58811000D02*
X76754000Y58811000D01*
X81234000Y58811000D02*
X93456000Y58811000D01*
X64544000Y58851000D02*
X76754000Y58851000D01*
X81234000Y58851000D02*
X93444000Y58851000D01*
X64556000Y58891000D02*
X76754000Y58891000D01*
X81234000Y58891000D02*
X93432000Y58891000D01*
X64568000Y58931000D02*
X76754000Y58931000D01*
X81234000Y58931000D02*
X93420000Y58931000D01*
X64580000Y58971000D02*
X76754000Y58971000D01*
X81234000Y58971000D02*
X93408000Y58971000D01*
X64592000Y59011000D02*
X76754000Y59011000D01*
X81234000Y59011000D02*
X93396000Y59011000D01*
X64605000Y59051000D02*
X76754000Y59051000D01*
X81234000Y59051000D02*
X93383000Y59051000D01*
X64618000Y59091000D02*
X76754000Y59091000D01*
X81234000Y59091000D02*
X93370000Y59091000D01*
X64630000Y59131000D02*
X76754000Y59131000D01*
X81234000Y59131000D02*
X93358000Y59131000D01*
X64643000Y59171000D02*
X76754000Y59171000D01*
X81234000Y59171000D02*
X93345000Y59171000D01*
X64656000Y59211000D02*
X76754000Y59211000D01*
X81234000Y59211000D02*
X93332000Y59211000D01*
X64669000Y59251000D02*
X76754000Y59251000D01*
X81234000Y59251000D02*
X93319000Y59251000D01*
X64682000Y59291000D02*
X76754000Y59291000D01*
X81234000Y59291000D02*
X93306000Y59291000D01*
X64696000Y59331000D02*
X76754000Y59331000D01*
X81234000Y59331000D02*
X93292000Y59331000D01*
X64709000Y59371000D02*
X76754000Y59371000D01*
X81234000Y59371000D02*
X93279000Y59371000D01*
X64723000Y59411000D02*
X76754000Y59411000D01*
X81234000Y59411000D02*
X93265000Y59411000D01*
X64736000Y59451000D02*
X76754000Y59451000D01*
X81234000Y59451000D02*
X93252000Y59451000D01*
X64750000Y59491000D02*
X76754000Y59491000D01*
X81234000Y59491000D02*
X93238000Y59491000D01*
X64764000Y59531000D02*
X76754000Y59531000D01*
X81234000Y59531000D02*
X93224000Y59531000D01*
X64778000Y59571000D02*
X76754000Y59571000D01*
X81234000Y59571000D02*
X93210000Y59571000D01*
X64792000Y59611000D02*
X76754000Y59611000D01*
X81234000Y59611000D02*
X93196000Y59611000D01*
X64807000Y59651000D02*
X76754000Y59651000D01*
X81234000Y59651000D02*
X93181000Y59651000D01*
X64821000Y59691000D02*
X76754000Y59691000D01*
X81234000Y59691000D02*
X93167000Y59691000D01*
X64836000Y59731000D02*
X76754000Y59731000D01*
X81234000Y59731000D02*
X93152000Y59731000D01*
X64851000Y59771000D02*
X76754000Y59771000D01*
X81234000Y59771000D02*
X93137000Y59771000D01*
X64865000Y59811000D02*
X76754000Y59811000D01*
X81234000Y59811000D02*
X93123000Y59811000D01*
X64880000Y59851000D02*
X76754000Y59851000D01*
X81234000Y59851000D02*
X93108000Y59851000D01*
X64895000Y59891000D02*
X76754000Y59891000D01*
X81234000Y59891000D02*
X93093000Y59891000D01*
X64911000Y59931000D02*
X76754000Y59931000D01*
X81234000Y59931000D02*
X93077000Y59931000D01*
X64926000Y59971000D02*
X76754000Y59971000D01*
X81234000Y59971000D02*
X93062000Y59971000D01*
X64942000Y60011000D02*
X76754000Y60011000D01*
X81234000Y60011000D02*
X93046000Y60011000D01*
X64957000Y60051000D02*
X76754000Y60051000D01*
X81234000Y60051000D02*
X93031000Y60051000D01*
X64973000Y60091000D02*
X76754000Y60091000D01*
X81234000Y60091000D02*
X93015000Y60091000D01*
X64989000Y60131000D02*
X76754000Y60131000D01*
X81234000Y60131000D02*
X92999000Y60131000D01*
X65005000Y60171000D02*
X76754000Y60171000D01*
X81234000Y60171000D02*
X92983000Y60171000D01*
X65021000Y60211000D02*
X76754000Y60211000D01*
X81234000Y60211000D02*
X92967000Y60211000D01*
X65037000Y60251000D02*
X76754000Y60251000D01*
X81234000Y60251000D02*
X92951000Y60251000D01*
X65054000Y60291000D02*
X76754000Y60291000D01*
X81234000Y60291000D02*
X92934000Y60291000D01*
X65070000Y60331000D02*
X76754000Y60331000D01*
X81234000Y60331000D02*
X92918000Y60331000D01*
X65087000Y60371000D02*
X76754000Y60371000D01*
X81234000Y60371000D02*
X92901000Y60371000D01*
X65104000Y60411000D02*
X76754000Y60411000D01*
X81234000Y60411000D02*
X92884000Y60411000D01*
X65121000Y60451000D02*
X76754000Y60451000D01*
X81234000Y60451000D02*
X92867000Y60451000D01*
X65138000Y60491000D02*
X76754000Y60491000D01*
X81234000Y60491000D02*
X92850000Y60491000D01*
X65155000Y60531000D02*
X76754000Y60531000D01*
X81234000Y60531000D02*
X92833000Y60531000D01*
X65172000Y60571000D02*
X76754000Y60571000D01*
X81234000Y60571000D02*
X92816000Y60571000D01*
X65190000Y60611000D02*
X76754000Y60611000D01*
X81234000Y60611000D02*
X92798000Y60611000D01*
X65207000Y60651000D02*
X76754000Y60651000D01*
X81234000Y60651000D02*
X92781000Y60651000D01*
X65225000Y60691000D02*
X76754000Y60691000D01*
X81234000Y60691000D02*
X92763000Y60691000D01*
X65243000Y60731000D02*
X76754000Y60731000D01*
X81234000Y60731000D02*
X92745000Y60731000D01*
X65261000Y60771000D02*
X76754000Y60771000D01*
X81234000Y60771000D02*
X92727000Y60771000D01*
X65279000Y60811000D02*
X76754000Y60811000D01*
X81234000Y60811000D02*
X92709000Y60811000D01*
X65298000Y60851000D02*
X76754000Y60851000D01*
X81234000Y60851000D02*
X92690000Y60851000D01*
X65316000Y60891000D02*
X76754000Y60891000D01*
X81234000Y60891000D02*
X92672000Y60891000D01*
X65335000Y60931000D02*
X76754000Y60931000D01*
X81234000Y60931000D02*
X92653000Y60931000D01*
X65354000Y60971000D02*
X76754000Y60971000D01*
X81234000Y60971000D02*
X92634000Y60971000D01*
X65372000Y61011000D02*
X76754000Y61011000D01*
X81234000Y61011000D02*
X92616000Y61011000D01*
X65392000Y61051000D02*
X76754000Y61051000D01*
X81234000Y61051000D02*
X92596000Y61051000D01*
X65411000Y61091000D02*
X76754000Y61091000D01*
X81234000Y61091000D02*
X92577000Y61091000D01*
X65430000Y61131000D02*
X76754000Y61131000D01*
X81234000Y61131000D02*
X92558000Y61131000D01*
X65450000Y61171000D02*
X76754000Y61171000D01*
X81234000Y61171000D02*
X92538000Y61171000D01*
X65469000Y61211000D02*
X76754000Y61211000D01*
X81234000Y61211000D02*
X92519000Y61211000D01*
X65489000Y61251000D02*
X76754000Y61251000D01*
X81234000Y61251000D02*
X92499000Y61251000D01*
X65509000Y61291000D02*
X76754000Y61291000D01*
X81234000Y61291000D02*
X92479000Y61291000D01*
X65529000Y61331000D02*
X76754000Y61331000D01*
X81234000Y61331000D02*
X92459000Y61331000D01*
X65549000Y61371000D02*
X76754000Y61371000D01*
X81234000Y61371000D02*
X92439000Y61371000D01*
X65569000Y61411000D02*
X76754000Y61411000D01*
X81234000Y61411000D02*
X92419000Y61411000D01*
X65590000Y61451000D02*
X76754000Y61451000D01*
X81234000Y61451000D02*
X92398000Y61451000D01*
X65611000Y61491000D02*
X76754000Y61491000D01*
X81234000Y61491000D02*
X92377000Y61491000D01*
X65631000Y61531000D02*
X76754000Y61531000D01*
X81234000Y61531000D02*
X92357000Y61531000D01*
X65652000Y61571000D02*
X76754000Y61571000D01*
X81234000Y61571000D02*
X92336000Y61571000D01*
X65674000Y61611000D02*
X76754000Y61611000D01*
X81234000Y61611000D02*
X92314000Y61611000D01*
X65695000Y61651000D02*
X76754000Y61651000D01*
X81234000Y61651000D02*
X92293000Y61651000D01*
X65716000Y61691000D02*
X76754000Y61691000D01*
X81234000Y61691000D02*
X92272000Y61691000D01*
X65738000Y61731000D02*
X76754000Y61731000D01*
X81234000Y61731000D02*
X92250000Y61731000D01*
X65760000Y61771000D02*
X92228000Y61771000D01*
X65781000Y61811000D02*
X92207000Y61811000D01*
X65804000Y61851000D02*
X92184000Y61851000D01*
X65826000Y61891000D02*
X92162000Y61891000D01*
X65848000Y61931000D02*
X92140000Y61931000D01*
X65871000Y61971000D02*
X92117000Y61971000D01*
X65893000Y62011000D02*
X92095000Y62011000D01*
X65916000Y62051000D02*
X92072000Y62051000D01*
X65939000Y62091000D02*
X92049000Y62091000D01*
X65962000Y62131000D02*
X92026000Y62131000D01*
X65986000Y62171000D02*
X92002000Y62171000D01*
X66009000Y62211000D02*
X91979000Y62211000D01*
X66033000Y62251000D02*
X91955000Y62251000D01*
X66057000Y62291000D02*
X91931000Y62291000D01*
X66081000Y62331000D02*
X91907000Y62331000D01*
X66105000Y62371000D02*
X91883000Y62371000D01*
X66129000Y62411000D02*
X91859000Y62411000D01*
X66154000Y62451000D02*
X91834000Y62451000D01*
X66178000Y62491000D02*
X91810000Y62491000D01*
X66203000Y62531000D02*
X91785000Y62531000D01*
X66228000Y62571000D02*
X91760000Y62571000D01*
X66254000Y62611000D02*
X91734000Y62611000D01*
X66279000Y62651000D02*
X91709000Y62651000D01*
X66304000Y62691000D02*
X91684000Y62691000D01*
X66330000Y62730000D02*
X91658000Y62730000D01*
X66356000Y62770000D02*
X91632000Y62770000D01*
X66382000Y62810000D02*
X91606000Y62810000D01*
X66408000Y62850000D02*
X91580000Y62850000D01*
X66435000Y62890000D02*
X91553000Y62890000D01*
X66462000Y62930000D02*
X91526000Y62930000D01*
X66488000Y62970000D02*
X91500000Y62970000D01*
X66515000Y63010000D02*
X91473000Y63010000D01*
X66543000Y63050000D02*
X91445000Y63050000D01*
X66570000Y63090000D02*
X91418000Y63090000D01*
X66597000Y63130000D02*
X91391000Y63130000D01*
X66625000Y63170000D02*
X91363000Y63170000D01*
X66653000Y63210000D02*
X91335000Y63210000D01*
X66681000Y63250000D02*
X91307000Y63250000D01*
X66710000Y63290000D02*
X91278000Y63290000D01*
X66738000Y63330000D02*
X91250000Y63330000D01*
X66767000Y63370000D02*
X91221000Y63370000D01*
X66796000Y63410000D02*
X91192000Y63410000D01*
X66825000Y63450000D02*
X91163000Y63450000D01*
X66854000Y63490000D02*
X91134000Y63490000D01*
X66884000Y63530000D02*
X91104000Y63530000D01*
X66914000Y63570000D02*
X91074000Y63570000D01*
X66944000Y63610000D02*
X91044000Y63610000D01*
X66974000Y63650000D02*
X91014000Y63650000D01*
X67004000Y63690000D02*
X90984000Y63690000D01*
X67035000Y63730000D02*
X90953000Y63730000D01*
X67065000Y63770000D02*
X90923000Y63770000D01*
X67096000Y63810000D02*
X90892000Y63810000D01*
X67128000Y63850000D02*
X90860000Y63850000D01*
X67159000Y63890000D02*
X90829000Y63890000D01*
X67191000Y63930000D02*
X90797000Y63930000D01*
X67222000Y63970000D02*
X90766000Y63970000D01*
X67255000Y64010000D02*
X90733000Y64010000D01*
X67287000Y64050000D02*
X90701000Y64050000D01*
X67319000Y64090000D02*
X90669000Y64090000D01*
X67352000Y64130000D02*
X90636000Y64130000D01*
X67385000Y64170000D02*
X90603000Y64170000D01*
X67418000Y64210000D02*
X90570000Y64210000D01*
X67452000Y64250000D02*
X90536000Y64250000D01*
X67485000Y64290000D02*
X90503000Y64290000D01*
X67519000Y64330000D02*
X90469000Y64330000D01*
X67554000Y64370000D02*
X90434000Y64370000D01*
X67588000Y64410000D02*
X90400000Y64410000D01*
X67623000Y64450000D02*
X90365000Y64450000D01*
X67658000Y64490000D02*
X90330000Y64490000D01*
X67693000Y64530000D02*
X90295000Y64530000D01*
X67728000Y64570000D02*
X90260000Y64570000D01*
X67764000Y64610000D02*
X90224000Y64610000D01*
X67800000Y64650000D02*
X90188000Y64650000D01*
X67836000Y64690000D02*
X90152000Y64690000D01*
X67872000Y64730000D02*
X90116000Y64730000D01*
X67909000Y64770000D02*
X90079000Y64770000D01*
X67946000Y64810000D02*
X90042000Y64810000D01*
X67983000Y64850000D02*
X90005000Y64850000D01*
X68021000Y64890000D02*
X89967000Y64890000D01*
X68058000Y64930000D02*
X89930000Y64930000D01*
X68096000Y64970000D02*
X89892000Y64970000D01*
X68135000Y65010000D02*
X89853000Y65010000D01*
X68173000Y65050000D02*
X89815000Y65050000D01*
X68212000Y65090000D02*
X89776000Y65090000D01*
X68251000Y65130000D02*
X89737000Y65130000D01*
X68291000Y65170000D02*
X89697000Y65170000D01*
X68331000Y65210000D02*
X89657000Y65210000D01*
X68371000Y65250000D02*
X89617000Y65250000D01*
X68411000Y65290000D02*
X89577000Y65290000D01*
X68452000Y65330000D02*
X89536000Y65330000D01*
X68493000Y65370000D02*
X89495000Y65370000D01*
X68534000Y65410000D02*
X89454000Y65410000D01*
X68576000Y65450000D02*
X89412000Y65450000D01*
X68618000Y65490000D02*
X89370000Y65490000D01*
X68660000Y65530000D02*
X89328000Y65530000D01*
X68702000Y65570000D02*
X89286000Y65570000D01*
X68745000Y65610000D02*
X89243000Y65610000D01*
X68789000Y65650000D02*
X89199000Y65650000D01*
X68832000Y65690000D02*
X89156000Y65690000D01*
X68876000Y65730000D02*
X89112000Y65730000D01*
X68920000Y65770000D02*
X89068000Y65770000D01*
X68965000Y65810000D02*
X89023000Y65810000D01*
X69010000Y65850000D02*
X88978000Y65850000D01*
X69055000Y65890000D02*
X88933000Y65890000D01*
X69101000Y65930000D02*
X88887000Y65930000D01*
X69147000Y65970000D02*
X88841000Y65970000D01*
X69194000Y66010000D02*
X88794000Y66010000D01*
X69240000Y66050000D02*
X88748000Y66050000D01*
X69288000Y66090000D02*
X88700000Y66090000D01*
X69335000Y66130000D02*
X88653000Y66130000D01*
X69383000Y66170000D02*
X88605000Y66170000D01*
X69432000Y66210000D02*
X88556000Y66210000D01*
X69481000Y66250000D02*
X88507000Y66250000D01*
X69530000Y66290000D02*
X88458000Y66290000D01*
X69580000Y66330000D02*
X88408000Y66330000D01*
X69630000Y66370000D02*
X88358000Y66370000D01*
X69680000Y66410000D02*
X88308000Y66410000D01*
X69731000Y66450000D02*
X88257000Y66450000D01*
X69783000Y66490000D02*
X88205000Y66490000D01*
X69835000Y66530000D02*
X88153000Y66530000D01*
X69887000Y66570000D02*
X88101000Y66570000D01*
X69940000Y66610000D02*
X88048000Y66610000D01*
X69994000Y66650000D02*
X87994000Y66650000D01*
X70047000Y66690000D02*
X87941000Y66690000D01*
X70102000Y66730000D02*
X87886000Y66730000D01*
X70157000Y66770000D02*
X87831000Y66770000D01*
X70212000Y66810000D02*
X87776000Y66810000D01*
X70268000Y66850000D02*
X87720000Y66850000D01*
X70325000Y66890000D02*
X87663000Y66890000D01*
X70382000Y66930000D02*
X87606000Y66930000D01*
X70439000Y66970000D02*
X87549000Y66970000D01*
X70497000Y67010000D02*
X87491000Y67010000D01*
X70556000Y67050000D02*
X87432000Y67050000D01*
X70616000Y67090000D02*
X87372000Y67090000D01*
X70676000Y67130000D02*
X87312000Y67130000D01*
X70736000Y67170000D02*
X87252000Y67170000D01*
X70797000Y67210000D02*
X87191000Y67210000D01*
X70859000Y67250000D02*
X87129000Y67250000D01*
X70922000Y67290000D02*
X87066000Y67290000D01*
X70985000Y67330000D02*
X87003000Y67330000D01*
X71049000Y67370000D02*
X86939000Y67370000D01*
X71114000Y67410000D02*
X86874000Y67410000D01*
X71179000Y67450000D02*
X86809000Y67450000D01*
X71246000Y67490000D02*
X86742000Y67490000D01*
X71312000Y67530000D02*
X86676000Y67530000D01*
X71380000Y67570000D02*
X86608000Y67570000D01*
X71449000Y67610000D02*
X86539000Y67610000D01*
X71518000Y67650000D02*
X86470000Y67650000D01*
X71588000Y67690000D02*
X86400000Y67690000D01*
X71660000Y67730000D02*
X86328000Y67730000D01*
X71732000Y67770000D02*
X86256000Y67770000D01*
X71805000Y67810000D02*
X86183000Y67810000D01*
X71879000Y67850000D02*
X86109000Y67850000D01*
X71954000Y67890000D02*
X86034000Y67890000D01*
X72030000Y67930000D02*
X85958000Y67930000D01*
X72107000Y67970000D02*
X85881000Y67970000D01*
X72185000Y68010000D02*
X85803000Y68010000D01*
X72264000Y68050000D02*
X85724000Y68050000D01*
X72345000Y68090000D02*
X85643000Y68090000D01*
X72426000Y68130000D02*
X85562000Y68130000D01*
X72509000Y68170000D02*
X85479000Y68170000D01*
X72594000Y68210000D02*
X85394000Y68210000D01*
X72679000Y68250000D02*
X85309000Y68250000D01*
X72766000Y68290000D02*
X85222000Y68290000D01*
X72855000Y68330000D02*
X85133000Y68330000D01*
X72945000Y68370000D02*
X85043000Y68370000D01*
X73037000Y68410000D02*
X84951000Y68410000D01*
X73130000Y68450000D02*
X84858000Y68450000D01*
X73226000Y68490000D02*
X84762000Y68490000D01*
X73323000Y68530000D02*
X84665000Y68530000D01*
X73422000Y68570000D02*
X84566000Y68570000D01*
X73523000Y68610000D02*
X84465000Y68610000D01*
X73626000Y68650000D02*
X84362000Y68650000D01*
X73732000Y68690000D02*
X84256000Y68690000D01*
X73840000Y68730000D02*
X84148000Y68730000D01*
X73951000Y68770000D02*
X84037000Y68770000D01*
X74064000Y68810000D02*
X83924000Y68810000D01*
X74180000Y68850000D02*
X83808000Y68850000D01*
X74300000Y68890000D02*
X83688000Y68890000D01*
X74423000Y68930000D02*
X83565000Y68930000D01*
X74550000Y68970000D02*
X83438000Y68970000D01*
X74681000Y69010000D02*
X83307000Y69010000D01*
X74816000Y69050000D02*
X83172000Y69050000D01*
X74957000Y69090000D02*
X83031000Y69090000D01*
X75102000Y69130000D02*
X82886000Y69130000D01*
X75254000Y69170000D02*
X82734000Y69170000D01*
X75412000Y69210000D02*
X82576000Y69210000D01*
X75579000Y69250000D02*
X82409000Y69250000D01*
X75754000Y69290000D02*
X82234000Y69290000D01*
X75939000Y69330000D02*
X82049000Y69330000D01*
X76137000Y69370000D02*
X81851000Y69370000D01*
X76350000Y69410000D02*
X81638000Y69410000D01*
X76582000Y69450000D02*
X81406000Y69450000D01*
X76840000Y69490000D02*
X81148000Y69490000D01*
X77132000Y69530000D02*
X80856000Y69530000D01*
X77480000Y69570000D02*
X80508000Y69570000D01*
X77934000Y69610000D02*
X80054000Y69610000D01*
X78954000Y69650000D02*
X79034000Y69650000D01*
X70519000Y38350869D02*
X70519000Y41350869D01*
X69019000Y39850869D02*
X72019000Y39850869D01*
%TO.C,C9*%
X94660252Y68969000D02*
X96891748Y68969000D01*
X94660252Y62349000D02*
X96891748Y62349000D01*
%TO.C,C7*%
X71376000Y9424580D02*
X71376000Y9143420D01*
X70356000Y9424580D02*
X70356000Y9143420D01*
%TO.C,C6*%
X61132252Y68969000D02*
X63363748Y68969000D01*
X61132252Y62349000D02*
X63363748Y62349000D01*
%TO.C,C5*%
X68313000Y1543000D02*
X68313000Y3893000D01*
X68313000Y8363000D02*
X68313000Y6013000D01*
X62557437Y8363000D02*
X68313000Y8363000D01*
X62557437Y1543000D02*
X68313000Y1543000D01*
X61493000Y2607437D02*
X61493000Y3893000D01*
X61493000Y7298563D02*
X61493000Y6013000D01*
X61493000Y7298563D02*
X62557437Y8363000D01*
X61493000Y2607437D02*
X62557437Y1543000D01*
X60465500Y6800500D02*
X61253000Y6800500D01*
X60859250Y7194250D02*
X60859250Y6406750D01*
%TO.C,C4*%
X63754580Y19810000D02*
X63473420Y19810000D01*
X63754580Y20830000D02*
X63473420Y20830000D01*
%TO.C,C3*%
X63371252Y14896000D02*
X61948748Y14896000D01*
X63371252Y17616000D02*
X61948748Y17616000D01*
%TO.C,C2*%
X75566748Y17616000D02*
X76989252Y17616000D01*
X75566748Y14896000D02*
X76989252Y14896000D01*
%TO.C,C1*%
X75183420Y20830000D02*
X75464580Y20830000D01*
X75183420Y19810000D02*
X75464580Y19810000D01*
%TO.C,REF\u002A\u002A*%
D11*
X124396666Y5787620D02*
X124063333Y6263810D01*
X123825238Y5787620D02*
X123825238Y6787620D01*
X124206190Y6787620D01*
X124301428Y6740000D01*
X124349047Y6692381D01*
X124396666Y6597143D01*
X124396666Y6454286D01*
X124349047Y6359048D01*
X124301428Y6311429D01*
X124206190Y6263810D01*
X123825238Y6263810D01*
X124825238Y6311429D02*
X125158571Y6311429D01*
X125301428Y5787620D02*
X124825238Y5787620D01*
X124825238Y6787620D01*
X125301428Y6787620D01*
X126063333Y6311429D02*
X125730000Y6311429D01*
X125730000Y5787620D02*
X125730000Y6787620D01*
X126206190Y6787620D01*
X126730000Y6787620D02*
X126730000Y6549524D01*
X126491904Y6644762D02*
X126730000Y6549524D01*
X126968095Y6644762D01*
X126587142Y6359048D02*
X126730000Y6549524D01*
X126872857Y6359048D01*
X127491904Y6787620D02*
X127491904Y6549524D01*
X127253809Y6644762D02*
X127491904Y6549524D01*
X127730000Y6644762D01*
X127349047Y6359048D02*
X127491904Y6549524D01*
X127634761Y6359048D01*
X124396666Y71065620D02*
X124063333Y71541810D01*
X123825238Y71065620D02*
X123825238Y72065620D01*
X124206190Y72065620D01*
X124301428Y72018000D01*
X124349047Y71970381D01*
X124396666Y71875143D01*
X124396666Y71732286D01*
X124349047Y71637048D01*
X124301428Y71589429D01*
X124206190Y71541810D01*
X123825238Y71541810D01*
X124825238Y71589429D02*
X125158571Y71589429D01*
X125301428Y71065620D02*
X124825238Y71065620D01*
X124825238Y72065620D01*
X125301428Y72065620D01*
X126063333Y71589429D02*
X125730000Y71589429D01*
X125730000Y71065620D02*
X125730000Y72065620D01*
X126206190Y72065620D01*
X126730000Y72065620D02*
X126730000Y71827524D01*
X126491904Y71922762D02*
X126730000Y71827524D01*
X126968095Y71922762D01*
X126587142Y71637048D02*
X126730000Y71827524D01*
X126872857Y71637048D01*
X127491904Y72065620D02*
X127491904Y71827524D01*
X127253809Y71922762D02*
X127491904Y71827524D01*
X127730000Y71922762D01*
X127349047Y71637048D02*
X127491904Y71827524D01*
X127634761Y71637048D01*
X1206666Y71065620D02*
X873333Y71541810D01*
X635238Y71065620D02*
X635238Y72065620D01*
X1016190Y72065620D01*
X1111428Y72018000D01*
X1159047Y71970381D01*
X1206666Y71875143D01*
X1206666Y71732286D01*
X1159047Y71637048D01*
X1111428Y71589429D01*
X1016190Y71541810D01*
X635238Y71541810D01*
X1635238Y71589429D02*
X1968571Y71589429D01*
X2111428Y71065620D02*
X1635238Y71065620D01*
X1635238Y72065620D01*
X2111428Y72065620D01*
X2873333Y71589429D02*
X2540000Y71589429D01*
X2540000Y71065620D02*
X2540000Y72065620D01*
X3016190Y72065620D01*
X3540000Y72065620D02*
X3540000Y71827524D01*
X3301904Y71922762D02*
X3540000Y71827524D01*
X3778095Y71922762D01*
X3397142Y71637048D02*
X3540000Y71827524D01*
X3682857Y71637048D01*
X4301904Y72065620D02*
X4301904Y71827524D01*
X4063809Y71922762D02*
X4301904Y71827524D01*
X4540000Y71922762D01*
X4159047Y71637048D02*
X4301904Y71827524D01*
X4444761Y71637048D01*
%TO.C,C10*%
X29573142Y53887143D02*
X29620761Y53839524D01*
X29668380Y53696667D01*
X29668380Y53601429D01*
X29620761Y53458572D01*
X29525523Y53363334D01*
X29430285Y53315715D01*
X29239809Y53268096D01*
X29096952Y53268096D01*
X28906476Y53315715D01*
X28811238Y53363334D01*
X28716000Y53458572D01*
X28668380Y53601429D01*
X28668380Y53696667D01*
X28716000Y53839524D01*
X28763619Y53887143D01*
X29668380Y54839524D02*
X29668380Y54268096D01*
X29668380Y54553810D02*
X28668380Y54553810D01*
X28811238Y54458572D01*
X28906476Y54363334D01*
X28954095Y54268096D01*
X28668380Y55458572D02*
X28668380Y55553810D01*
X28716000Y55649048D01*
X28763619Y55696667D01*
X28858857Y55744286D01*
X29049333Y55791905D01*
X29287428Y55791905D01*
X29477904Y55744286D01*
X29573142Y55696667D01*
X29620761Y55649048D01*
X29668380Y55553810D01*
X29668380Y55458572D01*
X29620761Y55363334D01*
X29573142Y55315715D01*
X29477904Y55268096D01*
X29287428Y55220477D01*
X29049333Y55220477D01*
X28858857Y55268096D01*
X28763619Y55315715D01*
X28716000Y55363334D01*
X28668380Y55458572D01*
%TO.C,C15*%
X16763142Y59924858D02*
X16715523Y59877239D01*
X16572666Y59829620D01*
X16477428Y59829620D01*
X16334571Y59877239D01*
X16239333Y59972477D01*
X16191714Y60067715D01*
X16144095Y60258191D01*
X16144095Y60401048D01*
X16191714Y60591524D01*
X16239333Y60686762D01*
X16334571Y60782000D01*
X16477428Y60829620D01*
X16572666Y60829620D01*
X16715523Y60782000D01*
X16763142Y60734381D01*
X17715523Y59829620D02*
X17144095Y59829620D01*
X17429809Y59829620D02*
X17429809Y60829620D01*
X17334571Y60686762D01*
X17239333Y60591524D01*
X17144095Y60543905D01*
X18620285Y60829620D02*
X18144095Y60829620D01*
X18096476Y60353429D01*
X18144095Y60401048D01*
X18239333Y60448667D01*
X18477428Y60448667D01*
X18572666Y60401048D01*
X18620285Y60353429D01*
X18667904Y60258191D01*
X18667904Y60020096D01*
X18620285Y59924858D01*
X18572666Y59877239D01*
X18477428Y59829620D01*
X18239333Y59829620D01*
X18144095Y59877239D01*
X18096476Y59924858D01*
%TO.C,C8*%
X17225333Y49256858D02*
X17177714Y49209239D01*
X17034857Y49161620D01*
X16939619Y49161620D01*
X16796761Y49209239D01*
X16701523Y49304477D01*
X16653904Y49399715D01*
X16606285Y49590191D01*
X16606285Y49733048D01*
X16653904Y49923524D01*
X16701523Y50018762D01*
X16796761Y50114000D01*
X16939619Y50161620D01*
X17034857Y50161620D01*
X17177714Y50114000D01*
X17225333Y50066381D01*
X17796761Y49733048D02*
X17701523Y49780667D01*
X17653904Y49828286D01*
X17606285Y49923524D01*
X17606285Y49971143D01*
X17653904Y50066381D01*
X17701523Y50114000D01*
X17796761Y50161620D01*
X17987238Y50161620D01*
X18082476Y50114000D01*
X18130095Y50066381D01*
X18177714Y49971143D01*
X18177714Y49923524D01*
X18130095Y49828286D01*
X18082476Y49780667D01*
X17987238Y49733048D01*
X17796761Y49733048D01*
X17701523Y49685429D01*
X17653904Y49637810D01*
X17606285Y49542572D01*
X17606285Y49352096D01*
X17653904Y49256858D01*
X17701523Y49209239D01*
X17796761Y49161620D01*
X17987238Y49161620D01*
X18082476Y49209239D01*
X18130095Y49256858D01*
X18177714Y49352096D01*
X18177714Y49542572D01*
X18130095Y49637810D01*
X18082476Y49685429D01*
X17987238Y49733048D01*
%TO.C,J5*%
X93138666Y42794620D02*
X93138666Y42080334D01*
X93091047Y41937477D01*
X92995809Y41842239D01*
X92852952Y41794620D01*
X92757714Y41794620D01*
X94091047Y42794620D02*
X93614857Y42794620D01*
X93567238Y42318429D01*
X93614857Y42366048D01*
X93710095Y42413667D01*
X93948190Y42413667D01*
X94043428Y42366048D01*
X94091047Y42318429D01*
X94138666Y42223191D01*
X94138666Y41985096D01*
X94091047Y41889858D01*
X94043428Y41842239D01*
X93948190Y41794620D01*
X93710095Y41794620D01*
X93614857Y41842239D01*
X93567238Y41889858D01*
%TO.C,J3*%
X64563666Y42794620D02*
X64563666Y42080334D01*
X64516047Y41937477D01*
X64420809Y41842239D01*
X64277952Y41794620D01*
X64182714Y41794620D01*
X64944619Y42794620D02*
X65563666Y42794620D01*
X65230333Y42413667D01*
X65373190Y42413667D01*
X65468428Y42366048D01*
X65516047Y42318429D01*
X65563666Y42223191D01*
X65563666Y41985096D01*
X65516047Y41889858D01*
X65468428Y41842239D01*
X65373190Y41794620D01*
X65087476Y41794620D01*
X64992238Y41842239D01*
X64944619Y41889858D01*
%TO.C,R1*%
X67042380Y24917834D02*
X66566190Y24584500D01*
X67042380Y24346405D02*
X66042380Y24346405D01*
X66042380Y24727358D01*
X66090000Y24822596D01*
X66137619Y24870215D01*
X66232857Y24917834D01*
X66375714Y24917834D01*
X66470952Y24870215D01*
X66518571Y24822596D01*
X66566190Y24727358D01*
X66566190Y24346405D01*
X67042380Y25870215D02*
X67042380Y25298786D01*
X67042380Y25584500D02*
X66042380Y25584500D01*
X66185238Y25489262D01*
X66280476Y25394024D01*
X66328095Y25298786D01*
%TO.C,D7*%
X100862904Y9485620D02*
X100862904Y10485620D01*
X101101000Y10485620D01*
X101243857Y10438000D01*
X101339095Y10342762D01*
X101386714Y10247524D01*
X101434333Y10057048D01*
X101434333Y9914191D01*
X101386714Y9723715D01*
X101339095Y9628477D01*
X101243857Y9533239D01*
X101101000Y9485620D01*
X100862904Y9485620D01*
X101767666Y10485620D02*
X102434333Y10485620D01*
X102005761Y9485620D01*
%TO.C,D5*%
X110434380Y24279905D02*
X109434380Y24279905D01*
X109434380Y24518000D01*
X109482000Y24660858D01*
X109577238Y24756096D01*
X109672476Y24803715D01*
X109862952Y24851334D01*
X110005809Y24851334D01*
X110196285Y24803715D01*
X110291523Y24756096D01*
X110386761Y24660858D01*
X110434380Y24518000D01*
X110434380Y24279905D01*
X109434380Y25756096D02*
X109434380Y25279905D01*
X109910571Y25232286D01*
X109862952Y25279905D01*
X109815333Y25375143D01*
X109815333Y25613239D01*
X109862952Y25708477D01*
X109910571Y25756096D01*
X110005809Y25803715D01*
X110243904Y25803715D01*
X110339142Y25756096D01*
X110386761Y25708477D01*
X110434380Y25613239D01*
X110434380Y25375143D01*
X110386761Y25279905D01*
X110339142Y25232286D01*
%TO.C,D6*%
X125166380Y20977905D02*
X124166380Y20977905D01*
X124166380Y21216000D01*
X124214000Y21358858D01*
X124309238Y21454096D01*
X124404476Y21501715D01*
X124594952Y21549334D01*
X124737809Y21549334D01*
X124928285Y21501715D01*
X125023523Y21454096D01*
X125118761Y21358858D01*
X125166380Y21216000D01*
X125166380Y20977905D01*
X124166380Y22406477D02*
X124166380Y22216000D01*
X124214000Y22120762D01*
X124261619Y22073143D01*
X124404476Y21977905D01*
X124594952Y21930286D01*
X124975904Y21930286D01*
X125071142Y21977905D01*
X125118761Y22025524D01*
X125166380Y22120762D01*
X125166380Y22311239D01*
X125118761Y22406477D01*
X125071142Y22454096D01*
X124975904Y22501715D01*
X124737809Y22501715D01*
X124642571Y22454096D01*
X124594952Y22406477D01*
X124547333Y22311239D01*
X124547333Y22120762D01*
X124594952Y22025524D01*
X124642571Y21977905D01*
X124737809Y21930286D01*
%TO.C,U2*%
X104637380Y16510096D02*
X105446904Y16510096D01*
X105542142Y16557715D01*
X105589761Y16605334D01*
X105637380Y16700572D01*
X105637380Y16891048D01*
X105589761Y16986286D01*
X105542142Y17033905D01*
X105446904Y17081524D01*
X104637380Y17081524D01*
X104732619Y17510096D02*
X104685000Y17557715D01*
X104637380Y17652953D01*
X104637380Y17891048D01*
X104685000Y17986286D01*
X104732619Y18033905D01*
X104827857Y18081524D01*
X104923095Y18081524D01*
X105065952Y18033905D01*
X105637380Y17462477D01*
X105637380Y18081524D01*
%TO.C,Q3*%
X98064761Y29022381D02*
X97969523Y29070000D01*
X97874285Y29165239D01*
X97731428Y29308096D01*
X97636190Y29355715D01*
X97540952Y29355715D01*
X97588571Y29117620D02*
X97493333Y29165239D01*
X97398095Y29260477D01*
X97350476Y29450953D01*
X97350476Y29784286D01*
X97398095Y29974762D01*
X97493333Y30070000D01*
X97588571Y30117620D01*
X97779047Y30117620D01*
X97874285Y30070000D01*
X97969523Y29974762D01*
X98017142Y29784286D01*
X98017142Y29450953D01*
X97969523Y29260477D01*
X97874285Y29165239D01*
X97779047Y29117620D01*
X97588571Y29117620D01*
X98350476Y30117620D02*
X98969523Y30117620D01*
X98636190Y29736667D01*
X98779047Y29736667D01*
X98874285Y29689048D01*
X98921904Y29641429D01*
X98969523Y29546191D01*
X98969523Y29308096D01*
X98921904Y29212858D01*
X98874285Y29165239D01*
X98779047Y29117620D01*
X98493333Y29117620D01*
X98398095Y29165239D01*
X98350476Y29212858D01*
%TO.C,Q4*%
X117622761Y29022381D02*
X117527523Y29070000D01*
X117432285Y29165239D01*
X117289428Y29308096D01*
X117194190Y29355715D01*
X117098952Y29355715D01*
X117146571Y29117620D02*
X117051333Y29165239D01*
X116956095Y29260477D01*
X116908476Y29450953D01*
X116908476Y29784286D01*
X116956095Y29974762D01*
X117051333Y30070000D01*
X117146571Y30117620D01*
X117337047Y30117620D01*
X117432285Y30070000D01*
X117527523Y29974762D01*
X117575142Y29784286D01*
X117575142Y29450953D01*
X117527523Y29260477D01*
X117432285Y29165239D01*
X117337047Y29117620D01*
X117146571Y29117620D01*
X118432285Y29784286D02*
X118432285Y29117620D01*
X118194190Y30165239D02*
X117956095Y29450953D01*
X118575142Y29450953D01*
%TO.C,R3*%
X106158380Y24917834D02*
X105682190Y24584500D01*
X106158380Y24346405D02*
X105158380Y24346405D01*
X105158380Y24727358D01*
X105206000Y24822596D01*
X105253619Y24870215D01*
X105348857Y24917834D01*
X105491714Y24917834D01*
X105586952Y24870215D01*
X105634571Y24822596D01*
X105682190Y24727358D01*
X105682190Y24346405D01*
X105158380Y25251167D02*
X105158380Y25870215D01*
X105539333Y25536881D01*
X105539333Y25679739D01*
X105586952Y25774977D01*
X105634571Y25822596D01*
X105729809Y25870215D01*
X105967904Y25870215D01*
X106063142Y25822596D01*
X106110761Y25774977D01*
X106158380Y25679739D01*
X106158380Y25394024D01*
X106110761Y25298786D01*
X106063142Y25251167D01*
%TO.C,R4*%
X121017380Y21615834D02*
X120541190Y21282500D01*
X121017380Y21044405D02*
X120017380Y21044405D01*
X120017380Y21425358D01*
X120065000Y21520596D01*
X120112619Y21568215D01*
X120207857Y21615834D01*
X120350714Y21615834D01*
X120445952Y21568215D01*
X120493571Y21520596D01*
X120541190Y21425358D01*
X120541190Y21044405D01*
X120350714Y22472977D02*
X121017380Y22472977D01*
X119969761Y22234881D02*
X120684047Y21996786D01*
X120684047Y22615834D01*
%TO.C,C16*%
X114751142Y18198858D02*
X114703523Y18151239D01*
X114560666Y18103620D01*
X114465428Y18103620D01*
X114322571Y18151239D01*
X114227333Y18246477D01*
X114179714Y18341715D01*
X114132095Y18532191D01*
X114132095Y18675048D01*
X114179714Y18865524D01*
X114227333Y18960762D01*
X114322571Y19056000D01*
X114465428Y19103620D01*
X114560666Y19103620D01*
X114703523Y19056000D01*
X114751142Y19008381D01*
X115703523Y18103620D02*
X115132095Y18103620D01*
X115417809Y18103620D02*
X115417809Y19103620D01*
X115322571Y18960762D01*
X115227333Y18865524D01*
X115132095Y18817905D01*
X116560666Y19103620D02*
X116370190Y19103620D01*
X116274952Y19056000D01*
X116227333Y19008381D01*
X116132095Y18865524D01*
X116084476Y18675048D01*
X116084476Y18294096D01*
X116132095Y18198858D01*
X116179714Y18151239D01*
X116274952Y18103620D01*
X116465428Y18103620D01*
X116560666Y18151239D01*
X116608285Y18198858D01*
X116655904Y18294096D01*
X116655904Y18532191D01*
X116608285Y18627429D01*
X116560666Y18675048D01*
X116465428Y18722667D01*
X116274952Y18722667D01*
X116179714Y18675048D01*
X116132095Y18627429D01*
X116084476Y18532191D01*
%TO.C,C17*%
X113797142Y21392858D02*
X113749523Y21345239D01*
X113606666Y21297620D01*
X113511428Y21297620D01*
X113368571Y21345239D01*
X113273333Y21440477D01*
X113225714Y21535715D01*
X113178095Y21726191D01*
X113178095Y21869048D01*
X113225714Y22059524D01*
X113273333Y22154762D01*
X113368571Y22250000D01*
X113511428Y22297620D01*
X113606666Y22297620D01*
X113749523Y22250000D01*
X113797142Y22202381D01*
X114749523Y21297620D02*
X114178095Y21297620D01*
X114463809Y21297620D02*
X114463809Y22297620D01*
X114368571Y22154762D01*
X114273333Y22059524D01*
X114178095Y22011905D01*
X115082857Y22297620D02*
X115749523Y22297620D01*
X115320952Y21297620D01*
%TO.C,C14*%
X101133142Y13598858D02*
X101085523Y13551239D01*
X100942666Y13503620D01*
X100847428Y13503620D01*
X100704571Y13551239D01*
X100609333Y13646477D01*
X100561714Y13741715D01*
X100514095Y13932191D01*
X100514095Y14075048D01*
X100561714Y14265524D01*
X100609333Y14360762D01*
X100704571Y14456000D01*
X100847428Y14503620D01*
X100942666Y14503620D01*
X101085523Y14456000D01*
X101133142Y14408381D01*
X102085523Y13503620D02*
X101514095Y13503620D01*
X101799809Y13503620D02*
X101799809Y14503620D01*
X101704571Y14360762D01*
X101609333Y14265524D01*
X101514095Y14217905D01*
X102942666Y14170286D02*
X102942666Y13503620D01*
X102704571Y14551239D02*
X102466476Y13836953D01*
X103085523Y13836953D01*
%TO.C,C12*%
X102087142Y18532858D02*
X102039523Y18485239D01*
X101896666Y18437620D01*
X101801428Y18437620D01*
X101658571Y18485239D01*
X101563333Y18580477D01*
X101515714Y18675715D01*
X101468095Y18866191D01*
X101468095Y19009048D01*
X101515714Y19199524D01*
X101563333Y19294762D01*
X101658571Y19390000D01*
X101801428Y19437620D01*
X101896666Y19437620D01*
X102039523Y19390000D01*
X102087142Y19342381D01*
X103039523Y18437620D02*
X102468095Y18437620D01*
X102753809Y18437620D02*
X102753809Y19437620D01*
X102658571Y19294762D01*
X102563333Y19199524D01*
X102468095Y19151905D01*
X103420476Y19342381D02*
X103468095Y19390000D01*
X103563333Y19437620D01*
X103801428Y19437620D01*
X103896666Y19390000D01*
X103944285Y19342381D01*
X103991904Y19247143D01*
X103991904Y19151905D01*
X103944285Y19009048D01*
X103372857Y18437620D01*
X103991904Y18437620D01*
%TO.C,R2*%
X81901380Y21615834D02*
X81425190Y21282500D01*
X81901380Y21044405D02*
X80901380Y21044405D01*
X80901380Y21425358D01*
X80949000Y21520596D01*
X80996619Y21568215D01*
X81091857Y21615834D01*
X81234714Y21615834D01*
X81329952Y21568215D01*
X81377571Y21520596D01*
X81425190Y21425358D01*
X81425190Y21044405D01*
X80996619Y21996786D02*
X80949000Y22044405D01*
X80901380Y22139643D01*
X80901380Y22377739D01*
X80949000Y22472977D01*
X80996619Y22520596D01*
X81091857Y22568215D01*
X81187095Y22568215D01*
X81329952Y22520596D01*
X81901380Y21949167D01*
X81901380Y22568215D01*
%TO.C,U1*%
X65521380Y16510096D02*
X66330904Y16510096D01*
X66426142Y16557715D01*
X66473761Y16605334D01*
X66521380Y16700572D01*
X66521380Y16891048D01*
X66473761Y16986286D01*
X66426142Y17033905D01*
X66330904Y17081524D01*
X65521380Y17081524D01*
X66521380Y18081524D02*
X66521380Y17510096D01*
X66521380Y17795810D02*
X65521380Y17795810D01*
X65664238Y17700572D01*
X65759476Y17605334D01*
X65807095Y17510096D01*
%TO.C,Q2*%
X78506761Y29022381D02*
X78411523Y29070000D01*
X78316285Y29165239D01*
X78173428Y29308096D01*
X78078190Y29355715D01*
X77982952Y29355715D01*
X78030571Y29117620D02*
X77935333Y29165239D01*
X77840095Y29260477D01*
X77792476Y29450953D01*
X77792476Y29784286D01*
X77840095Y29974762D01*
X77935333Y30070000D01*
X78030571Y30117620D01*
X78221047Y30117620D01*
X78316285Y30070000D01*
X78411523Y29974762D01*
X78459142Y29784286D01*
X78459142Y29450953D01*
X78411523Y29260477D01*
X78316285Y29165239D01*
X78221047Y29117620D01*
X78030571Y29117620D01*
X78840095Y30022381D02*
X78887714Y30070000D01*
X78982952Y30117620D01*
X79221047Y30117620D01*
X79316285Y30070000D01*
X79363904Y30022381D01*
X79411523Y29927143D01*
X79411523Y29831905D01*
X79363904Y29689048D01*
X78792476Y29117620D01*
X79411523Y29117620D01*
%TO.C,Q1*%
X58948761Y29022381D02*
X58853523Y29070000D01*
X58758285Y29165239D01*
X58615428Y29308096D01*
X58520190Y29355715D01*
X58424952Y29355715D01*
X58472571Y29117620D02*
X58377333Y29165239D01*
X58282095Y29260477D01*
X58234476Y29450953D01*
X58234476Y29784286D01*
X58282095Y29974762D01*
X58377333Y30070000D01*
X58472571Y30117620D01*
X58663047Y30117620D01*
X58758285Y30070000D01*
X58853523Y29974762D01*
X58901142Y29784286D01*
X58901142Y29450953D01*
X58853523Y29260477D01*
X58758285Y29165239D01*
X58663047Y29117620D01*
X58472571Y29117620D01*
X59853523Y29117620D02*
X59282095Y29117620D01*
X59567809Y29117620D02*
X59567809Y30117620D01*
X59472571Y29974762D01*
X59377333Y29879524D01*
X59282095Y29831905D01*
%TO.C,PS1*%
X36191714Y26877620D02*
X36191714Y27877620D01*
X36572666Y27877620D01*
X36667904Y27830000D01*
X36715523Y27782381D01*
X36763142Y27687143D01*
X36763142Y27544286D01*
X36715523Y27449048D01*
X36667904Y27401429D01*
X36572666Y27353810D01*
X36191714Y27353810D01*
X37144095Y26925239D02*
X37286952Y26877620D01*
X37525047Y26877620D01*
X37620285Y26925239D01*
X37667904Y26972858D01*
X37715523Y27068096D01*
X37715523Y27163334D01*
X37667904Y27258572D01*
X37620285Y27306191D01*
X37525047Y27353810D01*
X37334571Y27401429D01*
X37239333Y27449048D01*
X37191714Y27496667D01*
X37144095Y27591905D01*
X37144095Y27687143D01*
X37191714Y27782381D01*
X37239333Y27830000D01*
X37334571Y27877620D01*
X37572666Y27877620D01*
X37715523Y27830000D01*
X38667904Y26877620D02*
X38096476Y26877620D01*
X38382190Y26877620D02*
X38382190Y27877620D01*
X38286952Y27734762D01*
X38191714Y27639524D01*
X38096476Y27591905D01*
%TO.C,J4*%
X105160380Y2968667D02*
X105874666Y2968667D01*
X106017523Y2921048D01*
X106112761Y2825810D01*
X106160380Y2682953D01*
X106160380Y2587715D01*
X105493714Y3873429D02*
X106160380Y3873429D01*
X105112761Y3635334D02*
X105827047Y3397239D01*
X105827047Y4016286D01*
%TO.C,J2*%
X5556666Y44025620D02*
X5556666Y43311334D01*
X5509047Y43168477D01*
X5413809Y43073239D01*
X5270952Y43025620D01*
X5175714Y43025620D01*
X5985238Y43930381D02*
X6032857Y43978000D01*
X6128095Y44025620D01*
X6366190Y44025620D01*
X6461428Y43978000D01*
X6509047Y43930381D01*
X6556666Y43835143D01*
X6556666Y43739905D01*
X6509047Y43597048D01*
X5937619Y43025620D01*
X6556666Y43025620D01*
%TO.C,J1*%
X73576380Y2968667D02*
X74290666Y2968667D01*
X74433523Y2921048D01*
X74528761Y2825810D01*
X74576380Y2682953D01*
X74576380Y2587715D01*
X74576380Y3968667D02*
X74576380Y3397239D01*
X74576380Y3682953D02*
X73576380Y3682953D01*
X73719238Y3587715D01*
X73814476Y3492477D01*
X73862095Y3397239D01*
%TO.C,F1*%
X9326571Y19986667D02*
X9326571Y19653334D01*
X9850380Y19653334D02*
X8850380Y19653334D01*
X8850380Y20129524D01*
X9850380Y21034286D02*
X9850380Y20462858D01*
X9850380Y20748572D02*
X8850380Y20748572D01*
X8993238Y20653334D01*
X9088476Y20558096D01*
X9136095Y20462858D01*
%TO.C,D4*%
X30803904Y36367620D02*
X30803904Y37367620D01*
X31042000Y37367620D01*
X31184857Y37320000D01*
X31280095Y37224762D01*
X31327714Y37129524D01*
X31375333Y36939048D01*
X31375333Y36796191D01*
X31327714Y36605715D01*
X31280095Y36510477D01*
X31184857Y36415239D01*
X31042000Y36367620D01*
X30803904Y36367620D01*
X32232476Y37034286D02*
X32232476Y36367620D01*
X31994380Y37415239D02*
X31756285Y36700953D01*
X32375333Y36700953D01*
%TO.C,D3*%
X86050380Y20977905D02*
X85050380Y20977905D01*
X85050380Y21216000D01*
X85098000Y21358858D01*
X85193238Y21454096D01*
X85288476Y21501715D01*
X85478952Y21549334D01*
X85621809Y21549334D01*
X85812285Y21501715D01*
X85907523Y21454096D01*
X86002761Y21358858D01*
X86050380Y21216000D01*
X86050380Y20977905D01*
X85050380Y21882667D02*
X85050380Y22501715D01*
X85431333Y22168381D01*
X85431333Y22311239D01*
X85478952Y22406477D01*
X85526571Y22454096D01*
X85621809Y22501715D01*
X85859904Y22501715D01*
X85955142Y22454096D01*
X86002761Y22406477D01*
X86050380Y22311239D01*
X86050380Y22025524D01*
X86002761Y21930286D01*
X85955142Y21882667D01*
%TO.C,D2*%
X71318380Y24279905D02*
X70318380Y24279905D01*
X70318380Y24518000D01*
X70366000Y24660858D01*
X70461238Y24756096D01*
X70556476Y24803715D01*
X70746952Y24851334D01*
X70889809Y24851334D01*
X71080285Y24803715D01*
X71175523Y24756096D01*
X71270761Y24660858D01*
X71318380Y24518000D01*
X71318380Y24279905D01*
X70413619Y25232286D02*
X70366000Y25279905D01*
X70318380Y25375143D01*
X70318380Y25613239D01*
X70366000Y25708477D01*
X70413619Y25756096D01*
X70508857Y25803715D01*
X70604095Y25803715D01*
X70746952Y25756096D01*
X71318380Y25184667D01*
X71318380Y25803715D01*
%TO.C,D1*%
X61746904Y9485620D02*
X61746904Y10485620D01*
X61985000Y10485620D01*
X62127857Y10438000D01*
X62223095Y10342762D01*
X62270714Y10247524D01*
X62318333Y10057048D01*
X62318333Y9914191D01*
X62270714Y9723715D01*
X62223095Y9628477D01*
X62127857Y9533239D01*
X61985000Y9485620D01*
X61746904Y9485620D01*
X63270714Y9485620D02*
X62699285Y9485620D01*
X62985000Y9485620D02*
X62985000Y10485620D01*
X62889761Y10342762D01*
X62794523Y10247524D01*
X62699285Y10199905D01*
%TO.C,C13*%
X96629142Y53887143D02*
X96676761Y53839524D01*
X96724380Y53696667D01*
X96724380Y53601429D01*
X96676761Y53458572D01*
X96581523Y53363334D01*
X96486285Y53315715D01*
X96295809Y53268096D01*
X96152952Y53268096D01*
X95962476Y53315715D01*
X95867238Y53363334D01*
X95772000Y53458572D01*
X95724380Y53601429D01*
X95724380Y53696667D01*
X95772000Y53839524D01*
X95819619Y53887143D01*
X96724380Y54839524D02*
X96724380Y54268096D01*
X96724380Y54553810D02*
X95724380Y54553810D01*
X95867238Y54458572D01*
X95962476Y54363334D01*
X96010095Y54268096D01*
X95724380Y55172858D02*
X95724380Y55791905D01*
X96105333Y55458572D01*
X96105333Y55601429D01*
X96152952Y55696667D01*
X96200571Y55744286D01*
X96295809Y55791905D01*
X96533904Y55791905D01*
X96629142Y55744286D01*
X96676761Y55696667D01*
X96724380Y55601429D01*
X96724380Y55315715D01*
X96676761Y55220477D01*
X96629142Y55172858D01*
%TO.C,C11*%
X63101142Y53887143D02*
X63148761Y53839524D01*
X63196380Y53696667D01*
X63196380Y53601429D01*
X63148761Y53458572D01*
X63053523Y53363334D01*
X62958285Y53315715D01*
X62767809Y53268096D01*
X62624952Y53268096D01*
X62434476Y53315715D01*
X62339238Y53363334D01*
X62244000Y53458572D01*
X62196380Y53601429D01*
X62196380Y53696667D01*
X62244000Y53839524D01*
X62291619Y53887143D01*
X63196380Y54839524D02*
X63196380Y54268096D01*
X63196380Y54553810D02*
X62196380Y54553810D01*
X62339238Y54458572D01*
X62434476Y54363334D01*
X62482095Y54268096D01*
X63196380Y55791905D02*
X63196380Y55220477D01*
X63196380Y55506191D02*
X62196380Y55506191D01*
X62339238Y55410953D01*
X62434476Y55315715D01*
X62482095Y55220477D01*
%TO.C,C9*%
X99655333Y68222858D02*
X99607714Y68175239D01*
X99464857Y68127620D01*
X99369619Y68127620D01*
X99226761Y68175239D01*
X99131523Y68270477D01*
X99083904Y68365715D01*
X99036285Y68556191D01*
X99036285Y68699048D01*
X99083904Y68889524D01*
X99131523Y68984762D01*
X99226761Y69080000D01*
X99369619Y69127620D01*
X99464857Y69127620D01*
X99607714Y69080000D01*
X99655333Y69032381D01*
X100131523Y68127620D02*
X100322000Y68127620D01*
X100417238Y68175239D01*
X100464857Y68222858D01*
X100560095Y68365715D01*
X100607714Y68556191D01*
X100607714Y68937143D01*
X100560095Y69032381D01*
X100512476Y69080000D01*
X100417238Y69127620D01*
X100226761Y69127620D01*
X100131523Y69080000D01*
X100083904Y69032381D01*
X100036285Y68937143D01*
X100036285Y68699048D01*
X100083904Y68603810D01*
X100131523Y68556191D01*
X100226761Y68508572D01*
X100417238Y68508572D01*
X100512476Y68556191D01*
X100560095Y68603810D01*
X100607714Y68699048D01*
%TO.C,C7*%
X72653142Y9117334D02*
X72700761Y9069715D01*
X72748380Y8926858D01*
X72748380Y8831620D01*
X72700761Y8688762D01*
X72605523Y8593524D01*
X72510285Y8545905D01*
X72319809Y8498286D01*
X72176952Y8498286D01*
X71986476Y8545905D01*
X71891238Y8593524D01*
X71796000Y8688762D01*
X71748380Y8831620D01*
X71748380Y8926858D01*
X71796000Y9069715D01*
X71843619Y9117334D01*
X71748380Y9450667D02*
X71748380Y10117334D01*
X72748380Y9688762D01*
%TO.C,C6*%
X66127333Y68222858D02*
X66079714Y68175239D01*
X65936857Y68127620D01*
X65841619Y68127620D01*
X65698761Y68175239D01*
X65603523Y68270477D01*
X65555904Y68365715D01*
X65508285Y68556191D01*
X65508285Y68699048D01*
X65555904Y68889524D01*
X65603523Y68984762D01*
X65698761Y69080000D01*
X65841619Y69127620D01*
X65936857Y69127620D01*
X66079714Y69080000D01*
X66127333Y69032381D01*
X66984476Y69127620D02*
X66794000Y69127620D01*
X66698761Y69080000D01*
X66651142Y69032381D01*
X66555904Y68889524D01*
X66508285Y68699048D01*
X66508285Y68318096D01*
X66555904Y68222858D01*
X66603523Y68175239D01*
X66698761Y68127620D01*
X66889238Y68127620D01*
X66984476Y68175239D01*
X67032095Y68222858D01*
X67079714Y68318096D01*
X67079714Y68556191D01*
X67032095Y68651429D01*
X66984476Y68699048D01*
X66889238Y68746667D01*
X66698761Y68746667D01*
X66603523Y68699048D01*
X66555904Y68651429D01*
X66508285Y68556191D01*
%TO.C,C5*%
X64736333Y8945858D02*
X64688714Y8898239D01*
X64545857Y8850620D01*
X64450619Y8850620D01*
X64307761Y8898239D01*
X64212523Y8993477D01*
X64164904Y9088715D01*
X64117285Y9279191D01*
X64117285Y9422048D01*
X64164904Y9612524D01*
X64212523Y9707762D01*
X64307761Y9803000D01*
X64450619Y9850620D01*
X64545857Y9850620D01*
X64688714Y9803000D01*
X64736333Y9755381D01*
X65641095Y9850620D02*
X65164904Y9850620D01*
X65117285Y9374429D01*
X65164904Y9422048D01*
X65260142Y9469667D01*
X65498238Y9469667D01*
X65593476Y9422048D01*
X65641095Y9374429D01*
X65688714Y9279191D01*
X65688714Y9041096D01*
X65641095Y8945858D01*
X65593476Y8898239D01*
X65498238Y8850620D01*
X65260142Y8850620D01*
X65164904Y8898239D01*
X65117285Y8945858D01*
%TO.C,C4*%
X63447333Y18532858D02*
X63399714Y18485239D01*
X63256857Y18437620D01*
X63161619Y18437620D01*
X63018761Y18485239D01*
X62923523Y18580477D01*
X62875904Y18675715D01*
X62828285Y18866191D01*
X62828285Y19009048D01*
X62875904Y19199524D01*
X62923523Y19294762D01*
X63018761Y19390000D01*
X63161619Y19437620D01*
X63256857Y19437620D01*
X63399714Y19390000D01*
X63447333Y19342381D01*
X64304476Y19104286D02*
X64304476Y18437620D01*
X64066380Y19485239D02*
X63828285Y18770953D01*
X64447333Y18770953D01*
%TO.C,C3*%
X62493333Y13598858D02*
X62445714Y13551239D01*
X62302857Y13503620D01*
X62207619Y13503620D01*
X62064761Y13551239D01*
X61969523Y13646477D01*
X61921904Y13741715D01*
X61874285Y13932191D01*
X61874285Y14075048D01*
X61921904Y14265524D01*
X61969523Y14360762D01*
X62064761Y14456000D01*
X62207619Y14503620D01*
X62302857Y14503620D01*
X62445714Y14456000D01*
X62493333Y14408381D01*
X62826666Y14503620D02*
X63445714Y14503620D01*
X63112380Y14122667D01*
X63255238Y14122667D01*
X63350476Y14075048D01*
X63398095Y14027429D01*
X63445714Y13932191D01*
X63445714Y13694096D01*
X63398095Y13598858D01*
X63350476Y13551239D01*
X63255238Y13503620D01*
X62969523Y13503620D01*
X62874285Y13551239D01*
X62826666Y13598858D01*
%TO.C,C2*%
X76111333Y18198858D02*
X76063714Y18151239D01*
X75920857Y18103620D01*
X75825619Y18103620D01*
X75682761Y18151239D01*
X75587523Y18246477D01*
X75539904Y18341715D01*
X75492285Y18532191D01*
X75492285Y18675048D01*
X75539904Y18865524D01*
X75587523Y18960762D01*
X75682761Y19056000D01*
X75825619Y19103620D01*
X75920857Y19103620D01*
X76063714Y19056000D01*
X76111333Y19008381D01*
X76492285Y19008381D02*
X76539904Y19056000D01*
X76635142Y19103620D01*
X76873238Y19103620D01*
X76968476Y19056000D01*
X77016095Y19008381D01*
X77063714Y18913143D01*
X77063714Y18817905D01*
X77016095Y18675048D01*
X76444666Y18103620D01*
X77063714Y18103620D01*
%TO.C,C1*%
X75157333Y21392858D02*
X75109714Y21345239D01*
X74966857Y21297620D01*
X74871619Y21297620D01*
X74728761Y21345239D01*
X74633523Y21440477D01*
X74585904Y21535715D01*
X74538285Y21726191D01*
X74538285Y21869048D01*
X74585904Y22059524D01*
X74633523Y22154762D01*
X74728761Y22250000D01*
X74871619Y22297620D01*
X74966857Y22297620D01*
X75109714Y22250000D01*
X75157333Y22202381D01*
X76109714Y21297620D02*
X75538285Y21297620D01*
X75824000Y21297620D02*
X75824000Y22297620D01*
X75728761Y22154762D01*
X75633523Y22059524D01*
X75538285Y22011905D01*
%TD*%
M02*
