M48
; DRILL file {KiCad (5.1.9)-1} date 03/07/21 17:17:41
; FORMAT={-:-/ absolute / metric / decimal}
; #@! TF.CreationDate,2021-03-07T17:17:41-08:00
; #@! TF.GenerationSoftware,Kicad,Pcbnew,(5.1.9)-1
FMAT,2
METRIC
T1C0.400
T2C0.600
T3C1.000
T4C1.200
T5C1.500
T6C2.000
T7C2.100
%
G90
G05
T1
X2.794Y33.02
X2.794Y25.4
X2.794Y17.78
X4.064Y66.04
X4.064Y58.42
X4.064Y50.8
X5.334Y29.21
X5.334Y21.59
X7.874Y33.02
X7.874Y25.4
X9.144Y21.59
X10.414Y17.78
X11.684Y66.04
X11.684Y58.42
X11.684Y50.8
X15.494Y35.56
X15.494Y30.48
X19.304Y66.04
X19.304Y58.42
X19.304Y50.8
X26.924Y66.04
X26.924Y58.42
X26.924Y50.8
X34.544Y66.04
X34.544Y58.42
X34.544Y50.8
X35.814Y15.24
X35.814Y5.08
X36.83Y20.32
X37.338Y25.4
X37.592Y10.16
X43.434Y15.24
X43.434Y5.08
X44.704Y20.32
X45.212Y10.16
X45.72Y25.4
X48.514Y15.24
X48.514Y3.81
X51.054Y20.32
X54.356Y23.622
X56.134Y17.78
X58.674Y8.89
X61.214Y26.67
X61.214Y16.256
X62.865Y20.32
X65.024Y7.62
X65.024Y2.54
X66.294Y17.272
X66.548Y11.938
X67.564Y14.732
X67.564Y5.08
X68.834Y17.272
X68.834Y14.732
X70.104Y19.812
X70.104Y17.272
X70.104Y7.62
X71.374Y3.81
X72.644Y27.94
X72.644Y22.86
X72.644Y17.272
X74.803Y16.256
X74.803Y11.43
X75.184Y25.4
X75.565Y8.001
X77.216Y6.731
X78.74Y27.94
X78.994Y10.16
X82.804Y10.16
X84.328Y15.494
X84.455Y6.731
X85.344Y5.461
X86.614Y26.67
X86.614Y10.16
X88.9Y19.558
X89.154Y13.97
X91.694Y26.67
X92.456Y10.16
X93.726Y18.796
X94.234Y10.16
X94.488Y22.86
X95.758Y5.461
X96.012Y10.16
X96.52Y15.494
X99.822Y27.686
X100.33Y16.256
X100.584Y7.62
X101.856Y10.033
X101.981Y20.32
X105.156Y11.938
X105.41Y17.272
X106.68Y14.732
X106.68Y5.842
X107.95Y17.272
X109.22Y19.812
X109.22Y17.272
X111.76Y17.272
X112.014Y27.94
X112.014Y22.86
X113.538Y7.62
X113.538Y3.81
X113.919Y16.256
X113.919Y11.43
X114.554Y25.4
X117.856Y27.94
X120.142Y7.62
X120.142Y3.81
X122.174Y11.43
X124.714Y14.732
X125.222Y27.94
X125.73Y8.89
X125.73Y3.81
X125.984Y24.13
X125.984Y19.05
T2
X62.357Y42.037
X62.357Y39.497
X62.357Y36.957
X64.262Y67.818
X64.262Y65.659
X64.262Y63.5
X64.897Y42.037
X64.897Y36.957
X67.437Y42.037
X67.437Y39.497
X67.437Y36.957
X97.79Y67.818
X97.79Y65.659
X97.79Y63.5
X103.505Y42.037
X103.505Y40.767
X103.505Y39.497
X103.505Y38.227
X103.505Y36.957
X104.775Y42.037
X104.775Y40.767
X104.775Y39.497
X104.775Y38.227
X104.775Y36.957
X106.045Y42.037
X106.045Y40.767
X106.045Y39.497
X106.045Y38.227
X106.045Y36.957
X107.315Y42.037
X107.315Y40.767
X107.315Y39.497
X107.315Y38.227
X107.315Y36.957
X108.585Y42.037
X108.585Y40.767
X108.585Y39.497
X108.585Y38.227
X108.585Y36.957
T3
X18.942Y33.02
X26.442Y33.02
X33.942Y33.02
X43.942Y33.02
X76.454Y3.302
X78.994Y3.302
X81.534Y3.302
X84.074Y3.302
X86.614Y3.302
X89.154Y3.302
X95.758Y3.302
X98.298Y3.302
X100.838Y3.302
X103.378Y3.302
T4
X4.318Y39.54
X4.318Y2.54
T5
X14.986Y15.45
X14.986Y4.7
X53.486Y12.7
X53.486Y4.7
X53.594Y33.02
X59.044Y33.02
X64.494Y33.02
X73.152Y33.02
X78.602Y33.02
X84.052Y33.02
X92.71Y33.02
X98.16Y33.02
X103.61Y33.02
X112.268Y33.02
X117.718Y33.02
X123.168Y33.02
T6
X45.466Y59.53
X45.466Y49.53
X78.994Y59.53
X78.994Y49.53
X112.522Y59.53
X112.522Y49.53
T7
X2.89Y46.228
X8.89Y46.228
X64.897Y39.497
X93.472Y39.497
T0
M30
